 <!DOCTYPE svg PUBLIC "-//W3C//DTD SVG 1.1//EN" "http://www.w3.org/Graphics/SVG/1.1/DTD/svg11.dtd">
<svg id="b294bd3f-ea09-44a1-afb1-3eff69fcc07b" data-name="Layer 1" xmlns="http://www.w3.org/2000/svg" width="865.76" height="682.89" viewBox="0 0 865.76 682.89">
<defs>
<style xmlns="http://www.w3.org/1999/xhtml">*, ::after, ::before { box-sizing: border-box; }
img, svg { vertical-align: middle; }
</style>
<style xmlns="http://www.w3.org/1999/xhtml">*, body, html { -webkit-font-smoothing: antialiased; }
img, svg { max-width: 100%; }
</style>
</defs>
<path d="M297.33,591.84l-185.11,1.57-15.69-1c7.33-135.43,52-164.09,52-164.09l108.6,4.85C296.5,490.36,297.33,591.84,297.33,591.84Z" fill="#2f2e41" data-secondary="true"/>
<path d="M350,399.71l-18.47,39.57-44-8.35-8.36-52.77-22,55-108.6-4.85-22-108.16L110.75,438,71.18,452.48l-29-16.63a7.32,7.32,0,0,1-3.64-7.24c4.51-36.42,52-178.85,52-178.85,14.51-42.65,53.78-15.39,53.78-15.39s8.81,31.67,62.74,37.53c0,0,45.14,6.45,60.38-13.49,0,0,32-14.8,46.47,19.5Z" fill="#0071f2" data-primary="true"/>
<path d="M134.54,360l10.57,51.31,17.1-.63-5.59,18s-8.09,17.1,8.08,23l61.87,16.78s12.75,2.49,15.86-10.26l-38.55-175L197,282s-8.08-5-11.19,11.51l-8.08,37.93S151.64,331.44,134.54,360Z" fill="#231f20" opacity="0.3"/>
<path d="M287,170.87l-.84,1.51s-.88,1.64-.54,6.54a4.77,4.77,0,0,1-.47,2.38,145.41,145.41,0,0,0-6.9,16.14s-10.77,27-31.88,28.14a17.1,17.1,0,0,1-6.43-1.15,20.56,20.56,0,0,1-10.28-8.52A108.84,108.84,0,0,1,214.75,184l-4.12-15.3s7.64-22.53,19.26-20.71c0,0,15.27,4,20.71-10.18,0,0,18.17,2.91,21.81-10.54a206.1,206.1,0,0,0,13.45,16.36,22.14,22.14,0,0,1,3.66,7.77A26.32,26.32,0,0,1,287,170.87Z" fill="#f9b499"/>
<path d="M267.43,258.41c-15.24,19.94-60.38,13.49-60.38,13.49-53.93-5.86-62.74-37.53-62.74-37.53l36.56,2.52a7.92,7.92,0,0,0,7.5-4.13L214.75,184a108.84,108.84,0,0,0,14.94,31.88A20.56,20.56,0,0,0,240,224.43l-6.13,22.34a2.64,2.64,0,0,0,1.87,3.24Z" fill="#f9b499"/>
<path d="M214.69,183.25,191.42,227.3l21.41-28.82,13.57,29.07a4.53,4.53,0,0,0,2.75,2.41l8.59,2.69,2.23-8.22s-7-2.63-10.28-8.52A104,104,0,0,1,214.69,183.25Z" fill="#f7a48b"/>
<path d="M282.09,241.27l21.52-1a79,79,0,0,0-7.2-30.05s-13.59-18.74-7.62-30.67c0,0,21.61-31.5,4.53-48.79,0,0-5.56-15.64-18.12-23.88,0,0-41.78-34.37-72.66-8.85,0,0-13.08,4.14-31.84,39,0,0-3.81,11.43-15.83,9.08,0,0-24-3.22-24.92,21.11,0,0-.29,27.55-17.88,24.92l41,20.52s9.09-2.64,10.85-15.83a28.19,28.19,0,0,1-1.18,18.46l28.64,12L214.75,184l-4.12-15.3s7.84-22.57,19.26-20.71c0,0,15.34,3.9,20.71-10.18,0,0,18.28,3,21.81-10.54,0,0,9,11.82,13.45,16.36,0,0,10,11.87.33,28.72a6.73,6.73,0,0,0-.66,4l.12,2.55s.16,1.23-1.32,4.09a118.62,118.62,0,0,0-6.05,14.43S264.55,231,240,224.43l-4.05,14.49,13.78,3.37,3.22-9.82,1.47,10.12,17-.3,2.49-14.51,2.2,13.63Z" fill="#2f2e41" data-secondary="true"/>
<path d="M278,198.47s-4,7.33.88,19.64c0,0,3.51,16.12,3.22,23.16l-6,.14-2.2-13.63-2.49,14.51-17,.3-1.47-10.12-3.22,9.82-13.78-3.37L240,224.43s12.95,4.82,25.41-7.79A66.26,66.26,0,0,0,278,198.47Z" fill="#231f20" opacity="0.3"/>
<path d="M169.77,218.11a31.5,31.5,0,0,0,11.43-24.45s-1.11-21.74,12.86-23.17l20.63,12.76L191.42,227.3Z" fill="#231f20" opacity="0.3"/>
<path d="M136.28,198.58a7.25,7.25,0,0,0,2.78-1.07,10.32,10.32,0,0,0,1.22-.86c.36-.35.76-.65,1.08-1a15.81,15.81,0,0,0,3.12-5.05,10.2,10.2,0,0,0,.51-1.4l.46-1.42c.21-1,.47-1.94.64-2.92s.33-2,.43-3l.25-3V179a15.22,15.22,0,0,1,1-7.23,13.81,13.81,0,0,1,4.49-5.76c.52-.34,1-.74,1.54-1l1.64-.84c.55-.26,1.14-.43,1.72-.65l.86-.31c.29-.08.59-.14.89-.21l1.78-.42c.59-.13,1.16-.22,1.73-.37a24.85,24.85,0,0,0,3.37-1.06,30.16,30.16,0,0,0,6.2-3.39,43,43,0,0,0,5.51-4.47A43.73,43.73,0,0,0,186,141.9a113.34,113.34,0,0,1,15-24.54,64.73,64.73,0,0,1,4.9-5.31,39.54,39.54,0,0,1,5.59-4.57,27.82,27.82,0,0,1,6.43-3.27,18.58,18.58,0,0,1,7.09-1c-4.84-.12-9.43,1.89-13.28,4.64a53.16,53.16,0,0,0-10.2,10,101.45,101.45,0,0,0-8.06,11.83c-1.22,2-2.37,4.14-3.47,6.26q-.83,1.59-1.59,3.21l-.75,1.62-.81,1.63A42.28,42.28,0,0,1,166.12,162a27,27,0,0,1-3.49,1.07c-.59.15-1.21.25-1.79.37l-1.72.4c-.28.07-.58.12-.86.2l-.83.29c-.54.21-1.12.37-1.64.61l-1.57.79c-.51.28-1,.64-1.46.95a13.1,13.1,0,0,0-4.32,5.37,14.39,14.39,0,0,0-1.06,6.86v.06l-.3,3c-.12,1-.32,2-.48,3s-.49,2-.73,3l-.5,1.43a12.16,12.16,0,0,1-.56,1.41,16.28,16.28,0,0,1-3.3,5c-.34.37-.75.68-1.13,1a12.94,12.94,0,0,1-1.26.82A7.45,7.45,0,0,1,136.28,198.58Z" fill="#231f20" opacity="0.3"/>
<path d="M207.87,157a22.79,22.79,0,0,1,3.29-10.59,37.25,37.25,0,0,1,7.08-8.68,54,54,0,0,1,9-6.67c1.63-.9,3.26-1.79,4.91-2.65s3.4-1.5,5.11-2.2c-1.62.91-3.26,1.77-4.88,2.65s-3.16,1.9-4.73,2.87a67,67,0,0,0-8.68,6.75,42.16,42.16,0,0,0-7.1,8.33c-.46.79-1,1.57-1.37,2.38a26.69,26.69,0,0,0-1.14,2.5A19.12,19.12,0,0,0,207.87,157Z" fill="#231f20" opacity="0.3"/>
<path d="M187.92,201.07a53.28,53.28,0,0,1-6.21,13.37,47.44,47.44,0,0,1,2.64-6.9A46.92,46.92,0,0,1,187.92,201.07Z" fill="#231f20" opacity="0.3"/>
<path d="M272.41,127.3a28.6,28.6,0,0,0-1.58-8.91,32.36,32.36,0,0,0-4.08-8c-.43-.61-.92-1.18-1.38-1.78-.24-.29-.45-.6-.71-.88l-.78-.81c-.52-.54-1-1.12-1.57-1.63s-1.13-1-1.69-1.49c-.29-.25-.56-.52-.86-.75l-.91-.67L257,101c-1.25-.86-2.58-1.6-3.86-2.45,1.38.64,2.77,1.3,4.13,2l1.94,1.24,1,.62c.31.22.61.48.91.71.61.48,1.22,1,1.81,1.45s1.11,1.08,1.67,1.62l.81.83c.27.28.5.6.74.89.48.61,1,1.2,1.44,1.83a27.6,27.6,0,0,1,4,8.37,29.15,29.15,0,0,1,.89,4.54A22.09,22.09,0,0,1,272.41,127.3Z" fill="#231f20" opacity="0.3"/>
<path d="M286.19,172.38s23.58-28.42-15.36-54.46a21.61,21.61,0,0,1,1.58,9.38s8.4,11,13.45,16.36C285.86,143.66,296.06,155.17,286.19,172.38Z" fill="#231f20" opacity="0.3"/>
<path d="M121.12,517.59s-11.51,41.31-8.9,75.82l-15.69-1c7.33-135.43,52-164.09,52-164.09l12.81,1S132.62,459,121.12,517.59Z" fill="#231f20" opacity="0.3"/>
<path d="M155.1,456.41c-2.11,3.72-4.06,7.52-5.91,11.36-.92,1.93-1.83,3.86-2.71,5.8s-1.73,3.9-2.55,5.87a237,237,0,0,0-8.7,24c-1.34,4-2.35,8.2-3.48,12.31L130.34,522c-.22,1-.48,2.08-.68,3.13l-.58,3.14c-.38,2.1-.81,4.19-1.14,6.29l-.85,6.35c-.14,1.05-.32,2.11-.43,3.17l-.27,3.19-.57,6.38a173.51,173.51,0,0,1,2.48-25.52l.51-3.17c.19-1.05.45-2.09.67-3.14l1.36-6.28c1.11-4.13,2.09-8.3,3.41-12.38a219.08,219.08,0,0,1,9-24.05A177.76,177.76,0,0,1,155.1,456.41Z" fill="#231f20" opacity="0.3"/>
<path d="M155.51,349s7.46-7.76,17.07-6.52c0,0,16-.71,19.57-6.58l-1.42,8.18-15.56.59a10.1,10.1,0,0,0-1.74.22Z" fill="#f7a48b"/>
<path d="M295.24,390.75s-3.93,29.64,26.07,33.57l18.21-12.14v-40Z" fill="#f9b499"/>
<path d="M137.52,251.46a53.93,53.93,0,0,1,1.41,15.31,99.7,99.7,0,0,1-1.85,15.31l-.82,3.78-1,3.73-.49,1.86-.56,1.85c-.37,1.23-.76,2.45-1.16,3.67-.82,2.43-1.76,4.83-2.63,7.24s-2,4.72-3.07,7.06c.84-2.43,1.74-4.83,2.59-7.24s1.63-4.85,2.36-7.3,1.5-4.88,2.06-7.38l.92-3.72.76-3.75a110.35,110.35,0,0,0,2.07-15.15c.05-1.27.14-2.54.16-3.82s0-2.55,0-3.83A44.41,44.41,0,0,0,137.52,251.46Z" fill="#fff" opacity="0.2"/>
<path d="M128.39,234.23a4.8,4.8,0,0,1,2.36.83,7.76,7.76,0,0,1,1.88,1.69,8.85,8.85,0,0,1,1.26,2.16,8.1,8.1,0,0,1,.59,2.41c-.48-.69-.87-1.38-1.3-2s-.87-1.3-1.35-1.89A14.29,14.29,0,0,0,128.39,234.23Z" fill="#fff" opacity="0.2"/>
<path d="M137.57,320.66a2.41,2.41,0,0,1,1,.65l.88.81c.58.53,1.18,1.05,1.79,1.55a38.31,38.31,0,0,0,3.8,2.8,54.75,54.75,0,0,0,8.35,4.36A89,89,0,0,0,162.3,334c1.51.45,3,.85,4.58,1.23l2.31.58c.77.16,1.55.35,2.32.54a66.89,66.89,0,0,1-9.42-1.59,59.09,59.09,0,0,1-9.11-3,42.23,42.23,0,0,1-8.39-4.66A33.93,33.93,0,0,1,140.9,324c-.57-.56-1.12-1.14-1.65-1.73l-.8-.89C138.18,321.14,138,320.78,137.57,320.66Z" fill="#fff" opacity="0.2"/>
<path d="M267.68,265.83a45.63,45.63,0,0,1,.51,7.18,44.47,44.47,0,0,1-.51,7.18,49.83,49.83,0,0,1,0-14.36Z" fill="#fff" opacity="0.2"/>
<path d="M314.24,361.56l-6.52.39c-2.18.13-4.35.25-6.53.35l.18-.53a16.39,16.39,0,0,0,6.43,2,40.43,40.43,0,0,0,6.87.19l1.76-.1a7.12,7.12,0,0,1,1.84.21,6,6,0,0,1,3.2,1.9,3.38,3.38,0,0,1,.82,1.83,3.31,3.31,0,0,1-.44,1.95,8.72,8.72,0,0,1-2.52,2.67l-.19.15-.26-.07a30.6,30.6,0,0,0-9.27-.79,28.12,28.12,0,0,0-9.07,2.17,25,25,0,0,0-7.81,5.13,29.24,29.24,0,0,0-3.21,3.46l-.38.45-.33.5-.65,1-1.34,2c.83-1.35,1.56-2.78,2.49-4.07a30.65,30.65,0,0,1,3.08-3.65,25.58,25.58,0,0,1,7.84-5.49,27.1,27.1,0,0,1,9.31-2.38,31.61,31.61,0,0,1,9.63.74l-.45.08a8.45,8.45,0,0,0,2.25-2.34,2.2,2.2,0,0,0-.24-2.68,5.17,5.17,0,0,0-2.68-1.61,10.2,10.2,0,0,0-3.33-.11,36,36,0,0,1-7-.31,16.72,16.72,0,0,1-6.69-2.32l-.76-.51.93,0c2.18-.05,4.36-.07,6.54-.09Z" fill="#fff" opacity="0.2"/>
<path d="M80.71,366.37q3,.4,5.92,1.08a54.45,54.45,0,0,1,5.8,1.64,23.8,23.8,0,0,1,5.47,2.59,8.88,8.88,0,0,1,2.28,2.09,4.44,4.44,0,0,1,.92,3v-.14a1.89,1.89,0,0,1-.33,1.7,2.53,2.53,0,0,1-1.46.79,9.2,9.2,0,0,1-3,0c-1-.18-1.91-.37-2.84-.56s-1.88-.33-2.82-.46a44.76,44.76,0,0,0-11.39-.05,40,40,0,0,0-10.94,3,25.33,25.33,0,0,0-9.21,6.42l-.64-.68A37,37,0,0,1,68,382.06a38.56,38.56,0,0,1,10.41-2A36.41,36.41,0,0,1,88.9,381,40.4,40.4,0,0,1,94,382.43a19.78,19.78,0,0,1,2.44,1l2.41,1.06-2.46-1a22,22,0,0,0-2.46-.9,41,41,0,0,0-5.08-1.28,39.4,39.4,0,0,0-20.58,1.52A36.39,36.39,0,0,0,59,387.55l-3.17,2.28,2.53-2.95a26.42,26.42,0,0,1,9.5-6.74,39.61,39.61,0,0,1,11.24-3,46.11,46.11,0,0,1,11.62.13c1,.14,1.91.3,2.87.48l2.8.61a8.41,8.41,0,0,0,2.73.1,1.81,1.81,0,0,0,1-.52,1.16,1.16,0,0,0,.23-1l0-.09v-.05a3.72,3.72,0,0,0-.74-2.59,8.62,8.62,0,0,0-2.09-2,25.24,25.24,0,0,0-5.29-2.67,56.51,56.51,0,0,0-5.71-1.81C84.63,367.18,82.68,366.73,80.71,366.37Z" fill="#fff" opacity="0.2"/>
<ellipse cx="204.52" cy="173.92" rx="9.12" ry="14.29" transform="translate(-59.56 125.56) rotate(-30)" fill="#f9b499"/>
<rect x="186.32" y="279.65" width="94.09" height="177.01" rx="8.64" transform="translate(85.13 -41.75) rotate(12.49)" fill="#2f2e41" data-secondary="true"/>
<path d="M51.09,413.73c-.31,7.06,1.07,23.87,20.26,29.55a11.18,11.18,0,0,0,9.88-1.76l55-41.32a8.16,8.16,0,0,1,4.9-1.64c7.58,0,29.32-.6,41.28-7.06l29.81-12a2.64,2.64,0,0,0,1.48-3.39h0a2.63,2.63,0,0,0-3.12-1.61l-2.39.61a1,1,0,0,1-1.23-.68h0a1,1,0,0,1,.74-1.32L217,370.9a2.74,2.74,0,0,0,2-3.44h0a2.75,2.75,0,0,0-3.26-1.9l-3.29.77a.91.91,0,0,1-1.05-.56h0a.9.9,0,0,1,.69-1.21l6.33-1.1a3,3,0,0,0,2.49-3.21h0a3,3,0,0,0-3-2.77l-31-.2a1.28,1.28,0,0,1-1.27-1.4h0a1.27,1.27,0,0,1,1.12-1.15L215.91,351a4,4,0,0,0,3.39-4.61h0a4,4,0,0,0-4.05-3.26l-41,1.62L157,348.49a9.92,9.92,0,0,0-5.07,2.86l-25.81,27.14a12,12,0,0,1-4.16,2.85L54.13,409.42A4.9,4.9,0,0,0,51.09,413.73Z" fill="#f9b499"/>
<path d="M189.35,368.6a119,119,0,0,1,22-2.83,121.63,121.63,0,0,1-22,2.83Z" fill="#f7a48b"/>
<path d="M207,374.39a58.26,58.26,0,0,1-15.09,3.55,50.34,50.34,0,0,1,7.42-2.27A51.8,51.8,0,0,1,207,374.39Z" fill="#f7a48b"/>
<g id="a8b31ffb-0cca-4add-bed4-bd5f3739dd43" data-name="freepik--light-bulb--inject-148">
<polygon points="423.73 552.57 376.78 551.79 363.99 534.55 437.04 535.72 423.73 552.57" fill="#0071f2" data-primary="true"/>
<polygon points="423.73 552.57 376.78 551.79 363.99 534.55 437.04 535.72 423.73 552.57" fill="#fff" opacity="0.5" style="isolation:isolate"/>
<path d="M506.28,335.57a102.61,102.61,0,0,1-35.67,75.87,67.35,67.35,0,0,0-24.2,49.88l-.15,7.79-89.59-1.47.11-7.78a67.34,67.34,0,0,0-22.52-50.57,102.68,102.68,0,1,1,172-73.72Z" fill="#0071f2" data-primary="true"/>
<path d="M506.28,335.57a102.61,102.61,0,0,1-35.67,75.87,67.35,67.35,0,0,0-24.2,49.88l-.15,7.79-89.59-1.47.11-7.78a67.34,67.34,0,0,0-22.52-50.57,102.68,102.68,0,1,1,172-73.72Z" fill="#fff" opacity="0.5" style="isolation:isolate"/>
<circle cx="402.77" cy="375.52" r="65.21" transform="translate(-41.64 700.68) rotate(-79.19)" fill="#fff" opacity="0.4" style="isolation:isolate"/>
<path d="M387.23,468.4,371.5,384.51a2.56,2.56,0,0,1,2-3h0a2.52,2.52,0,0,1,2.93,2h0l15.73,83.9Z" fill="#0071f2" data-primary="true"/>
<path d="M416.24,469l-4.91-1.07,18.43-83.36a2.51,2.51,0,0,1,3-1.92h0a2.49,2.49,0,0,1,1.95,2.93.29.29,0,0,0,0,.09Z" fill="#0071f2" data-primary="true"/>
<polygon points="412.67 419.71 402.85 401.2 392.37 419.36 373.72 397.16 377.57 393.91 391.61 410.6 403 390.76 413.76 410.96 428.3 394.73 432.06 398.09 412.67 419.71" fill="#0071f2" data-primary="true"/>
<path d="M453.47,482.15a11.41,11.41,0,0,1-11.56,11.2l-11.56-.16a10.35,10.35,0,0,1-2.6.27l-66.86-1a11.38,11.38,0,1,1,.06-22.76l.24-.08,11.57.16a9.63,9.63,0,0,1,2.33-.26l.24-.08,66.86,1A11.41,11.41,0,0,1,453.47,482Z" fill="#0071f2" data-primary="true"/>
<path d="M449.2,504a10.93,10.93,0,0,1-10.69,11.17h-.05L427.69,515a10.08,10.08,0,0,1-2.39.28l-62.15-1a11.41,11.41,0,0,1,0-22.75l.24-.07,10.75.18a10.86,10.86,0,0,1,2.19-.28l.21-.06,62.28,1.12A11,11,0,0,1,449.2,504Z" fill="#0071f2" data-primary="true"/>
<path d="M444.8,525.81A10.61,10.61,0,0,1,434.9,537l-10-.11a7.59,7.59,0,0,1-2.23.29l-57.48-1a10.77,10.77,0,0,1-9.68-11.58,10.65,10.65,0,0,1,9.65-11.15l.21-.06,10,.1a9.21,9.21,0,0,1,2-.29l.21-.06,57.49,1.07A10.76,10.76,0,0,1,444.8,525.81Z" fill="#0071f2" data-primary="true"/>
<polygon points="361.86 542.12 361.91 535.92 438.71 537 438.65 543.21 361.86 542.12" fill="#0071f2" data-primary="true"/>
<rect x="398.41" y="423.31" width="6.17" height="89.63" transform="translate(-70.75 864.75) rotate(-89.41)" fill="#0071f2" data-primary="true"/>
<g opacity="0.4">
<path d="M313,314.26a36.38,36.38,0,0,0-1.52,15.88h0a6.68,6.68,0,0,0,12.78.72,70.76,70.76,0,0,1,44.93-42.12c15.58-4.64,34.8-5,39.87-24.3a17.77,17.77,0,0,0-1-10.39l-.07-.21C395.63,227.06,326,262,313,314.26Z" fill="#fff"/>
</g>
<path d="M419.73,260a15.77,15.77,0,0,0,4,15.27,20.18,20.18,0,0,0,12.48,4,16.17,16.17,0,0,0,12.85-3.8c3.77-4.12,3.16-10.74.65-15.76C442.3,244.29,424.71,240.51,419.73,260Z" fill="#fff" opacity="0.4" style="isolation:isolate"/>
</g>
<ellipse cx="534.56" cy="365.28" rx="14.22" ry="18.47" fill="#2f2e41" data-secondary="true"/>
<ellipse cx="538.54" cy="365.28" rx="14.22" ry="18.47" fill="#e6e7e8"/>
<path d="M568.75,367.74s-13.32,15.82,8.46,31.23l7.48-8.79s1.62-2.76.49-5.36S568.75,367.74,568.75,367.74Z" fill="#f7a48b"/>
<path d="M585.22,388l-7.84,9.05s9.8,4.9,10,15.18l-.49,29.38A15.68,15.68,0,0,1,583.5,448a15.81,15.81,0,0,0,5.52-.87,1.87,1.87,0,0,1,2.49,1.65l1,16.36s41.37-22,49-23.5c0,0,22.27-3.92,28.15-3.68l-7.34-46.26-63.16-20.44Z" fill="#f9b499"/>
<path d="M627.86,402.9s3.89,16.42,17.53,10.3c0,0,12.52-4.73,19.48-4.73l-2.54-16.8Z" fill="#f7a48b"/>
<path d="M492.84,493.5s-10.8,6.9-3.91,15.18l21.1-3.49,61.93-8.7s-11.5-15.41-20-12c0,0-12.42-12.42-21.39-4.83,0,0-11.27-12.88-23.92.69,0,0-22.52-14.48-37.47-28.51l0,0-4.75-3.93a.6.6,0,0,0-.9.16c-1.42,2.47-5.64,12.45,8.66,26.55Z" fill="#f9b499"/>
<path d="M506.64,480.39a43.39,43.39,0,0,1,6.35,3,42.41,42.41,0,0,1,5.84,3.9,43.39,43.39,0,0,1-6.35-3A44,44,0,0,1,506.64,480.39Z" fill="#f7a48b"/>
<path d="M530.56,479.7a15.45,15.45,0,0,1,3.45,2.38,14.88,14.88,0,0,1,2.76,3.14,15.23,15.23,0,0,1-3.45-2.38A15.43,15.43,0,0,1,530.56,479.7Z" fill="#f7a48b"/>
<path d="M552,484.53a8.91,8.91,0,0,1,3,1,8.68,8.68,0,0,1,2.52,1.95,8.69,8.69,0,0,1-3-1A8.92,8.92,0,0,1,552,484.53Z" fill="#f7a48b"/>
<path d="M462.49,458.31,510,505.19,494.68,508s-3.91-3.22-1.84-14.49l-20.69-18.86S463.64,467.28,462.49,458.31Z" fill="#f7a48b"/>
<path d="M463.87,455.78a46.26,46.26,0,0,0,4.13,3.67,5,5,0,0,0,2.28,1,3.07,3.07,0,0,0,2.33-1,3.33,3.33,0,0,1-.86,1.2,2.53,2.53,0,0,1-1.46.59,4.59,4.59,0,0,1-2.88-1,9.78,9.78,0,0,1-2.08-2A10.24,10.24,0,0,1,463.87,455.78Z" fill="#f7a48b"/>
<path d="M674.78,312.72s-6,13.3-29.8,2.75c0,0-4.58-3.21-14.67,2.3L579.9,337.48s-18.8,7.78-15.14,15.12c0,0-1.37,6.42-2.28,9.62a28,28,0,0,0-1.84,17.88l.92,22.92s-6.88,11.45-16-.46l-4.19-5.92-.6-3.8L530,389.26a1.61,1.61,0,0,1-.62-2.65l4-4a11.42,11.42,0,0,0,8.5.58l.55-25.08a4.9,4.9,0,0,0-1-3.06c-2.05-2.7-4-7.47-5-10a4.26,4.26,0,0,1,0-3.16l12.2-29.18s6.41-18.8,28.87-23.83l41.71-10.55S660.11,274.21,674.78,312.72Z" fill="#f9b499"/>
<path d="M577.38,397.05l21.79-25.82s2,18.3-5.9,26.7a6,6,0,0,0-1.68,3.78,34,34,0,0,0,13.25,28.81,6.7,6.7,0,0,1,2.62,5.73c-.3,5.08-.59,14.27.77,20.53l-15.67,8.33-1-16.36s.33-2-2.49-1.65a24.5,24.5,0,0,1-5.52.87s1.47-1.22,3.43-6.36l.49-29.38S587.18,401.46,577.38,397.05Z" fill="#f7a48b"/>
<path d="M671.92,395.25c-12.32-2.64-25.07,5.72-25.07,5.72-15.64,9.67-21.45.06-23.14-4.16a34.3,34.3,0,0,0-3.39-6.32,64.32,64.32,0,0,0-21.15-19.26l-5.52-15.55-25.08,12.74c-9.06,15.9,8.81,28.63,8.81,28.63,10.28,5.88,10,15.18,10,15.18l-.49,29.37c-2.69,11-17.13,13.23-17.13,13.23-22.53,6.6-30.36-33.79-30.36-33.79-7.1-19.09,1.89-24.4,1.89-24.4l4.19,5.92c9.16,11.91,16,.46,16,.46l-.92-22.92a28,28,0,0,1,1.84-17.88c.91-3.2,2.28-9.62,2.28-9.62-3.66-7.34,15.14-15.12,15.14-15.12l50.41-19.71c10.09-5.51,14.67-2.3,14.67-2.3,23.84,10.55,29.8-2.75,29.8-2.75,7.69-10.86,17.14,56.59,17.14,56.59C693.69,396.79,671.92,395.25,671.92,395.25Z" fill="#2f2e41" data-secondary="true"/>
<path d="M604.64,340.73a97.56,97.56,0,0,1,11.68,10.39,104.05,104.05,0,0,1,10,12.06,72.86,72.86,0,0,1,7.55,13.74,56.56,56.56,0,0,1,2.36,7.49,43.31,43.31,0,0,1,.95,7.76,50.16,50.16,0,0,0-4-14.94c-1-2.36-2.2-4.68-3.48-6.93s-2.7-4.41-4.18-6.53a115.36,115.36,0,0,0-9.73-12.11q-2.62-2.88-5.41-5.61C608.51,344.22,606.6,342.44,604.64,340.73Z" fill="#231f20" opacity="0.3"/>
<path d="M636.3,343.59a37.66,37.66,0,0,1,4.13,4.52,52.61,52.61,0,0,1,3.52,5,51.14,51.14,0,0,1,2.92,5.4,39.15,39.15,0,0,1,2.18,5.72c-1-1.8-1.89-3.6-2.89-5.36s-2-3.51-3.08-5.22-2.16-3.41-3.29-5.09S637.51,345.23,636.3,343.59Z" fill="#231f20" opacity="0.3"/>
<path d="M670.16,334.13a55.56,55.56,0,0,1,3.18,9.67A68.64,68.64,0,0,1,675,353.87c.18,1.69.22,3.4.29,5.1s0,3.41-.13,5.1a59,59,0,0,1-1.47,10.08c.11-1.7.4-3.37.46-5.06l.16-2.52c.05-.84,0-1.69.06-2.53A89.31,89.31,0,0,0,674,354a96.38,96.38,0,0,0-1.4-10A93.46,93.46,0,0,0,670.16,334.13Z" fill="#231f20" opacity="0.3"/>
<path d="M657,335.23a7.32,7.32,0,0,1,1.6,2.4,16.09,16.09,0,0,1,.94,2.71,19,19,0,0,1,.49,2.81,15.16,15.16,0,0,1,0,2.86,28.2,28.2,0,0,1-.83-2.72l-.7-2.7c-.21-.91-.46-1.79-.7-2.69A25,25,0,0,0,657,335.23Z" fill="#231f20" opacity="0.3"/>
<path d="M669.67,437.93,677.05,467s-37.52,24.91-90.87,26.67l-1.47-17.88s-.71-7,7.85-10.68c0,0,29.19-16.3,45.1-22.21a39.94,39.94,0,0,1,7.06-1.88C649.17,440.26,658,438.9,669.67,437.93Z" fill="#0071f2" data-primary="true"/>
<path d="M669.67,437.93,677.05,467s-37.52,24.91-90.87,26.67l-1.47-17.88s-.71-7,7.85-10.68c0,0,29.19-16.3,45.1-22.21a39.94,39.94,0,0,1,7.06-1.88C649.17,440.26,658,438.9,669.67,437.93Z" fill="#fff" opacity="0.5"/>
<path d="M464,594.29l15.75-75.68a12.89,12.89,0,0,1,10.86-10.16c5.84-.81,13.45-2,19.41-3.26l76.15-11.52s44.92.74,90.87-26.67l117.3,41.35a7.84,7.84,0,0,1,4.79,4.8l28.13,80.65Z" fill="#0071f2" data-primary="true"/>
<path d="M521.29,503.72l64.89-10.05S637,492.45,677.05,467l3.84,1S664.44,504.52,521.29,503.72Z" fill="#231f20" opacity="0.3"/>
<path d="M517.43,512.87a64.5,64.5,0,0,1,5.13,8c1.48,2.8,2.87,5.64,4.07,8.57a90.2,90.2,0,0,1,3.18,8.93l1.27,4.58,1,4.64c.37,1.54.53,3.12.77,4.68s.5,3.13.57,4.71l.36,4.74c.11,1.57,0,3.16.06,4.74.09,3.16-.26,6.31-.48,9.46-.07,1.58-.42,3.13-.64,4.69l-.75,4.67.48-4.7c.15-1.57.41-3.12.41-4.7.11-3.14.37-6.27.19-9.41a102.92,102.92,0,0,0-2-18.69,99.76,99.76,0,0,0-5.19-18.05A87.42,87.42,0,0,0,517.43,512.87Z" fill="#231f20" opacity="0.3"/>
<path d="M486.93,524.93c-.53,1.17-1,2.35-1.41,3.55s-.82,2.4-1.13,3.63a65.14,65.14,0,0,0-1.54,7.42c-.16,1.26-.34,2.51-.42,3.77l-.15,1.89-.07,1.9c-.11,2.54,0,5.07.11,7.64-.24-1.26-.47-2.52-.63-3.8s-.26-2.55-.27-3.84a43.14,43.14,0,0,1,.42-7.7,41.28,41.28,0,0,1,1.8-7.51A29.91,29.91,0,0,1,486.93,524.93Z" fill="#231f20" opacity="0.3"/>
<path d="M672.05,482.07c1.65,4.26,3.15,8.56,4.61,12.88s2.81,8.66,4.19,13,2.59,8.73,3.78,13.13,2.32,8.82,3.31,13.27l-2.06-6.52-2-6.53-4-13-4-13.08L674,488.64Z" fill="#231f20" opacity="0.3"/>
<path d="M691.25,547.27a24.61,24.61,0,0,1,1.92,5.48,22.75,22.75,0,0,1,.72,5.77,38.71,38.71,0,0,1-1.71-5.53A34.12,34.12,0,0,1,691.25,547.27Z" fill="#231f20" opacity="0.3"/>
<path d="M695.22,570.76c.95,3.86,1.59,7.76,2.16,11.68s1,7.85,1.15,11.82c-1-3.87-1.6-7.77-2.17-11.68S695.37,574.74,695.22,570.76Z" fill="#231f20" opacity="0.3"/>
<path d="M783.9,512.19a80.56,80.56,0,0,1,7.73,12.95,97.1,97.1,0,0,1,5.47,14.09c.77,2.41,1.29,4.88,1.88,7.33l.68,3.72c.11.62.23,1.24.32,1.87l.2,1.88a75.26,75.26,0,0,1,.27,15.08l-.08-3.77,0-1.88c0-.62-.1-1.25-.15-1.87l-.28-3.74c-.14-1.24-.35-2.48-.51-3.72l-.27-1.85-.34-1.84-.72-3.68c-.62-2.42-1.16-4.86-2-7.24a109.19,109.19,0,0,0-5.2-14l-1.58-3.4c-.57-1.12-1.12-2.24-1.71-3.35C786.49,516.49,785.24,514.32,783.9,512.19Z" fill="#231f20" opacity="0.3"/>
<ellipse cx="583.75" cy="371.23" rx="15.42" ry="20.44" fill="#f9b499"/>
<path d="M545.38,367.86h-.08L522,367.7l0-2.05,23.34.16a3.67,3.67,0,0,0,1.75-.42l14.81-8a9.24,9.24,0,0,1,3.2-1l3.43-.44.26,2-3.43.44a7.13,7.13,0,0,0-2.49.8l-14.81,7.95A5.65,5.65,0,0,1,545.38,367.86Z" fill="#2f2e41" data-secondary="true"/>
</svg>