 <!DOCTYPE svg PUBLIC "-//W3C//DTD SVG 1.1//EN" "http://www.w3.org/Graphics/SVG/1.1/DTD/svg11.dtd">
<svg id="b3d03e51-7f45-4ad6-91bb-bb4b82771342" data-name="Layer 1" xmlns="http://www.w3.org/2000/svg" width="865.76" height="682.89" viewBox="0 0 865.76 682.89">
<defs>
<style xmlns="http://www.w3.org/1999/xhtml">*, ::after, ::before { box-sizing: border-box; }
img, svg { vertical-align: middle; }
</style>
<style xmlns="http://www.w3.org/1999/xhtml">*, body, html { -webkit-font-smoothing: antialiased; }
img, svg { max-width: 100%; }
</style>
</defs>
<path d="M157,20.45H570.21a25.7,25.7,0,0,1,25.7,25.7V555a21.19,21.19,0,0,1-21.19,21.19H152.5A21.19,21.19,0,0,1,131.31,555V46.15A25.7,25.7,0,0,1,157,20.45Z" fill="#d1d3d4"/>
<path d="M157,20.45H570.21a25.7,25.7,0,0,1,25.7,25.7v66.1a0,0,0,0,1,0,0H131.31a0,0,0,0,1,0,0V46.15A25.7,25.7,0,0,1,157,20.45Z" fill="#bcbec0"/>
<rect x="306.43" y="160.46" width="348.49" height="74.32" rx="19.93" fill="#bcbec0"/>
<rect x="328.53" y="180.29" width="34.65" height="34.65" rx="6.86" opacity="0.2"/>
<rect x="425.28" y="189.58" width="147.3" height="16.07" opacity="0.2"/>
<rect x="187.59" y="256.45" width="348.49" height="74.32" rx="19.93" fill="#bcbec0"/>
<rect x="209.69" y="276.29" width="34.65" height="34.65" rx="6.86" opacity="0.2"/>
<rect x="306.43" y="285.58" width="147.3" height="16.07" opacity="0.2"/>
<rect x="187.59" y="353.23" width="348.49" height="74.32" rx="19.93" fill="#bcbec0"/>
<rect x="209.69" y="373.06" width="34.65" height="34.65" rx="6.86" opacity="0.2"/>
<rect x="306.43" y="382.35" width="147.3" height="16.07" opacity="0.2"/>
<rect x="187.59" y="449.22" width="348.49" height="74.32" rx="19.93" fill="#ccc"/>
<rect x="209.69" y="469.06" width="34.65" height="34.65" rx="6.86" opacity="0.2"/>
<rect x="306.43" y="478.35" width="147.3" height="16.07" opacity="0.2"/>
<rect x="205.6" y="56.98" width="316.02" height="18.75" fill="#fff"/>
<path d="M127.51,475.09c-12.87-19.66-11-47.74,4.31-65.52,4.77-5.52,11.42-10.32,18.7-9.69s13.42,7,15.69,14.13,1.47,14.82.14,22.16c-1.85,10.28-5,20.8-12.11,28.45s-17.55,15.49-26.78,10.47" fill="#bcbec0"/>
<path d="M131.39,569.73a29.4,29.4,0,0,1,8.19-33.37c3-2.42,6.82-4.28,10.51-3.31s6.27,4.84,6.81,8.7-.59,7.78-1.93,11.44c-1.9,5.14-4.45,10.28-8.78,13.57s-10.48,6.38-14.74,3" fill="#bcbec0"/>
<path d="M103.61,563c3.54-17.48-5.64-36.66-21.43-44.86-4.9-2.51-10.92-4.06-15.86-1.58s-7.52,8.69-7.08,14.33,3.11,10.87,6.13,15.63c4.19,6.71,9.33,13.24,16.49,16.62s16.74,6,21.78-.14" fill="#bcbec0"/>
<path d="M105.84,515.84C112,496,101.57,472,84.16,460.51c-5.39-3.54-12.22-6-18.25-3.76S56.18,466,56,472.6s2.35,13,5.27,18.89c4.08,8.3,9.3,16.5,17.22,21.31s20.78,9.53,27.36,3" fill="#bcbec0"/>
<path d="M115,612.91a4.47,4.47,0,0,1-.2-.95c-.11-.73-.25-1.65-.41-2.78-.09-.61-.18-1.25-.28-2s-.3-1.52-.46-2.36a55.82,55.82,0,0,0-1.26-5.73c-.26-1.06-.52-2.17-.8-3.31s-.67-2.32-1-3.55c-.66-2.5-1.64-5-2.51-7.73a148.81,148.81,0,0,0-7.66-17,152,152,0,0,0-9.91-15.75c-1.76-2.26-3.34-4.49-5-6.41l-2.37-2.82L80.74,540c-1.44-1.63-2.87-3-4.11-4.17l-1.71-1.69-1.51-1.33L71.33,531c-.48-.44-.72-.68-.69-.7a5.46,5.46,0,0,1,.79.57l2.19,1.76,1.57,1.25L77,535.46c1.26,1.18,2.74,2.51,4.22,4.11l2.37,2.51L86,544.89c1.72,1.91,3.33,4.12,5.12,6.39a145.91,145.91,0,0,1,10,15.85,143.27,143.27,0,0,1,7.64,17.13c.91,2.74,1.87,5.31,2.51,7.8l1,3.58c.33,1.16.52,2.27.76,3.34.52,2.12.81,4.07,1.09,5.78l.39,2.38c.11.74.15,1.4.21,2,.1,1.14.19,2.07.25,2.8A4.3,4.3,0,0,1,115,612.91Z" fill="#2f2e41" data-secondary="true"/>
<path d="M114.53,616.48a1.34,1.34,0,0,1,0-.4,6.28,6.28,0,0,1,.08-1.14c.1-1.08.23-2.51.41-4.41.1-1,.2-2,.31-3.19s.13-2.44.19-3.76c.1-2.73.37-5.84.27-9.28v-5.39c0-1.88-.19-3.82-.29-5.84-.14-4-.68-8.32-1.17-12.84a202.54,202.54,0,0,0-6.09-28.84,202.88,202.88,0,0,0-10.63-27.58c-2.06-4-3.94-7.95-6-11.41-1-1.74-2-3.47-3-5s-2-3.14-3-4.55c-1.79-2.94-3.76-5.4-5.26-7.63-.8-1.11-1.53-2.15-2.23-3.09s-1.41-1.73-2-2.51l-2.75-3.47c-.27-.37-.51-.68-.7-.91s-.22-.33-.21-.34.11.09.29.27l.75.87,2.87,3.38,2.07,2.51c.73.92,1.47,2,2.29,3,1.61,2.2,3.56,4.65,5.4,7.52l3,4.5c1,1.58,2,3.31,3,5,2.12,3.46,4,7.34,6.1,11.41A194.93,194.93,0,0,1,109,541a196.69,196.69,0,0,1,6.06,29c.46,4.53,1,8.83,1.1,12.88.07,2,.24,4,.24,5.87v5.42c0,3.45-.25,6.56-.39,9.29-.1,1.37-.15,2.63-.26,3.76s-.28,2.23-.39,3.19l-.57,4.4a7.08,7.08,0,0,1-.16,1.14A1.84,1.84,0,0,1,114.53,616.48Z" fill="#2f2e41" data-secondary="true"/>
<path d="M148,423.62a2.48,2.48,0,0,1-.17.37l-.56,1-2.2,3.88c-.46.85-1,1.78-1.58,2.83l-1.71,3.46-2,4c-.73,1.46-1.26,3-2,4.56s-1.47,3.26-2.18,5-1.4,3.62-2.14,5.53c-.36,1-.74,1.93-1.11,2.92l-1,3.07c-.69,2.07-1.42,4.2-2.15,6.38-2.73,8.78-5.31,18.62-7.52,29S118,516.18,117,525.34s-1.63,17.47-1.82,24.44c-.17,3.48-.21,6.64-.22,9.42s-.07,5.15,0,7.1,0,3.4,0,4.51V572a2.67,2.67,0,0,1,0,.4,1.34,1.34,0,0,1,0-.4,6.49,6.49,0,0,0-.08-1.16c0-1.1-.13-2.6-.21-4.49s-.17-4.35-.17-7.12,0-6,.1-9.45c.12-7,.76-15.29,1.65-24.5a289.47,289.47,0,0,1,4.64-29.71c2.13-10.46,4.79-20.29,7.52-29.11.74-2.18,1.48-4.32,2.18-6.4.36-1,.71-2,1.07-3.06l1.14-2.92,2.19-5.53c.73-1.77,1.52-3.42,2.22-5s1.39-3.12,2.08-4.54l2-4,1.8-3.44c.56-1.05,1.15-2,1.64-2.8l2.35-3.85c.25-.41.45-.73.62-1S148,423.61,148,423.62Z" fill="#2f2e41" data-secondary="true"/>
<path d="M143.62,544.24a15.82,15.82,0,0,1-1.37,2.4c-.94,1.5-2.23,3.77-3.76,6.5s-3.18,6.17-4.88,10a125.35,125.35,0,0,0-4.72,12.75,118.7,118.7,0,0,0-3.29,13.2c-.77,4.1-1.25,7.85-1.62,11s-.5,5.72-.57,7.52a15.87,15.87,0,0,1-.23,2.75,17,17,0,0,1-.1-2.76,71.1,71.1,0,0,1,.32-7.52A106.1,106.1,0,0,1,124.84,589a114,114,0,0,1,8.07-26.13c1.73-3.83,3.46-7.21,5-10s3-4.94,4-6.4A18.18,18.18,0,0,1,143.62,544.24Z" fill="#2f2e41" data-secondary="true"/>
<polygon points="89.73 604.07 146.2 604.07 139.37 661.73 96.77 661.73 89.73 604.07" fill="#2f2e41" data-secondary="true"/>
<polygon points="91.8 655.51 96.59 661.73 139.37 661.73 144.3 655.7 91.8 655.51" fill="#2f2e41" data-secondary="true"/>
<path d="M144,621c0,.24-11.71.43-26.17.43S91.7,621.26,91.7,621s11.71-.41,26.17-.41S144,620.79,144,621Z" fill="#fff"/>
<path d="M144,624.87c0,.22-11.71.41-26.17.41s-26.13-.19-26.13-.41,11.71-.43,26.17-.43S144,624.63,144,624.87Z" fill="#fff"/>
<path d="M143.29,628.58c0,.24-11.28.43-25.25.43s-25.25-.19-25.25-.43,11.28-.43,25.25-.43S143.29,628.35,143.29,628.58Z" fill="#fff"/>
<path d="M793,217c-4.71-6-4.81-16.82-4.65-19.72.36-6.6-14.35-45.12-50.81-29.21h0c-13.07,0-13.28,12.9-15.76,15.49s-5.24,5.3-5.9,8.83c-1.15,6.27,4.79,12.35,3.28,18.53-.56,2.31-2.12,4.28-3.21,6.4h0c-1.18,1.89-2.1,5-1.6,6.68a21.91,21.91,0,0,0,2.48,4.72,7.65,7.65,0,0,1,1.33,5.08c-.57,3.16-4.2,4.93-5.24,8s.93,6.12,2.65,8.77,3.38,6,2,8.84a15.7,15.7,0,0,1-3.38,3.71,13.06,13.06,0,0,0-2.58,14.17l21-4.2q1.41-15,2.8-30c6.14,1.53,12.85-2.4,15.77-3.14l3.57-1.93c7.82,1.4,16.25.88,23.11-3.11s17,1.12,15.67-6.71C792.78,224.41,795.37,220,793,217Z" fill="#2f2e41" data-secondary="true"/>
<path d="M769.07,180.51l-28.54-8.4c-9.19-1.41-15.77,9.8-16.74,19-1.07,10.27-1.95,22.85-1,30.57,1.82,15.55,13.58,18,13.58,18s-2.06,22-2.24,27.52l35.15-18.05,4.44-62.93A5.44,5.44,0,0,0,769.07,180.51Z" fill="#f9b499"/>
<path d="M736.33,239.59A37.44,37.44,0,0,0,757,235.12c-.18,0-6.33,10.74-21,8.56Z" fill="#f4af9b"/>
<path d="M737.17,170.05a144.8,144.8,0,0,1,33.47,9.47c2.5,1,5.1,2.27,6.51,4.57s1.28,5.49,1.05,8.4L774.62,234l-1.48-.08c-4.21.7-4.57-1.49-7.64-4.56a14,14,0,0,1-3.81-11.92c.62-3.77,2.8-7.55,1.63-11.21-1.56-4.82-8.16-6.53-9.74-11.34-.91-2.8.12-6-.94-8.71S749,182,746.47,181s-5.32-1.79-7.44-3.57S735.61,172.33,737.17,170.05Z" fill="#2f2e41" data-secondary="true"/>
<path d="M704.34,611.65l3.25,31.18s-29.74-9.57-30.57,19.62l60.67-4.1-3.06-48.85Z" fill="#0071f2" data-primary="true"/>
<path d="M704.34,611.65l3.25,31.18s-29.74-9.57-30.57,19.62l60.67-4.1-3.06-48.85Z" opacity="0.2"/>
<g opacity="0.6">
<path d="M726.16,638.92a2.47,2.47,0,0,1,1.9,2.7,2.38,2.38,0,0,1-2.67,1.92,2.63,2.63,0,0,1-2-2.88,2.47,2.47,0,0,1,3-1.68" fill="#fff"/>
</g>
<path d="M699.83,383.49s-26.52,122-27.34,132.91,32.88,105,32.88,105l29-5.61s-1.84-138.89-2.77-141.61,7.4-71,7.4-71Z" fill="#2f2e41" data-secondary="true"/>
<path d="M699.83,383.49s-26.52,122-27.34,132.91,32.88,105,32.88,105l29-5.61s-1.84-138.89-2.77-141.61,7.4-71,7.4-71Z" opacity="0.2"/>
<path d="M717.85,613.11l.32,31.33s-31.07-10.31-32.23,16.66l60.79.63,1.49-47.93Z" fill="#0071f2" data-primary="true"/>
<g opacity="0.6">
<path d="M737,642.3a2.48,2.48,0,0,1,1.65,2.8,2.39,2.39,0,0,1-2.8,1.65,2.61,2.61,0,0,1-1.73-3,2.47,2.47,0,0,1,3.14-1.4" fill="#fff"/>
</g>
<g opacity="0.3">
<polygon points="717.92 619.32 717.96 624.89 747.85 625.38 748.01 620.35 717.92 619.32"/>
</g>
<path d="M767.38,381.61l-68.31,1.88L708.88,505,715,622.18l35.44,1.23c1.8-22.62,1.93-102.52,1.93-102.52l7.1-48.26c1.66-13,6.88-26.69,9.41-38.38,1.47-6.85,3.63-15.75,4.09-18.66C774.34,407,767.38,381.61,767.38,381.61Z" fill="#2f2e41" data-secondary="true"/>
<polygon points="664.17 250.2 646.68 231.53 632.89 241.18 646.68 261.58 664.17 250.2" fill="#f9b499"/>
<path d="M774.76,255.81,773.92,244l-39.5-.56-.33,14.87s-19.4,21-26.44,44.48c-11.83,39.55-16.12,89.88-16.12,89.88h80.84c-.84-13.93-6.59-45.09-6.59-45.09l18-53.6C788.21,274.68,774.76,255.81,774.76,255.81Z" fill="#0071f2" data-primary="true"/>
<path d="M734.55,258.05a25.11,25.11,0,0,1,4.32-7.55c2.8-3.82,5.88-7.83,10.29-9.64,3-1.22,10.75-.55,12.82-3,6.45-7.82-3-12.61.42-23.41,3.77-11.76,1.83-9.95,2.12-19.21L778.83,189c2.25,1.68,8.5,7.75,7.82,10.48a16.28,16.28,0,0,0,.54,9c2.2,6.91,9.81,11,13.4,17.27s-.48,15-.58,22.41,2.71,16.34,10,18a28,28,0,0,1-12.69,12.61l-4.54-6.17a12.12,12.12,0,0,1-8.41,13.1c-1.53-6.52-3.13-13.22-7.08-18.63s-10.8-9.23-17.26-7.49c-4.33,1.15-7.66,4.48-11.53,6.74s-9.33,3.22-12.42,0A8.51,8.51,0,0,1,734.55,258.05Z" fill="#2f2e41" data-secondary="true"/>
<g opacity="0.3">
<path d="M704.86,316c18.64-3.39,43.44-7.45,62.08-10.86a3.75,3.75,0,0,1,2.1,0,2.56,2.56,0,0,1,1,3.41,6.2,6.2,0,0,1-2.92,2.6c-6.12,3.2-13.28,3.46-20.18,3.64L704.86,316Z"/>
</g>
<path d="M765.4,263.41c4.89.61,8.07,1.4,13.79,7.57a12.26,12.26,0,0,1,1.7,2.4c6.36,11.2,1.76,26.62-10.43,30.89l-11.8,2.43L694,317.13s-13.76,3.09-25.58-15.25c-4.33-6.74-34.19-51.27-34.19-51.27l19.61-13.13,39.55,42.3Z" fill="#0071f2" data-primary="true"/>
<path d="M646.6,217.05a40.81,40.81,0,0,1-.37-8,.91.91,0,0,0-.81-1h-.21a4.33,4.33,0,0,0-3.6,3.14,11.76,11.76,0,0,0-.41,4.53v4.47s-12.44-14.9-15-15.57a1.75,1.75,0,0,0-2.34.81l0,0c-.46.74.47,2.48.47,2.48l7,10s-10.6-12.47-12.52-12.44-2.81,1.4-1.56,3.71c.91,1.7,10.17,12.61,10.17,12.61s-9.9-9.55-11.88-9.48-1.64,2.17-.6,3,8.41,9.4,8.41,9.4-7.16-6.05-8.61-5.6-.82,2.07-.07,3.37,18.72,19.26,18.72,19.26L649,234h0a15.11,15.11,0,0,0-.23-6.59A79.45,79.45,0,0,1,646.6,217.05Z" fill="#f9b499"/>
</svg>