 <!DOCTYPE svg PUBLIC "-//W3C//DTD SVG 1.1//EN" "http://www.w3.org/Graphics/SVG/1.1/DTD/svg11.dtd">
<svg id="a1cb9ae2-45c7-4710-b3ee-d75707dd75d7" data-name="Layer 1" xmlns="http://www.w3.org/2000/svg" width="865.76" height="682.89" viewBox="0 0 865.76 682.89">
<defs>
<style xmlns="http://www.w3.org/1999/xhtml">*, ::after, ::before { box-sizing: border-box; }
img, svg { vertical-align: middle; }
</style>
<style xmlns="http://www.w3.org/1999/xhtml">*, body, html { -webkit-font-smoothing: antialiased; }
img, svg { max-width: 100%; }
</style>
</defs>
<g id="ef863172-59f6-4d36-a805-f70f85127a40" data-name="freepik--background-complete--inject-17">
<rect x="721.67" y="628.13" width="57.35" height="0.43" fill="#ebebeb"/>
<rect x="558.47" y="632.84" width="15.05" height="0.43" fill="#ebebeb"/>
<rect x="686.71" y="612.06" width="33.23" height="0.43" fill="#ebebeb"/>
<rect x="90.84" y="614.97" width="74.78" height="0.43" fill="#ebebeb"/>
<rect x="181.05" y="614.97" width="10.96" height="0.43" fill="#ebebeb"/>
<rect x="227.64" y="622.27" width="162.21" height="0.43" fill="#ebebeb"/>
<path d="M412.8,523H78.44a9.89,9.89,0,0,1-9.89-9.89v-470a9.89,9.89,0,0,1,9.89-9.8H412.8a9.88,9.88,0,0,1,9.88,9.89h0v469.9A9.88,9.88,0,0,1,412.8,523ZM78.44,33.71A9.48,9.48,0,0,0,69,43.16v470a9.48,9.48,0,0,0,9.46,9.46H412.8a9.48,9.48,0,0,0,9.45-9.46v-470a9.47,9.47,0,0,0-9.45-9.45Z" fill="#ebebeb"/>
<path d="M787.33,523H453a9.89,9.89,0,0,1-9.89-9.89v-470a9.89,9.89,0,0,1,9.89-9.8H787.33a9.88,9.88,0,0,1,9.88,9.89v469.9A9.88,9.88,0,0,1,787.33,523ZM453,33.71a9.48,9.48,0,0,0-9.46,9.45v470a9.48,9.48,0,0,0,9.46,9.46H787.33a9.48,9.48,0,0,0,9.45-9.46v-470a9.47,9.47,0,0,0-9.45-9.45Z" fill="#ebebeb"/>
<rect y="600.27" width="865.76" height="0.43" fill="#ebebeb"/>
<path d="M692.61,383.36l-26.46-8.17a1.73,1.73,0,0,1-1-2.22,1.7,1.7,0,0,1,1.62-1.14l30.51,1.61c-7.2-12.52-11.46-20.35-16.31-30.15a1.73,1.73,0,0,1,2.82-1.9c6.51,7.32,12,13.26,20.69,22.63,2.08-12.12,4.51-23.29,7.52-34.5a1.74,1.74,0,0,1,3.38.59,238.9,238.9,0,0,0-.89,27.15l.83.3q11-12.54,23.05-24.09a1.73,1.73,0,0,1,2.51,2.32,316.54,316.54,0,0,0-21.52,30.91q15.69-5.93,31.55-11.48a1.73,1.73,0,0,1,1.42,3.12c-11,6.21-21.79,12.57-32.63,19.15l27.9,8.88a1.73,1.73,0,0,1-.62,3.36L718.29,388c5.66,6.63,9.61,11.18,14.18,16.33a1.73,1.73,0,0,1-2.23,2.58c-5.77-3.83-10.82-7.22-18.22-12.12.76,5.88,1.4,10.39,2.18,14.92a1.73,1.73,0,0,1-3.29.92c-1.92-4.9-3.67-9.77-5.88-16.24-8.33,39.82-6.19,78.49,1.88,118.11l-10-1.74a309.84,309.84,0,0,1,4.68-116.91c-5,5.2-8.66,9.06-12.12,13a1.74,1.74,0,0,1-2.76-2c2.36-3.91,4.9-7.87,8.33-13-8.91,2-15,3.31-21.75,4.83a1.73,1.73,0,0,1-2-1.39,1.75,1.75,0,0,1,.87-1.83C678.38,390.15,684.14,387.38,692.61,383.36Z" fill="#ebebeb"/>
<path d="M678.53,397.12l20.33-10.77a2.3,2.3,0,0,0-1.64-4.27l-25.09,6.25c4.08-11.78,6.68-19.71,9.19-28.43a2.3,2.3,0,0,0-4.19-1.82c-4.12,6.92-8,13.16-13.85,22.35-3.57-9.42-7-18.18-11-26.73a2.3,2.3,0,0,0-4.31,1.54c1.73,6.79,3.17,13.63,4.28,20.33l-.76.45q-9.87-7.69-20.19-14.74a2.31,2.31,0,0,0-2.88,3.59q10.88,9.94,20.78,20.88-13.35-2.31-26.75-4.4a2.3,2.3,0,0,0-1.09,4.45c9.87,3.46,19.67,6.93,29.43,10.61l-21.62,11.71a2.3,2.3,0,0,0,1.73,4.26l23.29-5.91c-3.38,5.91-6,10.39-8.66,14.86a2.3,2.3,0,0,0,3.6,2.82l12.42-12.22c.2,3.46.38,6.54.48,9.38a2.3,2.3,0,0,0,4.57.3c.57-3.47,1.13-7.07,1.73-11.38,15.59,37.59,20.78,75.95,20.19,116.38l9.47-3.64a309.66,309.66,0,0,0-26.42-114c3.6,2.53,6.62,4.68,9.37,6.71a2.31,2.31,0,0,0,3.05-3.47c-1.87-2-3.93-4.1-6.31-6.53,6.93.2,12.23.35,17.32.52a2.3,2.3,0,0,0,.67-4.52C690.72,400.33,685.48,398.92,678.53,397.12Z" fill="#f0f0f0"/>
<path d="M714.43,419l-15.17-8.06a1.63,1.63,0,0,1-.66-2.2,1.65,1.65,0,0,1,1.82-.81l18.68,4.66c-3-8.76-4.93-14.58-6.8-21.09a1.63,1.63,0,0,1,3-1.28c3.08,5.09,6,9.76,10.28,16.6,2.62-7,5.32-13.5,8.28-19.89a1.63,1.63,0,0,1,3,1.09c-1.33,5.19-2.43,10.39-3.26,15.43l.49.27q7.49-5.83,15.34-11.16a1.63,1.63,0,1,1,2,2.56q-8.19,7.42-15.59,15.58,10-1.73,20-3.31a1.63,1.63,0,0,1,.78,3.16q-11,3.83-22,7.93l16.11,8.65a1.63,1.63,0,0,1-1.18,3l-17.32-4.4c2.53,4.45,4.45,7.77,6.46,11.15a1.63,1.63,0,0,1-2.54,2l-9.32-9.16c-.17,2.75-.29,5.11-.38,7.31a1.63,1.63,0,0,1-3.24.21c-.43-2.62-.86-5.42-1.35-8.77-11.39,27.41-15.1,55.41-14.72,84.85l-6.92-2.65a226,226,0,0,1,19.25-83.11c-2.79,2-5.19,3.63-7.24,5.19a1.62,1.62,0,0,1-2.16-2.42c1.47-1.56,3.06-3.22,4.95-5.2L702,425.5a1.63,1.63,0,0,1-.49-3.2C705.27,421.36,709.18,420.33,714.43,419Z" fill="#f5f5f5"/>
<path d="M671.68,600h51.63a6.82,6.82,0,0,0,6.82-6.4l5.47-89.07c.25-3.93-76.46-3.93-76.18,0l5.49,89.07A6.82,6.82,0,0,0,671.68,600Z" fill="#e0e0e0"/>
<path d="M668.54,394.18a5.21,5.21,0,0,1-1.85-4.62l1.16-9.87-2.65,4.59a5.19,5.19,0,0,1-7.08,1.94,3.76,3.76,0,0,1-.59-.39l-5.19-3.91,4.72,7.64a5.2,5.2,0,0,1-1,6.72l-6.11,5.19,6-1.37a5.19,5.19,0,0,1,6.13,3.46l2.06,6.31,1.32-6.7a5.2,5.2,0,0,1,6.08-4.13,4.94,4.94,0,0,1,.52.13l4,1.17Z" fill="#e6e6e6"/>
<path d="M703,377.18a3.77,3.77,0,0,0,1.35-3.38l-.85-7.22,1.94,3.36a3.81,3.81,0,0,0,5.2,1.41,3.62,3.62,0,0,0,.41-.27l3.78-2.86-3.47,5.58a3.81,3.81,0,0,0,.77,4.9l4.46,3.84-4.38-1a3.81,3.81,0,0,0-4.47,2.53l-1.5,4.6-1-4.9a3.83,3.83,0,0,0-4.5-3l-.32.08-2.94.86Z" fill="#f5f5f5"/>
<path d="M723.4,418.51a2.8,2.8,0,0,0,1-2.44l-.61-5.2,1.39,2.41a2.73,2.73,0,0,0,3.73,1l.28-.19,2.72-2.06-2.47,4a2.73,2.73,0,0,0,.53,3.46l3.21,2.76-3.14-.73a2.72,2.72,0,0,0-3.2,1.73l-1.09,3.31L725,423.1a2.74,2.74,0,0,0-3.22-2.16l-.25.06-2.11.62Z" fill="#e6e6e6"/>
<rect x="618.42" y="173.03" width="49.89" height="13.38" rx="2.29" fill="#f5f5f5"/>
<rect x="603.18" y="189.62" width="49.89" height="13.38" rx="2.29" fill="#f5f5f5"/>
<rect x="655.38" y="189.62" width="49.89" height="13.38" rx="2.29" fill="#f0f0f0"/>
<rect x="159.53" y="265.39" width="52.92" height="14.2" rx="2.29" fill="#f5f5f5"/>
<rect x="159.53" y="300.63" width="52.92" height="14.2" rx="2.29" fill="#f5f5f5"/>
<rect x="143.37" y="283" width="52.92" height="14.2" rx="2.29" fill="#f5f5f5"/>
<rect x="198.74" y="283" width="52.92" height="14.2" rx="2.29" fill="#f0f0f0"/>
<rect x="656.46" y="286.06" width="54.63" height="14.67" rx="2.29" fill="#f5f5f5"/>
<rect x="673.15" y="267.9" width="54.63" height="14.67" rx="2.29" fill="#f5f5f5"/>
<rect x="615.96" y="267.9" width="54.63" height="14.67" rx="2.29" fill="#f0f0f0"/>
<rect x="141.03" y="212.82" width="57.49" height="15.43" rx="2.29" fill="#f5f5f5"/>
<rect x="167.87" y="193.7" width="57.49" height="15.43" rx="2.29" fill="#f5f5f5"/>
<rect x="107.72" y="193.7" width="57.49" height="15.43" rx="2.29" fill="#f0f0f0"/>
<rect x="250.47" y="45" width="2.34" height="69.3" fill="#e6e6e6"/>
<polygon points="177.59 152.79 251.63 108.05 325.68 152.79 177.59 152.79" fill="#f0f0f0"/>
<polygon points="256.75 152.79 251.63 108.05 284.92 152.79 256.75 152.79" fill="#f5f5f5"/>
<rect x="612.96" y="45" width="2.34" height="69.3" fill="#e6e6e6"/>
<polygon points="540.1 152.79 614.14 108.05 688.18 152.79 540.1 152.79" fill="#f0f0f0"/>
<polygon points="619.25 152.79 614.14 108.05 647.42 152.79 619.25 152.79" fill="#f5f5f5"/>
</g>
<path d="M328.78,188.77h-8.66v-8.66a4.33,4.33,0,0,1,4.3-4.33h0a4.33,4.33,0,0,1,4.33,4.33Z" fill="#263238"/>
<path d="M545.64,188.77H537v-8.66a4.33,4.33,0,0,1,4.33-4.33h0a4.32,4.32,0,0,1,4.33,4.3v8.69Z" fill="#263238"/>
<rect x="283.57" y="187.8" width="298.62" height="164.2" rx="9.77" fill="#e6e7e8"/>
<path d="M572.43,356.33H293.34a14.12,14.12,0,0,1-14.1-14.1V197.57a14.12,14.12,0,0,1,14.1-14.1H572.43a14.11,14.11,0,0,1,14.09,14.1V342.23A14.11,14.11,0,0,1,572.43,356.33ZM293.34,192.13a5.46,5.46,0,0,0-5.44,5.44V342.23a5.46,5.46,0,0,0,5.44,5.44H572.43a5.46,5.46,0,0,0,5.43-5.44V197.57a5.46,5.46,0,0,0-5.43-5.44Z" fill="#2f2e41" data-secondary="true"/>
<path d="M376.4,220.58c11.15.52,24.85,7.36,27.7,19.27,3.47,14.34-15.58,20.17-26.26,20.52-10.17.31-27.47-3.31-29.25-15.59-2-14,18.08-17,27.86-17.21a.65.65,0,0,0,.54-.75.66.66,0,0,0-.54-.55c-10.18.25-29.43,3.12-29.43,16.89,0,14.28,19.86,18.9,30.78,18.58s28.62-5.67,27.95-19.41-17.21-22.43-29.33-23a.65.65,0,0,0,0,1.3Z" fill="#2f2e41" data-secondary="true"/>
<path d="M342.2,295.22c.12,3.69.5,7.43.38,11.12,0,1.09,1.21.43-.66.4s-3.46.12-5.29.17l-13.56.47a49.32,49.32,0,0,0-5.3.19c-1.87.28-.61.45-.71-.1-.73-3.88-.29-8.37-.43-12.33a7.25,7.25,0,0,1,0-2.08c.26-.85-1,.54-.44.28a12.17,12.17,0,0,1,3.76-.14l22.84-.78c.83,0,.85-1.34,0-1.3L316,292a.66.66,0,0,0-.64.66q.26,7.76.54,15.58a.66.66,0,0,0,.64.66l26.82-.94a.68.68,0,0,0,.66-.64l-.42-12.12c0-.83-1.33-.83-1.3,0Z" fill="#2f2e41" data-secondary="true"/>
<path d="M407.74,296.3c.17,5.09,1.23,10.82.54,15.84-.26,2,1.4.33-1.2.83a51.42,51.42,0,0,1-7.55.26l-19.3.68c-2.46,0-5.08.41-7.55.26s-.77.84-1.3-.42c-1.85-4.38-.43-12.78-.61-17.57,0-1.74.26-3.28-.43-2.86,1-.62,4.09-.14,5.35-.17L408.22,292a.65.65,0,0,0,0-1.3L370,292a.68.68,0,0,0-.66.66l.78,22.18a.63.63,0,0,0,.61.64h0L409,314.2a.64.64,0,0,0,.64-.64c-.19-5.77-.4-11.51-.59-17.32,0-.83-1.33-.83-1.3,0Z" fill="#2f2e41" data-secondary="true"/>
<path d="M552,222.86a90.16,90.16,0,0,1,.34,10.13c-.22,3.19,1.41.82-.9,1.73-4.95,1.86-13.35.47-18.68.66l-24.45.83c-2.79.11-5.59.31-8.38.3-.47,0-1.73.31-2.1,0-1.26-.73.9,1.52,0-.21-1.19-2.36-.26-7.72-.34-10.39,0-.66-.61-3.86-.16-4.42-.34.44-.64.85.4.39,4.23-1.94,13.07-.45,17.61-.61L552.5,220c.83,0,.83-1.33,0-1.3l-55.85,1.92a.67.67,0,0,0-.65.66c.19,5.32.36,10.61.55,15.93a.66.66,0,0,0,.66.64L553.05,236a.66.66,0,0,0,.66-.64l-.43-12.4c0-.83-1.34-.83-1.3,0Z" fill="#2f2e41" data-secondary="true"/>
<path d="M562.33,244H488a.66.66,0,0,0,0,1.3h74.3a.66.66,0,0,0,.54-.76A.65.65,0,0,0,562.33,244Z" fill="#2f2e41" data-secondary="true"/>
<path d="M555.82,258.34H518.63a.66.66,0,0,0,0,1.3h37.19a.66.66,0,0,0,0-1.3Z" fill="#2f2e41" data-secondary="true"/>
<path d="M545.64,264.07h-27a.67.67,0,0,0-.55.76.66.66,0,0,0,.55.54h27a.66.66,0,0,0,0-1.3Z" fill="#2f2e41" data-secondary="true"/>
<path d="M399.46,240.73H362.32a.66.66,0,0,0-.54.76.65.65,0,0,0,.54.54h37.14a.67.67,0,0,0,.55-.76A.68.68,0,0,0,399.46,240.73Z" fill="#2f2e41" data-secondary="true"/>
<path d="M389.33,246.46h-27a.66.66,0,0,0-.54.76.64.64,0,0,0,.54.54h27a.66.66,0,0,0,.55-.75A.68.68,0,0,0,389.33,246.46Z" fill="#2f2e41" data-secondary="true"/>
<path d="M555.56,279.45H518.42a.66.66,0,0,0,0,1.3h37.14a.66.66,0,0,0,.54-.76A.64.64,0,0,0,555.56,279.45Z" fill="#2f2e41" data-secondary="true"/>
<path d="M537,307.6H518.42a.66.66,0,0,0-.54.76.64.64,0,0,0,.54.54H537a.65.65,0,0,0,.54-.75A.66.66,0,0,0,537,307.6Z" fill="#2f2e41" data-secondary="true"/>
<path d="M338.06,300.56H319.48a.65.65,0,0,0,0,1.29h18.58a.65.65,0,0,0,.55-.75.66.66,0,0,0-.55-.54Z" fill="#2f2e41" data-secondary="true"/>
<path d="M400,300.89l-22,1.73c-.83,0-.85,1.36,0,1.3l22-1.74C400.81,302.18,400.83,300.82,400,300.89Z" fill="#2f2e41" data-secondary="true"/>
<path d="M452.29,271.33H432a.66.66,0,0,0,0,1.3h20.31a.67.67,0,0,0,.55-.76A.66.66,0,0,0,452.29,271.33Z" fill="#2f2e41" data-secondary="true"/>
<path d="M555.56,302.46H518.42a.66.66,0,0,0-.54.76.65.65,0,0,0,.54.54h37.14a.66.66,0,0,0,0-1.3Z" fill="#2f2e41" data-secondary="true"/>
<path d="M425.82,265.39l-.52,15.12a.62.62,0,0,0,.6.64h0l33.47,1.16a.66.66,0,0,0,.64-.64l.67-19.45a.65.65,0,0,0-.65-.64l-33.46-1.16a.65.65,0,0,0,0,1.3l28.49,1c1.07,0,3.62-.4,4.52.15s-.64-1.21-.21-.19a5.76,5.76,0,0,1,0,2.11c-.76,5,.93,11.08-.56,15.9-.36,1.18,1.3.17-1.05.28-2,0-4-.14-6-.21l-17.49-.61c-2.19-.08-4.39-.19-6.61-.22s-.83.64-1-.66c-.45-4.47.33-9.37.49-13.85a.67.67,0,0,0-.76-.55.66.66,0,0,0-.54.55Z" fill="#2f2e41" data-secondary="true"/>
<path d="M352.92,261.79a45.14,45.14,0,0,0-19.34,23.48c-.28.79,1,1.12,1.25.34a43.82,43.82,0,0,1,18.75-22.7C354.29,262.48,353.58,261.35,352.92,261.79Z" fill="#2f2e41" data-secondary="true"/>
<path d="M330.72,278.69c.57,3.36,1.16,6.73,1.73,10.09.09.54.75.57,1.09.3l8.37-6.93c.64-.54-.28-1.45-.92-.92l-8.36,6.93,1.07.28c-.57-3.36-1.14-6.74-1.73-10.1C331.83,277.51,330.58,277.87,330.72,278.69Z" fill="#2f2e41" data-secondary="true"/>
<path d="M399.69,257.18a36.23,36.23,0,0,1,18.21,16.05c.4.75,1.53.09,1.13-.66a37.53,37.53,0,0,0-19-16.64c-.78-.31-1.11.94-.34,1.25Z" fill="#2f2e41" data-secondary="true"/>
<path d="M419.27,266.88v8.47l1-.56-7.76-4.59a.65.65,0,0,0-.64,1.13l7.76,4.59a.66.66,0,0,0,.89-.27.64.64,0,0,0,.08-.3v-8.47a.66.66,0,0,0-1.3,0Z" fill="#2f2e41" data-secondary="true"/>
<path d="M384.56,268.06c1.12,5.35,2,10.75,2.73,16.17.12.81,1.37.47,1.25-.35-.75-5.42-1.6-10.82-2.74-16.17C385.63,266.9,384.38,267.24,384.56,268.06Z" fill="#2f2e41" data-secondary="true"/>
<path d="M389.78,279.93c-.71,2-1.42,4-2.11,6l1.08-.27q-2.19-2.61-4.4-5.2c-.54-.64-1.46.29-.92.92l4.4,5.19a.65.65,0,0,0,.93,0,.78.78,0,0,0,.16-.28l2.13-6C391.33,279.48,390.06,279.15,389.78,279.93Z" fill="#2f2e41" data-secondary="true"/>
<path d="M505.69,264.09H494.21l.66.64V253.27l-.66.64h11.48l-.66-.64v11.46a.66.66,0,0,0,.76.54.64.64,0,0,0,.54-.54V253.27a.66.66,0,0,0-.64-.66H494.21a.66.66,0,0,0-.64.66v11.46a.66.66,0,0,0,.64.66h11.48a.66.66,0,0,0,0-1.3Z" fill="#2f2e41" data-secondary="true"/>
<path d="M505.69,285.2H494.21l.66.64V274.38l-.66.64h11.48l-.66-.64v11.46a.66.66,0,0,0,.76.54.64.64,0,0,0,.54-.54V274.38a.66.66,0,0,0-.64-.66H494.21a.66.66,0,0,0-.64.66v11.46a.66.66,0,0,0,.64.66h11.48a.67.67,0,0,0,.55-.76A.66.66,0,0,0,505.69,285.2Z" fill="#2f2e41" data-secondary="true"/>
<path d="M505.69,306.29H494.21l.66.66V295.47l-.66.65h11.48l-.66-.65V307a.67.67,0,0,0,.76.54.66.66,0,0,0,.54-.54V295.47a.67.67,0,0,0-.64-.65H494.21a.67.67,0,0,0-.64.65V307a.66.66,0,0,0,.64.64h11.48a.67.67,0,0,0,.55-.76A.66.66,0,0,0,505.69,306.29Z" fill="#2f2e41" data-secondary="true"/>
<path d="M491.15,255.69a19.07,19.07,0,0,1,7.39,5.7.65.65,0,0,0,.88.22l.13-.1c3.74-3.46,8.39-6.77,13.45-7.62.83-.14.48-1.4-.33-1.26-5.33.92-8.74,4.43-13.11,7.15-1.4.88-.1.4-.57,0-.9-.64-1.63-1.73-2.53-2.41a22.24,22.24,0,0,0-4.67-2.84c-.75-.34-1.4.78-.64,1.11Z" fill="#2f2e41" data-secondary="true"/>
<path d="M491.15,277.79a18.83,18.83,0,0,1,7.39,5.68.65.65,0,0,0,.88.23.57.57,0,0,0,.13-.1c3.74-3.46,8.39-6.77,13.45-7.61.83-.14.48-1.41-.33-1.27-5.33.9-8.74,4.43-13.11,7.15-1.4.89-.1.4-.57,0-.9-.65-1.63-1.73-2.53-2.4a22.33,22.33,0,0,0-4.67-2.86c-.75-.33-1.4.78-.64,1.12Z" fill="#2f2e41" data-secondary="true"/>
<path d="M491.15,297.91a18.83,18.83,0,0,1,7.39,5.68.65.65,0,0,0,.88.23l.13-.09c3.74-3.47,8.39-6.78,13.45-7.62.83-.16.48-1.41-.33-1.27-5.33.9-8.74,4.44-13.11,7.15-1.4.89-.1.4-.57,0-.9-.65-1.63-1.73-2.53-2.4a22.33,22.33,0,0,0-4.67-2.86c-.75-.33-1.4.78-.64,1.13Z" fill="#2f2e41" data-secondary="true"/>
<path d="M524.88,607.68c0,30.42,51.18,37.85,114.28,37.85s88.46-7.43,88.46-37.85-17.69-67.39-80.91-67.39S524.88,577.27,524.88,607.68Z" fill="#ccc"/>
<path d="M525.41,605.76c0,30.42,51.18,37.85,114.28,37.85s88.46-7.43,88.46-37.85-17.69-67.39-80.91-67.39S525.41,575.35,525.41,605.76Z" fill="#fff" opacity="0.5" style="isolation:isolate"/>
<path d="M516.64,565.06c-2.34,41.82,9.22,64.4,35.6,65.8s49.62-31.25,51.94-73.07-24.24-73.86-50.59-75.34S519,523.23,516.64,565.06Z" fill="#ccc"/>
<path d="M517.17,563.14c-2.34,41.82,9.23,64.4,35.6,65.8s49.62-31.25,51.94-73.07S580.47,482,554.12,480.53,519.49,521.31,517.17,563.14Z" fill="#fff" opacity="0.5" style="isolation:isolate"/>
<path d="M645.41,543.89s24.54-3.12,26.7,5.54-40.47,3.89-49,12.55,27.81,13.11,19.9,18.29c-6.22,4.07-27.47-14.39-54.58-7.47s-31-13.52-28-32.51,5.2-39.41,13.42-37.85S608.75,541.36,645.41,543.89Z" opacity="0.1" style="isolation:isolate"/>
<path d="M569.1,574.9s-25.38-4.47-26.79,6.16S539,576,569.1,574.9Z" opacity="0.1" style="isolation:isolate"/>
<path d="M528.12,619.78c-7.14-8.36-11-21.33-11.71-38.7,3.26,33.07,22.51,54.51,99.13,58s93.73-19.48,102-16.73c3.47,1.14,3.47,4.31,2.32,7.58-11.7,12.12-37.26,15.59-80.69,15.59C585.45,645.53,540.41,640.13,528.12,619.78Z" opacity="0.1" style="isolation:isolate"/>
<path d="M660.08,478.26a11.7,11.7,0,0,0-5.7,2.72c-2.13,2.15-8.35,1.92-8.35,1.92l-.62,7.05,14.2-.83Z" fill="#d1d3d4"/>
<path d="M602.81,436.15c1.86-.1,9,3.6,13.23,22.34s3.33,25,36.54,22.87l-1.08,9.34s-28.77,3.08-37.36-3.81S596,436.55,602.81,436.15Z" fill="#33d1cc" data-primary="true"/>
<path d="M612.37,459.2l1.63,2.86s-1.73,17.64,1.61,25.78a11.19,11.19,0,0,1-1.47-.95c-2.3-1.86-4.68-6.38-6.79-12Z" opacity="0.6" style="isolation:isolate"/>
<path d="M565,401.75s-.24,5.47-2.77,6.58,1.86,7.37.63,11.2-4.06,7.27-1,12.4c0,0-.65-4.28,1.51-6.82,0,0-.9,7.16,1.42,7.32s2.77-1.94,6.58-1,.45-5.85.45-5.85a8.1,8.1,0,0,1,2.56,4.59c1,3.58,11.1-.56,15.21.91s5.19-6.09,5.19-6.09,1.84,4.5.35,6a5.57,5.57,0,0,0,3.58-5.2,5.43,5.43,0,0,1,.47,4.1s3.12-.22,2.34-6.25-5.48-7.75-6.7-12.53S578.5,397,578.5,397Z" fill="#2f2e41" data-secondary="true"/>
<path d="M573.14,420.15,586,428.52c0,9,6.46,8.53,6.46,8.53s.11,3.15-7.74,4.31a49.86,49.86,0,0,1-10.56.85C578,437.52,575,426.28,573.14,420.15Z" fill="#f9b499"/>
<path d="M586.8,433.35a11.54,11.54,0,0,1-.89-4.89L574.45,421l-.71,1.28S578.07,433.92,586.8,433.35Z" fill="#f4a48e" style="isolation:isolate"/>
<path d="M569.36,406.4c1.3,10.48,1.63,15,7.27,20,8.49,7.62,21.06,3.74,22.93-6.92,1.73-9.6-.75-25.11-11.29-28.64a14.36,14.36,0,0,0-18.91,15.58Z" fill="#f9b499"/>
<path d="M588.46,391.57s5.63,6.23-.5,8.65-11.66,6.18-12.56,11.36a6.31,6.31,0,0,1-5.9,5.33s-8.1-10.28-2.87-21.07S586.33,387.79,588.46,391.57Z" fill="#2f2e41" data-secondary="true"/>
<path d="M572.2,393.18s6.77-10.48,18.11-5.41,11.85,13.68,9,12.83-7.4-1.73-10.65-7.56S572.2,393.18,572.2,393.18Z" fill="#2f2e41" data-secondary="true"/>
<path d="M573.86,412.92s5.6-.33,2.93,7A12.76,12.76,0,0,0,573.86,412.92Z" fill="#2f2e41" data-secondary="true"/>
<path d="M567.39,414.89a7.7,7.7,0,0,0,4,4.31c2.46,1.13,4.1-1,3.75-3.46-.31-2.27-1.95-5.61-4.6-5.66a3.46,3.46,0,0,0-3.46,3.46A3.14,3.14,0,0,0,567.39,414.89Z" fill="#f9b499"/>
<path d="M647.59,502.4l-29.9-4.14a1,1,0,0,1-.81-1.05,1.18,1.18,0,0,1,.1-.3l18.49-36.15a2.61,2.61,0,0,1,2.7-1.41l29.91,4.14a.92.92,0,0,1,.8,1,.9.9,0,0,1-.09.32L650.21,501A2.6,2.6,0,0,1,647.59,502.4Z" fill="#e0e0e0"/>
<path d="M648.73,502.61l-29.92-4.16a.91.91,0,0,1-.78-1,.8.8,0,0,1,.09-.3L636.68,461a2.66,2.66,0,0,1,2.72-1.4l29.9,4.13a.94.94,0,0,1,.79,1.07,1.31,1.31,0,0,1-.09.28l-18.56,36.16A2.68,2.68,0,0,1,648.73,502.61Z" fill="#ccc"/>
<path d="M665.22,469.92l-3.46-.49a.09.09,0,0,1,0-.14h0l2.13-4.18a.33.33,0,0,1,.31-.15l3.46.47a.1.1,0,0,1,0,.14h0l-2.13,4.14A.33.33,0,0,1,665.22,469.92Z" fill="#e0e0e0"/>
<path d="M646.59,481.4c-.51,1.4-1.73,2.44-2.62,2.32s-1.26-1.39-.76-2.79,1.73-2.46,2.62-2.34S647.11,480,646.59,481.4Z" fill="#fff"/>
<polygon points="676.87 615.87 682.55 639.16 690.71 636.26 688.3 612.61 676.87 615.87" fill="#f9b499"/>
<path d="M691.36,635l-9.87.19a.89.89,0,0,0-.88.73l-1.85,9.26a1.52,1.52,0,0,0,1.18,1.73h.33c4.08-.15,7.72-.45,12.81-.53,6-.11,4.48.64,11.55.6,4.26,0,5-4.86,3.15-5.07-8.29-.89-10.67-3.34-13.85-6.24A3.73,3.73,0,0,0,691.36,635Z" fill="#33d1cc" data-primary="true"/>
<path d="M597.78,503l13-5a77.46,77.46,0,0,1,11.12,16.58c4.26,9-16.24,9-16.24,9l-6.46-12.12Z" fill="#2f2e41" data-secondary="true"/>
<path d="M600.84,507.1l13-5A77.52,77.52,0,0,1,625,518.67c4.26,9-16.24,9-16.24,9l-6.46-12.12Z" opacity="0.3" style="isolation:isolate"/>
<path d="M605.36,500.1c3.69,20.41,10.3,16.76,10.3,16.76l-2.89,4.26-7.86,1-5.68-10.66L597.78,503Z" opacity="0.2" style="isolation:isolate"/>
<polygon points="720.35 573.51 738.6 595.3 745.02 590.47 728.99 566.24 720.35 573.51" fill="#f9b499"/>
<path d="M741.77,584.39l-7.83,6.09a.92.92,0,0,0-.31,1.11l3.72,8.66a1.52,1.52,0,0,0,2,.82h0l.29-.15c3.27-2.44,6.1-4.75,10.24-7.73,4.88-3.46,4.06-2,9.87-6.06,3.46-2.44,1.29-6.82-.32-6-7.3,4-10.84,3-15.15,2.44A3.69,3.69,0,0,0,741.77,584.39Z" fill="#33d1cc" data-primary="true"/>
<path d="M571.3,511.82s-4.73,27.34,4.71,45,30.37,20.88,84.17-36.1c0,0,18.91,8.79,64.45,60.15l10.13-7.84S695.12,508.67,676,493.4s-61.68,27.7-67.06,25.28c-4.8-2.13-7.07-17-7.07-17Z" fill="#2f2e41" data-secondary="true"/>
<path d="M619.63,557.27c10.87-7.49,24.24-19.23,40.55-36.55,0,0,15.58-5.77,21,5.35s9,91.46,9,91.46l-13,3.74s-23.16-72.52-23-77.3Z" fill="#2f2e41" data-secondary="true"/>
<path d="M619.63,555.83c10.87-7.5,24.24-19.24,40.55-36.55,0,0,15.58-5.77,21,5.35s9,91.46,9,91.46l-13,3.74s-23.16-72.52-23-77.3Z" opacity="0.4" style="isolation:isolate"/>
<path d="M681.18,526.07a11.39,11.39,0,0,0-3.86-4.54c4.62,2.45,11.12,8.33,11.88,22.36h0q-2.76-2.6-5.19-4.83A53.56,53.56,0,0,0,681.18,526.07Z" opacity="0.2" style="isolation:isolate"/>
<path d="M660.18,520.72a27.46,27.46,0,0,1,5.59-1.28,120.05,120.05,0,0,1-21.24,28.19l-24.9,9.59C630.5,549.78,643.82,538,660.18,520.72Z" opacity="0.2" style="isolation:isolate"/>
<path d="M614.8,501.62s-3.88,6.29-44.87,12.52c0,0,1.82-12.66-2.51-30.77s-20.26-35.15-4.67-39.55,42.59-13.45,44.91-3.65,6.55,14.08,6.37,21.89S608.13,475.54,614.8,501.62Z" fill="#33d1cc" data-primary="true"/>
<path d="M665.11,481.47a3.31,3.31,0,0,0-.27-2.45c-.61-1.19-1.73-2.73-3.24-2.58-2.49.25-3.15,2-3.78,4.33s-2.59,6.41-.34,7.83S662.92,489.22,665.11,481.47Z" fill="#f9b499"/>
<path d="M571.79,441.28s21.8,1.24,20.51-4.95c0,0-4.24-2-3.46-4.26s-10.39.08-14.79-.54c-1.73-.26-.65,2.08-.78,4.57A14.89,14.89,0,0,1,571.79,441.28Z" fill="#33d1cc" data-primary="true"/>
<path d="M571.79,441.28s21.8,1.24,20.51-4.95c0,0-4.24-2-3.46-4.26s-10.39.08-14.79-.54c-1.73-.26-.65,2.08-.78,4.57A14.89,14.89,0,0,1,571.79,441.28Z" fill="#fff" opacity="0.2"/>
<path d="M568.34,487.63l15.95-.21,5.42-3.69,6.13-2.71.81,2.16s-19,22.15-26.41,20.21A101.84,101.84,0,0,0,568.34,487.63Z" opacity="0.6" style="isolation:isolate"/>
<path d="M581.79,483.08s-6.11,1.85-7.15-2.6c-1.5-6.39-6-24.24-10.51-31.06C559.28,442,569,477.67,569,477.67l2.16,7.52,3.47,4.62,7.37-5.19Z" opacity="0.6" style="isolation:isolate"/>
<path d="M593,439.13s.76,4.17-15.59,3.79C577.38,442.92,596.48,447.49,593,439.13Z" opacity="0.6" style="isolation:isolate"/>
<polygon points="608.29 473.95 608.06 472.19 606.81 472.93 608.29 473.95" fill="#263238"/>
<polygon points="608.29 473.95 608.06 472.19 606.81 472.93 608.29 473.95" fill="#fff" opacity="0.7" style="isolation:isolate"/>
<polygon points="593.36 452.03 593.57 450.89 594.88 450.11 595.98 450.45 607.89 470.31 608.15 472.24 606.83 473.03 605.26 471.89 593.36 452.03" fill="#263238"/>
<polygon points="593.36 452.03 593.57 450.89 594.88 450.11 595.98 450.45 607.89 470.31 608.15 472.24 606.83 473.03 605.26 471.89 593.36 452.03" fill="#fff" opacity="0.6" style="isolation:isolate"/>
<rect x="599.31" y="450.45" width="1.52" height="22.54" transform="translate(-152 374.22) rotate(-30.94)" fill="#fff" opacity="0.5" style="isolation:isolate"/>
<path d="M590.81,477.14l6.76-5.68s-1-11.36,2.68-11.5c3-.12,5.42,3.46,6,8.42s-5,8-5,8l-6.53,7.18Z" fill="#f9b499"/>
<path d="M452.38,367.93s15.18-9.35,23.1,4.07c5.61,9.52,2.51,19.05,6.92,26.87,6.93,12.12,2.32,17.85-8.07,20s-27.06,1.87-24.76-10.25C451.93,396.24,440.36,367.76,452.38,367.93Z" fill="#2f2e41" data-secondary="true"/>
<path d="M469,395s1.26,17.78,4.59,18.09a18.62,18.62,0,0,1-15.59,0l-.53-8.19Z" fill="#f9b499"/>
<polygon points="395.62 646.38 389.51 646.38 391.45 551.44 399.6 551.44 395.62 646.38" fill="#407bff"/>
<polygon points="395.62 646.38 389.51 646.38 391.45 551.44 399.6 551.44 395.62 646.38" fill="#fff" opacity="0.7" style="isolation:isolate"/>
<polygon points="445.76 646.38 439.65 646.38 441.59 551.44 449.75 551.44 445.76 646.38" fill="#e0e0e0"/>
<polygon points="495.89 646.38 502 646.38 500.06 551.44 491.91 551.44 495.89 646.38" fill="#e0e0e0"/>
<rect x="395.98" y="551.44" width="100.32" height="8.88" fill="#e0e0e0"/>
<polygon points="445.75 646.38 451.86 646.38 449.92 551.44 441.76 551.44 445.75 646.38" fill="#e0e0e0"/>
<path d="M502.4,439H485.78c-8.66,0-18,4.52-20.45,12.88-6.93,23.69-12.12,97.94-12.12,97.94h44.5a10.6,10.6,0,0,0,10.53-9.44l9.31-84.5a15.2,15.2,0,0,0-13.43-16.79A16.37,16.37,0,0,0,502.4,439Z" fill="#ccc"/>
<path d="M492.26,439H475.63c-8.65,0-18,4.52-20.43,12.88-6.92,23.69-12.12,97.94-12.12,97.94H486a12.31,12.31,0,0,0,12.24-11l9.08-83a15.22,15.22,0,0,0-13.49-16.78A14.12,14.12,0,0,0,492.26,439Z" fill="#e0e0e0"/>
<path d="M458.63,551.44h-65a10.86,10.86,0,0,1-10.85-10.86h0a10.86,10.86,0,0,1,10.85-10.86h65Z" fill="#e0e0e0"/>
<path d="M498.37,551.44h-42A10.39,10.39,0,0,1,446,541.05v-.94a10.39,10.39,0,0,1,10.39-10.39h42a10.86,10.86,0,0,1,10.86,10.86h0a10.86,10.86,0,0,1-10.86,10.86Z" fill="#ccc"/>
<path d="M437.4,436.81s1.46,15.81-6,22.51c-6.78,6.1-17.75,9.09-17.75,9.09L404,465.59a2.37,2.37,0,0,0-2.49.74l-4.31,5.2a2.47,2.47,0,0,0,.48,3.46h0a2.54,2.54,0,0,0,1.86.52l5-.61a41.69,41.69,0,0,0,6.09.75,32.83,32.83,0,0,0,4.56-1.28s17.23-1.49,24.57-8.83,9.19-22.6,9.19-22.6Z" fill="#f9b499"/>
<polygon points="386.65 605.13 387.78 639.69 395.52 639.69 399.13 604.51 386.65 605.13" fill="#f9b499"/>
<path d="M387.65,636.14h8.82a.8.8,0,0,1,.79.64l1.84,8.3a1.37,1.37,0,0,1-1,1.63h-.28c-3.67,0-6.92-.28-11.51-.28-5.4,0-4,.62-10.39.71-3.83,0-4.52-4.31-2.89-4.52,7.43-.92,9.56-3.17,12.43-5.82A3.25,3.25,0,0,1,387.65,636.14Z" fill="#33d1cc" data-primary="true"/>
<path d="M477.19,475.25s24.1,54.77.95,54.77h-66.8s-2.89,14.56-13.3,94.61H386.88s-1.87-93.76,4.31-107.74c4.83-11,35.86-18.8,50.54-21.68a9.37,9.37,0,0,0,7.51-7.94l3.26-13.46Z" fill="#2f2e41" data-secondary="true"/>
<path d="M477.19,475.25s24.1,54.77.95,54.77h-66.8s-2.89,14.56-13.3,94.61H386.88s-1.87-93.76,4.31-107.74c4.83-11,35.86-18.8,50.54-21.68a9.37,9.37,0,0,0,7.51-7.94l3.26-13.46Z" opacity="0.2" style="isolation:isolate"/>
<polygon points="409.89 605.15 411.19 639.24 418.58 639.23 423.89 604.53 409.89 605.15" fill="#f9b499"/>
<path d="M411.34,636.14h8.83a.82.82,0,0,1,.8.64l1.73,8.3a1.35,1.35,0,0,1-1,1.62h-.32c-3.67,0-6.92-.28-11.49-.28-5.41,0-4,.62-10.39.71-3.81,0-4.5-4.31-2.89-4.52,7.42-.92,9.57-3.17,12.45-5.82A3.22,3.22,0,0,1,411.34,636.14Z" fill="#33d1cc" data-primary="true"/>
<path d="M489.38,476.2s1.73,0,4.33,12.94C497,505.57,501.81,530,486,530H434.91s-2.5,5.94-13.37,94.61H410.37s-6.2-94.89,0-108.86c4.76-10.77,28.42-15.71,41.44-17.4a7.7,7.7,0,0,0,6.92-7.21c.11-3.91-.46-15.58-.46-15.58Z" fill="#2f2e41" data-secondary="true"/>
<path d="M445.63,413.16c-6.24-.94-9.75,14.4-10.08,28.88l14.79,3.46S457.28,414.92,445.63,413.16Z" fill="#33d1cc" data-primary="true"/>
<path d="M445.63,413.16c-6.24-.94-9.75,14.4-10.08,28.88l14.79,3.46S457.28,414.92,445.63,413.16Z" opacity="0.2"/>
<path d="M449.57,483.08a210.93,210.93,0,0,0-2.39-23.26c-2.33-14.89-6.35-31.63-5-42.23a5.49,5.49,0,0,1,5.64-4.83h40.45a4.6,4.6,0,0,1,4.5,4.68,1.93,1.93,0,0,0,0,.24c-1.39,11.36-4.9,39.61.45,66.3C493.21,484,462.32,486.44,449.57,483.08Z" fill="#33d1cc" data-primary="true"/>
<path d="M484.65,433s2.69,18.39-5.42,23.57-25.83,10.54-25.83,10.54l-11-2.32a1.37,1.37,0,0,0-1.45.61l-4.4,7.1a1.48,1.48,0,0,0,.15,1.73h0a1.58,1.58,0,0,0,1.32.54l6.63-.68a31.21,31.21,0,0,0,4.61.76,37,37,0,0,0,5.69-1.33s25.34-2.48,33.08-10.2,8.65-23.79,8.65-23.79Z" fill="#f9b499"/>
<path d="M489.71,413.11c-7.86-.94-5.78,16.62-6.73,28.93l14.68,1.73S501.4,414.49,489.71,413.11Z" fill="#33d1cc" data-primary="true"/>
<path d="M489.71,413.11c-7.86-.94-5.78,16.62-6.73,28.93l14.68,1.73S501.4,414.49,489.71,413.11Z" opacity="0.2"/>
<path d="M456.74,413.9s-1.52,13.11,15.81,1.42a2.71,2.71,0,0,0,.95-3.37,12.87,12.87,0,0,1-1.26-5.2,1.49,1.49,0,0,0-2.3-1.18,18,18,0,0,1-11.78,3,1.51,1.51,0,0,0-1.63,1.38,1.48,1.48,0,0,0,.06.55A6.75,6.75,0,0,1,456.74,413.9Z" fill="#33d1cc" data-primary="true"/>
<path d="M456.74,413.9s-1.52,13.11,15.81,1.42a2.71,2.71,0,0,0,.95-3.37,12.87,12.87,0,0,1-1.26-5.2,1.49,1.49,0,0,0-2.3-1.18,18,18,0,0,1-11.78,3,1.51,1.51,0,0,0-1.63,1.38,1.48,1.48,0,0,0,.06.55A6.75,6.75,0,0,1,456.74,413.9Z" fill="#fff" opacity="0.2"/>
<path d="M469.24,397.54h0C469.09,396,469,395,469,395l-11.46,9.9.27,4.33C461.09,409,465.94,406.82,469.24,397.54Z" fill="#f4a48e" style="isolation:isolate"/>
<path d="M469.9,380.69c.92,10.13,1.53,14.41-2.75,20.33-6.43,8.92-19,7.84-23-1.73-3.46-8.66-4.46-23.78,4.73-29.28a13.85,13.85,0,0,1,21,10.75Z" fill="#f9b499"/>
<path d="M473.49,388.33a7.43,7.43,0,0,1-2.88,4.9c-2.09,1.56-4.07-.09-4.26-2.55s.7-5.69,3.17-6.28a3.34,3.34,0,0,1,4,2.58,3.41,3.41,0,0,1,0,1.35Z" fill="#f9b499"/>
<path d="M456.1,373.57s-2.77,4.33-.64,7.36-12.43-3.3-16.17,3.33c0,0-4.76-20.49,16.81-17.75Z" fill="#2f2e41" data-secondary="true"/>
<path d="M455.39,372.28s-1.61,8.22,3.74,10.75,5.2,9.31,10,8.17c6.93-1.73,2-22.66-9.24-24.93C451.62,364.57,455.39,372.28,455.39,372.28Z" fill="#2f2e41" data-secondary="true"/>
<polygon points="304.16 647.81 298.19 647.81 295.57 489.8 306.77 489.8 304.16 647.81" fill="#e0e0e0"/>
<polygon points="370.06 647.81 364.09 647.81 361.47 489.8 372.68 489.8 370.06 647.81" fill="#e0e0e0"/>
<rect x="301.16" y="487.15" width="112.67" height="12.36" fill="#ccc"/>
<rect x="413.84" y="487.15" width="66.08" height="12.36" fill="#ccc"/>
<polygon points="482.73 647.81 476.76 647.81 474.14 489.8 485.35 489.8 482.73 647.81" fill="#e0e0e0"/>
<rect x="397.59" y="479.2" width="94.59" height="10.6" rx="4.59" fill="#ccc"/>
<rect x="286.29" y="479.2" width="126.04" height="10.6" rx="4.59" fill="#e0e0e0"/>
<polygon points="416.83 647.81 410.86 647.81 408.24 489.8 419.44 489.8 416.83 647.81" fill="#e0e0e0"/>
<path d="M404.42,479.2a1.73,1.73,0,1,1,0-3.46h48a1.73,1.73,0,1,1,0,3.46Z" fill="#e0e0e0"/>
<path d="M408.48,476.15l-6.37-45.43a3.59,3.59,0,0,0-3.46-3h-6.11v51.49h13.35a2.57,2.57,0,0,0,2.64-2.48A2.5,2.5,0,0,0,408.48,476.15Z" fill="#e0e0e0"/>
<path d="M403.26,479.18H349a3.61,3.61,0,0,1-3.46-3l-6.37-45.43a2.56,2.56,0,0,1,2.05-3,2,2,0,0,1,.55,0H396a3.59,3.59,0,0,1,3.46,3l6.39,45.43a2.58,2.58,0,0,1-2.09,3A2.28,2.28,0,0,1,403.26,479.18Z" fill="#ccc"/>
<path d="M375.17,452.19a2.35,2.35,0,0,1-1.9,2.73,2.49,2.49,0,0,1-.47,0,3.3,3.3,0,0,1-3.17-2.77,2.34,2.34,0,0,1,1.88-2.72,2.92,2.92,0,0,1,.51,0A3.3,3.3,0,0,1,375.17,452.19Z" fill="#fff" opacity="0.7" style="isolation:isolate"/>
<path d="M212.41,466c-6.51,38,38.87,18.08,57,18.53a10.28,10.28,0,0,1,3.47.67l5.57,24.12-5.42,25-12.65,20H181.48l-56.95-38.52-14.46-45.21,4.07-73.23,1.73-11.76s1.74,14.48,41.56,10.86,71-16.43,80-3.62C248.39,408.21,216.72,440.88,212.41,466Z" fill="#ccc"/>
<rect x="185.17" y="574.76" width="13.68" height="62.27" fill="#e0e0e0"/>
<rect x="232.28" y="574.76" width="13.68" height="62.27" fill="#e0e0e0"/>
<polygon points="202.71 631.37 181.95 631.37 139.56 639.38 139.56 646.45 148.29 646.45 181.95 640.09 202.71 640.09 236.37 646.45 245.1 646.45 245.1 639.38 202.71 631.37" fill="#e0e0e0"/>
<path d="M236.37,649.53H245a2.13,2.13,0,0,0,0-4.26h-8.66a2.13,2.13,0,0,0,0,4.26Z" fill="#ccc"/>
<path d="M139.56,649.53h8.66a2.13,2.13,0,0,0,0-4.26h-8.66a2.13,2.13,0,0,0,0,4.26Z" fill="#ccc"/>
<path d="M266.27,537.05H184.43V519.4h81.84a8.84,8.84,0,0,1,8.84,8.82h0a8.84,8.84,0,0,1-8.84,8.83Z" fill="#ccc"/>
<path d="M197.09,409.45s10.39,29.44,19,30.06,19-15.1,19-15.1l4.28-11.11,8.66-.73v13.95L239.27,431s-13.52,22.21-24,21.66-21.09-16.8-23.23-25.07C190.82,423,191.6,413.52,197.09,409.45Z" fill="#f9b499"/>
<polygon points="250.53 433.66 253.63 408 241.76 407.18 241.39 433.04 250.53 433.66" fill="#ccc"/>
<rect x="245.93" y="399.82" width="3.71" height="11.9" transform="translate(-173.71 625.74) rotate(-86.15)" fill="#bcbec0"/>
<path d="M242,402.76l10.54.73a.68.68,0,0,1,.63.73h0l-.13,1.87h0l-11.9-.84h0l.13-1.85a.68.68,0,0,1,.71-.64Z" fill="#e0e0e0"/>
<path d="M194.94,435.34S183.7,416.78,190.88,408,209,428.15,209,428.15Z" fill="#33d1cc" data-primary="true"/>
<path d="M194.94,435.34S183.7,416.78,190.88,408,209,428.15,209,428.15Z" opacity="0.2"/>
<path d="M138.63,506.28S124.55,457,141.07,408c0,0,21.42-10,51.94-2.65a6.41,6.41,0,0,1,4.77,7.71s0,.1,0,.15c-3.05,11.9-7.77,40.24,3.64,76.07A137.45,137.45,0,0,1,138.63,506.28Z" fill="#33d1cc" data-primary="true"/>
<path d="M165.43,402.87l10.39,8.95,6-5.31c-2.27-1.73-1.73-5.51-.38-9.63L166.76,385.3C167.47,390.73,168,398.2,165.43,402.87Z" fill="#f9b499"/>
<polygon points="240.73 518.56 259.8 526.31 257.65 534.38 237.29 530.19 240.73 518.56" fill="#f9b499"/>
<path d="M175.61,491s91.27-31.61,98.8-2.56-61.64,49.09-97.88,47.88S175.61,491,175.61,491Z" fill="#2f2e41" data-secondary="true"/>
<path d="M175.61,491s91.27-31.62,98.8-2.56-61.64,49.08-97.88,47.87S175.61,491,175.61,491Z" opacity="0.3" style="isolation:isolate"/>
<path d="M243.47,494l-44.34,28.26,7.06,11.6s-4.28,1.42-10.2-12.76l27.41-18.11s-8.66-.87-8.36-2.2c.36-2.2,19.2-6.41,27.79-8.21a.81.81,0,0,1,.95.61A.82.82,0,0,1,243.47,494Z" opacity="0.7" style="isolation:isolate"/>
<path d="M197.57,521l7.67,13a145.35,145.35,0,0,1-28.62,2.36,26.68,26.68,0,0,1-9.27-1.73l-2.7-5.2,5.82-12.24Z" opacity="0.7" style="isolation:isolate"/>
<polygon points="198.35 522.95 189.72 530.19 193.69 536.34 206.81 534.28 198.35 522.95" fill="#ffc3bd"/>
<polygon points="209.12 534.5 200.11 520.3 196.04 523.21 203.84 535.47 209.12 534.5" fill="#263238"/>
<polygon points="209.12 534.5 200.11 520.3 196.04 523.21 203.84 535.47 209.12 534.5" fill="#fff" opacity="0.3" style="isolation:isolate"/>
<path d="M143.53,521.27c-4.9-8.27-14.38-33.38,8.39-37.71s97.61,37.73,97.61,37.73l-3.46,10.94-70.86-11.68s19.71,17.83-1.85,15.58C156.25,534.38,148.31,529.36,143.53,521.27Z" fill="#2f2e41" data-secondary="true"/>
<polygon points="247.69 518.56 243.26 532.86 247.69 533.46 251.68 521.12 247.69 518.56" fill="#263238"/>
<polygon points="247.69 518.56 243.26 532.86 247.69 533.46 251.68 521.12 247.69 518.56" fill="#3f3d56"/>
<path d="M196.22,536l-3.1-9.47a.81.81,0,0,0-.85-.54l-8.24.81a1.34,1.34,0,0,0-1.22,1.45h0v.27c1.18,3.38,2.38,6.36,3.76,10.6,1.73,5,.63,3.93,2.48,9.85,1.12,3.57,5.37,2.89,5.07,1.32-1.4-7.17.45-8.57,2-12A3.18,3.18,0,0,0,196.22,536Z" fill="#263238"/>
<path d="M258.1,525.79l-3.2,9.72a.85.85,0,0,0,.36,1l7.33,4.36a1.37,1.37,0,0,0,1.88-.46h0l.12-.26c1.1-3.46,1.93-6.7,3.38-11.06,1.73-5.2,1.87-3.64,4-9.65,1.24-3.63-2.69-5.66-3.47-4.19-3.22,6.79-5.59,6.81-9,8.66A3.35,3.35,0,0,0,258.1,525.79Z" fill="#33d1cc" data-primary="true"/>
<path d="M245.6,493.52H204.53a3.46,3.46,0,0,1-3.46-3.47h48.08a3.46,3.46,0,0,1-3.46,3.47Z" fill="#e0e0e0"/>
<path d="M215.37,493.52H185.53a3.46,3.46,0,0,1-3.46-3.47h36.85a3.46,3.46,0,0,1-3.46,3.47Z" fill="#ccc"/>
<path d="M245.88,492.44h-27a.83.83,0,0,1-.83-.83.62.62,0,0,1,.05-.27l12-34.36a2.38,2.38,0,0,1,2.24-1.57h27a.83.83,0,0,1,.82.83.66.66,0,0,1-.05.28l-12,34.35A2.38,2.38,0,0,1,245.88,492.44Z" fill="#e0e0e0"/>
<path d="M247,492.44h-27a.82.82,0,0,1-.82-.83.8.8,0,0,1,0-.27l12-34.36a2.38,2.38,0,0,1,2.24-1.57h27a.83.83,0,0,1,.83.83.87.87,0,0,1-.05.28l-12,34.35A2.36,2.36,0,0,1,247,492.44Z" fill="#ccc"/>
<path d="M242.41,473.93c-.29,1.32-1.19,2.38-2,2.38s-1.3-1.06-1-2.38,1.19-2.39,2-2.39S242.74,472.62,242.41,473.93Z" fill="#fff"/>
<path d="M151.53,422.77s6.6,32.48,11.05,37.87,23.83,19.87,23.83,19.87l11.53-2.4L206.2,485l-5.4,4.26-6.39-2.4a60.35,60.35,0,0,1-10.57.91c-6,0-30.14-14.23-34.94-22.23s-11.51-38.09-11.51-38.09Z" fill="#f9b499"/>
<path d="M161.6,403.1l4.12-2.39,10.05,11.11s-5.53-2.25-7.08-1.33-.42,4.38-2.05,4.42C163,415,161.6,403.1,161.6,403.1Z" fill="#33d1cc" data-primary="true"/>
<path d="M161.6,403.1l4.12-2.39,10.05,11.11s-5.53-2.25-7.08-1.33-.42,4.38-2.05,4.42C163,415,161.6,403.1,161.6,403.1Z" opacity="0.2"/>
<path d="M175.77,411.82,181,401.44l4.3,2.3s4,10.06.93,11.11c-1.85.65-2.56-4.05-4.4-4.74C180.37,409.63,175.77,411.82,175.77,411.82Z" fill="#33d1cc" data-primary="true"/>
<path d="M175.77,411.82,181,401.44l4.3,2.3s4,10.06.93,11.11c-1.85.65-2.56-4.05-4.4-4.74C180.37,409.63,175.77,411.82,175.77,411.82Z" opacity="0.2"/>
<path d="M138.63,438.92S131,415.81,141.07,408s14.77,26.67,14.77,26.67Z" fill="#33d1cc" data-primary="true"/>
<path d="M138.63,438.92S131,415.81,141.07,408s14.77,26.67,14.77,26.67Z" opacity="0.2"/>
<path d="M167,387.22a13.26,13.26,0,0,0-.24-1.92l14.66,11.58a24.25,24.25,0,0,0-1.07,5C171.42,401.94,168.1,392.14,167,387.22Z" fill="#f4a48e" style="isolation:isolate"/>
<path d="M169.5,368.4c-3.07,10.39-4.59,14.7-1.35,21.68,4.85,10.61,18.23,12.12,24.24,2.87,5.44-8.33,9.63-23.84,1.13-31.48a14.71,14.71,0,0,0-24.09,6.93Z" fill="#f9b499"/>
<path d="M167.47,374.48a3.6,3.6,0,0,0,3.47-3.7,3.69,3.69,0,0,0-.12-.82s6.42-.18,6.7-4.89c0,0,5.61,5,7.58,1.09,0,0,6.93,6.15,7.79,2.08,0,0,7.14,8.87,6.77,3.46,0,0,8.05-.81.82-7.77,0,0,6.61-5.78-4.07-8.14,0,0,.93-6.92-6.58-3.84,0,0-1.73-7.46-8.24-3.12,0,0-3.47-5.19-7.38,1.73,0,0-5.68-3.24-7.48,4.09,0,0-10.27,1.25-6,8,0,0,3.16,22.66,6,22.66C168.69,385.3,167.47,374.48,167.47,374.48Z" fill="#2f2e41" data-secondary="true"/>
<path d="M163.94,375.5a7.91,7.91,0,0,0,2.48,5.49c2,1.88,4.31.38,4.79-2.19s0-6.09-2.61-6.92a3.46,3.46,0,0,0-4.43,2.08l-.06.15A3.46,3.46,0,0,0,163.94,375.5Z" fill="#f9b499"/>
<path d="M109.09,386.6S72.22,576,194.14,579.52c111.2,3.15,86.33-87.7,79.11-94s19.88,58.3-24.86,59.22c-54,1.09-63.74-50.22-81.82-50.63s-45.36,23.5-48.13-19.9S130,357.16,109.09,386.6Z" fill="#e0e0e0"/>
<path d="M558.94,444.88c-5.56,1.57-5.92,9.11-.85,27.62s8.79,30.3,18.6,25.85S597.83,482,597.83,482l-4.92-8s-16,13.74-19.32,11.11S567.47,442.49,558.94,444.88Z" fill="#33d1cc" data-primary="true"/>
</svg>