 <!DOCTYPE svg PUBLIC "-//W3C//DTD SVG 1.1//EN" "http://www.w3.org/Graphics/SVG/1.1/DTD/svg11.dtd">
<svg id="f36b822c-3cc2-4aa2-8e8f-d620c8bd5904" data-name="Layer 1" xmlns="http://www.w3.org/2000/svg" width="865.76" height="682.89" viewBox="0 0 865.76 682.89">
<defs>
<style xmlns="http://www.w3.org/1999/xhtml">*, ::after, ::before { box-sizing: border-box; }
img, svg { vertical-align: middle; }
</style>
<style xmlns="http://www.w3.org/1999/xhtml">*, body, html { -webkit-font-smoothing: antialiased; }
img, svg { max-width: 100%; }
</style>
</defs>
<polygon points="345.59 517.58 345.59 535.74 327.6 535.74 332.27 513.37 345.59 511.44 345.59 517.58" fill="#f9b499"/>
<path d="M328.12,524.39H348l-2.16,17.82s14.64.07,16.6,6.6H326.14Z" fill="#2f2e41" data-secondary="true"/>
<rect x="326.14" y="548.81" width="36.27" height="3.78" fill="#2f2e41" data-secondary="true"/>
<line x1="345.81" y1="542.21" x2="343.73" y2="545.94" fill="none" stroke="#000" stroke-miterlimit="10" opacity="0.2"/>
<line x1="348.93" y1="542.48" x2="346.93" y2="545.94" fill="none" stroke="#000" stroke-miterlimit="10" opacity="0.2"/>
<path d="M351.93,542.78s-1.54,2.77-1.73,3.16" fill="none" stroke="#000" stroke-miterlimit="10" opacity="0.2"/>
<path d="M280.45,533.75H300.3l-2.15,17.81s14.63.07,16.59,6.61H278.48Z" fill="#2f2e41" data-secondary="true"/>
<rect x="278.48" y="558.17" width="36.27" height="3.78" fill="#2f2e41" data-secondary="true"/>
<line x1="298.15" y1="551.56" x2="296.07" y2="555.3" fill="none" stroke="#000" stroke-miterlimit="10" opacity="0.2"/>
<line x1="301.26" y1="551.84" x2="299.27" y2="555.3" fill="none" stroke="#000" stroke-miterlimit="10" opacity="0.2"/>
<path d="M304.26,552.14s-1.54,2.76-1.72,3.16" fill="none" stroke="#000" stroke-miterlimit="10" opacity="0.2"/>
<path d="M181.8,322.73h38.68l1.77-88.58H191.72a9.92,9.92,0,0,0-9.92,9.92v78.66" fill="#2f2e41" data-secondary="true"/>
<path d="M428.27,139.6V534.18s1.16,42.36,42.43,43.52c0,0,21.6,0,28.93-28.93h309V139.6a34.41,34.41,0,0,0-34.41-34.4H462.68a34.41,34.41,0,0,0-34.41,34.4Z" fill="#e0dede"/>
<rect x="707.65" y="380.83" width="10.03" height="153.27" fill="#ccc"/>
<path d="M286.68,218c5.37,1.88,14.31-2.31,14.31-2.31,4.05,1-1,4.19-1,4.19,25.17,1.45,16.35-24.15,16.35-24.15,15.47,16.63-2.8,27.19-2.8,27.19,22.41-7,11.32-23.45,7.43-28.29a12.49,12.49,0,0,0-2-1.95,9.53,9.53,0,0,1-2.8-4.33,16.36,16.36,0,0,1-.34-9.35,40.09,40.09,0,0,0,.89-11.72,33.07,33.07,0,0,0-3.33-12.77c-7.91-15.72-23.06-13.31-23.06-13.31-16.06-5.53-27.21,14.94-29.08,18.66-.24.47-.48.93-.75,1.37-5.11,8.15-16.46,12-19.65,13a11.6,11.6,0,0,0-2.66,1.14c-9.61,5.92-2.1,22.25-2.1,22.25-.29-2,.87-5.64.87-5.64,2.89-2.46,2.17,4.77,2.17,4.77-1.45,9.83,14.9,13.6,14.9,13.6-2.17-1-2.46-6.08-2.46-6.08s11.57,10.7,40.06,9.84C291.58,214.11,293.79,215.55,286.68,218Z" fill="#2f2e41" data-secondary="true"/>
<path d="M657,384.22S662.8,348,677.4,321.86a28.37,28.37,0,0,0,3.4-18.05,20.18,20.18,0,0,0-1.59-5.61l-9-26.91s-8.93-17.64,10.87-25.17c0,0,15.16-4.62,17.19-9.83v-13h28.93v14.46s9.25,7,15.33,7c0,0,21.12,7.23,12.15,27.19,0,0-7.46,19.17-9.44,33.74A26.8,26.8,0,0,0,748,321.4c5.93,11.57,19.36,40,20.93,62.82Z" fill="#2f2e41" data-secondary="true"/>
<path d="M697.89,532.49h28A11.07,11.07,0,0,1,737,543.56v2.1a0,0,0,0,1,0,0H686.82a0,0,0,0,1,0,0v-2.1a11.07,11.07,0,0,1,11.07-11.07Z" fill="#ccc"/>
<path d="M566.2,406.33l103.12,16.33v49.48L566.2,487.44s3.06-7.65-11.22-21.68c0,0-16.07-18.62,0-37.49C555,428.27,567.22,416.28,566.2,406.33Z" fill="none" stroke="#2f2e41" stroke-miterlimit="10" stroke-width="2"/>
<line x1="536.02" y1="446.11" x2="542.02" y2="446.11" fill="none" stroke="#bcbec0" stroke-miterlimit="10" stroke-width="2"/>
<line x1="554.75" y1="446.11" x2="675.75" y2="446.11" fill="none" stroke="#bcbec0" stroke-miterlimit="10" stroke-width="2" stroke-dasharray="12.74 12.74"/>
<line x1="682.12" y1="446.11" x2="688.12" y2="446.11" fill="none" stroke="#bcbec0" stroke-miterlimit="10" stroke-width="2"/>
<circle cx="527.09" cy="445.34" r="8.93" fill="#bcbec0"/>
<path d="M570.35,391.58l-1.18-.66c5.62-10.15,7.14-19.72,4.49-28.45-4.19-13.84-17.58-20.89-17.71-21l.62-1.2c.57.3,14,7.36,18.38,21.75C577.71,371.16,576.16,381.09,570.35,391.58Z" fill="#bcbec0"/>
<polygon points="569.31 392.53 565.69 373.05 567.01 372.8 570.21 389.97 586.48 375.89 587.37 376.91 569.31 392.53" fill="#bcbec0"/>
<path d="M661.57,335.72H596.11V269.56s11.21,1.11,14.71-9.07c0,0,9.1-20.33-4.2-81.23l14.7-3.85s3.85,40.6,40.25,41" fill="none" stroke="#2f2e41" stroke-miterlimit="10" stroke-width="2"/>
<line x1="662.92" y1="353.22" x2="662.95" y2="347.22" fill="none" stroke="#bcbec0" stroke-miterlimit="10" stroke-width="2"/>
<line x1="663" y1="334.31" x2="663.54" y2="211.66" fill="none" stroke="#bcbec0" stroke-miterlimit="10" stroke-width="2" stroke-dasharray="12.91 12.91"/>
<line x1="663.57" y1="205.21" x2="663.59" y2="199.21" fill="none" stroke="#bcbec0" stroke-miterlimit="10" stroke-width="2"/>
<circle cx="663.59" cy="184.76" r="9.8" fill="#bcbec0"/>
<rect x="590.43" y="235.75" width="32.46" height="1.05" fill="#bcbec0"/>
<polygon points="619.16 243.76 618.43 243.01 625.41 236.27 618.43 229.46 619.16 228.7 626.92 236.28 619.16 243.76" fill="#bcbec0"/>
<rect x="83.93" y="275.79" width="6.55" height="13.14" fill="#2f2e41" data-secondary="true"/>
<rect x="28.59" y="329.69" width="9.21" height="249.53" fill="#ccc"/>
<rect x="199.05" y="497.77" width="9.21" height="81.45" fill="#ccc"/>
<rect x="17.44" y="307.88" width="90.85" height="17.88" rx="7.51" fill="#2f2e41" data-secondary="true"/>
<rect x="26.12" y="287.76" width="26.17" height="3.54" fill="#2f2e41" data-secondary="true"/>
<rect x="26.12" y="287.76" width="26.17" height="3.54" opacity="0.2"/>
<path d="M108.28,299.59a8.28,8.28,0,0,1-8.28,8.29H25.72a8.29,8.29,0,0,1,0-16.58H100A8.28,8.28,0,0,1,108.28,299.59Z" fill="#ccc"/>
<polygon points="31.58 282.07 29.22 273.11 29.39 273.06 31.74 282.02 31.58 282.07" fill="#ccc"/>
<rect x="36.12" y="271.49" width="0.17" height="8.16" fill="#ccc"/>
<rect x="43.72" y="273.79" width="0.17" height="6.71" fill="#ccc"/>
<polygon points="45.21 281.34 45.08 281.28 48.81 273.06 48.94 273.12 45.21 281.34" fill="#ccc"/>
<circle cx="36.26" cy="271.03" r="1.25" fill="#ccc"/>
<circle cx="43.81" cy="273.08" r="1.25" fill="#2f2e41" data-secondary="true"/>
<path d="M81.31,273.4h11.8v.28A3.11,3.11,0,0,1,90,276.79H84.42a3.11,3.11,0,0,1-3.11-3.11Z" fill="#ccc"/>
<path d="M93.11,291.3H81.31V291a3.12,3.12,0,0,1,3.11-3.11H90A3.12,3.12,0,0,1,93.11,291Z" fill="#ccc"/>
<rect x="60.39" y="275.89" width="6.55" height="13.14" fill="#ccc"/>
<path d="M197.68,322.24h-5.47l3.67-18.1a78.91,78.91,0,0,1,5.22-16.38c4.28-9.63,11.23-26.25,12.81-35.9,0,0,1.62-23.42,28-26.89a17.85,17.85,0,0,0,6.19-2h0l30.66,17.65,20.83-13.31s17.12,4.69,24.85,11a11.08,11.08,0,0,1,3.74,6c1.31,5.57,4.79,19.93,7.45,26.7a70.93,70.93,0,0,1,3.8,13c1,5.42,1.69,11.51.37,13.86l-16.09,8-17.18,11-45.42,6.79Z" fill="#33d1cc" data-primary="true"/>
<g opacity="0.2">
<path d="M230.38,303.39l-.61-.31c3.06-6,1.19-15.77,1.17-15.86l0-.1,0-.09,8.68-23.43.63.24-8.64,23.34C231.82,288.27,233.41,297.42,230.38,303.39Z"/>
</g>
<path d="M342.1,305.94l.74-1.7a3.68,3.68,0,0,0-1.45-4.58l-4.09-2.52a10.84,10.84,0,0,0-12.83,1.06l-8.15,7.12,7.34.52s5.47.66,7.5,3.87h5.21A6.23,6.23,0,0,0,342.1,305.94Z" fill="#f9b499"/>
<path d="M329.57,516.07l24.64,2.32,14.28-113.53a22.75,22.75,0,0,0-15.67-24.52L329.73,373Z" fill="#2f2e41" data-secondary="true"/>
<path d="M268.54,200.93a26.48,26.48,0,0,1-1.62,9.74,11.86,11.86,0,0,1-6,6.26l-14.21,6.65,31.85,18.73L301,227.69S288.11,223.8,288.16,212" fill="#f9b499"/>
<rect x="399.63" y="251.61" width="8.56" height="21.65" fill="#ccc"/>
<rect x="428.11" y="320.45" width="39.93" height="5.31" fill="#3f3d56"/>
<rect x="446.47" y="215.03" width="7.06" height="105.42" fill="#2f2e41" data-secondary="true"/>
<rect x="446.47" y="215.03" width="7.06" height="105.42" opacity="0.2"/>
<polygon points="381.57 149.14 446.47 211.84 451.67 206.64 385.26 142.36 381.57 149.14" fill="#2f2e41" data-secondary="true"/>
<polygon points="381.57 149.14 446.47 211.84 451.67 206.64 385.26 142.36 381.57 149.14" opacity="0.2"/>
<path d="M333,162.25l42.73,30.34s14.65-22,2.34-36.33L385.34,143a6.17,6.17,0,0,0-2-8.15h0a6.17,6.17,0,0,0-8.59,1.89l-7.83,12.43S350,141.7,333,162.25Z" fill="#2f2e41" data-secondary="true"/>
<rect x="19.62" y="325.75" width="498.54" height="7.88" fill="#ccc"/>
<path d="M49.55,287.76H28.22a11,11,0,0,1,21.33,0Z" fill="#2f2e41" data-secondary="true"/>
<path d="M57.77,273.4H69.56v.28a3.11,3.11,0,0,1-3.11,3.11H60.88a3.11,3.11,0,0,1-3.11-3.11Z" fill="#2f2e41" data-secondary="true"/>
<path d="M69.56,291.3H57.77V291a3.11,3.11,0,0,1,3.11-3.11h5.57A3.11,3.11,0,0,1,69.56,291Z" fill="#2f2e41" data-secondary="true"/>
<path d="M332.27,313.55V544.64s-62.81,10.86-90.11,1.46a9,9,0,0,1-5-4.37c-4.61-8.9-20.56-35.72-49.33-44.73,0,0-34.18-4.14-48.68-76.12,0,0-7.46-78.4-36.61-95.7l163.38-5.05s5.18-.22,7.61-2.61a28.72,28.72,0,0,1,2.28-2.13c3.81-3,13.33-9.62,21.44-7.51,0,0,4.47,1.13,8.11-.73a16.52,16.52,0,0,1,6.37-1.66c4.63-.32,11.69-.39,16.28,1.52A7.06,7.06,0,0,1,332.27,313.55Z" fill="#2f2e41" data-secondary="true"/>
<path d="M332.27,313.55V544.64s-62.81,10.86-90.11,1.46a9,9,0,0,1-5-4.37c-4.61-8.9-20.56-35.72-49.33-44.73,0,0-34.18-4.14-48.68-76.12,0,0-7.46-78.4-36.61-95.7l163.38-5.05s5.18-.22,7.61-2.61a28.72,28.72,0,0,1,2.28-2.13c3.81-3,13.33-9.62,21.44-7.51,0,0,4.47,1.13,8.11-.73a16.52,16.52,0,0,1,6.37-1.66c4.63-.32,11.69-.39,16.28,1.52A7.06,7.06,0,0,1,332.27,313.55Z" fill="#fff" opacity="0.2"/>
<path d="M191.88,444.9c-37.85-13.57-57.14-79.26-57.14-79.26s22.69,46.39,71.75,48.72a44.46,44.46,0,0,0,17-2.51c17.17-6.11,57.35-27.4,77.92-89.61,0,0-7.16,73.58-75.88,118.45A38.12,38.12,0,0,1,191.88,444.9Z" opacity="0.2"/>
<path d="M193,482.51s38.28,17.14,55.65,2.85a20.16,20.16,0,0,0,2-2c2.55-2.77,12.82-13,24.95-12.32a22.28,22.28,0,0,0,15.7-5c8-6.76,17.56-21.61,19.3-54.15,0,0-2-81.15,12.34-98,0,0-2.7,42.81,0,66,0,0,3.86,121.5-39.15,116.68l-10.79-1a16.86,16.86,0,0,0-9,1.68h0a16.85,16.85,0,0,0-4.79,3.64c-3.73,4-15.62,14.28-32.7,4.32C226.54,505.27,202.63,490.42,193,482.51Z" opacity="0.2"/>
<polygon points="83.93 390.33 102.51 325.18 33.2 325.18 83.93 390.33" fill="#2f2e41" data-secondary="true"/>
<polygon points="83.93 390.33 102.51 325.18 33.2 325.18 83.93 390.33" fill="#fff" opacity="0.32"/>
<circle cx="448.87" cy="209.84" r="7.19" fill="#3f3d56"/>
<circle cx="448.87" cy="209.84" r="7.19" opacity="0.2"/>
<rect x="428.11" y="320.45" width="39.93" height="5.31" fill="#2f2e41" data-secondary="true"/>
<rect x="377.62" y="223.7" width="6.55" height="13.14" fill="#2f2e41" data-secondary="true"/>
<rect x="377.62" y="223.7" width="6.55" height="13.14" fill="#fff" opacity="0.2"/>
<path d="M375,221.31h11.8v.27a3.11,3.11,0,0,1-3.11,3.11h-5.58a3.11,3.11,0,0,1-3.11-3.11Z" fill="#2f2e41" data-secondary="true"/>
<path d="M386.8,239.2H375v-.27a3.11,3.11,0,0,1,3.11-3.11h5.58a3.11,3.11,0,0,1,3.11,3.11Z" fill="#2f2e41" data-secondary="true"/>
<path d="M290.57,280.79s-3.18.29-3.47-3.76V245.49a6.07,6.07,0,0,1,6.07-6.07H393.41a6.21,6.21,0,0,1,6.22,6.22v80.11H332.27l-.24-14h24.79V271.53a6.08,6.08,0,0,0-6.08-6.08H326.1a3.14,3.14,0,0,0-3.13,3.14v7.77a4.27,4.27,0,0,1-4.24,4.26Z" fill="#ccc"/>
<path d="M290.57,280.79s-3.18.29-3.47-3.76V245.49a6.07,6.07,0,0,1,6.07-6.07H393.41a6.21,6.21,0,0,1,6.22,6.22v80.11H332.27l-.24-14h24.79V271.53a6.08,6.08,0,0,0-6.08-6.08H326.1a3.14,3.14,0,0,0-3.13,3.14v7.77a4.27,4.27,0,0,1-4.24,4.26Z" opacity="0.2"/>
<path d="M290.57,280.27s-3.18.29-3.47-3.76V245a6.07,6.07,0,0,1,6.07-6.07H393.41a6.21,6.21,0,0,1,6.22,6.22v80.11H332.27l-.24-14h24.79V271a6.08,6.08,0,0,0-6.08-6.08H326.1a3.14,3.14,0,0,0-3.13,3.14v7.77a4.27,4.27,0,0,1-4.24,4.26Z" fill="none"/>
<circle cx="342.84" cy="250.31" r="5.69" fill="#ccc"/>
<circle cx="363.47" cy="250.31" r="5.69" fill="#ccc"/>
<circle cx="385.26" cy="250.31" r="5.69" fill="#ccc"/>
<rect x="362.41" y="269.43" width="8.49" height="3.04" rx="1.28" fill="#ccc"/>
<rect x="375.31" y="269.43" width="8.49" height="3.04" rx="1.28" fill="#ccc"/>
<rect x="387.67" y="269.14" width="8.49" height="3.04" rx="1.28" fill="#ccc"/>
<rect x="362.41" y="276.95" width="8.49" height="3.04" rx="1.28" fill="#ccc"/>
<rect x="375.31" y="276.95" width="8.49" height="3.04" rx="1.28" fill="#ccc"/>
<rect x="387.67" y="276.66" width="8.49" height="3.04" rx="1.28" fill="#ccc"/>
<rect x="362.41" y="283.75" width="8.49" height="3.04" rx="1.28" fill="#ccc"/>
<rect x="375.31" y="283.75" width="8.49" height="3.04" rx="1.28" fill="#ccc"/>
<rect x="387.67" y="283.46" width="8.49" height="3.04" rx="1.28" fill="#ccc"/>
<rect x="360.77" y="299.93" width="16.1" height="7.66" rx="3.22" fill="#ccc"/>
<rect x="399.63" y="251.61" width="8.56" height="21.65" opacity="0.2"/>
<rect x="353.64" y="232.91" width="5.19" height="6.29" fill="#2f2e41" data-secondary="true"/>
<rect x="333.21" y="237.51" width="5.19" height="1.69" fill="#2f2e41" data-secondary="true"/>
<rect x="312.17" y="239.42" width="2.7" height="41.22" fill="#ccc"/>
<rect x="316.32" y="239.42" width="1.35" height="31.39" fill="#ccc"/>
<path d="M213.62,303.93s34.43-1.74,59.59-1.45l10.85-4.9a52.28,52.28,0,0,1,21.54-4.64h0a6.63,6.63,0,0,1,3.72,1.14l2.65,1.81a1.37,1.37,0,0,1-.21,2.38h0a1.38,1.38,0,0,1-.75.11L301,297a.37.37,0,0,0-.21.71l11.25,5.4a3.22,3.22,0,0,1,.65,5.39l-2.13,1.74a3.2,3.2,0,0,1-3.76.23l-6.54-4.14a3.31,3.31,0,0,0-3.32-.15l-13.5,7a8.81,8.81,0,0,1-6.86.54l-2.53-.84-20.56,7.61-55.84,1.73S204.93,304.32,213.62,303.93Z" fill="#f9b499"/>
<path d="M471.21,577.16H824.72s17.35-5,23.14-29.31l-347.72.38S497.24,572.34,471.21,577.16Z" fill="#d3d3d3"/>
<rect x="498.61" y="329.69" width="9.21" height="249.53" fill="#ccc"/>
<path d="M714.5,314.4,714,259.64l7.48-10.91a46.47,46.47,0,0,0,8-6.63,7.81,7.81,0,0,1,9.86-1.49l.1.06a3.33,3.33,0,0,1,1.5,3.19c-.82,7.42-3.07,35.81,10,41.28a1.23,1.23,0,0,1,.75,1.32c-.69,4.76-3.77,25.13-6.14,27.94Z" fill="#bcbec0"/>
<polygon points="722.69 247.87 724.62 260.49 713.96 260.49 713.96 259.64 721.44 248.73 722.69 247.87" fill="#bcbec0"/>
<polygon points="722.69 247.87 724.62 260.49 713.96 260.49 713.96 259.64 721.44 248.73 722.69 247.87" fill="#fff" opacity="0.2"/>
<line x1="732.82" y1="239.88" x2="736" y2="228.86" fill="none" stroke="#ccc" stroke-miterlimit="10" stroke-width="0.75"/>
<line x1="739.67" y1="242.56" x2="744.87" y2="233.49" fill="none" stroke="#ccc" stroke-miterlimit="10" stroke-width="0.75"/>
<line x1="747.38" y1="288.07" x2="759.72" y2="288.07" fill="none" stroke="#ccc" stroke-miterlimit="10" stroke-width="0.75"/>
<circle cx="736.36" cy="227.05" r="2.63" fill="#2f2e41" data-secondary="true"/>
<circle cx="745.76" cy="232.31" r="2.63" fill="#bcbec0"/>
<circle cx="761.58" cy="288.07" r="2.63" fill="#a7a9ac"/>
<path d="M516.77,198.74v70.87h53.81s6.37-1.11,16.78-16.47v-54.4Z" fill="#f1f2f2"/>
<path d="M570.64,270.29H516.1V198.06H588v55.29l-.11.17c-10.46,15.42-16.95,16.71-17.22,16.76Zm-53.19-1.35h53.06c.56-.15,6.63-2,16.17-16V199.41H517.45Z" fill="#bcbec0"/>
<rect x="533.26" y="190.92" width="33.85" height="13.31" fill="#fff"/>
<path d="M567.78,204.91H532.59V190.25h35.19Zm-33.84-1.35h32.49v-12H533.94Z" fill="#bcbec0"/>
<path d="M570.58,269.61a32.91,32.91,0,0,0,1.16-16.47h15.62S579.55,266.14,570.58,269.61Z" fill="#bcbec0"/>
<path d="M469.47,172.65v70.87h53.81s6.36-1.11,16.78-16.47v-54.4Z" fill="#f1f2f2"/>
<path d="M523.34,244.2H468.8V172h71.93v55.29l-.11.17c-10.46,15.42-17,16.71-17.22,16.76Zm-53.19-1.35h53.06c.56-.15,6.63-2,16.17-16V173.32H470.15Z" fill="#2f2e41" data-secondary="true"/>
<rect x="485.96" y="164.83" width="33.85" height="13.31" fill="#fff"/>
<path d="M520.48,178.82H485.29V164.16h35.19Zm-33.84-1.35h32.49v-12H486.64Z" fill="#2f2e41" data-secondary="true"/>
<path d="M523.28,243.52a32.93,32.93,0,0,0,1.16-16.47h15.62S532.25,240.05,523.28,243.52Z" fill="#2f2e41" data-secondary="true"/>
<path d="M268.46,204.8v-4.88s4.44,8.65,12.14,11.44C280.6,211.36,272.63,211.52,268.46,204.8Z" fill="#f7a48b"/>
<ellipse cx="286.68" cy="185.43" rx="26.78" ry="21.63" transform="translate(75.81 453.95) rotate(-84.75)" fill="#f9b499"/>
<ellipse cx="263.94" cy="177.37" rx="4.52" ry="6.07" fill="#f9b499"/>
<path d="M266.35,172.23s16.9-4.78,26.58-12.7c0,0,14.65,11.82,15.24,21.2l5.69-4.1-9.38-27.58H277.2Z" fill="#2f2e41" data-secondary="true"/>
<path d="M270.75,167s-6.46,8.74-2.64,18.42c0,0,.83-13,10.74-18.42" fill="#2f2e41" data-secondary="true"/>
</svg>