 <!DOCTYPE svg PUBLIC "-//W3C//DTD SVG 1.1//EN" "http://www.w3.org/Graphics/SVG/1.1/DTD/svg11.dtd">
<svg id="f4b986fc-d63a-4d11-800b-cce235527afa" data-name="Layer 1" xmlns="http://www.w3.org/2000/svg" xmlns:xlink="http://www.w3.org/1999/xlink" width="865.76" height="682.89" viewBox="0 0 865.76 682.89">
<defs>
<clipPath id="ac9c34e4-bbe8-40cb-aca5-a67c2f02b469">
<path id="bb228b5a-fdf4-467c-adec-ac2365d7bda3" data-name="SVGID" d="M128,435.1c-33.54-12.38-64.86-33.75-78.61-63.29-11.41-24.5-9.59-52.19-.82-76.94,21.35-60.3,85.25-106.2,157.27-113,57,3.89,109.65-22.76,153.72-53.22S444.29,62.51,496.06,43C573.89,13.71,671.7,27.6,738.28,76.89s99,131.46,81.29,204.47S735.16,415.1,652.87,433.87c-69.43,15.84-143.71,3.41-215.95,4.82C333,440.73,225.05,470.93,128,435.1Z" fill="none"/>
</clipPath>
<style xmlns="http://www.w3.org/1999/xhtml">*, ::after, ::before { box-sizing: border-box; }
img, svg { vertical-align: middle; }
</style>
<style xmlns="http://www.w3.org/1999/xhtml">*, body, html { -webkit-font-smoothing: antialiased; }
img, svg { max-width: 100%; }
</style>
</defs>
<ellipse cx="420.54" cy="634.27" rx="242.05" ry="21.08" fill="#33d1cc" data-primary="true"/>
<g opacity="0.7">
<ellipse cx="420.54" cy="634.27" rx="242.05" ry="21.08" fill="#fff"/>
</g>
<path d="M128,435.1c-33.54-12.38-64.86-33.75-78.61-63.29-11.41-24.5-9.59-52.19-.82-76.94,21.35-60.3,85.25-106.2,157.27-113,57,3.89,109.65-22.76,153.72-53.22S444.29,62.51,496.06,43C573.89,13.71,671.7,27.6,738.28,76.89s99,131.46,81.29,204.47S735.16,415.1,652.87,433.87c-69.43,15.84-143.71,3.41-215.95,4.82C333,440.73,225.05,470.93,128,435.1Z" fill="#33d1cc" data-primary="true"/>
<path d="M128,435.1c-33.54-12.38-64.86-33.75-78.61-63.29-11.41-24.5-9.59-52.19-.82-76.94,21.35-60.3,85.25-106.2,157.27-113,57,3.89,109.65-22.76,153.72-53.22S444.29,62.51,496.06,43C573.89,13.71,671.7,27.6,738.28,76.89s99,131.46,81.29,204.47S735.16,415.1,652.87,433.87c-69.43,15.84-143.71,3.41-215.95,4.82C333,440.73,225.05,470.93,128,435.1Z" fill="#fff" opacity="0.7"/>
<g clip-path="url(#ac9c34e4-bbe8-40cb-aca5-a67c2f02b469)">
<polygon points="415.99 683.75 415.99 612.33 457.51 612.33 459.17 621.46 504.01 621.46 504.01 683.75 415.99 683.75" fill="#33d1cc" data-primary="true"/>
<polygon points="582.91 683.75 582.91 612.33 624.43 612.33 626.09 621.46 670.93 621.46 670.93 683.75 582.91 683.75" fill="#33d1cc" data-primary="true"/>
<polygon points="416.82 550.04 416.82 478.63 458.34 478.63 460 487.76 504.84 487.76 504.84 550.04 416.82 550.04" fill="#33d1cc" data-primary="true"/>
<polygon points="583.74 550.04 583.74 478.63 625.26 478.63 626.92 487.76 671.76 487.76 671.76 550.04 583.74 550.04" fill="#33d1cc" data-primary="true"/>
<polygon points="417.65 415.51 417.65 344.1 459.17 344.1 460.83 353.23 505.68 353.23 505.68 415.51 417.65 415.51" fill="#33d1cc" data-primary="true"/>
<polygon points="584.57 415.51 584.57 344.1 626.09 344.1 627.75 353.23 672.59 353.23 672.59 415.51 584.57 415.51" fill="#33d1cc" data-primary="true"/>
<polygon points="415.99 282.64 415.99 211.22 457.51 211.22 459.17 220.36 504.01 220.36 504.01 282.64 415.99 282.64" fill="#33d1cc" data-primary="true"/>
<polygon points="582.91 282.64 582.91 211.22 624.43 211.22 626.09 220.36 670.93 220.36 670.93 282.64 582.91 282.64" fill="#33d1cc" data-primary="true"/>
<polygon points="415.99 147.28 415.99 75.86 457.51 75.86 459.17 85 504.01 85 504.01 147.28 415.99 147.28" fill="#33d1cc" data-primary="true"/>
<polygon points="154.31 682.23 154.31 610.82 195.84 610.82 197.5 619.95 242.34 619.95 242.34 682.23 154.31 682.23" fill="#33d1cc" data-primary="true"/>
<polygon points="155.15 548.53 155.15 477.11 196.67 477.11 198.33 486.25 243.17 486.25 243.17 548.53 155.15 548.53" fill="#33d1cc" data-primary="true"/>
<polygon points="155.97 414 155.97 342.58 197.5 342.58 199.16 351.72 244 351.72 244 414 155.97 414" fill="#33d1cc" data-primary="true"/>
<polygon points="154.31 281.13 154.31 209.71 195.84 209.71 197.5 218.85 242.34 218.85 242.34 281.13 154.31 281.13" fill="#33d1cc" data-primary="true"/>
<polygon points="154.31 145.77 154.31 74.35 195.84 74.35 197.5 83.48 242.34 83.48 242.34 145.77 154.31 145.77" fill="#33d1cc" data-primary="true"/>
<polygon points="582.91 147.28 582.91 75.86 624.43 75.86 626.09 85 670.93 85 670.93 147.28 582.91 147.28" fill="#33d1cc" data-primary="true"/>
<g opacity="0.8">
<polygon points="415.99 683.75 415.99 612.33 457.51 612.33 459.17 621.46 504.01 621.46 504.01 683.75 415.99 683.75" fill="#fff"/>
<polygon points="582.91 683.75 582.91 612.33 624.43 612.33 626.09 621.46 670.93 621.46 670.93 683.75 582.91 683.75" fill="#fff"/>
<polygon points="416.82 550.04 416.82 478.63 458.34 478.63 460 487.76 504.84 487.76 504.84 550.04 416.82 550.04" fill="#fff"/>
<polygon points="583.74 550.04 583.74 478.63 625.26 478.63 626.92 487.76 671.76 487.76 671.76 550.04 583.74 550.04" fill="#fff"/>
<polygon points="417.65 415.51 417.65 344.1 459.17 344.1 460.83 353.23 505.68 353.23 505.68 415.51 417.65 415.51" fill="#fff"/>
<polygon points="584.57 415.51 584.57 344.1 626.09 344.1 627.75 353.23 672.59 353.23 672.59 415.51 584.57 415.51" fill="#fff"/>
<polygon points="415.99 282.64 415.99 211.22 457.51 211.22 459.17 220.36 504.01 220.36 504.01 282.64 415.99 282.64" fill="#fff"/>
<polygon points="582.91 282.64 582.91 211.22 624.43 211.22 626.09 220.36 670.93 220.36 670.93 282.64 582.91 282.64" fill="#fff"/>
<polygon points="415.99 147.28 415.99 75.86 457.51 75.86 459.17 85 504.01 85 504.01 147.28 415.99 147.28" fill="#fff"/>
<polygon points="154.31 682.23 154.31 610.82 195.84 610.82 197.5 619.95 242.34 619.95 242.34 682.23 154.31 682.23" fill="#fff"/>
<polygon points="155.15 548.53 155.15 477.11 196.67 477.11 198.33 486.25 243.17 486.25 243.17 548.53 155.15 548.53" fill="#fff"/>
<polygon points="155.97 414 155.97 342.58 197.5 342.58 199.16 351.72 244 351.72 244 414 155.97 414" fill="#fff"/>
<polygon points="154.31 281.13 154.31 209.71 195.84 209.71 197.5 218.85 242.34 218.85 242.34 281.13 154.31 281.13" fill="#fff"/>
<polygon points="154.31 145.77 154.31 74.35 195.84 74.35 197.5 83.48 242.34 83.48 242.34 145.77 154.31 145.77" fill="#fff"/>
<polygon points="582.91 147.28 582.91 75.86 624.43 75.86 626.09 85 670.93 85 670.93 147.28 582.91 147.28" fill="#fff"/>
</g>
</g>
<path d="M191.89,213.09l-.89-.24s.52-1.95,1.64-5.34l.88.29C192.41,211.16,191.9,213.07,191.89,213.09Z" fill="#2f2e41" data-secondary="true"/>
<path d="M665.66,198.21c-1.26-3.45-2.6-6.9-4-10.25l.86-.36c1.39,3.37,2.73,6.83,4,10.29Zm-468.38-.74-.86-.34c1.32-3.35,2.76-6.78,4.28-10.19l.85.38C200,190.71,198.6,194.13,197.28,197.47Zm460-19.59c-1.54-3.32-3.17-6.64-4.85-9.86l.83-.43c1.68,3.23,3.32,6.57,4.87,9.9Zm-451-.52-.84-.42c1.63-3.27,3.36-6.56,5.13-9.78l.82.44C209.6,170.81,207.88,174.1,206.26,177.36Zm440.87-19c-1.84-3.17-3.76-6.33-5.73-9.38l.78-.5c2,3.06,3.91,6.23,5.75,9.41Zm-430.26-.32-.79-.48c1.89-3.14,3.88-6.28,5.9-9.33l.77.51C220.74,151.8,218.76,154.94,216.87,158.06Zm418.37-18.17c-2.12-3-4.34-5.93-6.59-8.8l.73-.57c2.26,2.87,4.48,5.85,6.61,8.84ZM229,139.7l-.75-.54c2.15-3,4.39-5.95,6.65-8.82l.73.58C233.39,133.78,231.16,136.73,229,139.7Zm392.64-17.09c-2.39-2.76-4.87-5.49-7.39-8.14l.67-.64c2.53,2.66,5,5.41,7.42,8.17Zm-379-.19-.71-.6c2.4-2.79,4.88-5.55,7.38-8.22l.68.64C247.5,116.89,245,119.64,242.64,122.42Zm363.85-15.73c-2.64-2.52-5.37-5-8.12-7.42l.61-.7c2.76,2.41,5.5,4.92,8.15,7.45Zm-348.8-.31-.64-.66c2.63-2.57,5.35-5.1,8.07-7.53l.62.69C263,101.3,260.32,103.83,257.69,106.38ZM589.91,92.24c-2.84-2.26-5.79-4.5-8.76-6.65l.54-.75c3,2.16,5.95,4.4,8.8,6.67Zm-315.79-.48-.59-.72c2.85-2.31,5.78-4.59,8.73-6.76l.55.74C279.88,87.19,277,89.46,274.12,91.76Zm298-12.43c-3-2-6.17-4-9.31-5.87l.48-.79c3.15,1.89,6.29,3.87,9.34,5.88ZM291.81,78.7l-.52-.77c3-2,6.18-4,9.32-5.92l.48.8C298,74.7,294.84,76.68,291.81,78.7ZM553.24,68c-3.2-1.75-6.48-3.46-9.76-5.08l.41-.83c3.29,1.63,6.59,3.34,9.8,5.09Zm-242.61-.65-.44-.81c3.21-1.74,6.52-3.43,9.83-5l.4.84C317.13,63.94,313.83,65.62,310.63,67.35Zm222.89-9.11c-3.32-1.48-6.74-2.92-10.14-4.29l.35-.86c3.41,1.37,6.83,2.82,10.17,4.3Zm-203.09-.45-.37-.85c3.36-1.43,6.8-2.82,10.24-4.11l.33.87C337.2,55,333.77,56.37,330.43,57.79Zm182.66-7.72c-3.44-1.21-7-2.36-10.46-3.41l.27-.88c3.51,1,7,2.2,10.49,3.41ZM351,50.07l-.29-.89c3.46-1.13,7-2.2,10.56-3.19l.25.89C358,47.87,354.45,48.94,351,50.07Zm21.17-5.92-.21-.91c3.54-.83,7.17-1.6,10.78-2.3l.18.91C379.32,42.55,375.7,43.32,372.17,44.15ZM492,43.76c-3.54-.88-7.15-1.69-10.73-2.4l.18-.91c3.59.72,7.22,1.53,10.77,2.41ZM393.75,40l-.14-.92c3.59-.54,7.27-1,10.94-1.46l.11.92C401,38.94,397.33,39.44,393.75,40Zm76.7-.52c-3.6-.54-7.27-1-10.9-1.39l.09-.93c3.65.39,7.34.86,10.95,1.41Zm-54.84-2-.07-.92c3.66-.28,7.36-.48,11-.6l0,.93C423,37,419.25,37.19,415.61,37.47Zm33-.3c-3.63-.21-7.33-.34-11-.39v-.93c3.67,0,7.39.18,11,.4Z" fill="#2f2e41" data-secondary="true"/>
<path d="M670.86,214c-.53-1.79-1.08-3.56-1.63-5.31l.88-.28c.56,1.76,1.1,3.53,1.64,5.33Z" fill="#2f2e41" data-secondary="true"/>
<polygon points="257.23 237.1 244.86 236.66 240.89 302.88 257.23 237.1" fill="#2f2e41" data-secondary="true"/>
<polygon points="247.07 216.35 240.89 302.88 155.25 302.88 164.08 212.82 247.07 216.35" fill="#e6e7e8"/>
<path d="M194.89,157.74s65.42,9.07,86.15,13.61c0,0,11-46,14.9-62.83,0,0-61.54-7.13-79.67-17.49Z" fill="#e6e7e8"/>
<path d="M377.56,27.55s33,24.61,51.82,33c0,0-27.86,29.15-46,31.09l-42.76-24S332.31,63,330.37,44.86C330.37,44.86,352.29,46.33,377.56,27.55Z" fill="#e6e7e8"/>
<path d="M340.63,67.71S299.32,54.3,308.44,41.87c0,0,23.15-22.46,21.93,3C330.37,44.86,330.58,60.13,340.63,67.71Z" fill="#d1d3d4"/>
<path d="M471.74,73.11s55.65-17.39,74.2,10.83l27.44-31.31S515,.45,471.74,73.11Z" fill="#e6e7e8"/>
<path d="M492.61,90.89s-24-1.16-20.87-17.78c0,0,23.19-6.57,38.26-5Z" fill="#d1d3d4"/>
<path d="M570.46,138.85s28.46-.35,50.33-47.56c0,0,16.66,34,54.5,57.63a125,125,0,0,1-51.37,36.79S586.43,161.07,570.46,138.85Z" fill="#e6e7e8"/>
<path d="M532.65,225.65s.68,11.89,1.1,11.89a30.43,30.43,0,0,0,3.65-1.61l1.36-9.51-4.33-3.23Z" fill="#f7a48b"/>
<polygon points="531.23 179.7 531.6 187.1 534.61 185.51 533.63 180.19 531.6 179.1 531.23 179.7" fill="#f7a48b"/>
<polygon points="383.74 556.42 390.11 566.36 398.78 564.58 403.87 558.21 399.54 547.76 383.74 556.42" fill="#f9b499"/>
<path d="M496.26,357.31c-.25.22-.5.44-.75.64-37.47,32.16-78.1,2.23-78.1,2.23a14.21,14.21,0,0,1-2.6-1.62c-3.6-2.89-1.55-5.4-1.55-5.4a41.93,41.93,0,0,0,2.24-5.75c-1.28-5.1.32-12.76.32-12.76C419,321.56,411,307.83,411,307.83l-17.24-26.17-19.47,5.43a102.72,102.72,0,0,1-14.79,4.45A24.27,24.27,0,0,1,342.47,289c-11.77-6.73-8.05-17.9-8.05-17.9s0,11.82,12.45,7.66c0,0,7-1.27,6.06-12.77l7.35-5.1,24.26-9.58c8-5.74,21.38-8.93,21.38-8.93,1.91,6.13,6.89,10.44,10,12.65a7,7,0,0,0,8.3-.2c6.55-5.21,10.39-19.16,10.39-19.16L487,270.48c6.71,15.33,9.89,67.68,9.89,67.68-.63,6.7-.31,8.93-.31,8.93C499.45,355.71,496.26,357.31,496.26,357.31Z" fill="#33d1cc" data-primary="true"/>
<path d="M473.59,488.5c5.43,14.69,1.6,54,1.6,54A106.1,106.1,0,0,0,472,567.67c-11.5,13.73-24.58,1-24.58,1l-4.79-47.56a168.31,168.31,0,0,1-3.83-32.56c2.87-65.76-1.91-73.09-1.91-73.09l-58.16,46.88a7.93,7.93,0,0,0-2.89,5.35,11.23,11.23,0,0,1-1.25,4.35,3.7,3.7,0,0,0-.07,3.55c4.83,9.11,10,26,10,26,2.23,10.86,11.81,33.52,11.81,33.52-3.8,11.2-11.11,13-16,12.79A9.7,9.7,0,0,1,373,544c-16-21.53-33.14-62.81-33.14-62.81-9.58-19.15-2.31-31.65.38-35.29.83-1.12,1.62-2.28,2.38-3.45,19.28-29.65,71.93-83.51,71.93-83.51l.27-.35a14.21,14.21,0,0,0,2.6,1.62S458,390.11,495.51,358C505.39,394.81,473.59,488.5,473.59,488.5Z" fill="#2f2e41" data-secondary="true"/>
<path d="M423.16,395.2a22.69,22.69,0,0,1,5.08,1.95,29.38,29.38,0,0,1,4.61,3c.73.55,1.4,1.17,2.08,1.78l1,1,.48.49.44.53a20.74,20.74,0,0,1,3,4.56c-1.22-1.35-2.36-2.71-3.67-3.92a44.35,44.35,0,0,0-4-3.49c-1.39-1.1-2.84-2.12-4.34-3.09S424.75,396.07,423.16,395.2Z" opacity="0.2"/>
<path d="M435.39,392.82a30.24,30.24,0,0,1-.43-5.2,36.35,36.35,0,0,1,.32-5.21c.11-.87.28-1.73.45-2.59a24.4,24.4,0,0,1,.73-2.53,11.34,11.34,0,0,1,2.67-4.52,17.94,17.94,0,0,0-1.78,4.78,46.62,46.62,0,0,0-.89,5C436,386,435.75,389.36,435.39,392.82Z" opacity="0.2"/>
<path d="M461.55,500.87c1.23-1.86,2.54-3.57,3.76-5.34.61-.89,1.21-1.77,1.78-2.68s1.07-1.86,1.6-2.85a10.07,10.07,0,0,1-.77,3.27,17.2,17.2,0,0,1-1.63,2.94,19.35,19.35,0,0,1-2.15,2.55A13.89,13.89,0,0,1,461.55,500.87Z" opacity="0.2"/>
<path d="M450.51,581.39l.76,12s9.69,4.59,16.82.26l.77-15Z" fill="#f9b499"/>
<path d="M448.72,606.88v-15.8a16.25,16.25,0,0,0,21.41,0v16.31S448.72,606.11,448.72,606.88Z" fill="#e6e7e8"/>
<path d="M472.17,610.7a56.25,56.25,0,0,0-.58,22,13.64,13.64,0,0,1,.2,3.18,12.19,12.19,0,0,1-3.23,7.71c-2.49,2.66-6.47,4.8-12.7,3.77a12.14,12.14,0,0,1-6.12-2.81s-5.61-1.81-5.67-9.42a21.77,21.77,0,0,1,1.09-6.63s2.29-11.21,1.53-17.84c0,0-1.79-8.15,3.82-5.86,0,0,1.78-7.13,10.19-6.37,0,0,5.35-.76,7.65,7.9C468.35,606.37,472.68,603.56,472.17,610.7Z" fill="#33d1cc" data-primary="true"/>
<path d="M458.4,652c-19.21,0-14.52-16.81-14.52-16.81h.19c.06,7.61,5.67,9.42,5.67,9.42a12.14,12.14,0,0,0,6.12,2.81c6.23,1,10.21-1.11,12.7-3.77a12.19,12.19,0,0,0,3.23-7.71h.12C475,649.44,461,652,458.4,652Z" fill="#2f2e41" data-secondary="true"/>
<path d="M407.19,559.73l-3.32-4.58a20.09,20.09,0,0,1-16.56,9.94l.25,2.29s3.83-.26,9.43,4.33C397,571.71,407.7,571.46,407.19,559.73Z" fill="#e6e7e8"/>
<path d="M372.78,544.7s-1.27,1.78,1.79,5.86l3.29,4.93a5.32,5.32,0,0,0,3.87,2.35c5,.48,15.88.1,20.68-11.23a5.37,5.37,0,0,0-.31-4.81l-4.6-7.8s-1-4.08-3.05-2.3Z" fill="#2f2e41" data-secondary="true"/>
<path d="M372.78,544.7s-1.27,1.78,1.79,5.86l3.29,4.93a5.32,5.32,0,0,0,3.87,2.35c5,.48,15.88.1,20.68-11.23a5.37,5.37,0,0,0-.31-4.81l-4.6-7.8s-1-4.08-3.05-2.3Z" opacity="0.2"/>
<path d="M536.12,268.65a7,7,0,0,1-6.61,7.27l-68.78,4a6,6,0,0,1-6.2-5.49l-9.88-144.93a8,8,0,0,1,7.71-8.49l69.5-3.21a6,6,0,0,1,6.29,5.56Z" fill="#2f2e41" data-secondary="true"/>
<path d="M529.5,148.31s2.43-.18,2,1.73a11.75,11.75,0,0,1-1.79,3.41Z" fill="#f7a48b"/>
<path d="M334.42,271.12a38.79,38.79,0,0,0,1.21-5s1,14.08,14.08,3.71l3.22-3.84s2.75,14.82-10.8,14.22C342.13,280.23,334.63,279.92,334.42,271.12Z" fill="#2f2e41" data-secondary="true"/>
<path d="M337.11,261.94l-1.48,4.2a6.6,6.6,0,0,0,5.18,7.41s5.72,1,12.12-7.54a59.33,59.33,0,0,0,5.92-2.83s5.1.18,7.63-1.64a1.22,1.22,0,0,0,0-2c-1.45-1-4.47-2.31-9.57-1.32l6.17-9.88a9.77,9.77,0,0,0-8.89,0s-.74-3.46-5.18-.49c0,0-1.24-3.71-4.45,0,0,0-4.2-4.7-5.93,2.71,0,0-1.23,1-.74,8.65Z" fill="#f9b499"/>
<path d="M337.85,259.23s1.73,2.47,3.71-.25c0,0,3,4.2,4.44-.74,0,0,3.21,3.46,5.93-3.71l2.22-6.17s-2-3.71-5.18-.49c0,0-1.73-3.46-4.45,0,0,0-4.2-4.7-5.93,2.71C338.59,250.58,336.86,253.55,337.85,259.23Z" fill="#f7a48b"/>
<path d="M344.52,247.87s-3.21,6.17-3,11.11" fill="#f7a48b"/>
<path d="M346,258.24a31.76,31.76,0,0,1,3-10.37" fill="#f7a48b"/>
<ellipse cx="359.93" cy="247.39" rx="4.35" ry="3.11" transform="translate(-49.63 399.08) rotate(-54.83)" fill="#f7a48b"/>
<path d="M362.85,277.58c-.21-1-.46-1.89-.72-2.83s-.54-1.84-.87-2.75-.7-1.78-1.11-2.65a23.65,23.65,0,0,0-1.47-2.5,10.34,10.34,0,0,1,1.88,2.28,16.68,16.68,0,0,1,1.26,2.67A17.05,17.05,0,0,1,362.85,277.58Z" opacity="0.2"/>
<path d="M393.79,281.66a27.43,27.43,0,0,1-4.17-6.91,27.43,27.43,0,0,1,4.17,6.91Z" opacity="0.2"/>
<path d="M430.49,325.58a38.26,38.26,0,0,0,6.64,4.71,52.65,52.65,0,0,0,7.35,3.41c1.28.43,2.54.92,3.85,1.25.66.18,1.3.39,2,.55l2,.45,1,.23,1,.17,2,.37c1.35.22,2.71.35,4.07.58-1.37,0-2.75.06-4.13,0l-2.06-.18-1-.09-1-.17a42.32,42.32,0,0,1-8-2,38.43,38.43,0,0,1-7.41-3.74A25.28,25.28,0,0,1,430.49,325.58Z" opacity="0.2"/>
<path d="M428.12,215.09s.21,4.78,7.07,11c0,0,1.42,3.8-.54,9.59,0,0-3.61,14.17-10.61,19.27a7.15,7.15,0,0,1-8.29,0c-2.95-2.07-7.34-5.89-9.44-11.4l19.55-27.64S426.46,216.13,428.12,215.09Z" fill="#f9b499"/>
<path d="M446.6,563.73s-1.45,1-1.28,4.73a65.42,65.42,0,0,1,0,7.41c-.15,2.45.22,5.42,2.65,6.54,0,0,14.52,9,24.41-1.69a5.15,5.15,0,0,0,1.35-3.64l-.16-4.57a24.44,24.44,0,0,1,.36-4.67,5.66,5.66,0,0,0-1.5-4.45Z" fill="#2f2e41" data-secondary="true"/>
<path d="M446.6,563.73s-1.45,1-1.28,4.73a65.42,65.42,0,0,1,0,7.41c-.15,2.45.22,5.42,2.65,6.54,0,0,14.52,9,24.41-1.69a5.15,5.15,0,0,0,1.35-3.64l-.16-4.57a24.44,24.44,0,0,1,.36-4.67,5.66,5.66,0,0,0-1.5-4.45Z" opacity="0.2"/>
<path d="M387.18,575.46s-4.71-6.3-.63-8.08c0,0,3.56-1,10.44,4.33l1,3.82-6.62,1.79Z" fill="#33d1cc" data-primary="true"/>
<path d="M387.18,575.46s-4.71-6.3-.63-8.08c0,0,3.56-1,10.44,4.33l1,3.82-6.62,1.79Z" opacity="0.2"/>
<path d="M374.62,612.58s3.77,7.55,15.24-2.39c0,0,18.35-18.6,26-24.21,0,0,11-5.86,4.84-12.23l-6.11-6.37-12.24,10.19Z" fill="#2f2e41" data-secondary="true"/>
<path d="M382.72,611s-9.72,5.7-8.57-1a8.32,8.32,0,0,1,1.49-3.42,62.6,62.6,0,0,0,10.44-23.74,11.54,11.54,0,0,0,.2-2c.05-2.46.64-9.33,5.87-9.33,0,0,16.31,2.29,15-11.73l7.39,7.65a52,52,0,0,0-8.95,16.24A51.33,51.33,0,0,1,398,598.41C394.3,603.29,389.11,608.55,382.72,611Z" fill="#33d1cc" data-primary="true"/>
<path d="M452.83,254.59S427,239,433.15,224.34c0,0,5.29-17,12.63-14.69,0,0,5.58,1.76,3.52,18.21l1.77.88Z" fill="#f7a48b"/>
<path d="M405.92,242.4a17.75,17.75,0,0,0,3.73,6.95s24-6,14.7-25.57Z" fill="#f7a48b"/>
<ellipse cx="405.41" cy="218.06" rx="20.02" ry="27.04" transform="translate(-52.31 169.03) rotate(-22.16)" fill="#f9b499"/>
<path d="M384.38,213.74s-8.21.78-8.82-7.08a11.51,11.51,0,0,1,.46-4c1.64-5.69,8.8-23.92,33.17-24.75,0,0,18.28.49,18,18.28,0,0-.49,6.42,1,9.14,0,0-13.4,3.52-16.12-2a5.21,5.21,0,0,0-.93-1.31c-1.75-1.84-6.41-5.54-12-.47a.36.36,0,0,1-.34.09c-.4-.11-1.13-.67-.76-3.44,0,0-4.5,8.87-12.3,7.22a.54.54,0,0,0-.67.44C384.81,207.52,384,212.72,384.38,213.74Z" fill="#2f2e41" data-secondary="true"/>
<ellipse cx="425.86" cy="208.87" rx="5.56" ry="7.04" fill="#f9b499"/>
<path d="M445.19,234.91s2.94-1.47,4.11-7" fill="none" stroke="#f9b499" stroke-miterlimit="10"/>
<path d="M532.22,264.59a6.46,6.46,0,0,1-6.07,6.8L463,275.15a5.5,5.5,0,0,1-5.69-5.14l-9.08-135.65a7.46,7.46,0,0,1,7.09-7.94l63.82-3a5.53,5.53,0,0,1,5.78,5.21Z" fill="#fff"/>
<path d="M533.85,226.69s3.31,2.42-1,13.23c0,0-5.86,15.29,1.27,18.61,0,0,6.63,3.56,8.92-6.88,0,0,8.16-17.59,1.53-25.23l-9.68-9.94-1.53,1Z" fill="#f9b499"/>
<path d="M531.22,179.7s2.87.59.58,7c0,0-9.72,16.58-8.62,26.16a6.53,6.53,0,0,0,8.43,5.49,9.61,9.61,0,0,0,5.54-4.63l13-27s4.58-9.68-4.59-14.78l-6.37-4.58s-.89,7.64-8.26,6.54Z" fill="#f9b499"/>
<path d="M529.21,142.11s10.49-5.39,15.07,4.29c0,0,4.34,8.24-5.09,20.9,0,0-1.28,8.41-8.16,6.88,0,0-10.7-3.57-1.53-20.39,0,0,4.34-5.73,0-5.48Z" fill="#f9b499"/>
<polygon points="614.65 238.02 627.01 237.58 630.98 303.8 614.65 238.02" fill="#2f2e41" data-secondary="true"/>
<polygon points="624.8 217.27 630.98 303.8 716.63 303.8 707.8 213.74 624.8 217.27" fill="#e6e7e8"/>
<polygon points="637.16 235.37 630.98 303.8 722.37 303.8 733.4 226.99 689.7 224.78 685.28 235.81 637.16 235.37" fill="#33d1cc" data-primary="true"/>
<polygon points="234.71 234.46 240.89 302.88 149.51 302.88 138.47 226.07 182.18 223.86 186.59 234.9 234.71 234.46" fill="#33d1cc" data-primary="true"/>
<polygon points="517.83 152.58 511.8 152.37 509.86 184.69 517.83 152.58" fill="#2f2e41" data-secondary="true"/>
<polygon points="512.87 142.45 509.86 184.69 468.05 184.69 472.36 140.73 512.87 142.45" fill="#e6e7e8"/>
<polygon points="506.84 151.29 509.86 184.69 465.25 184.69 459.87 147.19 481.2 146.12 483.35 151.5 506.84 151.29" fill="#33d1cc" data-primary="true"/>
<polygon points="521.69 230.58 515.65 230.37 513.72 262.69 521.69 230.58" fill="#2f2e41" data-secondary="true"/>
<polygon points="516.73 220.45 513.72 262.69 471.91 262.69 476.22 218.73 516.73 220.45" fill="#e6e7e8"/>
<polygon points="510.7 229.29 513.72 262.69 469.11 262.69 463.72 225.19 485.06 224.12 487.21 229.5 510.7 229.29" fill="#33d1cc" data-primary="true"/>
<rect x="488.62" y="187.62" width="1" height="3.5" fill="#2f2e41" data-secondary="true"/>
<rect x="488.62" y="197.08" width="1" height="5.95" fill="#2f2e41" data-secondary="true"/>
<rect x="488.62" y="208.98" width="1" height="3.5" fill="#2f2e41" data-secondary="true"/>
</svg>