 <!DOCTYPE svg PUBLIC "-//W3C//DTD SVG 1.1//EN" "http://www.w3.org/Graphics/SVG/1.1/DTD/svg11.dtd">
<svg id="a5f07548-c393-4e7f-8812-76dc4811e61d" data-name="Layer 1" xmlns="http://www.w3.org/2000/svg" width="865.76" height="682.89" viewBox="0 0 865.76 682.89">
<defs>
<style xmlns="http://www.w3.org/1999/xhtml">*, ::after, ::before { box-sizing: border-box; }
img, svg { vertical-align: middle; }
</style>
<style xmlns="http://www.w3.org/1999/xhtml">*, body, html { -webkit-font-smoothing: antialiased; }
img, svg { max-width: 100%; }
</style>
</defs>
<rect x="264.82" y="246.34" width="16.99" height="153.44" fill="#ccc"/>
<rect x="264.82" y="375.44" width="16.99" height="24.35" opacity="0.2"/>
<rect x="132.54" y="246.34" width="16.99" height="153.44" fill="#ccc"/>
<rect x="132.54" y="257.58" width="16.99" height="142.2" opacity="0.2"/>
<rect x="158.94" y="246.34" width="16.99" height="153.44" fill="#ccc"/>
<rect x="158.94" y="281.44" width="16.99" height="118.34" opacity="0.2"/>
<rect x="212.16" y="246.34" width="16.99" height="153.44" fill="#ccc"/>
<rect x="212.16" y="331.27" width="16.99" height="68.51" opacity="0.2"/>
<rect x="237.64" y="246.34" width="16.99" height="153.44" fill="#ccc"/>
<rect x="237.64" y="290.5" width="16.99" height="109.28" opacity="0.2"/>
<rect x="184.98" y="246.34" width="16.99" height="153.44" fill="#ccc"/>
<rect x="184.98" y="369.21" width="16.99" height="30.58" opacity="0.2"/>
<rect x="384.58" y="16.37" width="314.45" height="453.78" fill="#ccc"/>
<rect x="367.89" y="353.02" width="113.57" height="298.87" fill="#2f2e41" data-secondary="true"/>
<rect x="397.25" y="352.99" width="84.69" height="298.87" opacity="0.5" style="isolation:isolate"/>
<rect x="516.38" y="454.88" width="113.57" height="196.96" fill="#2f2e41" data-secondary="true"/>
<rect x="545.26" y="454.42" width="84.69" height="197.44" opacity="0.3" style="isolation:isolate"/>
<rect x="218.9" y="406.28" width="113.57" height="245.56" fill="#2f2e41" data-secondary="true"/>
<rect x="247.68" y="406.43" width="84.69" height="246.16" opacity="0.4" style="isolation:isolate"/>
<path d="M263.12,652.17c-.16,3.66,11.42,7.12,25.8,7.74s26.27-1.86,26.42-5.52-11.42-7.11-25.8-7.73S263.27,648.52,263.12,652.17Z" fill="#d1d4d5"/>
<rect x="286.09" y="623.78" width="6.62" height="52.33" transform="translate(-372.23 911.53) rotate(-87.57)" fill="#d1d4d5"/>
<path d="M263.39,645.54c-.15,3.67,11.42,7.13,25.8,7.74s26.27-1.85,26.43-5.52-11.42-7.1-25.81-7.72S263.55,641.9,263.39,645.54Z" fill="#d1d4d5"/>
<path d="M263.39,645.54c-.15,3.67,11.42,7.13,25.8,7.74s26.27-1.85,26.43-5.52-11.42-7.1-25.81-7.72S263.55,641.9,263.39,645.54Z" fill="#fff" opacity="0.4" style="isolation:isolate"/>
<path d="M266.73,645.44a1.06,1.06,0,0,0,.22.65c1.72-2.15,11.3-3.44,22.73-2.94S310.54,645.72,312,648a.94.94,0,0,0,.28-.63c.1-2.48-10-5-22.63-5.49S266.83,643,266.73,645.44Z" fill="#d1d4d5"/>
<path d="M266.73,645.44a1.06,1.06,0,0,0,.22.65c1.72-2.15,11.3-3.44,22.73-2.94S310.54,645.72,312,648a.94.94,0,0,0,.28-.63c.1-2.48-10-5-22.63-5.49S266.83,643,266.73,645.44Z" fill="#d1d4d5" opacity="0.4" style="isolation:isolate"/>
<path d="M267,646.09c1.57,2.29,11,4.36,22.37,4.84s21-.78,22.72-2.93c-1.53-2.28-10.94-4.35-22.36-4.85S268.71,643.94,267,646.09Z" fill="#d1d4d5" opacity="0.4" style="isolation:isolate"/>
<path d="M257.56,642.14c-.16,3.66,11.42,7.12,25.8,7.74s26.27-1.86,26.43-5.51-11.43-7.12-25.81-7.74S257.78,638.49,257.56,642.14Z" fill="#d1d4d5"/>
<rect x="280.6" y="613.78" width="6.62" height="52.33" transform="translate(-367.5 896.47) rotate(-87.57)" fill="#d1d4d5"/>
<path d="M257.9,635.53c-.15,3.65,11.43,7.11,25.81,7.73s26.27-1.86,26.42-5.51-11.42-7.12-25.8-7.74S258.06,631.87,257.9,635.53Z" fill="#d1d4d5"/>
<path d="M257.9,635.53c-.15,3.65,11.43,7.11,25.81,7.73s26.27-1.86,26.42-5.51-11.42-7.12-25.8-7.74S258.06,631.87,257.9,635.53Z" fill="#fff" opacity="0.4" style="isolation:isolate"/>
<path d="M261.24,635.41a1,1,0,0,0,.22.65c1.72-2.15,11.31-3.44,22.73-2.92s20.87,2.55,22.36,4.83a1,1,0,0,0,.28-.62c.1-2.47-10-5-22.62-5.5S261.34,632.93,261.24,635.41Z" fill="#d1d4d5"/>
<path d="M261.24,635.41a1,1,0,0,0,.22.65c1.72-2.15,11.31-3.44,22.73-2.92s20.87,2.55,22.36,4.83a1,1,0,0,0,.28-.62c.1-2.47-10-5-22.62-5.5S261.34,632.93,261.24,635.41Z" fill="#d1d4d5" opacity="0.4" style="isolation:isolate"/>
<path d="M261.46,636.06c1.55,2.29,11,4.36,22.37,4.84s21-.78,22.72-2.93c-1.53-2.28-10.94-4.35-22.36-4.83S263.2,633.91,261.46,636.06Z" fill="#d1d4d5" opacity="0.4" style="isolation:isolate"/>
<path d="M258.33,630.06c-.15,3.66,11.43,7.12,25.81,7.74s26.27-1.86,26.42-5.52-11.42-7.11-25.8-7.72S258.49,626.41,258.33,630.06Z" fill="#d1d4d5"/>
<rect x="281.31" y="601.7" width="6.62" height="52.33" transform="translate(-354.74 885.61) rotate(-87.57)" fill="#d1d4d5"/>
<path d="M258.61,623.44c-.16,3.66,11.42,7.12,25.8,7.74s26.25-1.86,26.41-5.51-11.42-7.12-25.81-7.74S258.76,619.79,258.61,623.44Z" fill="#d1d4d5"/>
<path d="M258.61,623.44c-.16,3.66,11.42,7.12,25.8,7.74s26.25-1.86,26.41-5.51-11.42-7.12-25.81-7.74S258.76,619.79,258.61,623.44Z" fill="#fff" opacity="0.4" style="isolation:isolate"/>
<path d="M262,623.33a1.05,1.05,0,0,0,.22.66c1.72-2.15,11.3-3.44,22.72-2.93s20.87,2.55,22.37,4.84a.88.88,0,0,0,.27-.62c.11-2.48-10-5-22.62-5.51S262.05,620.86,262,623.33Z" fill="#d1d4d5"/>
<path d="M262,623.33a1.05,1.05,0,0,0,.22.66c1.72-2.15,11.3-3.44,22.72-2.93s20.87,2.55,22.37,4.84a.88.88,0,0,0,.27-.62c.11-2.48-10-5-22.62-5.51S262.05,620.86,262,623.33Z" fill="#d1d4d5" opacity="0.4" style="isolation:isolate"/>
<path d="M262.17,624c1.56,2.29,11,4.35,22.36,4.83s21-.77,22.73-2.92c-1.53-2.29-10.94-4.36-22.37-4.84S263.92,621.87,262.17,624Z" fill="#d1d4d5" opacity="0.4" style="isolation:isolate"/>
<path d="M252.84,620.05c-.15,3.65,11.43,7.1,25.81,7.72s26.27-1.86,26.42-5.5-11.42-7.12-25.8-7.74S253,616.38,252.84,620.05Z" fill="#d1d4d5"/>
<rect x="275.81" y="591.63" width="6.62" height="52.33" transform="translate(-349.96 870.47) rotate(-87.57)" fill="#d1d4d5"/>
<path d="M253.12,613.43c-.15,3.64,11.42,7.1,25.8,7.72s26.27-1.86,26.43-5.51-11.42-7.12-25.81-7.74S253.27,609.83,253.12,613.43Z" fill="#d1d4d5"/>
<path d="M253.12,613.43c-.15,3.64,11.42,7.1,25.8,7.72s26.27-1.86,26.43-5.51-11.42-7.12-25.81-7.74S253.27,609.83,253.12,613.43Z" fill="#fff" opacity="0.4" style="isolation:isolate"/>
<path d="M256.46,613.27a1,1,0,0,0,.22.65c1.72-2.15,11.3-3.44,22.73-2.92s20.86,2.55,22.36,4.83a1.07,1.07,0,0,0,.28-.62c.1-2.47-10-5-22.63-5.5S256.56,610.83,256.46,613.27Z" fill="#d1d4d5"/>
<path d="M256.46,613.27a1,1,0,0,0,.22.65c1.72-2.15,11.3-3.44,22.73-2.92s20.86,2.55,22.36,4.83a1.07,1.07,0,0,0,.28-.62c.1-2.47-10-5-22.63-5.5S256.56,610.83,256.46,613.27Z" fill="#d1d4d5" opacity="0.4" style="isolation:isolate"/>
<path d="M256.68,614c1.55,2.29,11,4.35,22.37,4.83s21-.77,22.72-2.92c-1.53-2.29-10.94-4.35-22.36-4.84S258.42,611.81,256.68,614Z" fill="#d1d4d5" opacity="0.4" style="isolation:isolate"/>
<path d="M602,660.75c-.27,3.66-12.17,5.77-26.52,4.74s-25.89-4.85-25.62-8.51,12.16-5.75,26.52-4.72S602.29,657.11,602,660.75Z" fill="#d1d4d5"/>
<rect x="572.86" y="629.37" width="6.62" height="52.33" transform="translate(-119.28 1182.84) rotate(-85.86)" fill="#d1d4d5"/>
<path d="M602.51,654.14c-.26,3.66-12.16,5.77-26.52,4.74s-25.88-4.86-25.62-8.51,12.16-5.75,26.52-4.72S602.78,650.5,602.51,654.14Z" fill="#d1d4d5"/>
<path d="M602.51,654.14c-.26,3.66-12.16,5.77-26.52,4.74s-25.88-4.86-25.62-8.51,12.16-5.75,26.52-4.72S602.78,650.5,602.51,654.14Z" fill="#fff" opacity="0.4" style="isolation:isolate"/>
<path d="M599.21,653.66a1.07,1.07,0,0,1-.3.62c-1.46-2.33-10.83-4.71-22.24-5.52s-21,.15-22.77,2.26a1,1,0,0,1-.2-.67c.18-2.47,10.51-3.77,23.1-2.86S599.39,651.18,599.21,653.66Z" fill="#d1d4d5"/>
<path d="M599.21,653.66a1.07,1.07,0,0,1-.3.62c-1.46-2.33-10.83-4.71-22.24-5.52s-21,.15-22.77,2.26a1,1,0,0,1-.2-.67c.18-2.47,10.51-3.77,23.1-2.86S599.39,651.18,599.21,653.66Z" fill="#d1d4d5" opacity="0.4" style="isolation:isolate"/>
<path d="M598.91,654.28c-1.82,2.09-11.4,3.07-22.77,2.24s-20.78-3.17-22.24-5.5c1.78-2.1,11.37-3.08,22.77-2.26S597.41,651.94,598.91,654.28Z" fill="#d1d4d5" opacity="0.4" style="isolation:isolate"/>
<path d="M608.7,651.42c-.27,3.66-12.17,5.77-26.53,4.74s-25.88-4.85-25.62-8.49,12.17-5.77,26.53-4.74S608.89,647.78,608.7,651.42Z" fill="#d1d4d5"/>
<rect x="579.46" y="620.07" width="6.62" height="52.33" transform="translate(-103.89 1180.79) rotate(-85.86)" fill="#d1d4d5"/>
<path d="M609.11,644.82c-.26,3.64-12.16,5.75-26.52,4.72s-25.88-4.85-25.62-8.49,12.16-5.77,26.52-4.74S609.38,641.17,609.11,644.82Z" fill="#d1d4d5"/>
<path d="M609.11,644.82c-.26,3.64-12.16,5.75-26.52,4.72s-25.88-4.85-25.62-8.49,12.16-5.77,26.52-4.74S609.38,641.17,609.11,644.82Z" fill="#fff" opacity="0.4" style="isolation:isolate"/>
<path d="M605.81,644.32a1,1,0,0,1-.3.63c-1.46-2.34-10.83-4.72-22.24-5.51s-21,.14-22.77,2.24a1,1,0,0,1-.2-.65c.18-2.47,10.51-3.79,23.1-2.88S606,641.85,605.81,644.32Z" fill="#d1d4d5"/>
<path d="M605.81,644.32a1,1,0,0,1-.3.63c-1.46-2.34-10.83-4.72-22.24-5.51s-21,.14-22.77,2.24a1,1,0,0,1-.2-.65c.18-2.47,10.51-3.79,23.1-2.88S606,641.85,605.81,644.32Z" fill="#d1d4d5" opacity="0.4" style="isolation:isolate"/>
<path d="M605.51,645c-1.8,2.09-11.4,3.06-22.77,2.24S562,644,560.5,641.68c1.78-2.1,11.37-3.07,22.77-2.24S604,642.61,605.51,645Z" fill="#d1d4d5" opacity="0.4" style="isolation:isolate"/>
<path d="M609.31,639.34c-.27,3.66-12.16,5.77-26.52,4.74s-25.89-4.86-25.62-8.52,12.16-5.75,26.52-4.71S609.57,635.7,609.31,639.34Z" fill="#d1d4d5"/>
<rect x="580.13" y="607.98" width="6.62" height="52.33" transform="translate(-91.2 1170.24) rotate(-85.86)" fill="#d1d4d5"/>
<path d="M609.79,632.73c-.26,3.66-12.16,5.77-26.52,4.73s-25.86-4.85-25.6-8.49,12.16-5.76,26.52-4.73S610.06,629.09,609.79,632.73Z" fill="#d1d4d5"/>
<path d="M609.79,632.73c-.26,3.66-12.16,5.77-26.52,4.73s-25.86-4.85-25.6-8.49,12.16-5.76,26.52-4.73S610.06,629.09,609.79,632.73Z" fill="#fff" opacity="0.4" style="isolation:isolate"/>
<path d="M606.49,632.24a1.07,1.07,0,0,1-.3.63c-1.46-2.34-10.83-4.71-22.24-5.51s-21,.14-22.77,2.24a.88.88,0,0,1-.2-.64c.18-2.48,10.52-3.8,23.1-2.88S606.67,629.77,606.49,632.24Z" fill="#d1d4d5"/>
<path d="M606.49,632.24a1.07,1.07,0,0,1-.3.63c-1.46-2.34-10.83-4.71-22.24-5.51s-21,.14-22.77,2.24a.88.88,0,0,1-.2-.64c.18-2.48,10.52-3.8,23.1-2.88S606.67,629.77,606.49,632.24Z" fill="#d1d4d5" opacity="0.4" style="isolation:isolate"/>
<path d="M606.19,632.87c-1.81,2.09-11.4,3.06-22.77,2.24s-20.77-3.17-22.24-5.51c1.79-2.1,11.37-3.07,22.77-2.24S604.69,630.56,606.19,632.87Z" fill="#d1d4d5" opacity="0.4" style="isolation:isolate"/>
<path d="M615.91,630c-.27,3.64-12.16,5.75-26.52,4.72s-25.89-4.85-25.62-8.49,12.16-5.77,26.52-4.74S616.17,626.36,615.91,630Z" fill="#d1d4d5"/>
<rect x="586.75" y="598.61" width="6.62" height="52.33" transform="translate(-75.71 1168.16) rotate(-85.86)" fill="#d1d4d5"/>
<path d="M616.39,623.41c-.26,3.64-12.16,5.75-26.52,4.72s-25.88-4.85-25.62-8.49,12.17-5.77,26.52-4.74S616.65,619.82,616.39,623.41Z" fill="#d1d4d5"/>
<path d="M616.39,623.41c-.26,3.64-12.16,5.75-26.52,4.72s-25.88-4.85-25.62-8.49,12.17-5.77,26.52-4.74S616.65,619.82,616.39,623.41Z" fill="#fff" opacity="0.4" style="isolation:isolate"/>
<path d="M612.79,623.53c-1.8,2.1-11.4,3.07-22.77,2.24s-20.78-3.17-22.24-5.5c1.78-2.1,11.37-3.07,22.77-2.24S611.31,621.2,612.79,623.53Z" fill="#d1d4d5" opacity="0.4" style="isolation:isolate"/>
<path d="M261.22,611.55c-.15,3.65,11.43,7.1,25.81,7.72s26.27-1.85,26.42-5.5S302,606.65,287.65,606,261.38,607.89,261.22,611.55Z" fill="#d1d4d5"/>
<rect x="284.2" y="583.18" width="6.62" height="52.33" transform="translate(-333.47 870.76) rotate(-87.57)" fill="#d1d4d5"/>
<path d="M261.52,604.93c-.16,3.64,11.42,7.1,25.8,7.72s26.27-1.86,26.42-5.5-11.42-7.13-25.8-7.75S261.67,601.23,261.52,604.93Z" fill="#d1d4d5"/>
<path d="M261.52,604.93c-.16,3.64,11.42,7.1,25.8,7.72s26.27-1.86,26.42-5.5-11.42-7.13-25.8-7.75S261.67,601.23,261.52,604.93Z" fill="#fff" opacity="0.4" style="isolation:isolate"/>
<path d="M264.84,604.81a1.11,1.11,0,0,0,.22.65c1.72-2.15,11.32-3.44,22.72-2.92s20.89,2.54,22.37,4.83a1,1,0,0,0,.29-.62c.1-2.48-10-5-22.62-5.5S265,602.33,264.84,604.81Z" fill="#d1d4d5"/>
<path d="M264.84,604.81a1.11,1.11,0,0,0,.22.65c1.72-2.15,11.32-3.44,22.72-2.92s20.89,2.54,22.37,4.83a1,1,0,0,0,.29-.62c.1-2.48-10-5-22.62-5.5S265,602.33,264.84,604.81Z" fill="#d1d4d5" opacity="0.4" style="isolation:isolate"/>
<path d="M265.06,605.46c1.56,2.29,11,4.35,22.36,4.83s21-.77,22.73-2.92c-1.52-2.29-10.94-4.35-22.37-4.83S266.81,603.31,265.06,605.46Z" fill="#d1d4d5" opacity="0.4" style="isolation:isolate"/>
<path d="M255.73,601.52c-.15,3.65,11.43,7.12,25.81,7.72s26.27-1.85,26.42-5.5-11.42-7.12-25.8-7.74S255.84,597.79,255.73,601.52Z" fill="#d1d4d5"/>
<rect x="278.7" y="573.13" width="6.62" height="52.33" transform="translate(-328.7 855.64) rotate(-87.57)" fill="#d1d4d5"/>
<path d="M256,594.9c-.15,3.64,11.42,7.12,25.8,7.72s26.27-1.84,26.43-5.5-11.42-7.13-25.81-7.74S256.17,591.23,256,594.9Z" fill="#d1d4d5"/>
<path d="M256,594.9c-.15,3.64,11.42,7.12,25.8,7.72s26.27-1.84,26.43-5.5-11.42-7.13-25.81-7.74S256.17,591.23,256,594.9Z" fill="#fff" opacity="0.4" style="isolation:isolate"/>
<path d="M259.28,594.78a1,1,0,0,0,.22.65c1.72-2.15,11.3-3.44,22.73-2.92s20.86,2.54,22.36,4.85a1,1,0,0,0,.28-.64c.1-2.48-10-5-22.63-5.5S259.45,592.3,259.28,594.78Z" fill="#d1d4d5"/>
<path d="M259.28,594.78a1,1,0,0,0,.22.65c1.72-2.15,11.3-3.44,22.73-2.92s20.86,2.54,22.36,4.85a1,1,0,0,0,.28-.64c.1-2.48-10-5-22.63-5.5S259.45,592.3,259.28,594.78Z" fill="#d1d4d5" opacity="0.4" style="isolation:isolate"/>
<path d="M259.57,595.43c1.57,2.29,11,4.35,22.37,4.85s21-.77,22.72-2.92c-1.53-2.31-10.94-4.37-22.36-4.85S261.33,593.28,259.57,595.43Z" fill="#d1d4d5" opacity="0.4" style="isolation:isolate"/>
<path d="M185.15,649c-.17,3.66,11.41,7.12,25.81,7.72s26.25-1.84,26.4-5.5-11.4-7.13-25.8-7.73S185.31,645.3,185.15,649Z" fill="#d1d4d5"/>
<rect x="208.11" y="620.56" width="6.62" height="52.33" transform="matrix(0.04, -1, 1, 0.04, -443.69, 830.53)" fill="#d1d4d5"/>
<path d="M185.43,642.34c-.16,3.67,11.42,7.13,25.8,7.74s26.27-1.85,26.42-5.52-11.42-7.12-25.8-7.72S185.58,638.68,185.43,642.34Z" fill="#d1d4d5"/>
<path d="M185.43,642.34c-.16,3.67,11.42,7.13,25.8,7.74s26.27-1.85,26.42-5.52-11.42-7.12-25.8-7.72S185.58,638.68,185.43,642.34Z" fill="#fff" opacity="0.4" style="isolation:isolate"/>
<path d="M188.75,642.22a.89.89,0,0,0,.22.66c1.72-2.15,11.3-3.44,22.73-2.93s20.86,2.57,22.36,4.85a1.06,1.06,0,0,0,.27-.63c.11-2.48-10-5-22.62-5.49S188.87,639.75,188.75,642.22Z" fill="#d1d4d5"/>
<path d="M188.75,642.22a.89.89,0,0,0,.22.66c1.72-2.15,11.3-3.44,22.73-2.93s20.86,2.57,22.36,4.85a1.06,1.06,0,0,0,.27-.63c.11-2.48-10-5-22.62-5.49S188.87,639.75,188.75,642.22Z" fill="#d1d4d5" opacity="0.4" style="isolation:isolate"/>
<path d="M189,642.88c1.55,2.28,11,4.37,22.36,4.85s21-.78,22.73-2.93c-1.53-2.28-10.94-4.37-22.37-4.85S190.72,640.8,189,642.88Z" fill="#d1d4d5" opacity="0.4" style="isolation:isolate"/>
<path d="M207.89,642.52c-.86,3.56,9.86,9.15,23.92,12.48s26.14,3.17,27-.39-9.88-9.15-23.93-12.49S208.74,639,207.89,642.52Z" fill="#d1d4d5"/>
<rect x="230.8" y="619.22" width="6.62" height="52.33" transform="translate(-447.93 723.79) rotate(-76.62)" fill="#d1d4d5"/>
<path d="M209.39,636.06c-.86,3.57,9.86,9.16,23.91,12.51s26.15,3.17,27-.39-9.82-9.11-23.89-12.55S210.27,632.5,209.39,636.06Z" fill="#d1d4d5"/>
<path d="M209.39,636.06c-.86,3.57,9.86,9.16,23.91,12.51s26.15,3.17,27-.39-9.82-9.11-23.89-12.55S210.27,632.5,209.39,636.06Z" fill="#fff" opacity="0.4" style="isolation:isolate"/>
<path d="M212.71,636.58a1,1,0,0,0,.1.69c2.12-1.72,11.75-1.21,22.87,1.44s20,6.47,21.07,9a1.11,1.11,0,0,0,.4-.57c.56-2.41-8.9-6.76-21.18-9.68S213.3,634.17,212.71,636.58Z" fill="#d1d4d5"/>
<path d="M212.71,636.58a1,1,0,0,0,.1.69c2.12-1.72,11.75-1.21,22.87,1.44s20,6.47,21.07,9a1.11,1.11,0,0,0,.4-.57c.56-2.41-8.9-6.76-21.18-9.68S213.3,634.17,212.71,636.58Z" fill="#d1d4d5" opacity="0.4" style="isolation:isolate"/>
<path d="M212.83,637.35c1.1,2.55,9.94,6.37,21.07,9s20.77,3.24,22.87,1.45c-1.07-2.53-9.93-6.35-21.08-9S214.93,635.48,212.83,637.35Z" fill="#d1d4d5" opacity="0.4" style="isolation:isolate"/>
<circle cx="274.25" cy="575.77" r="23.57" fill="#d1d4d5"/>
<circle cx="277.07" cy="575.77" r="23.57" fill="#d1d4d5"/>
<circle cx="277.07" cy="575.77" r="23.57" fill="#fff" opacity="0.5" style="isolation:isolate"/>
<circle cx="277.07" cy="575.77" r="17.65" transform="translate(-325.98 364.56) rotate(-45)" fill="#d1d4d5"/>
<path d="M284.21,581.6a7.41,7.41,0,0,1-5.53,2.24,7.69,7.69,0,0,1-7.36-4.8h9.5v-2h-10q0-.46,0-.93t0-.93h10v-2h-9.48a7.69,7.69,0,0,1,7.38-4.8,7.33,7.33,0,0,1,5.52,2.22l.28.27,1.91-1.87-.26-.28a10,10,0,0,0-7.55-3,10.31,10.31,0,0,0-10.32,7.45h-3.36v2h3V577h-3v2h3.35a10.33,10.33,0,0,0,10.32,7.45,10.06,10.06,0,0,0,7.56-3l.25-.28-1.91-1.87Z" fill="#fff" opacity="0.3" style="isolation:isolate"/>
<path d="M664.75,644.61c-.53,2.15-7.82,2.17-16.29,0s-14.89-5.59-14.36-7.72,7.84-2.17,16.31,0S665.27,642.52,664.75,644.61Z" fill="#407bff"/>
<rect x="647.93" y="623.05" width="4.01" height="31.6" transform="translate(-127.67 1114.11) rotate(-75.94)" fill="#407bff"/>
<path d="M665.73,640.8c-.55,2.15-7.84,2.16-16.3,0s-14.88-5.58-14.35-7.73,7.83-2.17,16.29,0S666.27,638.59,665.73,640.8Z" fill="#407bff"/>
<path d="M665.73,640.8c-.55,2.15-7.84,2.16-16.3,0s-14.88-5.58-14.35-7.73,7.83-2.17,16.29,0S666.27,638.59,665.73,640.8Z" fill="#fff" opacity="0.4" style="isolation:isolate"/>
<path d="M663.81,640.09a.53.53,0,0,1-.24.34c-.64-1.54-6-3.92-12.65-5.59s-12.52-2.1-13.76-1a1,1,0,0,1,0-.41c.38-1.46,6.66-1.15,14.06.69S664.19,638.64,663.81,640.09Z" fill="#407bff"/>
<path d="M663.81,640.09a.53.53,0,0,1-.24.34c-.64-1.54-6-3.92-12.65-5.59s-12.52-2.1-13.76-1a1,1,0,0,1,0-.41c.38-1.46,6.66-1.15,14.06.69S664.19,638.64,663.81,640.09Z" fill="#407bff" opacity="0.4" style="isolation:isolate"/>
<path d="M663.55,640.43c-1.29,1.05-7.09.64-13.76-1s-12-4.06-12.66-5.59c1.29-1.07,7.08-.65,13.76,1S662.93,638.89,663.55,640.43Z" fill="#407bff" opacity="0.4" style="isolation:isolate"/>
<path d="M679.48,651.67c.1,2.2-6.88,4.3-15.62,4.66s-15.86-1.12-16-3.32,6.88-4.3,15.62-4.68S679.39,649.4,679.48,651.67Z" fill="#d1d4d5"/>
<rect x="647.77" y="648.37" width="31.6" height="4.01" transform="matrix(1, -0.04, 0.04, 1, -26.98, 28.72)" fill="#d1d4d5"/>
<path d="M679.31,647.68c.1,2.22-6.88,4.3-15.61,4.68s-15.86-1.12-16-3.34,6.88-4.3,15.62-4.66S679.22,645.46,679.31,647.68Z" fill="#d1d4d5"/>
<path d="M679.31,647.68c.1,2.22-6.88,4.3-15.61,4.68s-15.86-1.12-16-3.34,6.88-4.3,15.62-4.66S679.22,645.46,679.31,647.68Z" fill="#fff" opacity="0.4" style="isolation:isolate"/>
<path d="M677.31,647.68a.45.45,0,0,1-.14.39c-1-1.29-6.88-2.06-13.76-1.72s-12.61,1.55-13.54,2.93a.61.61,0,0,1-.15-.38c0-1.5,6-3,13.66-3.32S677.31,646.09,677.31,647.68Z" fill="#d1d4d5"/>
<path d="M677.31,647.68a.45.45,0,0,1-.14.39c-1-1.29-6.88-2.06-13.76-1.72s-12.61,1.55-13.54,2.93a.61.61,0,0,1-.15-.38c0-1.5,6-3,13.66-3.32S677.31,646.09,677.31,647.68Z" fill="#d1d4d5" opacity="0.4" style="isolation:isolate"/>
<path d="M677.16,648c-.93,1.37-6.63,2.63-13.52,2.92s-12.68-.46-13.77-1.72c.93-1.38,6.63-2.63,13.54-2.92S676.11,646.7,677.16,648Z" fill="#d1d4d5" opacity="0.4" style="isolation:isolate"/>
<circle cx="643.16" cy="630.85" r="23.57" fill="#d1d4d5"/>
<path d="M662.9,648.5A23.57,23.57,0,1,1,661,615.23h0A23.58,23.58,0,0,1,662.9,648.5Z" fill="#d1d4d5"/>
<path d="M662.9,648.5A23.57,23.57,0,1,1,661,615.23h0A23.58,23.58,0,0,1,662.9,648.5Z" fill="#fff" opacity="0.4" style="isolation:isolate"/>
<path d="M658.39,644.56A17.65,17.65,0,1,1,657,619.64h0a17.64,17.64,0,0,1,1.44,24.9Z" fill="#d1d4d5"/>
<g opacity="0.3">
<path d="M648.58,640.8c-2.1,3.44-5.83,3.52-9.7.61l-2.2,2.36-2.2-1.94,2.22-2.36a16.14,16.14,0,0,1-3.84-6.43l3.44-1.84a13.34,13.34,0,0,0,3,5.48l3.44-3.61c-1.6-2.51-3.25-5.45-1.36-8.51,2.08-3.36,5.88-3.45,9.79-.5l2.22-2.36,2.18,2L653.38,626a14.72,14.72,0,0,1,3.13,5.05L653.23,633a11.57,11.57,0,0,0-2.44-4.23l-3.53,3.78C648.77,635,650.37,637.87,648.58,640.8Zm-3-10.79,2.89-3.08c-1.43-.84-2.62-.69-3.24.26a2.82,2.82,0,0,0,.35,2.8Zm-.93,8.29a2.64,2.64,0,0,0-.33-2.65l-2.75,2.93c1.36.75,2.47.65,3.08-.3Z" fill="#fff"/>
</g>
<path d="M353.52,653.85c-.09,2.2,6.88,4.3,15.62,4.66s15.86-1.11,15.94-3.32-6.88-4.3-15.6-4.68S353.62,651.63,353.52,653.85Z" fill="#d1d4d5"/>
<rect x="367.4" y="636.73" width="4.01" height="31.6" transform="translate(-298.21 993.94) rotate(-87.57)" fill="#d1d4d5"/>
<path d="M353.69,649.84c-.1,2.22,6.88,4.3,15.62,4.68s15.86-1.12,15.95-3.33-6.88-4.31-15.62-4.67S353.78,647.68,353.69,649.84Z" fill="#d1d4d5"/>
<path d="M353.69,649.84c-.1,2.22,6.88,4.3,15.62,4.68s15.86-1.12,15.95-3.33-6.88-4.31-15.62-4.67S353.78,647.68,353.69,649.84Z" fill="#fff" opacity="0.4" style="isolation:isolate"/>
<path d="M355.7,649.78a.62.62,0,0,0,.14.39c1.05-1.29,6.88-2.06,13.76-1.72s12.59,1.55,13.52,2.94a.74.74,0,0,0,.18-.39c0-1.5-6.06-3-13.66-3.31S355.77,648.28,355.7,649.78Z" fill="#d1d4d5"/>
<path d="M355.7,649.78a.62.62,0,0,0,.14.39c1.05-1.29,6.88-2.06,13.76-1.72s12.59,1.55,13.52,2.94a.74.74,0,0,0,.18-.39c0-1.5-6.06-3-13.66-3.31S355.77,648.28,355.7,649.78Z" fill="#d1d4d5" opacity="0.4" style="isolation:isolate"/>
<path d="M355.84,650.17c1,1.39,6.62,2.63,13.52,2.93s12.7-.47,13.76-1.73c-.93-1.39-6.6-2.63-13.52-2.94S356.89,648.88,355.84,650.17Z" fill="#d1d4d5" opacity="0.4" style="isolation:isolate"/>
<path d="M350.2,647.8c0,2.2,6.88,4.3,15.62,4.66s15.86-1.12,15.94-3.32-6.88-4.3-15.6-4.68S350.3,645.59,350.2,647.8Z" fill="#d1d4d5"/>
<rect x="364.04" y="630.62" width="4.01" height="31.6" transform="translate(-295.31 984.74) rotate(-87.57)" fill="#d1d4d5"/>
<path d="M350.45,643.79c0,2.22,6.89,4.3,15.63,4.68s15.86-1.12,15.94-3.34-6.88-4.3-15.6-4.66S350.45,641.59,350.45,643.79Z" fill="#d1d4d5"/>
<path d="M350.45,643.79c0,2.22,6.89,4.3,15.63,4.68s15.86-1.12,15.94-3.34-6.88-4.3-15.6-4.66S350.45,641.59,350.45,643.79Z" fill="#fff" opacity="0.4" style="isolation:isolate"/>
<path d="M352.38,643.72a.67.67,0,0,0,.14.4c1.05-1.29,6.88-2,13.76-1.73s12.59,1.54,13.52,2.93a.73.73,0,0,0,.18-.4c0-1.48-6.06-3-13.66-3.3S352.45,642.22,352.38,643.72Z" fill="#d1d4d5"/>
<path d="M352.38,643.72a.67.67,0,0,0,.14.4c1.05-1.29,6.88-2,13.76-1.73s12.59,1.54,13.52,2.93a.73.73,0,0,0,.18-.4c0-1.48-6.06-3-13.66-3.3S352.45,642.22,352.38,643.72Z" fill="#d1d4d5" opacity="0.4" style="isolation:isolate"/>
<path d="M352.52,644.12c1,1.39,6.62,2.63,13.52,2.92s12.7-.46,13.76-1.72c-.93-1.39-6.6-2.63-13.52-2.93S353.57,642.83,352.52,644.12Z" fill="#d1d4d5" opacity="0.4" style="isolation:isolate"/>
<path d="M350.63,640.5c0,2.2,6.88,4.3,15.62,4.66s15.86-1.11,15.94-3.32-6.88-4.3-15.6-4.67S350.73,638.3,350.63,640.5Z" fill="#d1d4d5"/>
<rect x="364.47" y="623.33" width="4.01" height="31.6" transform="translate(-287.63 978.17) rotate(-87.57)" fill="#d1d4d5"/>
<path d="M350.8,636.49c0,2.22,6.88,4.31,15.62,4.68s15.86-1.11,15.95-3.33-6.88-4.3-15.61-4.67S350.9,634.29,350.8,636.49Z" fill="#d1d4d5"/>
<path d="M350.8,636.49c0,2.22,6.88,4.31,15.62,4.68s15.86-1.11,15.95-3.33-6.88-4.3-15.61-4.67S350.9,634.29,350.8,636.49Z" fill="#fff" opacity="0.4" style="isolation:isolate"/>
<path d="M352.81,636.43a.62.62,0,0,0,.14.39c1.05-1.29,6.88-2.05,13.76-1.72s12.59,1.53,13.52,2.93a.73.73,0,0,0,.18-.4c0-1.48-6.06-3-13.66-3.3S352.88,635,352.81,636.43Z" fill="#d1d4d5"/>
<path d="M352.81,636.43a.62.62,0,0,0,.14.39c1.05-1.29,6.88-2.05,13.76-1.72s12.59,1.53,13.52,2.93a.73.73,0,0,0,.18-.4c0-1.48-6.06-3-13.66-3.3S352.88,635,352.81,636.43Z" fill="#d1d4d5" opacity="0.4" style="isolation:isolate"/>
<path d="M353,636.82c.95,1.39,6.62,2.63,13.52,2.93s12.7-.47,13.76-1.72c-.93-1.4-6.6-2.64-13.52-2.93S354,635.53,353,636.82Z" fill="#d1d4d5" opacity="0.4" style="isolation:isolate"/>
<path d="M347.31,634.45c0,2.2,6.88,4.3,15.62,4.66s15.86-1.12,16-3.32-6.88-4.3-15.62-4.68S347.41,632.19,347.31,634.45Z" fill="#d1d4d5"/>
<rect x="361.17" y="617.29" width="4.01" height="31.6" transform="translate(-284.75 969.09) rotate(-87.57)" fill="#d1d4d5"/>
<path d="M347.48,630.47c-.09,2.22,6.88,4.3,15.62,4.68S379,634,379.05,631.82s-6.88-4.29-15.61-4.67S347.58,628.24,347.48,630.47Z" fill="#d1d4d5"/>
<path d="M347.48,630.47c-.09,2.22,6.88,4.3,15.62,4.68S379,634,379.05,631.82s-6.88-4.29-15.61-4.67S347.58,628.24,347.48,630.47Z" fill="#fff" opacity="0.4" style="isolation:isolate"/>
<path d="M349.49,630.37a.67.67,0,0,0,.14.4c1.07-1.29,6.88-2,13.76-1.72S376,630.58,376.91,632a.62.62,0,0,0,.18-.38c0-1.5-6.06-3-13.66-3.32S349.56,628.89,349.49,630.37Z" fill="#d1d4d5"/>
<path d="M349.49,630.37a.67.67,0,0,0,.14.4c1.07-1.29,6.88-2,13.76-1.72S376,630.58,376.91,632a.62.62,0,0,0,.18-.38c0-1.5-6.06-3-13.66-3.32S349.56,628.89,349.49,630.37Z" fill="#d1d4d5" opacity="0.4" style="isolation:isolate"/>
<path d="M349.63,630.77c.95,1.39,6.62,2.63,13.52,2.92s12.7-.46,13.76-1.72c-.91-1.39-6.6-2.63-13.52-2.92S350.7,629.48,349.63,630.77Z" fill="#d1d4d5" opacity="0.4" style="isolation:isolate"/>
<path d="M352.38,629.32c-.1,2.2,6.88,4.3,15.62,4.66s15.86-1.12,15.95-3.32-6.88-4.3-15.62-4.68S352.47,627,352.38,629.32Z" fill="#d1d4d5"/>
<rect x="366.22" y="612.14" width="4.01" height="31.6" transform="translate(-274.77 969.21) rotate(-87.57)" fill="#d1d4d5"/>
<path d="M352.55,625.31c-.1,2.22,6.88,4.3,15.61,4.68s15.86-1.12,16-3.34-6.88-4.3-15.62-4.66S352.64,623.11,352.55,625.31Z" fill="#d1d4d5"/>
<path d="M352.55,625.31c-.1,2.22,6.88,4.3,15.61,4.68s15.86-1.12,16-3.34-6.88-4.3-15.62-4.66S352.64,623.11,352.55,625.31Z" fill="#fff" opacity="0.4" style="isolation:isolate"/>
<path d="M354.57,625.31a.49.49,0,0,0,.13.4c1.05-1.29,6.89-2.07,13.77-1.72s12.61,1.55,13.54,2.92a.58.58,0,0,0,.15-.38c0-1.49-6-3-13.66-3.32S354.62,623.75,354.57,625.31Z" fill="#d1d4d5"/>
<path d="M354.57,625.31a.49.49,0,0,0,.13.4c1.05-1.29,6.89-2.07,13.77-1.72s12.61,1.55,13.54,2.92a.58.58,0,0,0,.15-.38c0-1.49-6-3-13.66-3.32S354.62,623.75,354.57,625.31Z" fill="#d1d4d5" opacity="0.4" style="isolation:isolate"/>
<path d="M354.7,625.64c.93,1.38,6.63,2.63,13.53,2.92s12.67-.46,13.76-1.72c-.93-1.37-6.63-2.63-13.54-2.92S355.75,624.35,354.7,625.64Z" fill="#d1d4d5" opacity="0.4" style="isolation:isolate"/>
<path d="M330.12,653.49c.53,2.15,7.85,2.17,16.31,0s14.88-5.57,14.35-7.72-7.83-2.17-16.29,0S329.59,651.36,330.12,653.49Z" fill="#d1d4d5"/>
<rect x="329.17" y="645.71" width="31.6" height="4.01" transform="translate(-147.02 103.21) rotate(-14.06)" fill="#d1d4d5"/>
<path d="M329.16,649.62c.53,2.13,7.82,2.17,16.29,0s14.9-5.57,14.35-7.71-7.83-2.16-16.3,0S328.61,647.47,329.16,649.62Z" fill="#d1d4d5"/>
<path d="M329.16,649.62c.53,2.13,7.82,2.17,16.29,0s14.9-5.57,14.35-7.71-7.83-2.16-16.3,0S328.61,647.47,329.16,649.62Z" fill="#fff" opacity="0.4" style="isolation:isolate"/>
<path d="M331.07,649a.51.51,0,0,0,.24.33c.63-1.53,5.95-3.9,12.66-5.59s12.51-2.1,13.76-1a.61.61,0,0,0,0-.42c-.36-1.44-6.66-1.15-14,.71S330.71,647.52,331.07,649Z" fill="#d1d4d5"/>
<path d="M331.07,649a.51.51,0,0,0,.24.33c.63-1.53,5.95-3.9,12.66-5.59s12.51-2.1,13.76-1a.61.61,0,0,0,0-.42c-.36-1.44-6.66-1.15-14,.71S330.71,647.52,331.07,649Z" fill="#d1d4d5" opacity="0.4" style="isolation:isolate"/>
<path d="M331.31,649.4c1.29,1.06,7.1.65,13.76-1s12-4,12.66-5.59c-1.29-1.06-7.09-.63-13.76,1S331.94,647.78,331.31,649.4Z" fill="#d1d4d5" opacity="0.4" style="isolation:isolate"/>
<path d="M315.48,653.85c0,2.2,6.88,4.3,15.62,4.66s15.86-1.11,15.95-3.32-6.88-4.3-15.6-4.68S315.58,651.63,315.48,653.85Z" fill="#d1d4d5"/>
<rect x="329.33" y="636.68" width="4.01" height="31.6" transform="translate(-334.61 955.86) rotate(-87.57)" fill="#d1d4d5"/>
<path d="M315.65,649.84c-.08,2.22,6.88,4.3,15.62,4.68s15.86-1.12,16-3.33-6.88-4.31-15.6-4.67S315.76,647.68,315.65,649.84Z" fill="#d1d4d5"/>
<path d="M315.65,649.84c-.08,2.22,6.88,4.3,15.62,4.68s15.86-1.12,16-3.33-6.88-4.31-15.6-4.67S315.76,647.68,315.65,649.84Z" fill="#fff" opacity="0.4" style="isolation:isolate"/>
<path d="M317.67,649.78a.68.68,0,0,0,.13.39c1.05-1.29,6.88-2.06,13.77-1.72s12.59,1.55,13.52,2.94a.66.66,0,0,0,.17-.39c0-1.5-6.06-3-13.66-3.31S317.77,648.28,317.67,649.78Z" fill="#d1d4d5"/>
<path d="M317.67,649.78a.68.68,0,0,0,.13.39c1.05-1.29,6.88-2.06,13.77-1.72s12.59,1.55,13.52,2.94a.66.66,0,0,0,.17-.39c0-1.5-6.06-3-13.66-3.31S317.77,648.28,317.67,649.78Z" fill="#d1d4d5" opacity="0.4" style="isolation:isolate"/>
<path d="M317.77,650.17c1,1.39,6.62,2.63,13.52,2.93s12.7-.47,13.76-1.73c-.93-1.39-6.6-2.63-13.52-2.94S318.85,648.88,317.77,650.17Z" fill="#d1d4d5" opacity="0.4" style="isolation:isolate"/>
<path d="M497.65,653.85c.08,2.2-6.88,4.3-15.62,4.66s-15.86-1.11-15.95-3.32,6.88-4.3,15.6-4.68S497.54,651.63,497.65,653.85Z" fill="#d1d4d5"/>
<rect x="465.96" y="650.53" width="31.6" height="4.01" transform="translate(-27.23 21.01) rotate(-2.43)" fill="#d1d4d5"/>
<path d="M497.48,649.84c.1,2.22-6.89,4.3-15.62,4.68s-15.87-1.12-15.95-3.33,6.88-4.31,15.62-4.67S497.39,647.68,497.48,649.84Z" fill="#d1d4d5"/>
<path d="M497.48,649.84c.1,2.22-6.89,4.3-15.62,4.68s-15.87-1.12-15.95-3.33,6.88-4.31,15.62-4.67S497.39,647.68,497.48,649.84Z" fill="#fff" opacity="0.4" style="isolation:isolate"/>
<path d="M495.46,649.78a.68.68,0,0,1-.13.39c-1.05-1.29-6.89-2.06-13.77-1.72S469,650,468,651.39a.66.66,0,0,1-.17-.39c0-1.5,6.05-3,13.66-3.31S495.39,648.28,495.46,649.78Z" fill="#d1d4d5"/>
<path d="M495.46,649.78a.68.68,0,0,1-.13.39c-1.05-1.29-6.89-2.06-13.77-1.72S469,650,468,651.39a.66.66,0,0,1-.17-.39c0-1.5,6.05-3,13.66-3.31S495.39,648.28,495.46,649.78Z" fill="#d1d4d5" opacity="0.4" style="isolation:isolate"/>
<path d="M495.33,650.17c-.95,1.39-6.63,2.63-13.53,2.93s-12.69-.47-13.76-1.73c.93-1.39,6.61-2.63,13.52-2.94S494.28,648.88,495.33,650.17Z" fill="#d1d4d5" opacity="0.4" style="isolation:isolate"/>
<path d="M501,647.8c0,2.2-6.88,4.3-15.62,4.66s-15.86-1.12-16-3.32,6.88-4.3,15.6-4.68S500.86,645.59,501,647.8Z" fill="#d1d4d5"/>
<rect x="469.32" y="644.42" width="31.6" height="4.01" transform="translate(-26.97 21.15) rotate(-2.43)" fill="#d1d4d5"/>
<path d="M500.71,643.79c0,2.22-6.88,4.3-15.62,4.68s-15.86-1.12-15.95-3.34,6.88-4.3,15.61-4.66S500.71,641.59,500.71,643.79Z" fill="#d1d4d5"/>
<path d="M500.71,643.79c0,2.22-6.88,4.3-15.62,4.68s-15.86-1.12-15.95-3.34,6.88-4.3,15.61-4.66S500.71,641.59,500.71,643.79Z" fill="#fff" opacity="0.4" style="isolation:isolate"/>
<path d="M498.78,643.72a.73.73,0,0,1-.13.4c-1-1.29-6.89-2-13.77-1.73s-12.59,1.54-13.52,2.93a.66.66,0,0,1-.17-.4c0-1.48,6.06-3,13.66-3.3S498.71,642.22,498.78,643.72Z" fill="#d1d4d5"/>
<path d="M498.78,643.72a.73.73,0,0,1-.13.4c-1-1.29-6.89-2-13.77-1.73s-12.59,1.54-13.52,2.93a.66.66,0,0,1-.17-.4c0-1.48,6.06-3,13.66-3.3S498.71,642.22,498.78,643.72Z" fill="#d1d4d5" opacity="0.4" style="isolation:isolate"/>
<path d="M498.65,644.12c-.95,1.39-6.63,2.63-13.53,2.92s-12.69-.46-13.76-1.72c.93-1.39,6.61-2.63,13.52-2.93S497.6,642.83,498.65,644.12Z" fill="#d1d4d5" opacity="0.4" style="isolation:isolate"/>
<path d="M500.54,640.5c0,2.2-6.88,4.3-15.62,4.66s-15.86-1.11-15.95-3.32,6.88-4.3,15.6-4.67S500.43,638.3,500.54,640.5Z" fill="#d1d4d5"/>
<rect x="468.89" y="637.13" width="31.6" height="4.01" transform="translate(-26.66 21.13) rotate(-2.43)" fill="#d1d4d5"/>
<path d="M500.37,636.49c0,2.22-6.89,4.31-15.62,4.68s-15.87-1.11-15.95-3.33,6.88-4.3,15.6-4.67S500.26,634.29,500.37,636.49Z" fill="#d1d4d5"/>
<path d="M500.37,636.49c0,2.22-6.89,4.31-15.62,4.68s-15.87-1.11-15.95-3.33,6.88-4.3,15.6-4.67S500.26,634.29,500.37,636.49Z" fill="#fff" opacity="0.4" style="isolation:isolate"/>
<path d="M498.35,636.43a.68.68,0,0,1-.13.39c-1.05-1.29-6.89-2.05-13.77-1.72s-12.59,1.53-13.52,2.93a.66.66,0,0,1-.17-.4c0-1.48,6.06-3,13.66-3.3S498.28,635,498.35,636.43Z" fill="#d1d4d5"/>
<path d="M498.35,636.43a.68.68,0,0,1-.13.39c-1.05-1.29-6.89-2.05-13.77-1.72s-12.59,1.53-13.52,2.93a.66.66,0,0,1-.17-.4c0-1.48,6.06-3,13.66-3.3S498.28,635,498.35,636.43Z" fill="#d1d4d5" opacity="0.4" style="isolation:isolate"/>
<path d="M498.22,636.82c-1,1.39-6.63,2.63-13.53,2.93S472,639.28,470.93,638c.93-1.4,6.61-2.64,13.52-2.93S497.17,635.53,498.22,636.82Z" fill="#d1d4d5" opacity="0.4" style="isolation:isolate"/>
<path d="M503.86,634.45c0,2.2-6.88,4.3-15.62,4.66s-15.86-1.12-16-3.32,6.88-4.3,15.62-4.68S503.76,632.19,503.86,634.45Z" fill="#d1d4d5"/>
<rect x="472.19" y="631.09" width="31.6" height="4.01" transform="translate(-26.4 21.26) rotate(-2.43)" fill="#d1d4d5"/>
<path d="M503.69,630.47c.08,2.22-6.89,4.3-15.62,4.68s-15.87-1.12-15.95-3.33,6.88-4.29,15.6-4.67S503.58,628.24,503.69,630.47Z" fill="#d1d4d5"/>
<path d="M503.69,630.47c.08,2.22-6.89,4.3-15.62,4.68s-15.87-1.12-15.95-3.33,6.88-4.29,15.6-4.67S503.58,628.24,503.69,630.47Z" fill="#fff" opacity="0.4" style="isolation:isolate"/>
<path d="M501.67,630.37a.73.73,0,0,1-.13.4c-1.07-1.29-6.89-2-13.77-1.72s-12.61,1.53-13.52,2.92a.6.6,0,0,1-.17-.38c0-1.5,6.06-3,13.66-3.32S501.6,628.89,501.67,630.37Z" fill="#d1d4d5"/>
<path d="M501.67,630.37a.73.73,0,0,1-.13.4c-1.07-1.29-6.89-2-13.77-1.72s-12.61,1.53-13.52,2.92a.6.6,0,0,1-.17-.38c0-1.5,6.06-3,13.66-3.32S501.6,628.89,501.67,630.37Z" fill="#d1d4d5" opacity="0.4" style="isolation:isolate"/>
<path d="M501.54,630.77c-1,1.39-6.63,2.63-13.53,2.92s-12.69-.46-13.76-1.72c.91-1.39,6.61-2.63,13.52-2.92S500.47,629.48,501.54,630.77Z" fill="#d1d4d5" opacity="0.4" style="isolation:isolate"/>
<path d="M498.78,629.32c.11,2.2-6.88,4.3-15.62,4.66s-15.86-1.12-15.94-3.32,6.88-4.3,15.62-4.68S498.7,627,498.78,629.32Z" fill="#d1d4d5"/>
<rect x="467.14" y="625.94" width="31.6" height="4.01" transform="translate(-26.19 21.04) rotate(-2.43)" fill="#d1d4d5"/>
<path d="M498.61,625.31c.1,2.22-6.88,4.3-15.6,4.68s-15.86-1.12-16-3.34,6.88-4.3,15.62-4.66S498.53,623.11,498.61,625.31Z" fill="#d1d4d5"/>
<path d="M498.61,625.31c.1,2.22-6.88,4.3-15.6,4.68s-15.86-1.12-16-3.34,6.88-4.3,15.62-4.66S498.53,623.11,498.61,625.31Z" fill="#fff" opacity="0.4" style="isolation:isolate"/>
<path d="M496.6,625.31a.53.53,0,0,1-.14.4c-1-1.29-6.88-2.07-13.76-1.72s-12.61,1.55-13.54,2.92a.59.59,0,0,1-.16-.38c0-1.49,6-3,13.66-3.32S496.55,623.75,496.6,625.31Z" fill="#d1d4d5"/>
<path d="M496.6,625.31a.53.53,0,0,1-.14.4c-1-1.29-6.88-2.07-13.76-1.72s-12.61,1.55-13.54,2.92a.59.59,0,0,1-.16-.38c0-1.49,6-3,13.66-3.32S496.55,623.75,496.6,625.31Z" fill="#d1d4d5" opacity="0.4" style="isolation:isolate"/>
<path d="M496.46,625.64c-.93,1.38-6.62,2.63-13.52,2.92s-12.68-.46-13.76-1.72c.93-1.37,6.62-2.63,13.54-2.92S495.41,624.35,496.46,625.64Z" fill="#d1d4d5" opacity="0.4" style="isolation:isolate"/>
<path d="M521,653.49c-.53,2.15-7.84,2.17-16.3,0s-14.89-5.57-14.35-7.72,7.83-2.17,16.29,0S521.58,651.36,521,653.49Z" fill="#d1d4d5"/>
<rect x="504.19" y="631.91" width="4.01" height="31.6" transform="translate(-245.08 981.39) rotate(-75.94)" fill="#d1d4d5"/>
<path d="M522,649.62c-.54,2.13-7.83,2.17-16.29,0s-14.9-5.57-14.35-7.71,7.83-2.16,16.29,0S522.56,647.47,522,649.62Z" fill="#d1d4d5"/>
<path d="M522,649.62c-.54,2.13-7.83,2.17-16.29,0s-14.9-5.57-14.35-7.71,7.83-2.16,16.29,0S522.56,647.47,522,649.62Z" fill="#fff" opacity="0.4" style="isolation:isolate"/>
<path d="M520.1,649a.59.59,0,0,1-.24.33c-.64-1.53-6-3.9-12.66-5.59s-12.51-2.1-13.77-1a.61.61,0,0,1,0-.42c.36-1.44,6.66-1.15,14,.71S520.46,647.52,520.1,649Z" fill="#d1d4d5"/>
<path d="M520.1,649a.59.59,0,0,1-.24.33c-.64-1.53-6-3.9-12.66-5.59s-12.51-2.1-13.77-1a.61.61,0,0,1,0-.42c.36-1.44,6.66-1.15,14,.71S520.46,647.52,520.1,649Z" fill="#d1d4d5" opacity="0.4" style="isolation:isolate"/>
<path d="M519.86,649.4c-1.29,1.06-7.11.65-13.77-1s-12-4-12.66-5.59c1.29-1.06,7.09-.63,13.77,1S519.22,647.78,519.86,649.4Z" fill="#d1d4d5" opacity="0.4" style="isolation:isolate"/>
<path d="M535.9,653.85c0,2.2-6.88,4.3-15.62,4.66s-15.86-1.11-15.95-3.32,6.88-4.3,15.6-4.68S535.79,651.63,535.9,653.85Z" fill="#d1d4d5"/>
<rect x="504.03" y="650.48" width="31.6" height="4.01" transform="translate(-27.2 22.63) rotate(-2.43)" fill="#d1d4d5"/>
<path d="M535.51,649.84c.09,2.22-6.88,4.3-15.62,4.68s-15.86-1.12-15.95-3.33,6.89-4.31,15.61-4.67S535.41,647.68,535.51,649.84Z" fill="#d1d4d5"/>
<path d="M535.51,649.84c.09,2.22-6.88,4.3-15.62,4.68s-15.86-1.12-15.95-3.33,6.89-4.31,15.61-4.67S535.41,647.68,535.51,649.84Z" fill="#fff" opacity="0.4" style="isolation:isolate"/>
<path d="M533.5,649.78a.62.62,0,0,1-.14.39c-1.05-1.29-6.88-2.06-13.76-1.72S507,650,506.08,651.39a.66.66,0,0,1-.17-.39c0-1.5,6-3,13.65-3.31S533.4,648.28,533.5,649.78Z" fill="#d1d4d5"/>
<path d="M533.5,649.78a.62.62,0,0,1-.14.39c-1.05-1.29-6.88-2.06-13.76-1.72S507,650,506.08,651.39a.66.66,0,0,1-.17-.39c0-1.5,6-3,13.65-3.31S533.4,648.28,533.5,649.78Z" fill="#d1d4d5" opacity="0.4" style="isolation:isolate"/>
<path d="M533.4,650.17c-.95,1.39-6.63,2.63-13.53,2.93s-12.69-.47-13.76-1.73c.93-1.39,6.61-2.63,13.52-2.94S532.31,648.88,533.4,650.17Z" fill="#d1d4d5" opacity="0.4" style="isolation:isolate"/>
<path d="M517.77,643.91c-.94,2,4.7,6.64,12.59,10.32s15.07,5.16,16,3.1-4.69-6.63-12.59-10.32S518.7,641.91,517.77,643.91Z" fill="#d1d4d5"/>
<rect x="530.92" y="633.08" width="4.01" height="31.6" transform="translate(-281 855.24) rotate(-64.83)" fill="#d1d4d5"/>
<path d="M519.47,640.3c-.94,2,4.7,6.62,12.6,10.32s15.07,5.16,16,3.09-4.7-6.64-12.6-10.32S520.4,638.28,519.47,640.3Z" fill="#d1d4d5"/>
<path d="M519.47,640.3c-.94,2,4.7,6.62,12.6,10.32s15.07,5.16,16,3.09-4.7-6.64-12.6-10.32S520.4,638.28,519.47,640.3Z" fill="#fff" opacity="0.4" style="isolation:isolate"/>
<path d="M521.35,641a.58.58,0,0,0,0,.41c1.46-.77,7.09.74,13.33,3.69s11,6.29,11.36,7.93a.6.6,0,0,0,.29-.3c.64-1.36-4.42-5.16-11.32-8.34S522,639.66,521.35,641Z" fill="#d1d4d5"/>
<path d="M521.35,641a.58.58,0,0,0,0,.41c1.46-.77,7.09.74,13.33,3.69s11,6.29,11.36,7.93a.6.6,0,0,0,.29-.3c.64-1.36-4.42-5.16-11.32-8.34S522,639.66,521.35,641Z" fill="#d1d4d5" opacity="0.4" style="isolation:isolate"/>
<path d="M521.33,641.41c.33,1.72,5.16,5,11.34,7.93S544.56,653.82,546,653c-.33-1.64-5.16-5-11.36-7.93S522.79,640.64,521.33,641.41Z" fill="#d1d4d5" opacity="0.4" style="isolation:isolate"/>
<path d="M486.15,101.57s7.14-2.64,9.44-21.22a29.81,29.81,0,0,0-6-22.47C484,51,473.92,44.75,455.94,47.39c0,0-47.94,3.35-44.59,42.19,0,0,.48,55.14-42.38,67,0,0-.6.06-1.63.25-26.65,4.77-33.92,39.68-11.6,55l4.91,3.38c8.93,6.14,19.28,15.57,17.41,26.24-.1.56-.21,1.12-.35,1.68a20.32,20.32,0,0,0,4.62,18.05c5.23,5.93,14.63,11.81,31.42,12.5l32.12-142.88Z" fill="#2f2e41" data-secondary="true"/>
<path d="M429.09,153.35c-51.78,1.87-105.53,57.15-123.84,78.73a25.31,25.31,0,0,0-4.36,26.11c14.84,35.17,86,59.61,86,59.61l12.47-21.1-64.73-45.55,49.87-25.41L408,297.18l75.75-5.75L485.67,244l40.07,53.3a9,9,0,0,0,14.22.15c6.39-8,15.61-22.33,23.38-44.82l-16.78-12.46-12,20.13L501.16,185c-1.17-2.63-2.18-5.32-3.17-8C495.52,170.28,483.68,151.37,429.09,153.35Z" fill="#33d1cc" data-primary="true"/>
<path d="M400.81,479.85,474.16,406,501,431.9s-16.3,26.37-16.78,27.81-49.38,35.48-67.12,41.71Z" fill="#2f2e41" data-secondary="true"/>
<path d="M400.81,479.85,474.16,406,501,431.9s-16.3,26.37-16.78,27.81-49.38,35.48-67.12,41.71Z" opacity="0.2"/>
<path d="M412.31,588.2s1-15.82,7.67-22.53l12.9-18.92,17.57,13.76-21.84,34.41S423.34,587.73,412.31,588.2Z" fill="#f9b499"/>
<path d="M368.2,506.22l35.34-22.75,13.57,17.95L390.26,522s-4.15-3.48-14.06,1C376.2,523,370.44,525.52,368.2,506.22Z" fill="#f9b499"/>
<rect x="538.56" y="138.85" width="67.76" height="86.94" rx="1.93" fill="#2f2e41" data-secondary="true"/>
<rect x="583.95" y="374.09" width="16.62" height="69.04" opacity="0.2"/>
<rect x="610.16" y="292.91" width="16.62" height="150.22" opacity="0.2"/>
<rect x="637" y="204.69" width="16.62" height="238.43" opacity="0.2"/>
<rect x="663.21" y="351.72" width="16.62" height="91.41" opacity="0.2"/>
<path d="M745.57,476a47.17,47.17,0,0,0,.33-5.6,46.69,46.69,0,1,0-46.69,46.68,47.51,47.51,0,0,0,5.09-.27l-5.09-46.41Z" fill="#bcbec0"/>
<path d="M703.87,475.09l6.64,46.45s37-4.74,38.39-39.82Z" fill="#a7a9ac"/>
<g opacity="0.2">
<polygon points="501.57 160.38 472.23 134.3 473.22 133.18 501.4 158.23 552.42 95.74 620.2 127.71 665.21 76.99 666.33 77.98 620.57 129.54 552.84 97.59 501.57 160.38"/>
</g>
<circle cx="501.91" cy="158.67" r="5.11" fill="#bcbec0"/>
<circle cx="552.63" cy="97.94" r="5.11" fill="#bcbec0"/>
<circle cx="620.38" cy="127.99" r="5.11" fill="#bcbec0"/>
<circle cx="667.69" cy="75.57" r="5.11" fill="#bcbec0"/>
<polygon points="289.17 400.31 116.86 400.31 116.86 248.96 118.35 248.96 118.35 398.82 289.17 398.82 289.17 400.31" fill="#ccc"/>
<polygon points="145.55 233.33 144.28 232.54 215.97 116.67 311.35 116.67 311.35 118.16 216.8 118.16 145.55 233.33" fill="#ccc"/>
<rect x="219.37" y="128.42" width="93.33" height="1.49" fill="#ccc"/>
<rect x="219.37" y="139.18" width="93.33" height="1.49" fill="#ccc"/>
<rect x="219.37" y="150.05" width="93.33" height="1.49" fill="#ccc"/>
<rect x="219.37" y="160.92" width="63.17" height="1.49" fill="#ccc"/>
<path d="M408,297.18s-31.17,33.08,32.12,83.9l45.12,39.11a8.62,8.62,0,0,1,1.95,10.61l-60,111.86,28.76,20.61s98.77-114.1,90.62-142.87c0,0,34.52-36,22.05-63.29,0,0-21.09-32.12-84.86-65.68Z" fill="#2f2e41" data-secondary="true"/>
<path d="M406.08,630.4s-14.38-1.44-7.19-32.61c0,0,1.92-33.56,21.09-32.12,0,0-5.75,1.92-7.67,22.53a19.14,19.14,0,0,1,16.3,6.72S415.19,630.88,406.08,630.4Z" fill="#33d1cc" data-primary="true"/>
<path d="M368.2,506.22s-10.54,6.9-9.26,12.34c0,0,9.3,36.7,25.54,42.45a4.68,4.68,0,0,0,6-5.48c-2-9.18-4.83-26.6-.22-33.49" fill="#33d1cc" data-primary="true"/>
<path d="M440.6,119.31l-3.83,33.56-7.68.48s11,23,30.21,20.13c0,0,12.64,2.85,12.16-16.33l-5.67-1.27-1.22-26Z" fill="#f9b499"/>
<path d="M388.69,314.62s29.78,22.14,64.53,15.26a7.3,7.3,0,0,0,5.86-6.94l.06-2.23a7.29,7.29,0,0,0-7.94-7.42,52.33,52.33,0,0,1-15.09-.9s12.53-.9,10.29-7.16c0,0-6.25-6.25-26.43-.5a11.2,11.2,0,0,1-8.71-1.09l-11.89-6.94Z" fill="#f9b499"/>
<path d="M549.74,242.15s14.55-16.58,18-29.43a8.14,8.14,0,0,1,7.13-6h0a8.12,8.12,0,0,1,8.76,9.11c-.85,7.12-3.74,16.54-12.46,22.77,0,0-8.58,6.55-7.87,14Z" fill="#f9b499"/>
<path d="M465,138.85l-.42-9s-10.42-2.1-24-10.54C440.6,119.31,453.92,136.42,465,138.85Z" fill="#f4a48e"/>
<path d="M449.23,126.5a26.63,26.63,0,0,0,8.6,3.74c11.94,2.92,23.94-4.84,26.71-16.81A77.43,77.43,0,0,0,486.15,103V85.74S480.39,69,461.7,69.44c0,0-5.76,13.91-22.06,9.59,0,0,.48,17.26-4.31,22.06,0,0-3.84-13.43-11.51-5.76,0,0-3.84,19.18,11,17.26C434.85,112.59,441.08,123.14,449.23,126.5Z" fill="#f9b499"/>
</svg>