 <!DOCTYPE svg PUBLIC "-//W3C//DTD SVG 1.1//EN" "http://www.w3.org/Graphics/SVG/1.1/DTD/svg11.dtd">
<svg id="b559a665-b5aa-4b2e-a540-909408fbfd42" data-name="Layer 1" xmlns="http://www.w3.org/2000/svg" width="865.76" height="682.89" viewBox="0 0 865.76 682.89">
<defs>
<style xmlns="http://www.w3.org/1999/xhtml">*, ::after, ::before { box-sizing: border-box; }
img, svg { vertical-align: middle; }
</style>
<style xmlns="http://www.w3.org/1999/xhtml">*, body, html { -webkit-font-smoothing: antialiased; }
img, svg { max-width: 100%; }
</style>
</defs>
<path d="M616.49,525.11a23.42,23.42,0,1,0,0,46.84h11.94V525.11Zm7.45,40.06h-5.37a16.86,16.86,0,0,1,0-33.72h5.37Z" fill="#2f2e41" data-secondary="true"/>
<path d="M442.13,300.32c1.31-12.26,9.22-23.91,17.82-23s14.61,14.06,13.31,26.32-9.34,21.46-17.93,20.54S440.82,312.58,442.13,300.32Z" fill="#f9b499"/>
<path d="M346.44,294.07c1.31-12.27,9.22-23.92,17.82-23s14.61,14.05,13.31,26.32-9.34,21.46-17.93,20.54S345.13,306.33,346.44,294.07Z" fill="#f9b499"/>
<path d="M335.42,574.36s7.56-59.21-5-105.51L357.64,378s60.31-34.25,121.6-4.81c0,0,36.23,12.47,56.26,48.16L573,480.12s-17.51,17.51-63.15,43.13l-10.62-20,2.52,81h-167Z" fill="#33d1cc" data-primary="true"/>
<path d="M819.2,611.13H38.7a13.45,13.45,0,0,1-13.46-13.46h0A13.45,13.45,0,0,1,38.7,584.21H819.2a13.45,13.45,0,0,1,13.46,13.46h0A13.45,13.45,0,0,1,819.2,611.13Z" fill="#ccc"/>
<rect x="195.87" y="568.67" width="241.56" height="15.54" fill="#2f2e41" data-secondary="true"/>
<rect x="374.17" y="568.67" width="63.37" height="15.54" opacity="0.2"/>
<path d="M529.26,541.41,516,519.74s27.58-16.09,50.78-34.15c0,0,50,92.05-8.75,98.62H437.54V568.67H359.83a109.6,109.6,0,0,1,11.28-8.76,24.56,24.56,0,0,1,16.52-4,173.46,173.46,0,0,1,28,5.15,22.27,22.27,0,0,0,11.38.32C446.3,557,506.82,543.49,529.26,541.41Z" fill="#f9b499"/>
<path d="M369.3,355.5c-3.17,10-11.66,22.5-11.66,22.5l-27.36,91c-8.76,48.81-28.13,69.94-28.13,69.94l-8.76-89.32,36.89-80s3.72-2.52,0-14.34c0,0-14.34-25.07-5.58-29.44,0,0-6.57-6.24,1.86-11.94,0,0-6.9-6.23,1.2-12.14,0,0-5-38.42,5.91-32.51,0,0-5.89,3.13-2.72,14.41l3.64,18.64s18.13,6,8.17,16.31c0,0,7.55,3.72,5.91,10.29,0,0,6.78,3.83,9.08,8.65a4,4,0,0,1-5.36,5.47,15.14,15.14,0,0,1-5.15-4.71,5.45,5.45,0,0,0-3.17-2c-1.53-.22-2.6.94-2.27,5.1l2.6,13.73s2,8.12,12.46,3.68C365.28,356.73,369.3,355.5,369.3,355.5Z" fill="#f9b499"/>
<path d="M383.91,348.78s0,3.72-9.41,5.36l-22.22,6.13-4.93-22L334.11,275l19.51-5.74,6.26,4.38s-17.51,11.88-11,31.68c0,0,4.05,10.29,13.13,12.15C362,317.48,372.64,343.42,383.91,348.78Z" fill="#e6e7e8"/>
<path d="M348.56,266.25l-14.67,2.85s-6,.87-3.39,13.79l3.72,19,8.32,44.22s-.55,15,9.85,14.12L334.22,275l20-5.33C354.12,269.68,352.28,268.44,348.56,266.25Z" fill="#2f2e41" data-secondary="true"/>
<path d="M348.56,266.25l-14.67,2.85s-6,.87-3.39,13.79l3.72,19,8.32,44.22s-.55,15,9.85,14.12L334.22,275l20-5.33C354.12,269.68,352.28,268.44,348.56,266.25Z" opacity="0.2"/>
<path d="M312.11,523.79V538.9s13-11.06,24.41-33.6c0,0-1.42-25-6.24-36.34C330.28,469,325.24,501.46,312.11,523.79Z" fill="#f4a992"/>
<path d="M395.18,352s-1.57,12.84-7.7,14.59l-10.14,3.14s39.63,44.66,80.12-4a89,89,0,0,0-10.69-2.49,7.75,7.75,0,0,1-5.68-4.17c-2-4.09-4.12-11.74-1.14-23.66Z" fill="#f9b499"/>
<g opacity="0.2">
<path d="M414.56,399.07c-35.46,0-48.14-24.81-48.27-25.07l2-1c.13.26,13.47,26.14,51.27,23.69.33,0,33.85-2.8,45.48-29.23l2,.88c-12.16,27.65-47,30.51-47.33,30.54C417.92,399,416.21,399.07,414.56,399.07Z"/>
</g>
<path d="M659.73,584.21H636.2a15.88,15.88,0,0,1-15.87-15.87V507.7h55.38v60.64A16,16,0,0,1,659.73,584.21Z" fill="#2f2e41" data-secondary="true"/>
<ellipse cx="435.2" cy="195.64" rx="25" ry="32.25" transform="translate(82.23 516.71) rotate(-66.5)" fill="#2f2e41" data-secondary="true"/>
<ellipse cx="435.2" cy="195.64" rx="25" ry="32.25" transform="translate(82.23 516.71) rotate(-66.5)" fill="#2f2e41" data-secondary="true"/>
<polygon points="195.87 546.23 191.28 493.26 184.16 546.23 195.87 546.23" opacity="0.2"/>
<path d="M44.61,388.4s-2.08-14.34,15.22-11.49l226.89-.33a9.29,9.29,0,0,1,9.19,8.1l19.7,150.06a9.94,9.94,0,0,1-8.32,11.16,32,32,0,0,1-4.81.33Z" fill="#2f2e41" data-secondary="true"/>
<path d="M44.61,388.4s-2.08-14.34,15.22-11.49l226.89-.33a9.29,9.29,0,0,1,9.19,8.1l19.7,150.06a9.94,9.94,0,0,1-8.32,11.16,32,32,0,0,1-4.81.33Z" opacity="0.2"/>
<path d="M119.14,376.68l-2.18-.2a33.87,33.87,0,0,1,1.58-6.61l2.08.67A33.87,33.87,0,0,0,119.14,376.68Z" fill="#3f3d56"/>
<path d="M125.75,358.81l-1.92-1a100.6,100.6,0,0,1,7.06-11.1l1.77,1.29A98.06,98.06,0,0,0,125.75,358.81ZM140.82,338l-1.62-1.47c2.79-3.09,5.85-6.18,9.08-9.2l.12-.11,1.52,1.57-.14.14C146.59,331.87,143.57,334.92,140.82,338Zm17.07-19.89-2-1a33.6,33.6,0,0,0,3.47-12l2.18.2A35.91,35.91,0,0,1,157.89,318.07Zm-11.16-15.4c-7.51-.47-9.09-4.35-9.09-7.52,0-.12,0-.25,0-.37a11.6,11.6,0,0,1,.13-1.23l2.16.37c-.05.31-.09.63-.11,1v.27c0,1.21,0,4.9,7,5.34Zm612.57-.37-2.13-.49c1-4.32,1.79-8.59,2.36-12.7l2.17.29C761.12,293.58,760.32,297.92,759.3,302.3Zm-599.37-1.14-.48-2.14c3.36-.76,7.18-1.82,11.35-3.16.07,0,.43-.12,1.09-.34l.69,2.08c-.75.25-1.16.36-1.16.36C167.24,299.3,163.36,300.38,159.93,301.16Zm-2.2-8.27a10.16,10.16,0,0,0-7.5-5.53,8.67,8.67,0,0,0-1.89-.2h-.21l0-2.19h.25a11.54,11.54,0,0,1,2.34.24,12.37,12.37,0,0,1,9,6.69Zm26.86-.91-1.11-1.89a86.89,86.89,0,0,0,10.57-7.32l1.37,1.7A88.24,88.24,0,0,1,184.59,292Zm578.18-15.67-2.19-.05c0-.82,0-1.63,0-2.44a92.82,92.82,0,0,0-.57-10.4l2.17-.25a94.89,94.89,0,0,1,.59,10.65Q762.8,275,762.77,276.31Zm-557.7-.8L203.48,274a103.24,103.24,0,0,0,8.2-9.93l1.77,1.29A103.38,103.38,0,0,1,205.07,275.51Zm15.45-21.2-1.91-1.07a124.38,124.38,0,0,0,5.71-11.57l2,.87A127.43,127.43,0,0,1,220.52,254.31Zm537.1-3.47a72.45,72.45,0,0,0-4.5-12l2-1a74.13,74.13,0,0,1,4.64,12.33ZM230.93,230.26l-2.09-.67c1.3-4,2.45-8.19,3.45-12.45l2.13.49C233.41,222,232.24,226.2,230.93,230.26Zm515.6-2.35a74.9,74.9,0,0,0-8.44-9.64l1.51-1.57a77.09,77.09,0,0,1,8.7,9.91Zm-18.37-17.79a97.47,97.47,0,0,0-11-6.69l1-1.94a101,101,0,0,1,11.25,6.84Zm-491.24-5.34-2.16-.34c.1-.68.21-1.36.31-2.05.52-3.64,1.17-7.29,1.93-10.83l2.14.45c-.75,3.5-1.39,7.1-1.91,10.7C237.13,203.41,237,204.1,236.92,204.78Zm468.47-6.68c-3.95-1.53-8.08-2.9-12.28-4.06l.59-2.11a131.2,131.2,0,0,1,12.48,4.13Zm-24.91-6.9c-3-.52-4.86-.69-4.87-.69l-.22,0q-4-1.22-7.71-2.4l.66-2.08c2.42.77,4.94,1.55,7.58,2.35.45,0,2.19.24,4.93.7Zm-25.17-7.32c-4.38-1.58-8.48-3.18-12.18-4.74l.85-2c3.67,1.55,7.73,3.13,12.08,4.7Zm-412.95-4.39-2.1-.63c1.28-4.21,2.74-8.37,4.35-12.38l2,.82C245.06,171.24,243.61,175.35,242.36,179.49Zm388.92-6a58.68,58.68,0,0,1-11-7.33l1.45-1.63a56.68,56.68,0,0,0,10.6,7ZM252,155.55l-1.94-1c1.86-3.62,3.9-7.18,6.06-10.59l.49-.77,1.85,1.17-.49.77C255.86,148.48,253.85,152,252,155.55Zm362.6-1.35c-.15-.71-.3-1.42-.48-2.12-.84-3.32-1.87-6.77-3.08-10.25l2.07-.71c1.23,3.54,2.28,7,3.13,10.43.19.73.35,1.48.5,2.22ZM265.94,133.83l-1.72-1.35a120.91,120.91,0,0,1,8.66-9.88l1.56,1.53A120.08,120.08,0,0,0,265.94,133.83Zm340.37-4c-1.69-3.83-3.58-7.75-5.63-11.66l1.94-1c2.07,4,4,7.92,5.7,11.8ZM439.39,115.61c-2.28,0-4.58-.09-6.86-.26l.16-2.19a87.51,87.51,0,0,0,12.85,0l.16,2.19C443.61,115.53,441.49,115.61,439.39,115.61ZM284,115.5l-1.36-1.71a95.92,95.92,0,0,1,10.84-7.47l1.11,1.89A93.63,93.63,0,0,0,284,115.5Zm174.72-2-.47-2.14a84.07,84.07,0,0,0,12.28-3.74l.8,2A86.61,86.61,0,0,1,458.73,113.49Zm-39.23-.08c-1.87-.41-3.74-.89-5.57-1.42l-7.06-2,.61-2.1,7,2c1.79.52,3.62,1,5.44,1.39Zm142.65-5.19-.73-2.06c2.38-.84,3.59-3.25,3.59-7.16a24.2,24.2,0,0,0-.2-2.94l2.17-.27A26.65,26.65,0,0,1,567.2,99C567.2,105.16,564.45,107.41,562.15,108.22Zm32.17-1.37-1-1.58a40.93,40.93,0,0,0-6.85-8.42l1.5-1.59a42.89,42.89,0,0,1,7.21,8.87c.32.51.64,1,1,1.59Zm-200-.52-12.51-3.62.61-2.11L395,104.23Zm88.85-2.4-1.1-1.9a79.72,79.72,0,0,0,10.58-7.27l1.38,1.7A83,83,0,0,1,483.21,103.93Zm66.87-1.41a10.87,10.87,0,0,1-.9-3.66c0-.42,0-.83,0-1.25a15,15,0,0,1,2.29-8.67l1.8,1.24a13,13,0,0,0-1.9,7.43c0,.38,0,.76,0,1.13a8.46,8.46,0,0,0,.71,2.89Zm-244,0-.83-2a90.23,90.23,0,0,1,12.52-4.09l.53,2.13A88.53,88.53,0,0,0,306.1,102.48Zm63.24-3.4-.4-.11c-4.09-.93-8.23-1.67-12.24-2.2L357,94.6c4.07.54,8.28,1.29,12.5,2.25L370,97ZM331,96.29l-.23-2.18a107.07,107.07,0,0,1,13.14-.53l-.05,2.19A102.63,102.63,0,0,0,331,96.29Zm245.09-6.51a37.33,37.33,0,0,0-9.28-2.91c-1-.18-1.95-.3-2.86-.38l.18-2.18c1,.08,2,.21,3.06.4A39.86,39.86,0,0,1,577,87.79Zm-72-1.66-1.31-1.76a95.92,95.92,0,0,1,11.06-7.17l1.06,1.92A93.8,93.8,0,0,0,504.05,88.12ZM561,84.47a31.42,31.42,0,0,0-9.82-7.73l1-2A33.79,33.79,0,0,1,562.62,83ZM526.58,76l-.66-2.08a42.38,42.38,0,0,1,12.8-2.13h.34L539,74h-.32A40.57,40.57,0,0,0,526.58,76Z" fill="#3f3d56"/>
<path d="M44.61,388.4l18.5,153.34a5.11,5.11,0,0,0,5.14,4.49H302.59a6.37,6.37,0,0,0,6.35-7.33L288.25,388.4a7.43,7.43,0,0,0-7.33-6.35l-231,.44A5.41,5.41,0,0,0,44.61,388.4Z" fill="#2f2e41" data-secondary="true"/>
<polygon points="142.02 584.32 158.88 493.26 191.28 493.26 179.02 584.32 142.02 584.32" fill="#2f2e41" data-secondary="true"/>
<ellipse cx="406.13" cy="294.49" rx="48.49" ry="61.73" fill="#f9b499"/>
<path d="M386.65,235s29.91,22.51,47.36,25.87a21.09,21.09,0,0,1,11,5.56,22.33,22.33,0,0,1,6.61,16.07s-1.31,10.95,2.74,14.34c0,0,5-16,9.19-18.06,0,0,14.34,10.84,4.6,32.07,0,0-6.35,14.23-18.17,9.3,0,0-3.5,12.59-11.6,20,0,0-2.06,14.4,5.25,22.44,0,0,20.93,5,32.75,10.12,0,0,23.52,7.46,41.9,26.11,0,0,1.09-15.43-11.71-30.76,0,0-1.21-1.2-.33-3.72,0,0,4.7,5.69,9.19,10.4a33.23,33.23,0,0,1,8.87,28.89c-.11.44-.22,1-.33,1.54l2,2.41a15.9,15.9,0,0,0,.33-2.52,42.46,42.46,0,0,0-13.57-35.57c-3.62-3.4-7.56-8.32-6.57-13.25,0,0,5.58-19.7-.22-31.85,0,0,1.42-11.71-9.41-24,0,0-13.58-9.85-11.5-24.62,0,0,7.56-25.62-12.91-50.9,0,0-17.62-25.94-51.66-29.44,0,0-63.48-10.29-71.91,39.73,0,0-3.61,25.06-.33,31l11.65,7.51" fill="#2f2e41" data-secondary="true"/>
<path d="M373.25,259c4.94-7.62,16.15-21.52,30.41-17.84l-6.88-19.39L363,229.24l6.33,29A2.15,2.15,0,0,0,373.25,259Z" fill="#2f2e41" data-secondary="true"/>
<path d="M270.19,97.81H148.37a50.58,50.58,0,0,0-50.56,50.56v33.82a50.59,50.59,0,0,0,50.56,50.57H246l46.3,33.49V227.73a50.6,50.6,0,0,0,28.46-45.54V148.37A50.59,50.59,0,0,0,270.19,97.81Z" fill="#2f2e41" data-secondary="true"/>
<path d="M279.82,144.22H183.07a6.24,6.24,0,0,1-6.24-6.24h0a6.23,6.23,0,0,1,6.24-6.24h96.75a6.23,6.23,0,0,1,6.24,6.24h0A6.24,6.24,0,0,1,279.82,144.22Z" fill="#fff"/>
<path d="M236,170.48H139.29a6.23,6.23,0,0,1-6.24-6.24h0a6.23,6.23,0,0,1,6.24-6.23H236a6.23,6.23,0,0,1,6.24,6.23h0A6.24,6.24,0,0,1,236,170.48Z" fill="#fff"/>
<path d="M161,144.22H139.29a6.24,6.24,0,0,1-6.24-6.24h0a6.23,6.23,0,0,1,6.24-6.24H161A6.24,6.24,0,0,1,167.2,138h0A6.24,6.24,0,0,1,161,144.22Z" fill="#fff"/>
<path d="M279.82,170.48H258.15a6.24,6.24,0,0,1-6.24-6.24h0a6.23,6.23,0,0,1,6.24-6.23h21.67a6.23,6.23,0,0,1,6.24,6.23h0A6.23,6.23,0,0,1,279.82,170.48Z" fill="#fff"/>
<path d="M203,195.66H139.18a6.24,6.24,0,0,1-6.24-6.24h0a6.24,6.24,0,0,1,6.24-6.24H203a6.24,6.24,0,0,1,6.24,6.24h0A6.17,6.17,0,0,1,203,195.66Z" fill="#fff"/>
<path d="M783.05,556.49c0,.21-12.68.37-28.31.37s-28.3-.16-28.3-.37,12.67-.35,28.3-.35S783.05,556.31,783.05,556.49Z" fill="#fafafa"/>
<path d="M782.16,563.42c0,.2-11.89.37-26.54.37s-26.53-.17-26.53-.37,11.88-.36,26.53-.36S782.16,563.21,782.16,563.42Z" fill="#fafafa"/>
<path d="M244.25,574.36H127.9a9.81,9.81,0,0,0-9.85,9.85H254.1A9.88,9.88,0,0,0,244.25,574.36Z" fill="#2f2e41" data-secondary="true"/>
<path d="M244.25,574.36H127.9a9.81,9.81,0,0,0-9.85,9.85H254.1A9.88,9.88,0,0,0,244.25,574.36Z" opacity="0.2"/>
<path d="M254.1,584.32H211.31v-9.85h32.94a9.74,9.74,0,0,1,9.85,9.85Z" opacity="0.2"/>
<path d="M704.15,445.64A49.38,49.38,0,0,0,683,438.32c-3.47-.35-7.26-.25-10.05,1.85a2.11,2.11,0,0,0-1,1.83,2.43,2.43,0,0,0,1,1.26,30.37,30.37,0,0,0,31.35,2.38" fill="#2f2e41" data-secondary="true"/>
<path d="M703.6,445A102.83,102.83,0,0,1,689.89,433a34.44,34.44,0,0,1-8.59-15.9,6.42,6.42,0,0,1,.67-5.33c11,8.55,19.51,19.6,21.63,33.3" fill="#2f2e41" data-secondary="true"/>
<path d="M704,445.55a49.29,49.29,0,0,1,.25-18,24.31,24.31,0,0,1,9.59-14.86c1.88,4.41,1.09,9.5-.25,14.11a68.3,68.3,0,0,1-9.51,20" fill="#2f2e41" data-secondary="true"/>
<path d="M714.76,464.83c-6.52.8-12.18,4.23-17,8.62A32.16,32.16,0,0,0,688,490.17c6.38-.39,11.79-4.89,15.67-9.94s6.65-10.58,11-15.29" fill="#2f2e41" data-secondary="true"/>
<path d="M717.08,467.82a42,42,0,0,1,4.85-39.72c3.71,13.18,2.35,28.07-4.85,39.72" fill="#2f2e41" data-secondary="true"/>
<path d="M731.24,484.69a30.38,30.38,0,0,0-29,16.72,2.24,2.24,0,0,0-.21,2.27,2.15,2.15,0,0,0,1.93.57c5.72-.38,10.8-3.81,15-7.73s7.83-8.46,12.46-11.85" fill="#2f2e41" data-secondary="true"/>
<path d="M730.8,483.78a53.94,53.94,0,0,1-.55-30.22c1.06-3.89,2.85-8,6.44-9.82a1.37,1.37,0,0,1,1-.17,1.39,1.39,0,0,1,.63.72,18.09,18.09,0,0,1,1.56,8.67,52.2,52.2,0,0,1-1.35,8.78c-1.14,5.36-1.73,11.13-4.7,15.75A32.09,32.09,0,0,0,732,481c-.57,1.17-.57,1.56-1.07,2.52" fill="#2f2e41" data-secondary="true"/>
<path d="M768.28,489.36c-2.78-10.57.17-23.37,6.83-32,.49-.63,1.13-1.32,1.93-1.24,1.24.11,1.57,1.74,1.57,3a57.84,57.84,0,0,1-10.26,30.3" fill="#2f2e41" data-secondary="true"/>
<path d="M771.66,491.66a46.58,46.58,0,0,0,38.23-7.84,31.07,31.07,0,0,0-20.7-2.54c-6.92,1.57-13.23,4.71-17.53,10.32" fill="#2f2e41" data-secondary="true"/>
<path d="M774.5,484.62c7.19-11.71,21-19.35,34.7-20.06-1.56,5.6-6.17,9.94-11.35,12.54a63.25,63.25,0,0,1-16.66,5c-2.21.42-5.25.89-6.69,2.63" fill="#2f2e41" data-secondary="true"/>
<path d="M769,450.5a100.7,100.7,0,0,0,4.43-20.38A33.78,33.78,0,0,0,769.37,410c-6.71,13-7.38,28.22-.58,41.13" fill="#2f2e41" data-secondary="true"/>
<path d="M791.6,439.07c7.84-14.26,23.87-25.66,40.08-27.26-6.27,15.57-23.31,27.61-40.08,27.26" fill="#2f2e41" data-secondary="true"/>
<path d="M786.65,441.88c11.72,1.77,21.69,9.26,32.63,13.79a14.5,14.5,0,0,0,7.39,1.41,5.77,5.77,0,0,0,3.6-10.22,15.57,15.57,0,0,0-5.34-3.24c-11.93-5-24.71-5.1-37.26-2.09" fill="#2f2e41" data-secondary="true"/>
<path d="M779.88,450.09c2.64.75,3.55,2.13,5.65,3.92a60.88,60.88,0,0,0,24.76,12.71c.94.24,2.17.32,2.64-.53s-.11-1.65-.64-2.32a34.15,34.15,0,0,0-14.94-10.14c-5.7-2.12-10.66-4.7-17.47-4.14" fill="#2f2e41" data-secondary="true"/>
<path d="M772.3,400.56a46.85,46.85,0,0,0,35.92,12.21,2.41,2.41,0,0,0,1.56-.58c.91-1-.18-2.51-1.23-3.32-10.55-8.23-23.34-11.65-36.31-8.31" fill="#2f2e41" data-secondary="true"/>
<path d="M781.3,397.16a50,50,0,0,1,44.8-7.39,35.59,35.59,0,0,1-21.35,9.41,67.76,67.76,0,0,1-23.51-2" fill="#2f2e41" data-secondary="true"/>
<path d="M777.7,374.37c-1-10.54-.36-18.81-1.1-29.44,0-.85-.24-1.87-1-2.17-1.09-.42-2,.93-2.38,2.06a33.76,33.76,0,0,0,4.5,29.31" fill="#2f2e41" data-secondary="true"/>
<path d="M777,375.48a61.78,61.78,0,0,0,17.44-17c3.45-4.7,6.27-10.36,5.57-16.15a16.7,16.7,0,0,0-12.54,6.27,35.05,35.05,0,0,0-6.41,12.9c-1.4,4.71-2.39,9.41-4,13.95" fill="#2f2e41" data-secondary="true"/>
<path d="M794.08,370.78A140.86,140.86,0,0,0,837,345.45c-5.13-2.07-11-.84-16.13,1.23a50.93,50.93,0,0,0-27,24" fill="#2f2e41" data-secondary="true"/>
<path d="M781.71,381.29a87.71,87.71,0,0,0,23.84.13c7.74-1.3,15.05-4.36,22.28-7.4a2.57,2.57,0,0,0,1.56-1.16,1.76,1.76,0,0,0-.53-1.9,4.81,4.81,0,0,0-1.9-.89c-7.83-2.19-16.33-1.16-24.06,1.44a112.4,112.4,0,0,0-21.19,9.78" fill="#2f2e41" data-secondary="true"/>
<path d="M736.49,400.84c-5.41-11-5.07-23.65-.39-34.91,3.29,5,3.69,11.4,3.13,17.35s-2.41,12.11-2.52,18.11" fill="#2f2e41" data-secondary="true"/>
<path d="M714.87,390a48.58,48.58,0,0,0-36.18,15.41,33.81,33.81,0,0,0,19.82-3.67,100.16,100.16,0,0,0,17-11.37" fill="#2f2e41" data-secondary="true"/>
<path d="M700.36,385.09c-6.62-.54-13-1.37-19.33.59a23.19,23.19,0,0,0-14.72,12.54,34.82,34.82,0,0,0,18.1-3.41,106.47,106.47,0,0,0,16-9.66" fill="#2f2e41" data-secondary="true"/>
<path d="M721.86,385.31c-5.94-3.91-12.05-7.84-19-9.41s-14.94-.42-19.77,4.7c5.6,3.3,12.4,3.69,18.81,3.69s14.47-.08,20.58,2.08" fill="#2f2e41" data-secondary="true"/>
<path d="M721.89,385.62c-10.15-10-14-27.9-9.92-41.54a63.26,63.26,0,0,1,9.92,41.54" fill="#2f2e41" data-secondary="true"/>
<path d="M749.84,357.34c1.91-4.45,3.26-9.12,5-13.65a39.33,39.33,0,0,1,7.12-12.54,18.63,18.63,0,0,1,12.54-6.52A50.76,50.76,0,0,1,750,357.55" fill="#2f2e41" data-secondary="true"/>
<path d="M744.78,363.24c-3.14-4.36-6.84-10.29-11.13-13.55s-9.91-5.23-15.16-4a35.27,35.27,0,0,0,26.29,17.53" fill="#2f2e41" data-secondary="true"/>
<path d="M745.8,357.72a74.51,74.51,0,0,1-5-16.24A25.36,25.36,0,0,1,743.32,325c5.58,10.55,7.37,21.95,2.76,32.92" fill="#2f2e41" data-secondary="true"/>
<path d="M749.89,325C753,314.52,762.62,306.82,773,303.3a8.85,8.85,0,0,1,4-.62,3.51,3.51,0,0,1,3,2.5c.38,1.77-1.08,3.37-2.48,4.54A78.34,78.34,0,0,1,749.89,325" fill="#2f2e41" data-secondary="true"/>
<path d="M750,316.43c.41-6.74.83-13.57,3-20s6.43-12.37,12.54-15.16c1.05,6.81-2,13.58-5.58,19.42s-8,11.4-10.16,17.92" fill="#2f2e41" data-secondary="true"/>
<path d="M749.84,321.07c-2.62-7.62-2.88-17.24-7.44-23.94-3.14-4.7-8.3-7.83-11-12.71a19.45,19.45,0,0,0,.65,14.44,41.8,41.8,0,0,0,8.45,12.07c3.37,3.6,6.27,6.27,9.4,10.14" fill="#2f2e41" data-secondary="true"/>
<path d="M749.89,545.38c-.2,0-.38-50.8-.39-113.47s.14-113.5.34-113.5.38,50.8.39,113.5S750.09,545.38,749.89,545.38Z" fill="#2f2e41" data-secondary="true"/>
<path d="M794.25,393.18a13.35,13.35,0,0,1-1.91.72l-5.27,1.77c-4.42,1.57-10.52,3.7-17.13,6.39s-12.71,5.1-16.23,8.14a12,12,0,0,0-3.26,4.33c-.5,1.19-.59,1.91-.65,1.89s0-.17,0-.53a7.36,7.36,0,0,1,.37-1.47,11.4,11.4,0,0,1,3.14-4.6,28.32,28.32,0,0,1,7-4.39c2.83-1.3,5.95-2.68,9.27-4,6.63-2.71,12.76-4.83,17.24-6.27,2.24-.69,4.08-1.21,5.35-1.57A10.88,10.88,0,0,1,794.25,393.18Z" fill="#2f2e41" data-secondary="true"/>
<path d="M808.84,357.42a3.17,3.17,0,0,1-.53.57l-1.57,1.56-6.08,5.54-20.27,18c-7.83,7-14.73,13.76-19.47,18.81-2.38,2.54-4.24,4.62-5.51,6.08l-1.48,1.69a2.87,2.87,0,0,1-.55.55,6.55,6.55,0,0,1,.44-.64c.32-.41.76-1,1.37-1.77,1.2-1.57,3-3.69,5.34-6.27a257.78,257.78,0,0,1,19.38-19c7.93-7,15.15-13.34,20.37-17.89l6.27-5.36c.69-.56,1.27-1,1.73-1.42A3,3,0,0,1,808.84,357.42Z" fill="#2f2e41" data-secondary="true"/>
<path d="M771.8,390.24c-.22-.07,1.44-3.9,3.14-8.73s2.44-8.88,2.65-8.85a30.17,30.17,0,0,1-2,9.09,60.88,60.88,0,0,1-2.46,6.11A9.7,9.7,0,0,1,771.8,390.24Z" fill="#2f2e41" data-secondary="true"/>
<path d="M749.94,421a9.22,9.22,0,0,1-1.23-1.42l-3.13-4c-2.62-3.38-6.27-8.07-10.32-13.2s-7.83-9.7-10.5-13l-3.13-3.95a10.55,10.55,0,0,1-1.1-1.57,8.67,8.67,0,0,1,1.32,1.32c.81.87,2,2.17,3.37,3.79,2.8,3.24,6.61,7.84,10.69,12.92s7.63,9.87,10.14,13.33c1.27,1.74,2.27,3.14,3,4.16A10.69,10.69,0,0,1,749.94,421Z" fill="#2f2e41" data-secondary="true"/>
<path d="M740.2,408.51a17.75,17.75,0,0,1-4.09-7.64,22,22,0,0,1-.92-7.69h.33c-.15.58-.26.89-.32.87s0-.33,0-.94h.32a35.38,35.38,0,0,0,1.3,7.5A56,56,0,0,0,740.2,408.51Z" fill="#2f2e41" data-secondary="true"/>
<path d="M727.63,392.72a13.69,13.69,0,0,0-2.85-1.64,18.89,18.89,0,0,0-7.84-.63,47.5,47.5,0,0,0-8,1.28,24.85,24.85,0,0,1-3.28.79,10.78,10.78,0,0,1,3.14-1.29,36.67,36.67,0,0,1,8-1.57,17.38,17.38,0,0,1,8.15.88A5.11,5.11,0,0,1,727.63,392.72Z" fill="#2f2e41" data-secondary="true"/>
<path d="M724.65,388.87c0,.1-1.66-.66-4.37-1.57a43.88,43.88,0,0,0-21.95-1.68c-2.82.5-4.51,1-4.56.91a4.43,4.43,0,0,1,1.16-.5,29.26,29.26,0,0,1,3.29-.93,39,39,0,0,1,22.28,1.7,25.89,25.89,0,0,1,3.13,1.42A4,4,0,0,1,724.65,388.87Z" fill="#2f2e41" data-secondary="true"/>
<path d="M749.84,372.66a86.37,86.37,0,0,1-3.13-11.05,88.41,88.41,0,0,1-2.48-11.24,90.45,90.45,0,0,1,3.14,11.06A91.81,91.81,0,0,1,749.84,372.66Z" fill="#2f2e41" data-secondary="true"/>
<path d="M750.05,372.66a57.53,57.53,0,0,0-3.53-6.62,29.38,29.38,0,0,0-5.21-5.36,5,5,0,0,1,2,1,15.78,15.78,0,0,1,3.79,3.9A14.82,14.82,0,0,1,750.05,372.66Z" fill="#2f2e41" data-secondary="true"/>
<path d="M749.89,518.29c-.08,0-.24-1.22-.8-3.37a48,48,0,0,0-3.4-8.81,122.13,122.13,0,0,0-18-25.37c-4-4.6-7.93-8.94-11.24-13.08a91.83,91.83,0,0,1-8-11.6,56.63,56.63,0,0,1-4.06-8.59c-.36-1.06-.64-1.89-.79-2.46a5.28,5.28,0,0,1-.22-.87s.44,1.16,1.27,3.22a64.83,64.83,0,0,0,4.25,8.45A98.42,98.42,0,0,0,717,467.24c3.33,4.11,7.24,8.42,11.27,13,8.13,9.14,14.51,18.36,17.93,25.64a43.09,43.09,0,0,1,3.13,9,24.31,24.31,0,0,1,.46,2.55A5.32,5.32,0,0,1,749.89,518.29Z" fill="#2f2e41" data-secondary="true"/>
<path d="M790,473a23.69,23.69,0,0,1-2,1.25,46.86,46.86,0,0,0-5.46,3.61,61.49,61.49,0,0,0-7.16,6.53c-2.52,2.67-5.11,5.74-7.76,9.05-5.28,6.63-10.22,12.54-13.18,17.24a55.56,55.56,0,0,0-3.31,5.66,15.45,15.45,0,0,1-1.16,2.11,1.54,1.54,0,0,1,.19-.59c.19-.39.38-.94.71-1.65a54,54,0,0,1,3.13-5.8A186.55,186.55,0,0,1,767,493c2.65-3.31,5.26-6.42,7.84-9.06a58.06,58.06,0,0,1,7.35-6.48,39.37,39.37,0,0,1,5.62-3.45c.71-.34,1.27-.56,1.57-.72S790,473,790,473Z" fill="#2f2e41" data-secondary="true"/>
<path d="M790.8,487.68a29.43,29.43,0,0,1-4.39.66,58.93,58.93,0,0,0-10.53,2.08,31.11,31.11,0,0,0-9.41,5c-2.18,1.67-3.21,3.13-3.3,3a3.62,3.62,0,0,1,.65-1,15.76,15.76,0,0,1,2.32-2.37,28.44,28.44,0,0,1,9.53-5.25,47.09,47.09,0,0,1,10.73-1.9A24,24,0,0,1,790.8,487.68Z" fill="#2f2e41" data-secondary="true"/>
<path d="M764.37,496.72c-.23-.12,1.77-3.13,3.33-7.3s1.8-7.84,2-7.74a7.31,7.31,0,0,1,0,2.38,27,27,0,0,1-1.3,5.61,27.68,27.68,0,0,1-2.59,5.16C765,496.07,764.47,496.79,764.37,496.72Z" fill="#2f2e41" data-secondary="true"/>
<path d="M803,433.48a6.1,6.1,0,0,1-.72.37l-2.08.94c-.91.39-2,.9-3.28,1.57s-2.71,1.32-4.25,2.24L790.25,440c-.83.47-1.66,1-2.55,1.57-1.79,1.1-3.58,2.43-5.49,3.79a102.65,102.65,0,0,0-11.47,10.08,105.22,105.22,0,0,0-9.69,11.79c-1.3,2-2.57,3.79-3.59,5.63-.52.89-1.07,1.75-1.57,2.6s-.87,1.69-1.3,2.47c-.86,1.57-1.47,3-2.08,4.33s-1.08,2.4-1.45,3.32-.64,1.57-.87,2.12a3.69,3.69,0,0,1-.35.72,3.06,3.06,0,0,1,.22-.77c.19-.58.44-1.28.74-2.18s.75-2.08,1.33-3.38,1.16-2.81,2-4.39l1.27-2.51c.44-.86,1-1.72,1.57-2.65,1-1.85,2.27-3.71,3.57-5.69a99.17,99.17,0,0,1,9.71-11.93,103.14,103.14,0,0,1,11.58-10.11c1.94-1.36,3.76-2.68,5.56-3.74.91-.55,1.76-1.12,2.61-1.57s1.67-.91,2.46-1.35a47.24,47.24,0,0,1,4.32-2.13,34,34,0,0,1,3.34-1.44l2.15-.83A2.21,2.21,0,0,1,803,433.48Z" fill="#2f2e41" data-secondary="true"/>
<path d="M771.25,454.78a5.17,5.17,0,0,1,1.74-2.6,11.06,11.06,0,0,1,7-2.7,19.35,19.35,0,0,1,7.4,1.44,10.93,10.93,0,0,1,2.81,1.37,16.06,16.06,0,0,1-3-.87,22.08,22.08,0,0,0-7.21-1.2,11.37,11.37,0,0,0-6.72,2.35A19.86,19.86,0,0,0,771.25,454.78Z" fill="#2f2e41" data-secondary="true"/>
<path d="M766.5,459.67a18.78,18.78,0,0,0,1.57-13.28,4.33,4.33,0,0,1,.83,1.9,13.42,13.42,0,0,1,.35,5,13.25,13.25,0,0,1-1.49,4.7C767.12,459.15,766.58,459.73,766.5,459.67Z" fill="#2f2e41" data-secondary="true"/>
<g opacity="0.2">
<path d="M749.89,545.38c-.2,0-.38-50.8-.39-113.47s.14-113.5.34-113.5.38,50.8.39,113.5S750.09,545.38,749.89,545.38Z"/>
<path d="M794.25,393.18a13.35,13.35,0,0,1-1.91.72l-5.27,1.77c-4.42,1.57-10.52,3.7-17.13,6.39s-12.71,5.1-16.23,8.14a12,12,0,0,0-3.26,4.33c-.5,1.19-.59,1.91-.65,1.89s0-.17,0-.53a7.36,7.36,0,0,1,.37-1.47,11.4,11.4,0,0,1,3.14-4.6,28.32,28.32,0,0,1,7-4.39c2.83-1.3,5.95-2.68,9.27-4,6.63-2.71,12.76-4.83,17.24-6.27,2.24-.69,4.08-1.21,5.35-1.57A10.88,10.88,0,0,1,794.25,393.18Z"/>
<path d="M808.84,357.42a3.17,3.17,0,0,1-.53.57l-1.57,1.56-6.08,5.54-20.27,18c-7.83,7-14.73,13.76-19.47,18.81-2.38,2.54-4.24,4.62-5.51,6.08l-1.48,1.69a2.87,2.87,0,0,1-.55.55,6.55,6.55,0,0,1,.44-.64c.32-.41.76-1,1.37-1.77,1.2-1.57,3-3.69,5.34-6.27a257.78,257.78,0,0,1,19.38-19c7.93-7,15.15-13.34,20.37-17.89l6.27-5.36c.69-.56,1.27-1,1.73-1.42A3,3,0,0,1,808.84,357.42Z"/>
<path d="M771.8,390.24c-.22-.07,1.44-3.9,3.14-8.73s2.44-8.88,2.65-8.85a30.17,30.17,0,0,1-2,9.09,60.88,60.88,0,0,1-2.46,6.11A9.7,9.7,0,0,1,771.8,390.24Z"/>
<path d="M749.94,421a9.22,9.22,0,0,1-1.23-1.42l-3.13-4c-2.62-3.38-6.27-8.07-10.32-13.2s-7.83-9.7-10.5-13l-3.13-3.95a10.55,10.55,0,0,1-1.1-1.57,8.67,8.67,0,0,1,1.32,1.32c.81.87,2,2.17,3.37,3.79,2.8,3.24,6.61,7.84,10.69,12.92s7.63,9.87,10.14,13.33c1.27,1.74,2.27,3.14,3,4.16A10.69,10.69,0,0,1,749.94,421Z"/>
<path d="M740.2,408.51a17.75,17.75,0,0,1-4.09-7.64,22,22,0,0,1-.92-7.69h.33c-.15.58-.26.89-.32.87s0-.33,0-.94h.32a35.38,35.38,0,0,0,1.3,7.5A56,56,0,0,0,740.2,408.51Z"/>
<path d="M727.63,392.72a13.69,13.69,0,0,0-2.85-1.64,18.89,18.89,0,0,0-7.84-.63,47.5,47.5,0,0,0-8,1.28,24.85,24.85,0,0,1-3.28.79,10.78,10.78,0,0,1,3.14-1.29,36.67,36.67,0,0,1,8-1.57,17.38,17.38,0,0,1,8.15.88A5.11,5.11,0,0,1,727.63,392.72Z"/>
<path d="M724.65,388.87c0,.1-1.66-.66-4.37-1.57a43.88,43.88,0,0,0-21.95-1.68c-2.82.5-4.51,1-4.56.91a4.43,4.43,0,0,1,1.16-.5,29.26,29.26,0,0,1,3.29-.93,39,39,0,0,1,22.28,1.7,25.89,25.89,0,0,1,3.13,1.42A4,4,0,0,1,724.65,388.87Z"/>
<path d="M749.84,372.66a86.37,86.37,0,0,1-3.13-11.05,88.41,88.41,0,0,1-2.48-11.24,90.45,90.45,0,0,1,3.14,11.06A91.81,91.81,0,0,1,749.84,372.66Z"/>
<path d="M750.05,372.66a57.53,57.53,0,0,0-3.53-6.62,29.38,29.38,0,0,0-5.21-5.36,5,5,0,0,1,2,1,15.78,15.78,0,0,1,3.79,3.9A14.82,14.82,0,0,1,750.05,372.66Z"/>
<path d="M749.89,518.29c-.08,0-.24-1.22-.8-3.37a48,48,0,0,0-3.4-8.81,122.13,122.13,0,0,0-18-25.37c-4-4.6-7.93-8.94-11.24-13.08a91.83,91.83,0,0,1-8-11.6,56.63,56.63,0,0,1-4.06-8.59c-.36-1.06-.64-1.89-.79-2.46a5.28,5.28,0,0,1-.22-.87s.44,1.16,1.27,3.22a64.83,64.83,0,0,0,4.25,8.45A98.42,98.42,0,0,0,717,467.24c3.33,4.11,7.24,8.42,11.27,13,8.13,9.14,14.51,18.36,17.93,25.64a43.09,43.09,0,0,1,3.13,9,24.31,24.31,0,0,1,.46,2.55A5.32,5.32,0,0,1,749.89,518.29Z"/>
<path d="M790,473a23.69,23.69,0,0,1-2,1.25,46.86,46.86,0,0,0-5.46,3.61,61.49,61.49,0,0,0-7.16,6.53c-2.52,2.67-5.11,5.74-7.76,9.05-5.28,6.63-10.22,12.54-13.18,17.24a55.56,55.56,0,0,0-3.31,5.66,15.45,15.45,0,0,1-1.16,2.11,1.54,1.54,0,0,1,.19-.59c.19-.39.38-.94.71-1.65a54,54,0,0,1,3.13-5.8A186.55,186.55,0,0,1,767,493c2.65-3.31,5.26-6.42,7.84-9.06a58.06,58.06,0,0,1,7.35-6.48,39.37,39.37,0,0,1,5.62-3.45c.71-.34,1.27-.56,1.57-.72S790,473,790,473Z"/>
<path d="M790.8,487.68a29.43,29.43,0,0,1-4.39.66,58.93,58.93,0,0,0-10.53,2.08,31.11,31.11,0,0,0-9.41,5c-2.18,1.67-3.21,3.13-3.3,3a3.62,3.62,0,0,1,.65-1,15.76,15.76,0,0,1,2.32-2.37,28.44,28.44,0,0,1,9.53-5.25,47.09,47.09,0,0,1,10.73-1.9A24,24,0,0,1,790.8,487.68Z"/>
<path d="M764.37,496.72c-.23-.12,1.77-3.13,3.33-7.3s1.8-7.84,2-7.74a7.31,7.31,0,0,1,0,2.38,27,27,0,0,1-1.3,5.61,27.68,27.68,0,0,1-2.59,5.16C765,496.07,764.47,496.79,764.37,496.72Z"/>
<path d="M803,433.48a6.1,6.1,0,0,1-.72.37l-2.08.94c-.91.39-2,.9-3.28,1.57s-2.71,1.32-4.25,2.24L790.25,440c-.83.47-1.66,1-2.55,1.57-1.79,1.1-3.58,2.43-5.49,3.79a102.65,102.65,0,0,0-11.47,10.08,105.22,105.22,0,0,0-9.69,11.79c-1.3,2-2.57,3.79-3.59,5.63-.52.89-1.07,1.75-1.57,2.6s-.87,1.69-1.3,2.47c-.86,1.57-1.47,3-2.08,4.33s-1.08,2.4-1.45,3.32-.64,1.57-.87,2.12a3.69,3.69,0,0,1-.35.72,3.06,3.06,0,0,1,.22-.77c.19-.58.44-1.28.74-2.18s.75-2.08,1.33-3.38,1.16-2.81,2-4.39l1.27-2.51c.44-.86,1-1.72,1.57-2.65,1-1.85,2.27-3.71,3.57-5.69a99.17,99.17,0,0,1,9.71-11.93,103.14,103.14,0,0,1,11.58-10.11c1.94-1.36,3.76-2.68,5.56-3.74.91-.55,1.76-1.12,2.61-1.57s1.67-.91,2.46-1.35a47.24,47.24,0,0,1,4.32-2.13,34,34,0,0,1,3.34-1.44l2.15-.83A2.21,2.21,0,0,1,803,433.48Z"/>
<path d="M771.25,454.78a5.17,5.17,0,0,1,1.74-2.6,11.06,11.06,0,0,1,7-2.7,19.35,19.35,0,0,1,7.4,1.44,10.93,10.93,0,0,1,2.81,1.37,16.06,16.06,0,0,1-3-.87,22.08,22.08,0,0,0-7.21-1.2,11.37,11.37,0,0,0-6.72,2.35A19.86,19.86,0,0,0,771.25,454.78Z"/>
<path d="M766.5,459.67a18.78,18.78,0,0,0,1.57-13.28,4.33,4.33,0,0,1,.83,1.9,13.42,13.42,0,0,1,.35,5,13.25,13.25,0,0,1-1.49,4.7C767.12,459.15,766.58,459.73,766.5,459.67Z"/>
</g>
<path d="M714.79,525.58c1.1,19.42,7,39.19,15.94,59.13h39.19c8.59-19.77,14-39.49,15-59.13Z" fill="#2f2e41" data-secondary="true"/>
<path d="M778.57,557c0,.2-12.9.37-28.79.37S721,557.2,721,557s12.89-.37,28.78-.37S778.57,556.81,778.57,557Z" fill="#fafafa"/>
<path d="M777.67,564c0,.21-12.09.38-27,.38s-27-.17-27-.38,12.08-.36,27-.36S777.67,563.83,777.67,564Z" fill="#fafafa"/>
</svg>