 <!DOCTYPE svg PUBLIC "-//W3C//DTD SVG 1.1//EN" "http://www.w3.org/Graphics/SVG/1.1/DTD/svg11.dtd">
<svg id="a82a496d-2de0-42cc-ba48-0ccedddbe0ac" data-name="Layer 1" xmlns="http://www.w3.org/2000/svg" width="865.76" height="682.89" viewBox="0 0 865.76 682.89">
<defs>
<style xmlns="http://www.w3.org/1999/xhtml">*, ::after, ::before { box-sizing: border-box; }
img, svg { vertical-align: middle; }
</style>
<style xmlns="http://www.w3.org/1999/xhtml">*, body, html { -webkit-font-smoothing: antialiased; }
img, svg { max-width: 100%; }
</style>
</defs>
<polygon points="357.26 570.25 364.86 553.27 387.22 561.76 376.98 581.49 357.26 570.25" fill="#f9b499"/>
<path d="M356.25,567.54l25.33,9.59-12.1,23.64S388.12,608,387.19,618l-46.28-17.54Z" fill="#2f2e41" data-secondary="true"/>
<rect x="338.31" y="609" width="49.49" height="5.6" transform="translate(240.38 -88.96) rotate(20.76)" fill="#2f2e41" data-secondary="true"/>
<polygon points="513.54 605.91 521.14 588.92 543.5 597.41 533.25 617.14 513.54 605.91" fill="#f9b499"/>
<path d="M410.37,326.43H93.69a6.51,6.51,0,0,1-6.51-6.7L95,54.85a6.36,6.36,0,0,1,6.37-6.17h314.8a8.18,8.18,0,0,1,8.18,8.41l-7.49,263A6.51,6.51,0,0,1,410.37,326.43Z" fill="#ccc"/>
<rect x="133.13" y="76.33" width="60.29" height="49.9" fill="#fff"/>
<rect x="224.19" y="76.33" width="60.29" height="49.9" fill="#fff"/>
<rect x="311.93" y="76.33" width="60.29" height="49.9" fill="#fff"/>
<rect x="131.68" y="159.07" width="60.29" height="49.9" fill="#fff"/>
<rect x="222.74" y="159.07" width="60.29" height="49.9" fill="#fff"/>
<rect x="310.47" y="159.07" width="60.29" height="49.9" fill="#fff"/>
<rect x="129.39" y="246.81" width="60.29" height="49.9" fill="#fff"/>
<rect x="217.54" y="246.81" width="60.29" height="49.9" fill="#fff"/>
<rect x="309.64" y="246.81" width="60.29" height="49.9" fill="#fff"/>
<line x1="141.87" y1="91.5" x2="186.36" y2="91.5" fill="none" stroke="#3f3d56" stroke-miterlimit="10"/>
<line x1="141.87" y1="107.72" x2="186.36" y2="107.72" fill="none" stroke="#3f3d56" stroke-miterlimit="10"/>
<line x1="233.53" y1="91.5" x2="264.11" y2="91.5" fill="none" stroke="#3f3d56" stroke-miterlimit="10"/>
<line x1="233.53" y1="107.72" x2="278.02" y2="107.72" fill="none" stroke="#3f3d56" stroke-miterlimit="10"/>
<line x1="327.29" y1="107.72" x2="358.91" y2="107.72" fill="none" stroke="#3f3d56" stroke-miterlimit="10"/>
<line x1="327.5" y1="100.55" x2="359.12" y2="100.55" fill="none" stroke="#3f3d56" stroke-miterlimit="10"/>
<line x1="327.5" y1="93.37" x2="359.12" y2="93.37" fill="none" stroke="#3f3d56" stroke-miterlimit="10"/>
<line x1="141.01" y1="191.19" x2="186.36" y2="191.19" fill="none" stroke="#3f3d56" stroke-miterlimit="10"/>
<line x1="141.22" y1="176.85" x2="172.84" y2="176.85" fill="none" stroke="#3f3d56" stroke-miterlimit="10"/>
<line x1="231.26" y1="178.82" x2="272.43" y2="178.82" fill="none" stroke="#3f3d56" stroke-miterlimit="10"/>
<line x1="231.99" y1="185.79" x2="273.16" y2="185.79" fill="none" stroke="#3f3d56" stroke-miterlimit="10"/>
<line x1="319.67" y1="175.34" x2="363.7" y2="175.34" fill="none" stroke="#3f3d56" stroke-miterlimit="10"/>
<line x1="319.67" y1="191.19" x2="363.7" y2="191.19" fill="none" stroke="#3f3d56" stroke-miterlimit="10"/>
<line x1="231.99" y1="192.75" x2="273.16" y2="192.75" fill="none" stroke="#3f3d56" stroke-miterlimit="10"/>
<line x1="137.49" y1="263.52" x2="178.66" y2="263.52" fill="none" stroke="#3f3d56" stroke-miterlimit="10"/>
<line x1="138.22" y1="270.49" x2="179.39" y2="270.49" fill="none" stroke="#3f3d56" stroke-miterlimit="10"/>
<line x1="138.22" y1="277.45" x2="179.39" y2="277.45" fill="none" stroke="#3f3d56" stroke-miterlimit="10"/>
<line x1="226.74" y1="265.8" x2="269.69" y2="265.8" fill="none" stroke="#3f3d56" stroke-miterlimit="10"/>
<line x1="227.5" y1="281.92" x2="270.45" y2="281.92" fill="none" stroke="#3f3d56" stroke-miterlimit="10"/>
<line x1="320.22" y1="265.08" x2="351.1" y2="265.08" fill="none" stroke="#3f3d56" stroke-miterlimit="10"/>
<line x1="320.98" y1="281.19" x2="363.93" y2="281.19" fill="none" stroke="#3f3d56" stroke-miterlimit="10"/>
<path d="M251.85,81.56s193,2,414.3-21.39" fill="none" stroke="#bcbec0" stroke-miterlimit="10"/>
<polyline points="164.11 81.61 254.34 166.07 666.15 64.85" fill="none" stroke="#bcbec0" stroke-miterlimit="10"/>
<line x1="345.36" y1="161.9" x2="565.21" y2="100.55" fill="none" stroke="#bcbec0" stroke-miterlimit="10"/>
<line x1="161.82" y1="250.89" x2="543.16" y2="116.66" fill="none" stroke="#bcbec0" stroke-miterlimit="10"/>
<path d="M159.54,165.12l93.35,84.1S506.39,123.68,546.5,116.66" fill="none" stroke="#bcbec0" stroke-miterlimit="10"/>
<path d="M347.69,249.22s101.21-63.38,166.72-96.13" fill="none" stroke="#bcbec0" stroke-miterlimit="10"/>
<path d="M467.44,331.42s-15,12.06-22.45,47.4c0,0-7.07,22.46-17.88,33.27a88.26,88.26,0,0,0-20.79,42.83s-7.07,23.28-15.39,32.43c0,0-18.29,23.28-16.63,44.07,0,0-2.5,15.39-11.23,22,0,0,2.91,7.49,22.87,17L436.25,504s24.54-33.26,28.28-45.32L494.47,400s11.64,12.47,11.64,20.79c0,0,22.45,39.5,29.94,44.07,0,0-.85,14.56,11.63,19.13,0,0-12,11.64-8.31,37l-8.31,19.13s-12.48,10-10,28.69c0,3.32-3.74,17-9.57,25.78l36.17,12.47s32-96.05,38.26-107.69,5.83-30.77,0-39.92-32.43-101.87-32.43-101.87-26-2-37.12-15.76c0,0-13.47-15.76-36.17-6.64C480.22,335.22,465.36,336.83,467.44,331.42Z" fill="#2f2e41" data-secondary="true"/>
<polyline points="575.34 194 589.48 172.38 575.34 159.49 560.89 165.12 549.94 185.34" fill="#f9b499"/>
<path d="M770.33,24.05A51.67,51.67,0,1,0,822,75.72,51.66,51.66,0,0,0,770.33,24.05Zm0,95.12a43.46,43.46,0,1,1,43.46-43.45A43.45,43.45,0,0,1,770.33,119.17Z" fill="#ccc"/>
<path d="M772.27,80.32a1.12,1.12,0,0,1-.72-.26L745.89,57.78a1.08,1.08,0,0,1-.11-1.54,1.1,1.1,0,0,1,1.54-.11l23.86,20.71V42.91a1.09,1.09,0,0,1,2.18,0V79.23a1.1,1.1,0,0,1-.64,1A1.17,1.17,0,0,1,772.27,80.32Z" fill="#ccc"/>
<path d="M771.18,113.59a1.09,1.09,0,0,1-1.09-1.09V94.83a1.1,1.1,0,0,1,2.19,0V112.5A1.09,1.09,0,0,1,771.18,113.59Z" fill="#ccc"/>
<path d="M808.61,76.81H790.93a1.1,1.1,0,0,1,0-2.19h17.68a1.1,1.1,0,0,1,0,2.19Z" fill="#ccc"/>
<path d="M750,76.81H732.31a1.1,1.1,0,0,1,0-2.19H750a1.1,1.1,0,0,1,0,2.19Z" fill="#ccc"/>
<circle cx="163.28" cy="77.34" r="7.91" fill="#e6e7e8"/>
<circle cx="254.34" cy="76.33" r="7.91" fill="#e6e7e8"/>
<circle cx="163.28" cy="159.18" r="7.91" fill="#e6e7e8"/>
<circle cx="254.34" cy="158.16" r="7.91" fill="#e6e7e8"/>
<circle cx="350.09" cy="76.33" r="7.91" fill="#e6e7e8"/>
<circle cx="347.69" cy="158.67" r="7.91" fill="#e6e7e8"/>
<circle cx="163.57" cy="247.2" r="7.91" fill="#e6e7e8"/>
<circle cx="254.63" cy="246.19" r="7.91" fill="#e6e7e8"/>
<circle cx="347.98" cy="246.69" r="7.91" fill="#e6e7e8"/>
<polygon points="292.44 426.63 332.35 623.88 342.14 623.88 301.57 426.63 292.44 426.63" fill="#ccc"/>
<polygon points="44.01 623.88 84.76 426.63 91.58 426.63 51.36 623.88 44.01 623.88" fill="#ccc"/>
<rect x="43.77" y="402.49" width="295.01" height="27.41" fill="#ccc"/>
<rect x="43.77" y="402.49" width="295.01" height="27.41" opacity="0.2"/>
<path d="M140.05,472l-8.26,17.83,2.28-45.66A32.43,32.43,0,0,1,137.44,431c3.14-6.21,9.17-13,20.49-12.7h13.52l-2.7,7.18-1.67.18s-20.77-2.9-25.06,14.48a21.85,21.85,0,0,0-.59,4.27Z" fill="#2f2e41" data-secondary="true"/>
<path d="M207.21,495.87l-6.55,107.18h-31.6a4,4,0,0,0-3.95,4h0a4,4,0,0,0,3.95,4h71.52a4.06,4.06,0,0,0,4-4.06h0a4.05,4.05,0,0,0-4-4H208.14l7.18-107Z" fill="#2f2e41" data-secondary="true"/>
<circle cx="173.24" cy="621.47" r="7.09" fill="#2f2e41" data-secondary="true"/>
<circle cx="235.86" cy="621.47" r="7.09" fill="#2f2e41" data-secondary="true"/>
<path d="M61.28,402.49s-3.59-.87-3.67-6.91v-70.4s-1-7.36,8.83-6.49h94.18s3.46,2.54,2.88,8.47.07,75.33.07,75.33Z" fill="#2f2e41" data-secondary="true"/>
<path d="M65.88,323.3h89a4.31,4.31,0,0,1,4.32,4.31V393H66.89a5.33,5.33,0,0,1-5.33-5.32V327.61A4.32,4.32,0,0,1,65.88,323.3Z" fill="#fff"/>
<path d="M168.54,464.06s-5.93-3.12-4.68-9.66l9-80.77s4.68-9.05,13.41-9.36h97.92s15,1.56,12.79,17.46l-9,76.1s-3.43,8.42-8.74,9.66c0,0,8.11,3.75,7.49,10.29v18.09s-.62,2.81-7.17,2.19l-148.76.09s1.67-24.52,9.25-28.89C140.05,469.26,149.62,464.48,168.54,464.06Z" fill="#2f2e41" data-secondary="true"/>
<path d="M632.68,90.19,639,86.91l16.78-1.23s5.26-.33,4.23-4.64a6.64,6.64,0,0,1,.1-3.51,8.86,8.86,0,0,0-1.44-7.86,7,7,0,0,1-.82-1.61c-.66-1.87-3.15-6.23-11.63-3.21a21,21,0,0,0-10.19,10l-5.82,4.36Z" fill="#f9b499"/>
<path d="M660.5,92.13A25.38,25.38,0,0,1,661.65,85a7.28,7.28,0,0,0-1-7.08,5.06,5.06,0,0,0-.62-.68,6.48,6.48,0,0,1-2.18-5.51c.36-3.18,1.31-7,3.74-7.87,0,0,1.66-7,6.24-5.16a4.24,4.24,0,0,1,6.23,1.52s3.75-1.18,4.16,3.64c0,0,6.86-.23,3.33,7.08a73.42,73.42,0,0,1-5.69,11.29,14.65,14.65,0,0,0-2.57,7.21l-.47,6.27Z" fill="#f9b499"/>
<path d="M417.12,311.84s43.63-36.79,58-77c1.76-4.93,3.63-9.82,5.78-14.61l18.57-41.44s6.23-78.58,131.6-102.49l6.24,24.22S545.61,112.92,538.13,184a10.83,10.83,0,0,1,9.66-1.56l27.39,8.16a7.71,7.71,0,0,1,4.67,3.7,6,6,0,0,1,.69,3.73s49.91-6.21,65.7-71.83l8.31-36.8s18.3,5.41,23.7,5.83c0,0-5,32-4.16,39.91,0,0,1.25,22.56-13.3,40.18,0,0-7.49,9.51-10,15.85,0,0-2.9,13.88-16.51,29.95-1.87,2.21-3.71,4.46-5.47,6.77a227.84,227.84,0,0,1-23,25.31c-1.51,1.45-3.05,2.89-4.62,4.29-5.71,5.08-35.69,34.42-47.7,100.11,0,0-21-.37-33.49-12.53a51.15,51.15,0,0,0-14-9.87c-6.87-3.17-15.7-5.25-23.6-.89,0,0-7.41,4.38-19.2-.81a39.16,39.16,0,0,0-13.94-3.41c-1,0-2-.06-3-.05a31.6,31.6,0,0,1-28.91-17.77Z" fill="#33d1cc" data-primary="true"/>
<ellipse cx="592.28" cy="147.64" rx="21.72" ry="30.87" transform="translate(-17.42 118.4) rotate(-11.25)" fill="#f9b499"/>
<path d="M561.37,165.94c-4.22-5.87-13.65-20.89-9.73-33.11,0,0-5-12,6.44-17.21,0,0,24.33-14.55,37.22-8.94,0,0,10.71,3.82,10.67,9.27a8.09,8.09,0,0,0,.41,2.77,4.82,4.82,0,0,0,.49,1,3.89,3.89,0,0,1,.38,4.05c-1.29,2.37-5.16,4.74-16.32,2.43l1.35,12.68s2.19,5.62-7.58,8.74c0,0-5.24,1.44-9.49,16.3a7.49,7.49,0,0,1-7.9,5.44l-.19,0A8.3,8.3,0,0,1,561.37,165.94Z" fill="#2f2e41" data-secondary="true"/>
<path d="M512.53,603.19l25.33,9.6-12.1,23.63s18.64,7.18,17.71,17.18l-46.28-17.54Z" fill="#2f2e41" data-secondary="true"/>
<rect x="494.59" y="644.65" width="49.49" height="5.6" transform="translate(263.16 -142.03) rotate(20.76)" fill="#2f2e41" data-secondary="true"/>
<path d="M587.06,176.08l-3,4.54a19.23,19.23,0,0,1-7.49-14.55S582.45,174.36,587.06,176.08Z" fill="#f7a48b"/>
</svg>