 <!DOCTYPE svg PUBLIC "-//W3C//DTD SVG 1.1//EN" "http://www.w3.org/Graphics/SVG/1.1/DTD/svg11.dtd">
<svg id="eb1d2dc8-6efb-4449-9be3-c7dd4e7e0a9d" data-name="Layer 1" xmlns="http://www.w3.org/2000/svg" width="865.76" height="682.89" viewBox="0 0 865.76 682.89">
<defs>
<style xmlns="http://www.w3.org/1999/xhtml">*, ::after, ::before { box-sizing: border-box; }
img, svg { vertical-align: middle; }
</style>
<style xmlns="http://www.w3.org/1999/xhtml">*, body, html { -webkit-font-smoothing: antialiased; }
img, svg { max-width: 100%; }
</style>
</defs>
<rect x="94.23" y="213.25" width="544.48" height="401.03" fill="#ccc"/>
<rect x="216.93" y="469.87" width="60.66" height="56.66" opacity="0.2"/>
<rect x="287.37" y="469.87" width="60.66" height="56.66" opacity="0.2"/>
<rect x="146.03" y="469.87" width="60.66" height="56.66" opacity="0.2"/>
<rect x="94.23" y="170.38" width="544.48" height="19.38" fill="#ccc"/>
<rect x="94.23" y="189.76" width="544.48" height="23.9" fill="#ccc"/>
<rect x="94.23" y="189.76" width="544.48" height="23.9" opacity="0.2"/>
<circle cx="121.91" cy="181.37" r="4.04" opacity="0.2"/>
<circle cx="135.99" cy="181.37" r="4.04" opacity="0.2"/>
<circle cx="150.08" cy="181.37" r="4.04" opacity="0.2"/>
<rect x="146.03" y="233.19" width="15.89" height="15.89" opacity="0.2"/>
<rect x="166.9" y="233.19" width="15.89" height="15.89" opacity="0.2"/>
<rect x="187.95" y="233.19" width="15.89" height="15.89" opacity="0.2"/>
<rect x="209" y="233.19" width="15.89" height="15.89" opacity="0.2"/>
<rect x="146.03" y="255" width="187.54" height="9.57" opacity="0.2"/>
<rect x="146.03" y="272.99" width="187.54" height="9.57" opacity="0.2"/>
<rect x="146.03" y="297" width="104.34" height="4.78" opacity="0.2"/>
<rect x="262.71" y="297" width="70.87" height="64.66" opacity="0.2"/>
<rect x="146.03" y="305.29" width="104.34" height="4.78" opacity="0.2"/>
<rect x="146.03" y="313.58" width="104.34" height="4.78" opacity="0.2"/>
<rect x="146.03" y="321.87" width="104.34" height="4.78" opacity="0.2"/>
<rect x="146.03" y="330.16" width="104.34" height="4.78" opacity="0.2"/>
<rect x="146.03" y="338.45" width="104.34" height="4.78" opacity="0.2"/>
<rect x="146.03" y="346.74" width="104.34" height="4.78" opacity="0.2"/>
<rect x="146.03" y="355.03" width="104.34" height="4.78" opacity="0.2"/>
<rect x="281.65" y="321.87" width="16.49" height="16.49" fill="#bcbec0"/>
<circle cx="297.51" cy="322.55" r="7.61" fill="#a7a9ac"/>
<polygon points="300.84 340.84 314.41 340.84 307.62 326.66 300.84 340.84" fill="#2f2e41" data-secondary="true"/>
<rect x="158.46" y="492.19" width="16.49" height="16.49" fill="#bcbec0"/>
<circle cx="174.32" cy="492.86" r="7.61" fill="#a7a9ac"/>
<polygon points="177.64 511.16 191.22 511.16 184.43 496.97 177.64 511.16" fill="#2f2e41" data-secondary="true"/>
<rect x="231.4" y="489.91" width="16.49" height="16.49" fill="#bcbec0"/>
<circle cx="247.26" cy="490.59" r="7.61" fill="#a7a9ac"/>
<polygon points="250.59 508.89 264.16 508.89 257.37 494.7 250.59 508.89" fill="#2f2e41" data-secondary="true"/>
<rect x="301.32" y="492.19" width="16.49" height="16.49" fill="#bcbec0"/>
<circle cx="317.18" cy="492.86" r="7.61" fill="#a7a9ac"/>
<polygon points="320.5 511.16 334.08 511.16 327.29 496.97 320.5 511.16" fill="#2f2e41" data-secondary="true"/>
<rect x="146.03" y="376.42" width="189.72" height="79.88" fill="#2f2e41" data-secondary="true"/>
<rect x="152.07" y="383.11" width="177.66" height="67.88" fill="#ccc"/>
<g opacity="0.2">
<rect x="146.03" y="532.14" width="60.66" height="1.38"/>
</g>
<g opacity="0.2">
<rect x="146.03" y="537.12" width="60.66" height="1.38"/>
</g>
<g opacity="0.2">
<rect x="146.03" y="542.09" width="60.66" height="1.38"/>
</g>
<g opacity="0.2">
<rect x="146.03" y="547.07" width="60.66" height="1.38"/>
</g>
<g opacity="0.2">
<rect x="146.03" y="552.04" width="60.66" height="1.38"/>
</g>
<g opacity="0.2">
<rect x="146.03" y="557.02" width="60.66" height="1.38"/>
</g>
<g opacity="0.2">
<rect x="146.03" y="561.99" width="60.66" height="1.38"/>
</g>
<g opacity="0.2">
<rect x="146.03" y="566.97" width="60.66" height="1.38"/>
</g>
<g opacity="0.2">
<rect x="216.93" y="532.14" width="60.66" height="1.38"/>
</g>
<g opacity="0.2">
<rect x="216.93" y="537.12" width="60.66" height="1.38"/>
</g>
<g opacity="0.2">
<rect x="216.93" y="542.09" width="60.66" height="1.38"/>
</g>
<g opacity="0.2">
<rect x="216.93" y="547.07" width="60.66" height="1.38"/>
</g>
<g opacity="0.2">
<rect x="216.93" y="552.04" width="60.66" height="1.38"/>
</g>
<g opacity="0.2">
<rect x="216.93" y="557.02" width="60.66" height="1.38"/>
</g>
<g opacity="0.2">
<rect x="216.93" y="561.99" width="60.66" height="1.38"/>
</g>
<g opacity="0.2">
<rect x="216.93" y="566.97" width="60.66" height="1.38"/>
</g>
<g opacity="0.2">
<rect x="287.37" y="532.14" width="60.66" height="1.38"/>
</g>
<g opacity="0.2">
<rect x="287.37" y="537.12" width="60.66" height="1.38"/>
</g>
<g opacity="0.2">
<rect x="287.37" y="542.09" width="60.66" height="1.38"/>
</g>
<g opacity="0.2">
<rect x="287.37" y="547.07" width="60.66" height="1.38"/>
</g>
<g opacity="0.2">
<rect x="287.37" y="552.04" width="60.66" height="1.38"/>
</g>
<g opacity="0.2">
<rect x="287.37" y="557.02" width="60.66" height="1.38"/>
</g>
<g opacity="0.2">
<rect x="287.37" y="561.99" width="60.66" height="1.38"/>
</g>
<g opacity="0.2">
<rect x="287.37" y="566.97" width="60.66" height="1.38"/>
</g>
<rect x="374.41" y="233.19" width="231.4" height="177.27" opacity="0.2"/>
<rect x="374.41" y="394.72" width="231.4" height="15.74" fill="#bcbec0"/>
<rect x="348.03" y="272.99" width="192.74" height="26.11" fill="#fff"/>
<path d="M445.43,287.11c-20.5,0-35.57-.13-36.1-.51l.41-.56.22-.64c2.77.65,87.41.19,119.79,0v1.38C505.07,286.91,471,287.11,445.43,287.11Z" fill="#2f2e41" data-secondary="true"/>
<path d="M376.46,286.82c-13.22,0-13.44-.2-13.61-.34l.91-1-.45.52.18-.66c1.33.25,26.74.12,43.49,0v1.38C392.63,286.77,383,286.82,376.46,286.82Z" fill="#ccc"/>
<rect x="405.8" y="281.39" width="5.71" height="8.26" fill="#2f2e41" data-secondary="true"/>
<rect x="293.46" y="113.37" width="171.17" height="14.76" rx="5.36" fill="#2f2e41" data-secondary="true"/>
<rect x="273.39" y="134.02" width="211.31" height="36.36" rx="13.2" fill="#2f2e41" data-secondary="true"/>
<rect x="277.52" y="136.98" width="202.45" height="30.1" rx="10.93" opacity="0.2"/>
<circle cx="296.8" cy="152.32" r="11.41" fill="#fff"/>
<circle cx="323.36" cy="152.03" r="11.41" fill="#fff"/>
<circle cx="351.7" cy="152.03" r="11.41" fill="#fff"/>
<circle cx="379.04" cy="152.32" r="11.41" fill="#fff"/>
<circle cx="406.39" cy="152.03" r="11.41" fill="#fff"/>
<circle cx="433.94" cy="152.32" r="11.41" fill="#fff"/>
<circle cx="462.46" cy="152.32" r="11.41" fill="#fff"/>
<polygon points="432.35 255.2 428.12 221.09 433.94 220.2 438.46 254.04 432.35 255.2" fill="#2f2e41" data-secondary="true"/>
<path d="M418.89,273s-.19-13.79,11.23-19c7.84-3.58,17.3-1.78,22.7,4.94,2.52,3.13,4.46,7.63,4.43,14.06,0,0-.29,10.27-7.38,12.53v9.05H444.4V271.26h2.52v6.51s2.77-1.46,2.84-5.94a12.14,12.14,0,0,0-12.38-12.24,10.91,10.91,0,0,0-7.87,3.7s-2.95,1.59-2.95,10.09Z" fill="#2f2e41" data-secondary="true"/>
<rect x="374.41" y="421.84" width="20.38" height="16.55" opacity="0.2"/>
<rect x="400.38" y="421.84" width="20.38" height="16.55" opacity="0.2"/>
<rect x="374.41" y="446.64" width="20.38" height="16.55" opacity="0.2"/>
<rect x="400.38" y="446.64" width="20.38" height="16.55" opacity="0.2"/>
<rect x="374.41" y="473.36" width="20.38" height="16.55" opacity="0.2"/>
<rect x="400.38" y="473.36" width="20.38" height="16.55" opacity="0.2"/>
<rect x="374.41" y="506.4" width="231.4" height="4.76" opacity="0.2"/>
<rect x="374.41" y="517.06" width="231.4" height="4.76" opacity="0.2"/>
<g opacity="0.2">
<rect x="374.41" y="532.14" width="231.4" height="1.38"/>
</g>
<g opacity="0.2">
<rect x="374.41" y="537.12" width="231.4" height="1.38"/>
</g>
<g opacity="0.2">
<rect x="374.41" y="542.09" width="231.4" height="1.38"/>
</g>
<g opacity="0.2">
<rect x="374.41" y="547.07" width="231.4" height="1.38"/>
</g>
<g opacity="0.2">
<rect x="374.41" y="552.04" width="231.4" height="1.38"/>
</g>
<g opacity="0.2">
<rect x="374.41" y="557.02" width="231.4" height="1.38"/>
</g>
<g opacity="0.2">
<rect x="374.41" y="561.99" width="231.4" height="1.38"/>
</g>
<g opacity="0.2">
<rect x="374.41" y="566.97" width="231.4" height="1.38"/>
</g>
<path d="M86.49,606l.6,45.89,60.42-.62c5.11-22.33-31.68-16.08-31.68-16.08l.89-29.42Z" fill="#2f2e41" data-secondary="true"/>
<path d="M86.49,606l.6,45.89,60.42-.62c5.11-22.33-31.68-16.08-31.68-16.08l.89-29.42Z" opacity="0.2"/>
<path d="M50.4,606,51,651.93l60.43-.62c1.47-16.62-31.68-16.08-31.68-16.08l.91-29.42Z" fill="#2f2e41" data-secondary="true"/>
<path d="M138.93,394c1.28,4.38-6.81,81.48-6.89,97.25s-7.51,118.44-7.51,118.44l-8.44,15.25-29.6.52,5.89-246.19Z" fill="#33d1cc" data-primary="true"/>
<path d="M61,347s-26.38,29.61-27.26,50.17,6.57,116,6.57,116l4.39,89.73,5.9,20.29h30L87,614.39s8.36-72.91,10.13-103.57,8.48-117.06,8.48-117.06Z" fill="#33d1cc" data-primary="true"/>
<path d="M184.65,311.52l6.21,45.55s21,3.43,22,4.13-3.68,16.52-3.68,16.52a308,308,0,0,1-31.11,4.55,14.3,14.3,0,0,1-15.36-13.15c0-.27,0-.53,0-.8l-.83-36.17Z" fill="#33d1cc" data-primary="true"/>
<path d="M184.65,311.52l6.21,45.55s21,3.43,22,4.13-3.68,16.52-3.68,16.52a308,308,0,0,1-31.11,4.55,14.3,14.3,0,0,1-15.36-13.15c0-.27,0-.53,0-.8l-.83-36.17Z" opacity="0.1"/>
<path d="M197,454a28.77,28.77,0,0,1-4.23,7.94,14.66,14.66,0,0,1,1.8-4.14A14.3,14.3,0,0,1,197,454Z" fill="#263238"/>
<path d="M172.17,361.27,157.3,374.9l-33.47,31.43L64.27,372.08s-4-21.93-3.71-24.09S75.33,328.5,84.9,319.55,114,292.74,114,292.74s13.77-13.23,31.67-12.61h16.23l22.79,26.67-2.15,31Z" fill="#33d1cc" data-primary="true"/>
<path d="M199.21,355.92l12.93,3.82s15.44.56,16.87,1.28c1.67.84,11.34,10.88,11.34,10.88l-.31,5.36H229.23s2.66,7,.24,8.37-5.28-.76-5.28-.76L213,377.26l-12.15,2.05s-5.92-5-5.47-11.65A26.42,26.42,0,0,1,199.21,355.92Z" fill="#f5f5f5"/>
<path d="M183.12,447.58a45,45,0,0,1,6.49,4.59,44.21,44.21,0,0,1,6,5.15,44.4,44.4,0,0,1-6.48-4.59A44.3,44.3,0,0,1,183.12,447.58Z" fill="#263238"/>
<path d="M248.47,251.89l-.15-19a9,9,0,0,0-4.13-7.46l-18.68-12.18a9,9,0,0,0-8.51-.71l-18.77,8.26Z" fill="#f5f5f5"/>
<path d="M177.2,208.05a262,262,0,0,1,37.34,20.07c20.43,13.2,35.38,22.77,54.27,44.07,4.86,6.47,5.76,8.91,3.4,12.16s-7.49,4.87-11.5,4.67a32.75,32.75,0,0,1-11.47-3.43c-30.09-13.6-56.37-34.43-80.35-57.14-3.44-3.27-10.15-12-8.34-16.39C162.77,206.59,170.67,205.12,177.2,208.05Z" fill="#ccc"/>
<path d="M177.2,208.05a262,262,0,0,1,37.34,20.07c20.43,13.2,35.38,22.77,54.27,44.07,4.86,6.47,5.76,8.91,3.4,12.16s-7.49,4.87-11.5,4.67a32.75,32.75,0,0,1-11.47-3.43c-30.09-13.6-56.37-34.43-80.35-57.14-3.44-3.27-10.15-12-8.34-16.39C162.77,206.59,170.67,205.12,177.2,208.05Z" fill="#fff" opacity="0.2"/>
<path d="M241.76,259.36c2.61-5,4.14-6.22,2.33-11.58-2-5.91-12.48-10.26-17.81-13.49s-10.13-8.65-16.22-10c-3.42-.76-3.44-3.12-6.89-2.56-6.29,1-14.73,4.39-19.28,8.84-3.72,3.58-11,14.42-12.53,19.35a11.62,11.62,0,0,0,.63,6.62,44.06,44.06,0,0,0-1.53,15.37l9.65-5.23Z" fill="#263238"/>
<path d="M170.88,239.27c5.82-5.51,7-9.13,20.53-14.51,10.18-4,15.26,1.65,22.89,4L237,246c.2-.5.39-1,.56-1.47l6.32,8.15a8,8,0,0,1,2.92,8.7,10.78,10.78,0,0,1-.47,2.76,26.47,26.47,0,0,1-4.34,7.67,67.65,67.65,0,0,1-5.63,6.68l-1.89,2.29a13.92,13.92,0,0,1-2.86,2.5c-8.84,8.5-15.52,20.5-21.54,28.84-.63.88-5.19-1.58-6.2-1.22a5.12,5.12,0,0,1-3.36-.31c-13.27-4.49-14.68-15.9-19.28-29.15-.89-2.58-1.64-5.39-3.68-7.21s-9.11,1.82-11.81.82l-2.87-8.13C162.88,252.05,165,244.7,170.88,239.27Z" fill="#2f2e41" data-secondary="true"/>
<path d="M193.51,236.37a17.36,17.36,0,0,1,20.41-3l21.27,11.4c8.19,6,4.77,19.77-1.61,27.68-7.06,8.81-14.77,17.91-21.43,23.2-13.37,10.67-24.4,3.52-24.4,3.52l-5.51,6-12.4-12.7L157.11,282l36.24-45.45C193.52,236.25,193.23,236.63,193.51,236.37Z" fill="#f9b499"/>
<path d="M175.28,279.62s-3.8,12.29,9.78,22.52l2.69-2.93A42.67,42.67,0,0,1,175.28,279.62Z" fill="#f4a790"/>
<path d="M240.63,258a7.43,7.43,0,0,0-2-7.55,14.39,14.39,0,0,0-7.29-3.59c-11.36-2.51-24.68,4.35-36.08,2.07-2.76-.56-4.23-3.71-7.09-3.67s-6,1.38-6.89,4.13a23.89,23.89,0,0,1,1.38-6.63,7.94,7.94,0,0,1,4.65-4.67c1.64-.53,3.54-.33,5-1.28s1.88-2.37,3-3.45a9.89,9.89,0,0,1,4.13-2.13c7.52-2.44,12.71-3.69,20.43-1.89,5,1.19,11,6.8,14.68,10.43s8,5.51,8.45,10.73c.24,3,.51,6.19-2.24,7.49" fill="#2f2e41" data-secondary="true"/>
<path d="M186.94,247c.19-.48-4.14-8.79-10.58-2s1.75,11.53,1.94,11.35S186.94,247,186.94,247Z" fill="#f9b499"/>
<path d="M176.74,252.41a1.86,1.86,0,0,0-2.42-.43,1.9,1.9,0,0,0-.56,2.4A1.79,1.79,0,0,0,177,252.8" fill="#fff"/>
<path d="M177,252.8a2.39,2.39,0,0,1-.23,1.46,1.56,1.56,0,0,1-1.22.81,1.75,1.75,0,0,1-1.58-.8,1.71,1.71,0,0,1,.12-1.76,1.56,1.56,0,0,1,1.38-.65,2.31,2.31,0,0,1,1.37.55.55.55,0,0,0-.24-.37,1.91,1.91,0,0,0-1.11-.47,1.86,1.86,0,0,0-1.65.72,2.06,2.06,0,0,0-.16,2.19,2,2,0,0,0,2,1,1.79,1.79,0,0,0,1.38-1.06,1.87,1.87,0,0,0,.15-1.19C177.09,252.91,177,252.78,177,252.8Z" fill="#263238"/>
<path d="M187.4,244.52a14,14,0,0,0-4.29,6c-.65,2.4.48,5.51,2.9,6,2,.46,3.9-.87,5.51-2.13,4.56-3.71,8.82-7.76,13.4-11.41Z" fill="#2f2e41" data-secondary="true"/>
<path d="M273.43,280.38s-26.69-26.17-40-35.35-49.48-31.44-58.94-33.65-13.91.64-13.91.64,2.09-8,13.16-5.1a212.6,212.6,0,0,1,39.94,17.83C239,239.12,267.85,261,273.43,280.38Z" fill="#f5f5f5"/>
<path d="M155.18,281.39,185.55,310a2.68,2.68,0,0,0,3.76-.11h0a2.66,2.66,0,0,0-.1-3.76h0L158.9,277.5a2.66,2.66,0,0,0-3.76.1h0a2.66,2.66,0,0,0,0,3.76Z" fill="#d1d4d5"/>
<path d="M752.11,313.57l-1.72-5.82A15.85,15.85,0,0,0,752.11,313.57Z" fill="#455a64"/>
<path d="M827.52,382.5c-6.89-13-20.26-20.95-32.18-29.59-10.42-7.54-36.27-25.2-43.23-39.34L789.53,440a39.23,39.23,0,0,0,38-57.45Z" fill="#d1d3d4"/>
<path d="M710,618.32,709.72,661H656.5c-2.37-25.73,27.85-15.27,27.85-15.27l-1-27.41Z" fill="#33d1cc" data-primary="true"/>
<g opacity="0.6">
<path d="M700.84,643.54a2.17,2.17,0,0,1,1.5,2.48,2.1,2.1,0,0,1-2.45,1.51,2.28,2.28,0,0,1-1.57-2.63,2.16,2.16,0,0,1,2.75-1.29" fill="#fff"/>
</g>
<g opacity="0.6">
<path d="M709.75,661.14l-.15-4.31-51,1.58s-2.37,1-2.11,2.76Z" fill="#fff"/>
</g>
<path d="M685.26,633a5,5,0,0,0,2.66,0,12,12,0,0,0,2.75-.86,11.19,11.19,0,0,0,1.53-.81,3.06,3.06,0,0,0,.81-.62,1.16,1.16,0,0,0,.11-1.38,1.35,1.35,0,0,0-1.12-.59,3.85,3.85,0,0,0-1,.14,9.33,9.33,0,0,0-4.13,2.18c-1.23,1.14-1.65,2.12-1.57,2.16s.73-.73,2-1.67a10.79,10.79,0,0,1,2.37-1.38,8.5,8.5,0,0,1,1.54-.46c.55-.16,1-.16,1.19.09s0,.14,0,.31a3.21,3.21,0,0,1-.58.45c-.48.3-.95.56-1.38.8a17,17,0,0,1-2.57,1A17.4,17.4,0,0,0,685.26,633Z" fill="#263238"/>
<path d="M685.61,633.36a4.43,4.43,0,0,0,.7-2.58,8.78,8.78,0,0,0-.37-2.92,8.45,8.45,0,0,0-.68-1.61,2.16,2.16,0,0,0-1.69-1.37,1.22,1.22,0,0,0-1.12.74,3.32,3.32,0,0,0-.27,1,6,6,0,0,0,0,1.79,6.06,6.06,0,0,0,1.13,2.75c1,1.38,2.13,1.7,2.14,1.6a11.86,11.86,0,0,1-1.61-2,6.18,6.18,0,0,1-.84-2.5,5.6,5.6,0,0,1,0-1.53c.1-.57.31-1,.51-1a2,2,0,0,1,.94.87,9.48,9.48,0,0,1,.66,1.45,9.22,9.22,0,0,1,.51,2.66C685.73,632.34,685.45,633.32,685.61,633.36Z" fill="#263238"/>
<path d="M678.88,326.35s-9.72,42.69-15,45.11-47.16,6.2-47.16,6.2l-23.27-8.45,50-16.53L655.35,312Z" fill="#f9b499"/>
<path d="M581.24,370.42l-8.79,2.17A1.91,1.91,0,0,1,571.2,369c1.38-.8,7-3.08,9.64-4.32a4.24,4.24,0,0,1,3.68-.1l11.67,3,14-4,6.62,13.94-11.32,3.63s-.72,2.32-2.31,2.4-10.93-.14-10.93-.14-6.88,6.89-9,4.27c-1.45-1.76,4.54-7.16,6.25-8,1.17-.55-2.75-.24-2.75-.24s-8,6.23-9.64,3.8,7-8.4,7-8.4-6.41,2.59-9,3.8-2.87-2.06-2-2.75S581.24,370.42,581.24,370.42Z" fill="#f9b499"/>
<path d="M595.13,368.75a12.22,12.22,0,0,1-1.5.46,10,10,0,0,1-4.21-.36,27.18,27.18,0,0,0-3-.59,6.31,6.31,0,0,0-3.53.53,4.08,4.08,0,0,0-1.53,1.3,3.14,3.14,0,0,0,.53,4.05,2.53,2.53,0,0,0,2.26.38,9.1,9.1,0,0,1,1.94-.44,4.12,4.12,0,0,1,1.82.36,11.41,11.41,0,0,1,3,2.06,13.31,13.31,0,0,0,2.85,2,6.82,6.82,0,0,0,3,.66,7,7,0,0,0,4.13-1.38,4.17,4.17,0,0,0,.88-.8,1.15,1.15,0,0,0,.25-.34,14.05,14.05,0,0,1-1.28.92,7.25,7.25,0,0,1-4,1.08,6.94,6.94,0,0,1-2.75-.69,14.29,14.29,0,0,1-2.69-2,11.75,11.75,0,0,0-3.19-2.21,4.71,4.71,0,0,0-2.09-.41,8.24,8.24,0,0,0-2.08.46,1.79,1.79,0,0,1-1.67-.27,2.22,2.22,0,0,1-.79-1.5,2.76,2.76,0,0,1,1.64-2.75c2.1-1,4.34-.36,6.11,0a9.32,9.32,0,0,0,4.36.14,4.2,4.2,0,0,0,1.12-.46C595,368.86,595.15,368.76,595.13,368.75Z" fill="#aa6550"/>
<path d="M586.76,381.64c.17.13,1-.81,2.37-1.38s2.6-.59,2.63-.79a3.18,3.18,0,0,0-2.91.16C587.28,380.28,586.6,381.56,586.76,381.64Z" fill="#aa6550"/>
<path d="M581.54,377.48A8.51,8.51,0,0,1,587.6,375c0-.1-.34-.29-1-.37a5.15,5.15,0,0,0-4.6,1.86C581.58,377,581.46,377.44,581.54,377.48Z" fill="#aa6550"/>
<path d="M802.33,618.83l8.73,41.87-52,11.13c-5.74-23.57,24-20.77,24-20.77l-6.7-26.6Z" fill="#33d1cc" data-primary="true"/>
<g opacity="0.6">
<path d="M798.66,645.35a2.21,2.21,0,0,1,2,2.11,2.09,2.09,0,0,1-2.07,2,2.28,2.28,0,0,1-2.09-2.25,2.15,2.15,0,0,1,2.38-1.83" fill="#fff"/>
</g>
<g opacity="0.6">
<path d="M811.06,660.7l-1-4.13L760.53,668.8s-2.11,1.51-1.5,3.08Z" fill="#fff"/>
</g>
<path d="M781.21,638.3a5.15,5.15,0,0,0,2.61-.58,11.13,11.13,0,0,0,2.54-1.37,11.44,11.44,0,0,0,1.38-1.12,3,3,0,0,0,.65-.77,1.12,1.12,0,0,0-.17-1.38,1.37,1.37,0,0,0-1.24-.34,3.6,3.6,0,0,0-1,.34,9.17,9.17,0,0,0-1.5.9,9.72,9.72,0,0,0-2.06,2.09,4.44,4.44,0,0,0-1.08,2.45c.13,0,.55-.86,1.59-2a9.67,9.67,0,0,1,2-1.8,10.47,10.47,0,0,1,1.38-.79c.52-.26,1-.37,1.19-.15s.08.12,0,.3a3,3,0,0,1-.49.57,13.94,13.94,0,0,1-3.52,2.59A20.31,20.31,0,0,0,781.21,638.3Z" fill="#263238"/>
<path d="M781.57,638.59a4.11,4.11,0,0,0,.15-2.66,8.75,8.75,0,0,0-1-2.75,9,9,0,0,0-1-1.38,2.22,2.22,0,0,0-1.94-.95,1.25,1.25,0,0,0-.94.95,3.49,3.49,0,0,0,0,1,5.54,5.54,0,0,0,.38,1.75,6.25,6.25,0,0,0,1.68,2.47,3.46,3.46,0,0,0,2.43,1.11,10.48,10.48,0,0,1-2-1.58A6.17,6.17,0,0,1,778,634.3a5.58,5.58,0,0,1-.27-1.52c0-.56,0-1.06.29-1a1.85,1.85,0,0,1,1.1.66,11.66,11.66,0,0,1,1,1.27,10.32,10.32,0,0,1,1.06,2.49A16.62,16.62,0,0,1,781.57,638.59Z" fill="#263238"/>
<path d="M777.44,369.67s17.16,23.11,16.86,49.86-5,100-5,100l19.78,119.05L775,644.83s-29.19-96.41-31-109.14-6.88-91.88-6.88-91.88L724,524,713.7,635.29H678.82s1.17-181.48,10-227.52h0Z" fill="#2f2e41" data-secondary="true"/>
<path d="M773.31,301.45c-1.49-6.37-4.13-12.4-4.86-19-.45-3.8-.25-7.68-1-11.43s-2.76-7.53-6.3-9.09c-3.19-1.37-7.2-.84-10-3-3-2.39-3.2-7.09-5.91-9.85-2.22-2.24-5.65-2.75-8.35-4.36-3.87-2.36-5.84-6.89-7.44-11-4-10.45-7.24-21.28-13.2-30.73s-21.52-27.54-48.57-19.11l-13.52,11.25c-3.94,5.67-4.7,13-3.83,19.9s3.24,13.42,5.07,20.08,3.17,13.66,1.93,20.45c-.07.36-.15.72-.24,1.06a21.54,21.54,0,0,1-1.24,3.08c-2,4-5.13,7.31-7.46,11.12s-3.83,8.6-2.14,12.74c1.15,2.84,3.7,5.1,4.14,8.13.59,4.06-2.76,7.53-4.14,11.42a12.4,12.4,0,0,0,8.5,15.33l.69.17c5.84,1,11.82-2.64,14.83-7.75s3.54-11.36,3-17.27a12.85,12.85,0,0,0-.18-1.64,25.83,25.83,0,0,0,6.24-3.06c4.48-2.92,15.83-2.55,18.13-7.37,1.31-2.75,4.06-7.49,5.84-12l51.24,54c4.67,4.56,13.24,2.26,16.87-3.17S774.85,307.81,773.31,301.45Z" fill="#2f2e41" data-secondary="true"/>
<path d="M678.47,338.92,650.93,321s7.23-35.45,13.77-39C669.73,279.24,678.47,338.92,678.47,338.92Z" fill="#33d1cc" data-primary="true"/>
<path d="M795,423.19c-2.1-41.81-16.63-51.51-30.05-76L730,255.86l-22,3.29-24.93,8.1L664.73,282a307.33,307.33,0,0,0,5.63,43.48s11.83,16,24.29,45.93l-8.11,52.87Z" fill="#33d1cc" data-primary="true"/>
<path d="M730,255.86s9.19-2.31,19.86,4.21,21.3,36.09,21.3,36.09L741.05,313S726.94,261.19,730,255.86Z" fill="#33d1cc" data-primary="true"/>
<path d="M653.34,211.42a18.94,18.94,0,0,1,.49-17.32,24.85,24.85,0,0,1,9.81-9.13,26.69,26.69,0,0,1,17.54-3.39c6,1.12,11.53,5.27,13.4,11,.86,2.63,1,5.51,2.39,7.89a6,6,0,0,1,1.37,3.24,2.87,2.87,0,0,1-2,2.37,6.43,6.43,0,0,1-3.26,0,33.91,33.91,0,0,1-10.23-4.45" fill="#263238"/>
<path d="M664.51,193.46l27.44,1a5,5,0,0,1,5.51,4l9.64,57.33a18,18,0,0,1-1.84,11.46l-2,3.69a13.26,13.26,0,0,1-22,2.18,5.88,5.88,0,0,1-.88-1.38,9.29,9.29,0,0,1-.47-1.24,41.48,41.48,0,0,1-2-8.59c-1.16-5.06-1.6-7.14-1.59-7.09s-11,.52-16.29-13c-2.59-6.69-4.68-18.15-6.09-27.54C652.59,205.82,655.93,194.37,664.51,193.46Z" fill="#f9b499"/>
<path d="M676.24,254.81a36.23,36.23,0,0,0,17.6-9s-2.62,10.66-16.86,12.39Z" fill="#f4a790"/>
<path d="M698.43,222.68c-.22-1,.44-3.73,1.37-4.13,2.66-1,7.65-1.86,9.18,5.1,2.1,9.48-7.85,9.64-7.94,9.37S699.18,226.28,698.43,222.68Z" fill="#f9b499"/>
<path d="M662.78,192.09a13.32,13.32,0,0,0,10.8,8.27c2.54.26,5.44-.1,7.27,1.68s1.6,5,3.38,6.88c2.45,2.65,7.55,1.5,9.64,4.46.88,1.31.89,3.06,1.8,4.34a4.49,4.49,0,0,0,5.66,1,7.13,7.13,0,0,0,3.34-5.09,19.07,19.07,0,0,0-.17-6.26,34.52,34.52,0,0,0-3.33-11.84C697,188,683.11,179,674.77,181.32" fill="#2f2e41" data-secondary="true"/>
<path d="M648.89,430.19c-.11,0-.29-.37-.42-.88s-.12-.94,0-1,.29.38.42.89S649,430.16,648.89,430.19Z" fill="#fafafa"/>
<rect x="581.75" y="367.64" width="105.58" height="81.31" fill="#2f2e41" data-secondary="true"/>
<rect x="588.36" y="374.65" width="92.34" height="67.29" fill="#fff"/>
<rect x="629.15" y="426.75" width="40.25" height="4.3" fill="#2f2e41" data-secondary="true"/>
<polygon points="642.04 422.45 646.34 422.45 646.34 393.93 651.42 393.93 644.39 381.04 636.57 393.15 642.04 393.15 642.04 422.45" fill="#2f2e41" data-secondary="true"/>
<polygon points="663.4 423.5 667.7 423.5 667.7 394.97 672.78 394.97 665.75 382.08 657.93 394.19 663.4 394.19 663.4 423.5" fill="#2f2e41" data-secondary="true"/>
<rect x="596.99" y="426.46" width="20.81" height="1.38" transform="translate(-125.16 548.54) rotate(-44.53)" fill="#2f2e41" data-secondary="true"/>
<rect x="606.45" y="417.28" width="1.38" height="19.73" transform="translate(-129.35 520.14) rotate(-42.32)" fill="#2f2e41" data-secondary="true"/>
<path d="M768,298l11.1,43.15a19,19,0,0,1-12.39,22.27l-60.27,26-11.76-17.9,56.05-35.52-7.36-24.21Z" fill="#f9b499"/>
<path d="M671.94,382.7s-6.35,4.4-8.05,5.41-3.67-2.47-1.92-4.33c1.23-1.3,5.65-5.18,8.17-7.39a5.26,5.26,0,0,1,4.13-1.23l12.22,1.58,21.15-13.55L718.82,384l-15.15,6.49s-3.63,3.73-5.31,4.32-8.1-.67-8.1-.67-7,8.91-10,6.88,2.15-8.38,2.15-8.38-7.08,8.67-9.64,6.61,2.93-9.89,2.93-9.89-3.86,3.84-6.21,5.95-5.3-1.56-4.63-2.54Z" fill="#f9b499"/>
<path d="M723.47,256.85s-7,13.51,1.63,36.44,25.61,42.63,25.61,42.63l-4.48-15.25s-17.63-25.19-18.08-46.25c-.46-20.24,1.9-18.55,1.9-18.55Z" fill="#d1d3d4"/>
<rect x="215.64" y="406.54" width="21.24" height="21.24" fill="#bcbec0"/>
<circle cx="236.07" cy="407.41" r="9.81" fill="#a7a9ac"/>
<polygon points="240.36 430.98 257.85 430.98 249.1 412.7 240.36 430.98" fill="#2f2e41" data-secondary="true"/>
<path d="M345.69,113.37l11.22-78.21,65.61,45.45,17.12,133.76a9.28,9.28,0,0,1-7.29,10.25h0a9.27,9.27,0,0,1-11.11-7.89L408,113.37Z" fill="#2f2e41" data-secondary="true"/>
<path d="M345.69,113.37l11.22-78.21,65.61,45.45,17.12,133.76a9.28,9.28,0,0,1-7.29,10.25h0a9.27,9.27,0,0,1-11.11-7.89L408,113.37Z" opacity="0.2"/>
<path d="M385.83,67.92,363.15,43A19.1,19.1,0,0,1,364,16.39h0a19.1,19.1,0,0,1,27.4.86L411.21,39" fill="#2f2e41" data-secondary="true"/>
<path d="M385.83,67.92,363.15,43A19.1,19.1,0,0,1,364,16.39h0a19.1,19.1,0,0,1,27.4.86L411.21,39" fill="#fff" opacity="0.2"/>
<circle cx="408.95" cy="62.36" r="27" fill="#2f2e41" data-secondary="true"/>
<circle cx="375.21" cy="27.78" r="5.31" fill="#fff"/>
<circle cx="408.75" cy="62.31" r="9.05" fill="#fff"/>
<path d="M100.86,421.24s-5.79,143-14.58,192.47A6.1,6.1,0,0,1,85,616.42L79.22,623" fill="none" stroke="#263238" stroke-miterlimit="10" opacity="0.2"/>
<path d="M139.27,285.54c.69.21,1.39.4,2.1.56a26.48,26.48,0,0,1,20.46,23.19,23.2,23.2,0,0,1,0,4.41c-1.36,13.56-9.05,52-9.05,52l-5.14,26.91,26.43,35.72-16.53,14.56s-44-24.31-45-38.78S109.3,298.81,109.75,297C109.75,297,123.15,280.74,139.27,285.54Z" fill="#33d1cc" data-primary="true"/>
<path d="M139.27,285.54c.69.21,1.39.4,2.1.56a26.48,26.48,0,0,1,20.46,23.19,23.2,23.2,0,0,1,0,4.41c-1.36,13.56-9.05,52-9.05,52l-5.14,26.91,26.43,35.72-16.53,14.56s-44-24.31-45-38.78S109.3,298.81,109.75,297C109.75,297,123.15,280.74,139.27,285.54Z" opacity="0.1"/>
<path d="M147.49,437.41c.4.65,12.84,8.19,12.84,8.19s6.7,7.4,9.56,8.86,12.78,13.94,19.21,11.91l-.36-2.56-7.91-7.51s11.52,8,14.58,5c1.59-1.58.23-4.08.23-4.08a4.41,4.41,0,0,0,4.75-.61c2-1.94-1.73-4.83-1.73-4.83l-9.27-8.5S198.85,450,201,451s5.07-.77,2.9-4.15c-1.36-2.06-6.6-6.16-6.6-6.16s6.43-1.72,4.8-3.93-1-2.28-6.78-1.78-12.41-3.8-15.17-5a11.61,11.61,0,0,0-5-1l-9-13.09Z" fill="#f5f5f5"/>
</svg>