 <!DOCTYPE svg PUBLIC "-//W3C//DTD SVG 1.1//EN" "http://www.w3.org/Graphics/SVG/1.1/DTD/svg11.dtd">
<svg xmlns="http://www.w3.org/2000/svg" width="865.76" height="682.89" viewBox="0 0 865.76 682.89">
<defs>
<style xmlns="http://www.w3.org/1999/xhtml">*, ::after, ::before { box-sizing: border-box; }
img, svg { vertical-align: middle; }
</style>
<style xmlns="http://www.w3.org/1999/xhtml">*, body, html { -webkit-font-smoothing: antialiased; }
img, svg { max-width: 100%; }
</style>
</defs>
<path d="M425.68,39.76C377.46,69.57,344.67,115,316,160.49s-55,93.06-94.89,131.39c-30,28.88-67.44,52.3-90.41,85.88-31.86,46.5-30.16,107.77-2.33,156.26s79.26,84.43,136.54,103.84,120.08,23.3,181.15,18.5c66.46-5.22,133.48-21.23,187.12-56.48,74.4-48.81,115.44-130.59,123.65-212.39s-13.21-163.85-44.56-241.11c-10.86-26.75-23.07-53.4-41.58-76.6C616.84,2.18,500.31-6.32,425.68,39.76Z" fill="#ffc400" data-primary="true"/>
<g opacity="0.7">
<path d="M425.68,39.76C377.46,69.57,344.67,115,316,160.49s-55,93.06-94.89,131.39c-30,28.88-67.44,52.3-90.41,85.88-31.86,46.5-30.16,107.77-2.33,156.26s79.26,84.43,136.54,103.84,120.08,23.3,181.15,18.5c66.46-5.22,133.48-21.23,187.12-56.48,74.4-48.81,115.44-130.59,123.65-212.39s-13.21-163.85-44.56-241.11c-10.86-26.75-23.07-53.4-41.58-76.6C616.84,2.18,500.31-6.32,425.68,39.76Z" fill="#fff"/>
</g>
<path d="M711.73,373.28a8.51,8.51,0,0,1-8.51,8.51,8.37,8.37,0,0,1-4.22-1.13l-9,7.59-.88-6L689,380.3l6.23-4.2a8.5,8.5,0,1,1,16.53-2.82Z" fill="#ffc400" data-primary="true"/>
<path d="M526,554.51s-6.15,13.6,51.08,0c0,0,32.54-11.79,63.18-8.44l22,1.41a7.41,7.41,0,0,1,5.59,3.16l6.5,9.37a7.06,7.06,0,0,0,8.13,2.63c8.28-2.89,24.58-8.5,32.3-10.49l6.13-6.08-77.22-93.65-57.52-104V341.8h-30L527.94,451.56Z" fill="#ffc400" data-primary="true"/>
<path d="M526,554.51s-6.15,13.6,51.08,0c0,0,32.54-11.79,63.18-8.44l22,1.41a7.41,7.41,0,0,1,5.59,3.16l6.5,9.37a7.06,7.06,0,0,0,8.13,2.63c8.28-2.89,24.58-8.5,32.3-10.49l6.13-6.08-77.22-93.65-57.52-104V341.8h-30L527.94,451.56Z" opacity="0.2"/>
<polygon points="593.47 447.82 599.42 489 637.21 472.86 637.21 461.26 627.5 443 616.05 446.89 593.47 447.82" fill="#f9b499"/>
<path d="M529.07,221.26S522,238,519.43,252l15.22,1.78S534.33,234.17,529.07,221.26Z" fill="#ccc"/>
<path d="M535.6,445.23a464.59,464.59,0,0,0,80.45,1.66V399.66l-9-38.87L570.72,343.5h-7.89l-22.06,75.7S533.05,434.64,535.6,445.23Z" fill="#2f2e41" data-secondary="true"/>
<path d="M658.13,215l.43,4-1.89-3.26a1,1,0,0,1,.18-.35A1.51,1.51,0,0,1,658.13,215Z" fill="#ffc400" data-primary="true"/>
<path d="M658.13,215l.43,4-1.89-3.26a1,1,0,0,1,.18-.35A1.51,1.51,0,0,1,658.13,215Z" opacity="0.2"/>
<path d="M563.68,187.41v6.09s11.06,6.21,15.32,11.31c0,0,16.59-12.34,29.78-16.17l.42-8.08L573.47,195Z" fill="#999"/>
<path d="M529.14,211.65a205.07,205.07,0,0,1,30.29-12.38l18.72,7.47,36.36-10.56s33.41,12,43.62,18.84c0,0-8.51,3.4-14.47,17.87,0,0-26.37,55.31-2.55,68.07L636,312s17,52.76,20.42,68.07c0,0,11.06,37.44,22.12,61.26,0,0,14.46,34,40,65.52l11,14.94a8.09,8.09,0,0,1,1.61,5.11c-.11,2.57-.87,6.56-3.72,11.8a8.07,8.07,0,0,0-.16,7.35,21.74,21.74,0,0,0,1.45,2.49s7.45,7.05-11.59,15.87c0,0,.53-31.18-46.27-70.32,0,0-7.2-7.86-25.61-21.27A195.4,195.4,0,0,1,609,438.74c-17.47-21.35-32.55-48.69-38.47-92.68l-15.32,43.39L539,433.7s-13.62,51.05-10.22,97v23.82s-17,.85-10.21-7.66c0,0,3.68-2.61.91-4.37a4.22,4.22,0,0,0-3.88-.21c-2,.84-5.53,1.54-5.53-3.93l2-12q1.23-7.32,3-14.54a333.24,333.24,0,0,0,8.64-60.28l6-100.4,5.1-72.8a165.61,165.61,0,0,0-3.61-47.87l-3.51-15.63A2.89,2.89,0,0,1,529.14,211.65Z" fill="#ffc400" data-primary="true"/>
<path d="M652.17,279.69s-5.1,14.46-11.06,21.27c0,0-16.2-5.19-7.67-38.76,0,0,7.24-38.24,23.23-46.4,0,0,32.09,53.68,34.64,82.61,0,0,4.26,24.67-1.7,72.32,0,0-1.7,5.11,0,14.47,0,0,4.25,21.27-7.66,28.07,0,0-5.1,3.41-7.66.86l-17-20.43,11.91-19.57s.85-53.6-3.4-67.21C665.79,306.92,657.28,286.49,652.17,279.69Z" fill="#ccc"/>
<path d="M636,312s-39.61,25.53-103.62,0l-1.22,17.38S583.24,354.27,641.1,328Z" fill="#ffc400" data-primary="true"/>
<path d="M636,312s-39.61,25.53-103.62,0l-1.22,17.38S583.24,354.27,641.1,328Z" opacity="0.2"/>
<path d="M575.69,341.8h-.09l-13.93-1.51a3,3,0,0,1-2.65-3.36l1.51-15a3,3,0,0,1,1.15-2.11,2.94,2.94,0,0,1,2.23-.61l14.82,2.09a.85.85,0,0,1-.24,1.69l-14.82-2.09a1.23,1.23,0,0,0-.94.25,1.39,1.39,0,0,0-.51.95l-1.51,15a1.35,1.35,0,0,0,1.15,1.49l13.92,1.5a.86.86,0,0,1,.75.94A.84.84,0,0,1,575.69,341.8Z" fill="#fff"/>
<path d="M578.61,332.22h-.08l-15.78-1.47a.86.86,0,0,1-.77-.93.85.85,0,0,1,.93-.77l15.78,1.48a.85.85,0,0,1-.08,1.7Z" fill="#fff"/>
<circle cx="590.48" cy="332.02" r="2.13" fill="#fff"/>
<circle cx="604.95" cy="329.46" r="2.13" fill="#fff"/>
<path d="M624.09,399.66c11.06,27.87,27,54,47.46,76,2.17,2.45,5.58,5.64,7.89,8,13.79,12.85,26.66,26.84,37.21,42.5a106.48,106.48,0,0,1,10.65,19.92A111.07,111.07,0,0,0,716,526.62c-8.67-12.27-18.82-23.44-29.47-34-3.84-3.83-8.36-7.85-12.21-11.73a154.66,154.66,0,0,1-11.45-12.57,221.63,221.63,0,0,1-38.75-68.64Z" opacity="0.2"/>
<path d="M653.87,409.87c7.75,24,19.77,46.58,33.83,67.46,7.45,10.82,17.28,23.13,25.12,33.81,3.32,4.53,6.69,9,10,13.6-3.58-4.33-7.09-8.73-10.64-13.09-8.22-10.46-18.28-22.55-25.79-33.4-14.21-20.88-26.09-43.87-32.49-68.38Z" opacity="0.2"/>
<path d="M540.77,340.06c-5.43,30.68-10.76,61.56-11.12,92.79-1.24-15.61,0-31.32,2-46.81a364.75,364.75,0,0,1,9.12-46Z" opacity="0.2"/>
<path d="M551.77,343.5c-7.61,41.82-16.42,85.25-24.91,126.92-2.35,15.25-4.64,31.55-6,46.89-.8,8.37-1.35,16.77-1.35,25.18-.71-23.14,2.21-46.29,5.39-69.18.46-4.1,5.15-26.48,6-31,6.67-32.43,13.65-66.47,20.9-98.81Z" opacity="0.2"/>
<path d="M642.81,261.82l9.36,17.87S646.22,295,641.11,301C641.11,301,638.56,279.69,642.81,261.82Z" opacity="0.2"/>
<path d="M621.22,303.28,611,306.52l-5.6-18a8.94,8.94,0,1,1,10.08-3.08Z" fill="#2f2e41" data-secondary="true"/>
<path d="M605.42,288.55a32.12,32.12,0,0,1,10.08-3.08,31.53,31.53,0,0,1-10.08,3.08Z" opacity="0.2"/>
<path d="M647.92,402.2h0c-14.47-17-40.84-87.65-40.84-87.65l10.6-3.38,11.63-3.7C637.63,331.37,647.73,400.94,647.92,402.2Z" fill="#f2f2f2"/>
<path d="M647.92,402.2h0c-14.47-17-40.84-87.65-40.84-87.65l10.6-3.38Z" fill="#e6e6e6"/>
<path d="M538.22,445.53v9.88l16.95,105.92-5.1,39.14L507.52,636.2h50.85s13.82.85,13-13.61l-.85-28.93a103.08,103.08,0,0,1,3.4-17s5.62-22.48,7.36-42.9a94.39,94.39,0,0,0-1.17-24.26c-2.28-13-6-40.1-2.13-61.66A385.31,385.31,0,0,1,538.22,445.53Z" fill="#f9b499"/>
<path d="M538.15,503.47s-16.34-19.84-5.19-40.56l5.26-11.82s11.85,10.68,28,13.24l.85,28.08Z" fill="#b3b3b3"/>
<path d="M542.34,508.4s7.73,71.65-1.63,91.22c0,0,6.8,6,8.51,13.61a19,19,0,0,0,7.84,0s11.09-62.64,9.71-92.16c0,0-1.29-17.72-2.19-23.19l-19.43,9.38A22.4,22.4,0,0,1,542.34,508.4Z" fill="#ccc"/>
<path d="M571.07,607.5v6.1c-5.36,4.64-20.15,5.59-20.15,5.59l-.5,17h-6.57l.61-14.33.08-2c-1-8.56-7-13.89-9.09-15.5a1.1,1.1,0,0,1-.32-1.39,14.63,14.63,0,0,1,3.19-3.66,1.1,1.1,0,0,1,1.39-.05,25.47,25.47,0,0,1,9.51,14A30.64,30.64,0,0,0,571.07,607.5Z" fill="#999"/>
<path d="M544.54,619.88l-.08,2-12.26,8.37c-17,11.06-50.2,3.4-50.2,3.4C469.23,632,505,620,505,620c15.32-6,30.48-15.66,30.48-15.66C537.51,606,543.5,611.32,544.54,619.88Z" fill="#ccc"/>
<path d="M619,512l21.83-14.1s2.27-13.08-1.7-25l-25.24-17s-13.61,11.38-16.59,18.45l3.83,29.2Z" fill="#b3b3b3"/>
<path d="M602.33,509.07s-1.91,42.06,2.49,74.8q.58,4.3.79,8.62l1.47,30.1s9.35-7.66,21.27,2.55L634.3,592s10.07-64.23,7.16-87l-2.9-2.34-15.22,10.51L612.12,512l-7.78-4.28Z" fill="#ccc"/>
<path d="M630.76,629.89c-.23,2-.83,4.61-2.41,4.61a13.28,13.28,0,0,0-13.62-7.66s-6.42,0-11.47,7.81a.52.52,0,0,1-.89,0c-1-1.68-2.9-5.93.45-8.63,0,0,11.18-13.6,26.58.26A4.22,4.22,0,0,1,630.76,629.89Z" fill="#999"/>
<path d="M626.65,664.28a26.69,26.69,0,0,1-14.47,7.66c-5.1.85-15.32-13.61-15.32-13.61-4.61-9.24,1.77-16.34,4.88-19.07a4.53,4.53,0,0,0,1.52-3.42v-1.19c5-7.81,11.47-7.81,11.47-7.81a13.28,13.28,0,0,1,13.62,7.66h0a4,4,0,0,0,1,3l3.53,4a12.31,12.31,0,0,1,3.15,6.74C637.09,657.52,626.65,664.28,626.65,664.28Z" fill="#ccc"/>
<path d="M655.62,400.38s-41.74,23.11-56.2,35.87C586.25,447.87,499.75,518,484.34,530.5a.2.2,0,0,0,.23.32l125.06-76.7s20.42-12.77,23.82-16.17l31-27Z" fill="#e6e6e6"/>
<path d="M669.19,374.13c5.39,3.25,11.5,5.53,17.87,5.11-6.28,1.65-13.18-.86-17.87-5.11Z" opacity="0.2"/>
<path d="M472.64,245.16l72.66,10.27a3.59,3.59,0,0,1,3.09,3.56c0,19.8-3.38,128.56-68.78,182.93a2.44,2.44,0,0,1-3.52-.45c-1-1.36-2.26-3.9-3.64-8.62,0,0-24-99.33-3-185.55A2.87,2.87,0,0,1,472.64,245.16Z" fill="#b3b3b3"/>
<path d="M486.25,272.88l-2.55,34.89s-13.62-2.56-17.87-5.11l2.55,6-5.2,3.4s13.71,6,19.67,6c0,0-6,60.41-6,65.51l5.11-4.25,4.25,5.36,6-64.92s21.27,1.7,31.48,1.7l-5.11-5.1,5.11-4.26s-23.93-.68-30.26-2.47l3-35.82-5.95,5.11Z" fill="#fff"/>
<polygon points="573.47 222.25 573.47 246.34 549.31 246.34 552.62 249.91 549.31 255.76 572.19 255.76 572.19 307.48 577.29 303.51 582.19 307.48 582.19 257.02 610.32 257.02 607.08 251.78 610.32 247.17 583.25 247.17 583.25 222.25 578.61 227.07 573.47 222.25" fill="#fff"/>
<path d="M619.92,197.87s-22.16,36.9-71.53,65.74l-.27,6.33s50.43-28.75,76.39-70.34Z" fill="#ffc400" data-primary="true"/>
<path d="M619.92,197.87s-22.16,36.9-71.53,65.74l-.27,6.33s50.43-28.75,76.39-70.34Z" opacity="0.2"/>
<path d="M563.68,193.5s-3.93-.05-4.49,3.44a4.91,4.91,0,0,0,1.56,4.32c3.76,3.58,14.69,13.21,21.65,11.16l28.93-12.71s4.25-1.42,3.06-7.49a4.61,4.61,0,0,0-5.51-3.6l-.1,0S595.16,191.2,579,204.81C579,204.81,574.74,199.21,563.68,193.5Z" fill="#b3b3b3"/>
<path d="M606.65,182.26l-31.91,12.27-1.27.5-1.28-1L558.91,183.7a2,2,0,0,1-.8-1.54c-.16-4.14-.22-9.28-.19-14.79,0-1.67,0-3.38,0-5.1,0-2.54.06-5.11.12-7.66,0-1.72.06-3.42.11-5.11.26-12,.66-22.74.79-25.87a2.71,2.71,0,0,1,.69-1.74,23.17,23.17,0,0,1,12.53-6.8,24.19,24.19,0,0,1,2.55-.43c4.93-.59,11.11-.11,18.72,2.51l17,6S606.22,162.27,606.65,182.26Z" fill="#ccc"/>
<path d="M621.87,129.52c-2.18,10.54-4.74,41.16-5.32,48.28a2.17,2.17,0,0,1-1.55,1.92l-8.35,2.54c-.43-20,3.83-59.13,3.83-59.13,3.74,1.6,7.49,2.87,9.75,3.59A2.42,2.42,0,0,1,621.87,129.52Z" fill="#b3b3b3"/>
<path d="M598.57,149.5v5.11h-40.5c0-1.72.06-3.42.11-5.11Z" fill="#2f2e41" stroke="#e6e6e6" stroke-miterlimit="10" data-secondary="true"/>
<rect x="575.59" y="162.27" width="2.55" height="5.11" fill="#2f2e41" data-secondary="true"/>
<rect x="563.68" y="162.27" width="2.55" height="5.11" fill="#2f2e41" data-secondary="true"/>
<path d="M559.43,162.27v5.1h-1.51c0-1.67,0-3.38,0-5.1Z" fill="#2f2e41" data-secondary="true"/>
<rect x="560.28" y="170.78" width="2.55" height="5.11" fill="#2f2e41" data-secondary="true"/>
<rect x="592.61" y="162.27" width="2.55" height="5.11" fill="#2f2e41" data-secondary="true"/>
<rect x="579.85" y="170.78" width="2.55" height="5.11" fill="#2f2e41" data-secondary="true"/>
<rect x="588.36" y="170.78" width="2.55" height="5.11" fill="#2f2e41" data-secondary="true"/>
<rect x="584.1" y="180.14" width="2.55" height="5.11" fill="#2f2e41" data-secondary="true"/>
<path d="M574.74,114.66v79.87l-1.27.5-1.28-1V115.09A24.19,24.19,0,0,1,574.74,114.66Z" fill="#e6e6e6"/>
<rect x="660.61" y="379.38" width="5.68" height="51.97" rx="2.84" transform="translate(-105.87 517.76) rotate(-39.74)" fill="#b3b3b3"/>
<path d="M538.15,503.47s-1.21,3.63,2,4.77a4.66,4.66,0,0,0,3.51-.26l20-9.62s4.26-1.7,3.4-5.95Z" fill="#999"/>
<path d="M566.77,481.87H579.4a2.17,2.17,0,0,1,2.17,2.17v8.11a2.17,2.17,0,0,1-2.17,2.17H567.08v-1.91Z" fill="#999"/>
<path d="M619.38,517.52l21.17-11.93a5.89,5.89,0,0,0,3.08-5.09,2.41,2.41,0,0,0-1.35-2.49,2.46,2.46,0,0,0-2.16.32L619,512l-17.87-8.51a2,2,0,0,0-1.42,3.22,6.18,6.18,0,0,0,2.63,2.38Z" fill="#999"/>
<rect x="596" y="304.66" width="42.76" height="6.46" rx="2.46" transform="translate(-64.3 201.73) rotate(-17.65)" fill="#b3b3b3"/>
<path d="M432.53,652.63c-15.17,4.37-39.87,6.55-39.87,6.55-14.68.7-17.3-4.34-17.77-6.17a5.07,5.07,0,0,0-.83-1.83c-2.29-3.08-5.11-.57-6.65,1.31h0a14.28,14.28,0,0,0-1.13,1.57c-4.12,8.75-19.14,9.1-30.36,8a111.21,111.21,0,0,1-13-2c-7.23-2.11-12.85-2.4-17.11-1.91a22.6,22.6,0,0,0-8,2.38,34.9,34.9,0,0,1-5.67,2.42,28.22,28.22,0,0,1-7.23,1.34,47.26,47.26,0,0,1-22.68-4.83,32.36,32.36,0,0,1-5.68-3.66c-8.88-6.92-16.38-2-16.38-2-27.5,9.91-26.53-5.32-26.53-5.32,2.12-24.35,31-127.11,31-127.11,7.66-33.19,17.87-91.9,17.87-91.9l4.14-34.08,136.58,63.28S419,534.1,424.14,571.54L435.52,648A4.2,4.2,0,0,1,432.53,652.63Z" fill="#ffc400" data-primary="true"/>
<path d="M432.53,652.63c-15.17,4.37-39.87,6.55-39.87,6.55-14.68.7-17.3-4.34-17.77-6.17a5.07,5.07,0,0,0-.83-1.83c-2.29-3.08-5.11-.57-6.65,1.31h0a14.28,14.28,0,0,0-1.13,1.57c-4.12,8.75-19.14,9.1-30.36,8a111.21,111.21,0,0,1-13-2c-7.23-2.11-12.85-2.4-17.11-1.91a22.6,22.6,0,0,0-8,2.38,34.9,34.9,0,0,1-5.67,2.42,28.22,28.22,0,0,1-7.23,1.34,47.26,47.26,0,0,1-22.68-4.83,32.36,32.36,0,0,1-5.68-3.66c-8.88-6.92-16.38-2-16.38-2-27.5,9.91-26.53-5.32-26.53-5.32,2.12-24.35,31-127.11,31-127.11,7.66-33.19,17.87-91.9,17.87-91.9l4.14-34.08,136.58,63.28S419,534.1,424.14,571.54L435.52,648A4.2,4.2,0,0,1,432.53,652.63Z" fill="#fff" opacity="0.4"/>
<path d="M369.54,489l3.86-7.12,8.19,13.92s10.52-16.57,24.83-21.48l-3.23-15.69L373,457Z" fill="#fff" opacity="0.4"/>
<path d="M379.89,388.06,373,457.32l-6.24,57.57a162.49,162.49,0,0,1-4.29,28c-3.15,12-7.05,17.27-9.79,19.53a5,5,0,0,1-7-.64c-3.94-4.53-6.17-14.68-7.41-25.93v0c-.25-2.18-.45-4.4-.62-6.64A365.5,365.5,0,0,1,337,491c-7,.79-13.4,5.34-19.15,11.89l0,.05c-19.05,21.72-30.67,65.18-30.67,65.18-2.59-48.79,0-135.67,0-135.67L313,312h58.45l4.21,4.56Z" fill="#ffc400" data-primary="true"/>
<path d="M369,494.31a133.53,133.53,0,0,0,19,26.76s15.19,16.94,18.44,33.7l10.06,49.1,6.72,51-5.8,1.08S407.12,593.66,402,579.2c0,0-6-18.84-13.11-29.57a29.25,29.25,0,0,0-2.43-3.14c-4.21-4.82-19.35-22.52-19.74-28.46Z" fill="#fff" opacity="0.4"/>
<path d="M366.73,518c3.7,41.73,7.23,88.6,9.82,130.42-3.7-41.73-7.23-88.61-9.82-130.42Z" fill="#fff" opacity="0.4"/>
<path d="M367.41,652.49h0a14.28,14.28,0,0,0-1.13,1.57c-4.12,8.75-19.14,9.1-30.36,8l2.28-126.19c1.24,11.25,3.47,21.4,7.41,25.93a5,5,0,0,0,7,.64c2.74-2.26,6.64-7.49,9.79-19.53Z" fill="#fff" opacity="0.4"/>
<path d="M337,491c-13.14,10.53-29.4,53.3-29.4,53.3-8.51,21.27-5.11,45.1-5.11,45.1l3.31,68.71a22.6,22.6,0,0,0-8,2.38,34.9,34.9,0,0,1-5.67,2.42l-4.93-94.79c5.08-20.42,16.77-43.77,16.77-43.77C320.42,491.22,336.55,491,337,491Z" fill="#fff" opacity="0.4"/>
<path d="M267.58,435.4c-2.32,18.3-3.32,36.74-3.85,55.17s-.15,36.89,1.1,55.28c1.8,36.69,1.91,74.36-8.37,109.92,9.63-35.68,9.55-73.22,7.53-109.87-1.16-18.43-1.3-36.9-.82-55.35a496.21,496.21,0,0,1,4.41-55.15Z" fill="#fff" opacity="0.4"/>
<rect x="335.65" y="215.87" width="6.81" height="8.51" fill="#ffc400" data-primary="true"/>
<rect x="335.65" y="215.87" width="6.81" height="8.51" opacity="0.2"/>
<path d="M371.43,311.72,336.5,318l-38.78-.72c11.55,57.73,26,83.25,26,83.25,6.18,10.68,11.25,24.32,14,32.36a69.71,69.71,0,0,1,3.77,20.26c.71,24.12-11.79,31.62-11.79,31.62-3.4-23-34-30.63-34-30.63-1.71-25.53-24.68-34-24.68-34,.85-17.87-11.06-40.84-11.06-40.84,1.7-24.68-3.1-57-3.1-57-6.5-4.23,0-22.56,0-22.56s8.95-31.92,9-31.92.34-3,1.47-9.14l1.14-7s1.27-21.7,17.55-29.79L368.16,233s15.14,17.75,21.94,39a110.19,110.19,0,0,0,7.76,19,22.24,22.24,0,0,0,4.55,5.79c4.2,3.82,12.9,12.91,9,19.47a31.38,31.38,0,0,0-1.72,2.77,16.6,16.6,0,0,0-1.9,9.86c.21,2.11-.25,5.26-3.8,8.14a6.12,6.12,0,0,0-2.11,5.83,39.15,39.15,0,0,0,1.88,6.58l10.15,20.3a66.47,66.47,0,0,0,4.41,7.8c.94,1.36,2.15,4.84,1.6,13.59,0,0-1.7,26.38-.85,40.84,0,0,0,5.11-5.1,11.07l-9.36,13.61S391,476.24,382.44,486.45a244.56,244.56,0,0,1-1.7-47.65s1.5-40.38,5.89-63.66c.83-4.39,1.42-8.81,1.82-13.26,1.09-12,2.56-33.5.8-48.16Z" fill="#ffc400" data-primary="true"/>
<path d="M371.43,311.72,336.5,318l-38.78-.72c11.55,57.73,26,83.25,26,83.25,6.18,10.68,11.25,24.32,14,32.36a69.71,69.71,0,0,1,3.77,20.26c.71,24.12-11.79,31.62-11.79,31.62-3.4-23-34-30.63-34-30.63-1.71-25.53-24.68-34-24.68-34,.85-17.87-11.06-40.84-11.06-40.84,1.7-24.68-3.1-57-3.1-57-6.5-4.23,0-22.56,0-22.56s8.95-31.92,9-31.92.34-3,1.47-9.14l1.14-7s1.27-21.7,17.55-29.79L368.16,233s15.14,17.75,21.94,39a110.19,110.19,0,0,0,7.76,19,22.24,22.24,0,0,0,4.55,5.79c4.2,3.82,12.9,12.91,9,19.47a31.38,31.38,0,0,0-1.72,2.77,16.6,16.6,0,0,0-1.9,9.86c.21,2.11-.25,5.26-3.8,8.14a6.12,6.12,0,0,0-2.11,5.83,39.15,39.15,0,0,0,1.88,6.58l10.15,20.3a66.47,66.47,0,0,0,4.41,7.8c.94,1.36,2.15,4.84,1.6,13.59,0,0-1.7,26.38-.85,40.84,0,0,0,5.11-5.1,11.07l-9.36,13.61S391,476.24,382.44,486.45a244.56,244.56,0,0,1-1.7-47.65s1.5-40.38,5.89-63.66c.83-4.39,1.42-8.81,1.82-13.26,1.09-12,2.56-33.5.8-48.16Z" fill="#fff" opacity="0.4"/>
<path d="M303.48,227.36l-7.24-7.85s-.95-1.69,1.79-3.46a54.09,54.09,0,0,1,16.56-6.62s1.34,9.26-2.17,13.16Z" fill="#ffc400" data-primary="true"/>
<path d="M303.48,227.36l-7.24-7.85s-.95-1.69,1.79-3.46a54.09,54.09,0,0,1,16.56-6.62s1.34,9.26-2.17,13.16Z" opacity="0.2"/>
<path d="M316.93,201.86l-2.55,5.35c-15.3,4.09-28.4,14.61-28.4,14.61-15.64,8.51-17.55,29.79-17.55,29.79l-2.61,16.17-8.45,30.63s-1.71-16.17-3.41-24.68-12.76-13.61-12.76-13.61c-9-4.5,1.82-38,4.52-46a1.66,1.66,0,0,0-1.08-2.13c-8.35-2.58-6.84-6.35-6.84-6.35,0-.42,0-.84.09-1.27,1.19-14.14,8.31-29.59,8.31-29.59,18.62-52.13,28.71-56.6,28.71-56.6l30.85,47.15Z" fill="#ffc400" data-primary="true"/>
<ellipse cx="337.35" cy="182.69" rx="20.42" ry="34.89" fill="#f9b499"/>
<path d="M314.8,184.39s3.57,3.22,5.15-3.17a9,9,0,0,1,5.36-6.36l.71-.24a8.84,8.84,0,0,1,3.12-.34c2.5.14,8.21,0,8.21-4.54l-17-7.78S316.93,175,314.8,184.39Z" fill="#2f2e41" data-secondary="true"/>
<path d="M312.57,196.61s5,21,0,25.67l-8.41,4.65,34,40.85,7.66-15.32,6.8-27.23-15.31-3.41-1.47-4.35s-12.64-1.24-17.5-21.84C318.38,195.63,316.72,197.76,312.57,196.61Z" fill="#f9b499"/>
<path d="M337.35,221.82s-20.42,0-19-26.19c0,0,2.42,17.49,17.5,21.84Z" fill="#f7a48b"/>
<path d="M390.1,272s-7.3-21.88-21.94-39l1.52-5.23s1.21-.95-1.52-3.88a27.86,27.86,0,0,0-7.45-5.62,27.48,27.48,0,0,0-10.25-8.85s3.67-4.93,5.78-13.8a58.72,58.72,0,0,0-.76-29l25.26-23.94s2.38,29.06,3.16,43.61c.1,2,.18,3.7.22,5a2.71,2.71,0,0,1-1.26,2.37l-2,1.29a0,0,0,0,0,0,0,1.33,1.33,0,0,0-.5,1.64c1.65,3.83,7.22,18.08,9.53,39.51A179.91,179.91,0,0,1,390.1,272Z" fill="#ffc400" data-primary="true"/>
<path d="M390.1,272s-7.3-21.88-21.94-39l1.52-5.23s1.21-.95-1.52-3.88a27.86,27.86,0,0,0-7.45-5.62,27.48,27.48,0,0,0-10.25-8.85s3.67-4.93,5.78-13.8h.07a48,48,0,0,0,6.58-15.14L361.17,198s13.12-8.05,22.73-11.69c.1,2,.18,3.7.22,5a2.71,2.71,0,0,1-1.26,2.37l-2,1.29a0,0,0,0,0,0,0c-.83.35-27.5,12-27,12.19a241.48,241.48,0,0,1,36,29A179.91,179.91,0,0,1,390.1,272Z" opacity="0.2"/>
<path d="M353.93,134.63s3-3,3-10.65c0,0-.71-17.87,14.53-16.59,0,0,12.65.37,13.54,15.14a25.81,25.81,0,0,1-.33,5.62c-1.09,6.91-5.38,26.61-19.56,37.14a.27.27,0,0,1-.43-.24,41.16,41.16,0,0,0,.08-5.63L356,139.74Z" fill="#ffc400" data-primary="true"/>
<path d="M353.93,134.63s3-3,3-10.65c0,0-.71-17.87,14.53-16.59,0,0,12.65.37,13.54,15.14a25.81,25.81,0,0,1-.33,5.62c-1.09,6.91-5.38,26.61-19.56,37.14a.27.27,0,0,1-.43-.24,41.16,41.16,0,0,0,.08-5.63L356,139.74Z" fill="#fff" opacity="0.5"/>
<path d="M292.94,154.68s-12.6-12-18.56-21.34c0,0-6.8-10.21,3.41-17.87a13.28,13.28,0,0,1,18.61,1.68c2.74,3.09,8.54,9.59,11.12,12L305,133,293.1,149.5Z" fill="#ffc400" data-primary="true"/>
<path d="M292.94,154.68s-12.6-12-18.56-21.34c0,0-6.8-10.21,3.41-17.87a13.28,13.28,0,0,1,18.61,1.68c2.74,3.09,8.54,9.59,11.12,12L305,133,293.1,149.5Z" fill="#fff" opacity="0.5"/>
<path d="M268.43,236.29s-28.08,15.32-27.23,23.83c-9-4.5,1.82-38,4.52-46a1.66,1.66,0,0,0-1.08-2.13c-8.35-2.58-6.84-6.35-6.84-6.35,0-.42,0-.84.09-1.27,1.39,1,10.18,7.12,28.84,14.89C266.73,219.28,286.3,225.23,268.43,236.29Z" opacity="0.2"/>
<path d="M278.63,139.19l-1.32,90s12.41-14.49,37.07-22l-2.13-11.33-14-31.06-5.27-10.14S282.88,145,278.63,139.19Z" opacity="0.2"/>
<path d="M389.25,313.72c-1.42-11-9.36-9.36-9.36-9.36l-10.16,2c-4.22.72-3.16,4.15-1.78,6.62a35.57,35.57,0,0,1,4.18,11.34c1.28,7.44,2.07,19.95-.75,38.74,0,0-5.95,40.85-2.55,72.33,0,0,4.26,30.63,13.61,51.05a420.77,420.77,0,0,1-.47-69.68l2.71-28.93,1.63-10.94S392.66,340.1,389.25,313.72Z" fill="#ffc400" data-primary="true"/>
<path d="M340,441c1.86,8.45-2.95-24.3-4.73-32.82a87.49,87.49,0,0,0-2.61-9.68c-6-18.38-9.74-47.3-9.74-47.3-4.25-28.08-3.4-44.24-3.4-44.24l-16.17,2.55c-8.51,1.7-5.59,7.79-5.59,7.79s6.28,33.83,14,53.86l4.61,12.81s4,9.77,7.38,16.58C323.73,400.51,336.5,425.19,340,441Z" fill="#ffc400" data-primary="true"/>
<path d="M358.05,315.85a.58.58,0,0,1,0,.9L344.16,329s-2.56,3.4,3.4,3.4c0,0,.85,3.41,6.81,2.55,0,0,2.55,2.56,6.8.86,0,0,3.41,2.55,7.66-1.71l4-4.22A35.34,35.34,0,0,0,368,313s-.75-.85-1.21-3.89c0,0-9.82,1.22-11.52,4.62Z" fill="#f7a48b"/>
<path d="M319.42,309.1s6-2.18,11.12-1.33l.43,15.08a22.55,22.55,0,0,1-11,2.23S319.36,313,319.42,309.1Z" fill="#ffc400" data-primary="true"/>
<path d="M319.42,309.1s6-2.18,11.12-1.33l.43,15.08a22.55,22.55,0,0,1-11,2.23S319.36,313,319.42,309.1Z" fill="#fff" opacity="0.4"/>
<path d="M330.54,307.77s20.42-1.71,24.68,6l2.83,2.13s.77-.05-.61,1.46L344.16,329a6.48,6.48,0,0,0-.55,1.88s-8.81-4-12.64-8.07Z" fill="#f9b499"/>
<path d="M340.25,442.35c2.05-16.88-2.05-53.75-2.05-53.75-4.26-35.74-7.23-65.75-7.23-65.75-3.83,2.33-11,2.23-11,2.23a382.82,382.82,0,0,0,9.75,63.07c.4,1.62.88,3.23,1.4,4.81,1.94,5.94,7.21,23.44,8.3,41.11Z" fill="#2f2e41" data-secondary="true"/>
<path d="M358.24,336.43a4.8,4.8,0,0,0,2.93-.58s3.41,2.55,7.66-1.71l4-4.22s1.93,13.58-1.48,33.15c0,0-3.5,31-3.45,41,0,0-1.93,25.44,3.31,44.95L373,457s-5.85-2.89-10.11-51.39c0,0-5-42.43-4.61-55.25Z" fill="#2f2e41" data-secondary="true"/>
<path d="M345.37,332.22c2.27,42.44,4.94,97.48,6.77,140,1.81,27.09,4.19,57,5.15,84-.42-9.34-1.12-18.66-1.79-28-1-14-3-42-4.07-55.93-2.06-42.59-4.43-97.58-6.06-140.09Z" opacity="0.2"/>
<path d="M348.41,512.28,337.58,529.2A365.5,365.5,0,0,1,337,491c-7,.79-13.4,5.34-19.15,11.89.72-1.27,13.83-23.73,19.15-18.31L349.26,497S354.37,501.22,348.41,512.28Z" opacity="0.2"/>
<path d="M266.61,395.36l-3.2,26.34a22.75,22.75,0,0,0,11.32,12.84,14.9,14.9,0,0,1,6.54,6.17,23.11,23.11,0,0,1,2.47,9.15l2.23,35,1.15-52.36s-6.78-9-16.14-12.38C271,420.08,271.59,407.23,266.61,395.36Z" fill="#fff" opacity="0.4"/>
<path d="M279.49,347.76c-1.87,11.71-8.77,22.39-17.75,30-.6.51-1.21,1-1.82,1.5,9.05-8.6,16.42-19.29,19.57-31.48Z" fill="#fff" opacity="0.4"/>
<path d="M283.74,365.63a159.87,159.87,0,0,1-3.6,27.89A110.63,110.63,0,0,1,271,420.08c7.32-17.25,10.71-35.9,12.76-54.45Z" fill="#fff" opacity="0.4"/>
<path d="M291.4,386.05c5.52,22.13,7.44,45.43,4.26,68.07l.32-4.27c.11-1.07.23-3.2.25-4.27a248.87,248.87,0,0,0-4.83-59.53Z" fill="#fff" opacity="0.4"/>
<path d="M306.72,397.11c9.24,21.65,25.85,64.87,23,87.64.69-7.59-.65-15.17-2.18-22.58s-3.57-14.75-5.8-22c-4.39-14.55-9.56-28.86-15-43.05Z" fill="#fff" opacity="0.4"/>
<path d="M283.74,341.79c-2-8.8-2-19,3.1-26.76a20.21,20.21,0,0,1,2.52-3c-6.59,8.33-6.65,19.68-5.62,29.77Z" fill="#fff" opacity="0.4"/>
<path d="M272.68,314.57c2.1-4.17,6.81-6.57,11.33-6.94.66,0,1.31,0,2,0-.63.17-1.27.26-1.89.43a21.33,21.33,0,0,0-11.4,6.53Z" fill="#fff" opacity="0.4"/>
<path d="M294,257.56c1.39,15.21,1.2,35.47-5.56,49.36l1.09-2.94c4.67-14.94,4.65-30.89,4.47-46.42Z" fill="#fff" opacity="0.4"/>
<path d="M340.38,286.41S324.9,303,306,303.25c0,0-18.24,2.09-21.53,5.85l13.23,8.16s-3.77-6.09,5.59-7.79l16.17-2.55-.06,2.18s6.87-2.18,11.12-1.33c0,0,21.27-1.71,24.68,6,0,0,2.62-4.13,11.52-4.62,0,0-.18-2.8,3.93-2.92v-8.81S357,303.35,340.38,286.41Z" fill="#fff" opacity="0.4"/>
<path d="M370.67,248.51c1.77,16.18,2.58,32.73,0,48.86l.26-3.05c1.05-15.21.34-30.58-.26-45.81Z" fill="#fff" opacity="0.4"/>
<path d="M383.86,272.94c-1.26,11.48-4.2,23.3-11,32.81.69-1.29,1.45-2.51,2-3.84,4.41-9.14,6.86-19.08,9-29Z" fill="#fff" opacity="0.4"/>
<path d="M392.39,292.1c-2.73,4.59-6,9.23-10.51,12.18,3.77-3.85,6.81-8.25,10.51-12.18Z" fill="#fff" opacity="0.4"/>
<path d="M386.65,306.92c7.59,3,13.23,9.68,16.84,16.81q.72,1.57,1.38,3.18c-4.45-7.91-10.17-15.5-18.22-20Z" fill="#fff" opacity="0.4"/>
<path d="M389.82,319.26c6.6,19.32,8.88,39.76,14.54,59.32,2,6.4,3.83,13.17,8,18.53a20.17,20.17,0,0,1-2.95-4.15,77.82,77.82,0,0,1-5.71-14.19,185.74,185.74,0,0,1-5-19.78c-2.74-13.29-5.28-26.65-8.95-39.73Z" fill="#fff" opacity="0.4"/>
<ellipse cx="314.8" cy="190.77" rx="5.53" ry="6.38" fill="#f9b499"/>
<path d="M355.48,166.64l5.31-3.86s0,9.26-3,14.37C357.77,177.15,356.17,168.89,355.48,166.64Z" fill="#2f2e41" data-secondary="true"/>
<path d="M305,133l5.93-9s4.26-9.36,11.91-4.26a6.08,6.08,0,0,0,3.9,1.51,8.86,8.86,0,0,0,5.23-1.34c1.91-1.18,6.25-2.88,11.29,1.54,0,0,10,8.55,12.67,18.31,0,0-11.21,22.67-36.06,5.94C319.91,145.68,316.5,144,305,133Z" fill="#ffc400" data-primary="true"/>
<path d="M293.1,149.5s-2.55,48.5,10.21,50.21c0,0,6,4.25,11.49-15.32L319.91,167A110.39,110.39,0,0,1,293.1,149.5Z" fill="#ffc400" data-primary="true"/>
<path d="M355.48,166.64c-8.74,6.21-21.84,4.6-29.83,2.75a41.15,41.15,0,0,1-12-4.87C290.75,150.66,280.34,135,280.34,135s-7.66-9.36-1.7-15.32l1.93-1.44a9.25,9.25,0,0,1,7.09-1.83,9.88,9.88,0,0,1,6.29,4.12s21.28,28.93,44.25,30.64a21,21,0,0,0,17-10.21s2.62-3.68,4.57-11.45a57.7,57.7,0,0,0,1.42-9c.27-3.1,1.85-9.36,10.17-9.36,0,0,10.21,0,9.36,11.07a41.49,41.49,0,0,1-1.42,12.64,51.23,51.23,0,0,1-19.84,28.84Z" fill="#ffc400" data-primary="true"/>
<path d="M355.48,166.64c-8.74,6.21-21.84,4.6-29.83,2.75a41.15,41.15,0,0,1-12-4.87C290.75,150.66,280.34,135,280.34,135s-7.66-9.36-1.7-15.32l1.93-1.44a9.25,9.25,0,0,1,7.09-1.83,9.88,9.88,0,0,1,6.29,4.12s21.28,28.93,44.25,30.64a21,21,0,0,0,17-10.21s2.62-3.68,4.57-11.45a57.7,57.7,0,0,0,1.42-9c.27-3.1,1.85-9.36,10.17-9.36,0,0,10.21,0,9.36,11.07a41.49,41.49,0,0,1-1.42,12.64,51.23,51.23,0,0,1-19.84,28.84Z" fill="#fff" opacity="0.4"/>
<path d="M314.6,209.43s-19.8,5.59-17.24,9.85l6.8,7.65,34,40.85,7.66-15.32,6.8-27.23,8-6.95s11.52,6.1,9.4,9.93c0,0-8.09,31.06-30.21,54,0,0-2.55,1.68-8.93-3.41,0,0-34.46-30.62-41.27-45.09,0,0-10.21-16.17,3.19-20.7a73.4,73.4,0,0,1,21.5-5.83Z" fill="#ffc400" data-primary="true"/>
<path d="M350.11,266.07c-1.47-.49.43-2.87.19-4.1-.64-3.32-3.41-5.57-6.63-6.6a13.56,13.56,0,0,1-4.06-2.19,9.13,9.13,0,0,1-3.61-5.92c-.58-4.3,2.07-7.83,4.15-9.88a11.47,11.47,0,0,0,3.4-9.88A24.07,24.07,0,0,0,339,217.45s5.82,0,11.43-8c0,0,17.87,8.36,10.76,22.69a9.29,9.29,0,0,1-1.88,2.48c-1.72,1.64-4.77,5.37-1.57,8.76,0,0,12.76,9.1-2.55,21C355.22,264.37,352.66,266.92,350.11,266.07Z" fill="#2f2e41" data-secondary="true"/>
</svg>