 <!DOCTYPE svg PUBLIC "-//W3C//DTD SVG 1.1//EN" "http://www.w3.org/Graphics/SVG/1.1/DTD/svg11.dtd">
<svg id="b46763eb-9926-45a9-9d65-35b74facd470" data-name="Layer 1" xmlns="http://www.w3.org/2000/svg" xmlns:xlink="http://www.w3.org/1999/xlink" width="865.76" height="682.89" viewBox="0 0 865.76 682.89">
<defs>
<clipPath id="f0497e04-5396-437f-a1f7-9d17c905328d">
<path id="af864215-55c7-48d3-8a93-3eda121173ca" data-name="SVGID" d="M405.11,512.71c-2.19,0-15.9,0-24.19-2.2s-47.37-13.12-69.85-21.35-48.69-17.06-48.69-17.06A79.47,79.47,0,0,1,253,458.93c-2.48-4-9-17.2-15.77-31.21-21.88,5.73-32.88,16.13-38.31,24.2A529.34,529.34,0,0,0,236,499c7.68,8.77,26.88,11,43.9,13.17s88.9,7.13,88.9,7.13a90.51,90.51,0,0,0,19.76,8.78c8.77,2.19,13.71,2.74,19.74.54s18.67-3.29,22.5-4.38,6.05-3.3,4.4-4.39S407.39,512.71,405.11,512.71Z" fill="#f9b499"/>
</clipPath>
<clipPath id="a3bf928e-3677-4a56-a739-c841ab90a620">
<path id="ee99d767-0883-429b-a94f-592cca0bd0bc" data-name="SVGID" d="M599,477.85c.52,1.57-1.05,23.69-2.12,62.14-.81,29.5-7.8,81.93-11,104.71H697.91c.81-23.11,1.82-76-4.68-97.87-8.43-28.43-17.9-34.28-21.05-46.86s-7.9-82.17-15.81-108.5-31.59-42.15-35.28-47.93S605.8,304,605.8,304l-20,16.85s14.74,23.7,16.86,31.08S588.42,376.71,580,394.63s-10.08,32.12-2.64,43.17S598.44,476.26,599,477.85Z" fill="none"/>
</clipPath>
<style xmlns="http://www.w3.org/1999/xhtml">*, ::after, ::before { box-sizing: border-box; }
img, svg { vertical-align: middle; }
</style>
<style xmlns="http://www.w3.org/1999/xhtml">*, body, html { -webkit-font-smoothing: antialiased; }
img, svg { max-width: 100%; }
</style>
</defs>
<g id="e3c012ad-bd9a-4171-bb40-74139f080a43" data-name="freepik--background-simple--inject-26">
<path d="M799.44,641.58H72.17S43.26,651,27.31,575.93,93.45,480.72,113,415.87s-65.64-51.2-58.48-139.94,124.17-90.45,180.93-78.49,49.66-29,115.29-97.29,164.92-61.42,214.57-8.53S599,199.13,661.07,199.13s118.85,12,156.09,126.29S786.33,492,787.56,543.55A555.58,555.58,0,0,0,799.44,641.58Z" fill="#e6e7e8"/>
</g>
<rect x="345.29" y="92.26" width="137.11" height="197.6" fill="#ccc"/>
<rect x="345.63" y="92.26" width="137.11" height="197.6" fill="#fff" opacity="0.4" style="isolation:isolate"/>
<rect x="364.89" y="120.49" width="97.93" height="141.15" fill="#fff"/>
<rect x="140.97" y="210.56" width="95.13" height="137.11" fill="#ccc"/>
<rect x="140.97" y="210.56" width="95.13" height="137.11" fill="#fff" opacity="0.4" style="isolation:isolate"/>
<rect x="154.56" y="230.14" width="67.95" height="97.93" fill="#fff"/>
<rect x="602.72" y="210.56" width="95.13" height="137.11" fill="#ccc"/>
<rect x="602.72" y="210.05" width="95.13" height="137.11" fill="#fff" opacity="0.4" style="isolation:isolate"/>
<rect x="616.31" y="230.14" width="67.95" height="97.93" fill="#fff"/>
<path d="M396,227.35s-25.81-8.22-45.55,12.1-9.34,60.92-9.34,75.17S323,419.47,323,419.47s-8.79,32.93,15.36,53.8,68.8,19.06,87.86-21.11-1.15-97.43-1.15-127,4.39-49.38-2.2-70.78A41.62,41.62,0,0,0,396,227.35Z" fill="#2f2e41" data-secondary="true"/>
<g opacity="0.2">
<path d="M346.64,282.86a.46.46,0,0,1-.21-.86c16.52-8.59,41.29-39.24,41.53-39.55a.46.46,0,0,1,.64-.06.44.44,0,0,1,.07.63c-.25.31-25.13,31.11-41.82,39.78A.42.42,0,0,1,346.64,282.86Z"/>
</g>
<g opacity="0.2">
<path d="M342.61,280.17a.46.46,0,0,1-.36-.17.45.45,0,0,1,.08-.64c11.21-8.58,23.93-39.17,24.05-39.48a.46.46,0,0,1,.6-.24.44.44,0,0,1,.24.59c-.52,1.27-12.94,31.12-24.34,39.85A.46.46,0,0,1,342.61,280.17Z"/>
</g>
<path d="M438.4,346.38A20.53,20.53,0,0,1,447,360.9c1.48,10.28-9.49,34.06-11.69,45.81a416.65,416.65,0,0,0-4,43.05c0,3.67,12.5,58,14.7,71.26s-1.11,44.36-2.95,46.64-7-8.45-7.34-15.43-13.95-60.61-19.09-76.76S413,438,413,438s7-48.85,7-67.58.57-32.75.57-32.75Z" fill="#ffc400" data-primary="true"/>
<path d="M443,567.58c1.84-2.2,5.14-33.44,2.95-46.64s-14.66-67.59-14.66-71.18a418.2,418.2,0,0,1,4-43,93.22,93.22,0,0,1,3.11-11.13,31.84,31.84,0,0,1-13.86,3.15c-2.56,0-5.06,2.36-7.46,6.37-2,17.06-4.21,32.82-4.21,32.82s-1.45,21.3,3.69,37.47,18.73,69.79,19.09,76.76S441.21,569.77,443,567.58Z" fill="#f9b499"/>
<path d="M369.3,644.7c.81-9,2.5-27.42,3.59-34.52,1.47-9.54,4.4-29,4.4-29l7.44,63.53h51c1.84-13.85,6.46-51,7.34-77.12,1.11-32.69-23.51-100.28-24.19-105.42s.72-20.16.72-24.6S432.4,405,433.48,390.64s4.42-18.73,4.42-18.73l1.84-24.2c-1.11-.36-17.59-13.33-34.12-18.15a61.66,61.66,0,0,0-30.85-.72s-23.88,10.64-36,15.79-22.08,15.06-22.39,27.9,23.49,67.59,25.71,71.64-4.78,18.35-7.72,25.71-15.06,33.8-23.13,63.18c-6.91,25.08-2.3,92.49-.78,111.64Z" fill="#ffc400" data-primary="true"/>
<path d="M393.82,381.36c5.51-1.47,12.5-24.19,13.23-36,.4-6.59.81-11.51.63-15.14l-2-.67a61.66,61.66,0,0,0-30.85-.72l-9.72,4.31a30.47,30.47,0,0,0,1.63,15.51C370.69,359.69,388.32,382.84,393.82,381.36Z" opacity="0.2"/>
<path d="M369.22,317.57s1.86,21.63,3,26.94,12.26,26.21,18.57,25.06,10.32-28.47,10.32-31.13.75-24.2.75-24.2S388.54,325.15,369.22,317.57Z" fill="#f9b499"/>
<path d="M332.85,348.3s-15,.74-23.49,17.64,1.45,28.23,4.76,34.88,12.5,33.8,15.42,41.88,8.83,17.63,19.12,30.85,31.94,41.5,31.94,41.5l5.88,10.28s9.92,11.4,11,11.76,7.73,8.81,10.29,3.67,0-23.49,0-23.49,4,8.06,5.52,6.23-.38-5.87-1.83-10.29-15.05-12.84-18-13.22-6.61-4-11-12.85-7.72-24.19-14.7-33.43S351.62,431,351.62,431s-10.28-36.74-10.28-38.21a40.73,40.73,0,0,0-2.93-20.17" fill="#ffc400" data-primary="true"/>
<path d="M393.46,500c-2.94-.37-6.61-4-11-12.85s-7.72-24.19-14.7-33.43S351.62,431,351.62,431s-7-24.88-9.42-34.5c-13.51-1.9-22.42.82-28.08,4.29h0c3.3,6.62,12.5,33.8,15.42,41.88s8.83,17.63,19.12,30.85S380.6,515,380.6,515l5.88,10.28s9.92,11.4,11,11.76,7.73,8.81,10.29,3.67,0-23.49,0-23.49,4,8.06,5.52,6.23-.38-5.87-1.83-10.29S396.42,500.37,393.46,500Z" fill="#f9b499"/>
<path d="M369.3,644.7c.81-9,2.5-27.42,3.59-34.52,1.47-9.54,4.4-29,4.4-29l7.44,63.53h51c1.84-13.85,6.46-51,7.34-77.12.47-13.61-3.55-33.29-8.43-52-43.09,9.44-91.94,2.61-117.31-2.31-2.14,6.31-4.23,12.94-6.05,19.78-6.91,25.08-2.3,92.49-.78,111.64Z" fill="#2f2e41" data-secondary="true"/>
<path d="M262.05,509.1s16.13,35.81,20,43,8.32,27.77,8.87,40,0,14.71-2.77,14.43-3.89-15.54-3.89-18v-3.88s-1.39,14.42-3.61,17.2-5.28,5.83-5.54,4.18.54-4.46,1.65-8.61a33.05,33.05,0,0,0,.57-9.72s-1.68,7.76-5.55,10.54-8.06,3.9-6.67,1.68,5-4.72,5.83-7.5a35,35,0,0,0,.84-7.77s-5.28,8.59-7.5,10-2.22-1.66-.83-3.05,4.44-10.83,4.44-10.83-.85-.56-4.72-9.15-6.05-23.61-7.22-29.44-3.32-13.59-3.32-13.59l-21.38-35.81s-1.67-8.61,6.37-10.08S262.05,509.1,262.05,509.1Z" fill="#f9b499"/>
<path d="M158.21,644.7H260.4c.5-19.11,3.85-144,4.86-149.55,1.11-6,6.59-63.11,7.14-85.6s-9.34-54.88-9.34-57.08-1.63-15.91-17-27.44-27.44-11.52-30.73-9.88c0,0-12.09,8.24-31.29,28.55s-25.79,36.76-25.79,68a328.76,328.76,0,0,0,4.94,56.46s-6.05,97.67-6.05,99.87S158,631.66,158.21,644.7Z" fill="#ffc400" data-primary="true"/>
<path d="M204.59,423.91a61.22,61.22,0,0,0,6.49-.36c23.51-2.56,44-26.6,57.45-47.37-.63-3-1.25-5.89-1.88-8.53-12.72,20.75-33.29,47.39-56.22,49.89-31.91,3.47-46.37-21.68-50.4-29.8-.57,3.1-1,6.37-1.28,9.82C165.89,408.36,180.31,423.91,204.59,423.91Z" fill="#fff"/>
<path d="M196.92,375.4l5.85,1.55a126.33,126.33,0,0,1,34.28-57.63,48.78,48.78,0,0,0-6.05-2.68A131.14,131.14,0,0,0,196.92,375.4Z" fill="#fff"/>
<path d="M202.67,404.33c1.37-.7,29.94-15.59,60.11-54.44a32.52,32.52,0,0,0-2.22-7.08c-30.37,40.33-60.31,55.94-60.63,56.1Z" fill="#fff"/>
<path d="M172.85,382.45l6.05-.9c0-.17-1.76-14.46,12.32-45.15-2.26,2.24-4.62,4.66-7.12,7.3-1.61,1.69-3.1,3.37-4.54,5C171.32,371.12,172.77,381.85,172.85,382.45Z" fill="#fff"/>
<path d="M222.73,472.08c-34.76,4.52-52.42-2.78-60.33-8.39.47,2.95.79,4.58.79,4.58s0,1.07-.18,3c7.74,4.26,20.16,8.29,39.18,8.29a165.45,165.45,0,0,0,21.33-1.47,113.94,113.94,0,0,0,45.19-16c.24-2.54.46-5.14.68-7.78A107.8,107.8,0,0,1,222.73,472.08Z" fill="#fff"/>
<path d="M220.94,509.3A152.05,152.05,0,0,0,266,489.66c.24-2.17.52-4.84.84-7.88a149.11,149.11,0,0,1-47.34,21.64c-23.41,5.74-46.14-.67-58.13-5.29-.13,2-.27,4.2-.39,6.37a113.78,113.78,0,0,0,38.88,7.28A88.71,88.71,0,0,0,220.94,509.3Z" fill="#fff"/>
<path d="M158.27,548.82c-.14,2.18-.26,4.24-.36,6a209.55,209.55,0,0,0,47.58,5.79,155.25,155.25,0,0,0,57.67-10.44c0-2.22.14-4.44.2-6.6C222.88,560.66,179.56,554,158.27,548.82Z" fill="#fff"/>
<path d="M225.36,528.86a124,124,0,0,1-65.76-2c-.12,2.11-.26,4.21-.38,6.29a121.61,121.61,0,0,0,36.29,5.3,139.56,139.56,0,0,0,31.28-3.59,155.24,155.24,0,0,0,37.34-13.91c0-2.5.18-4.88.26-7.1A148.67,148.67,0,0,1,225.36,528.86Z" fill="#fff"/>
<path d="M208.42,443.71c-24.8,1.25-40.83-7.9-49.73-15.44.15,2.78.33,5.48.53,8.06a75,75,0,0,0,44.62,13.55c1.59,0,3.23,0,4.88-.12,24.34-1.23,45.87-11.88,63.27-30.75.21-3.53.35-6.75.41-9.44v-.4C258.18,426.81,237.55,442.22,208.42,443.71Z" fill="#fff"/>
<path d="M249.61,328a44,44,0,0,0-3.55-2.94c-15.36-11.52-27.44-11.52-30.73-9.88a168.12,168.12,0,0,0-18.14,15.36,16.63,16.63,0,0,0,3.3,14.28c10.43,13.16,44.36,63.65,53.24,52.69s6.57-41.16-3.31-67.51C250.18,329.28,249.85,328.62,249.61,328Z" fill="#231f20" opacity="0.2"/>
<path d="M217.59,385.94s29.64,63.11,35.67,73a79.47,79.47,0,0,0,9.34,13.17s26.21,8.81,48.69,17.06,61.56,19.07,69.77,21.35,21.94,2.2,24.2,2.2,28.53,6,30.24,7.14-.54,3.29-4.39,4.39-16.46,2.18-22.51,4.38-11,1.65-19.74-.54a90.72,90.72,0,0,1-19.76-8.78s-72-5-89-7-36.29-4.4-43.9-13.17a513.86,513.86,0,0,1-42.14-54.56C183.74,428.93,164.84,407,172,387.15" fill="#ffc400" data-primary="true"/>
<path d="M405.11,512.71c-2.19,0-15.9,0-24.19-2.2s-47.37-13.12-69.85-21.35-48.69-17.06-48.69-17.06A79.47,79.47,0,0,1,253,458.93c-2.48-4-9-17.2-15.77-31.21-21.88,5.73-32.88,16.13-38.31,24.2A529.34,529.34,0,0,0,236,499c7.68,8.77,26.88,11,43.9,13.17s88.9,7.13,88.9,7.13a90.51,90.51,0,0,0,19.76,8.78c8.77,2.19,13.71,2.74,19.74.54s18.67-3.29,22.5-4.38,6.05-3.3,4.4-4.39S407.39,512.71,405.11,512.71Z" fill="#fff"/>
<path id="aaab1da7-a179-4128-b1c5-08963c11931b" data-name="SVGID" d="M405.11,512.71c-2.19,0-15.9,0-24.19-2.2s-47.37-13.12-69.85-21.35-48.69-17.06-48.69-17.06A79.47,79.47,0,0,1,253,458.93c-2.48-4-9-17.2-15.77-31.21-21.88,5.73-32.88,16.13-38.31,24.2A529.34,529.34,0,0,0,236,499c7.68,8.77,26.88,11,43.9,13.17s88.9,7.13,88.9,7.13a90.51,90.51,0,0,0,19.76,8.78c8.77,2.19,13.71,2.74,19.74.54s18.67-3.29,22.5-4.38,6.05-3.3,4.4-4.39S407.39,512.71,405.11,512.71Z" fill="#f9b499"/>
<g clip-path="url(#f0497e04-5396-437f-a1f7-9d17c905328d)">
<path d="M405.11,512.71c-2.19,0-15.9,0-24.19-2.2s-47.37-13.12-69.85-21.35-48.69-17.06-48.69-17.06A79.47,79.47,0,0,1,253,458.93c-2.48-4-9-17.2-15.77-31.21-21.88,5.73-32.88,16.13-38.31,24.2A529.34,529.34,0,0,0,236,499c7.68,8.77,26.88,11,43.9,13.17s88.9,7.13,88.9,7.13a90.51,90.51,0,0,0,19.76,8.78c8.77,2.19,13.71,2.74,19.74.54s18.67-3.29,22.5-4.38,6.05-3.3,4.4-4.39S407.39,512.71,405.11,512.71Z" fill="#f9b499" opacity="0.15" style="isolation:isolate"/>
</g>
<path d="M260.4,644.7c.24-9.51,1.21-45.47,2.24-79.77a171.24,171.24,0,0,1-45.31,10.89c-32.26,3.77-50.85-4-60.05-10.08,0,1.35-.12,2.2-.12,2.38,0,2,.87,63.52,1.05,76.62Z" fill="#2f2e41" data-secondary="true"/>
<line x1="178.58" y1="580.94" x2="178.47" y2="588.89" fill="none" stroke="#263238" stroke-linecap="round" stroke-linejoin="round"/>
<path d="M279.27,326.26c-6.87,3.25-21.37-.89-21.37-.89s-6.82,11.57-8.89,15.43,2,27-.91,37.38-9.78-.89-22.85-17.2-19-29.68-18.38-34.14,11-14.84,12.76-18.69,2.66-5.65,1.77-9.19-11.27-18.15-11.27-36.8,14.82-36.5,34.42-38a71.84,71.84,0,0,1,24.06,2.5,41.73,41.73,0,0,1,22.42,15l.11.15a33.23,33.23,0,0,1,6.5,24.5C295.53,283.17,289.66,321.34,279.27,326.26Z" fill="#f9b499"/>
<path d="M272.16,240.2c7.13-3.51,12.19-3.41,15.5-2.42a42.17,42.17,0,0,0-19.05-11.11,71.84,71.84,0,0,0-24.06-2.5c-19.6,1.49-34.42,19.3-34.42,38s10.39,33.23,11.27,36.8a9,9,0,0,1,.23,3.61c14.11,2.8,18.73-4.26,18.73-4.26a12.1,12.1,0,0,1-9.2-2.66c-4.17-3.57-4.17-17.22.89-23.45s10.08,2.38,10.08,7.42,2.38,9.19,4.76,8.61,1.77-6.23,2.66-9.8,11.27-8.89,13.65-11.86-1.19-5.64-5-10.08S257.6,247.32,272.16,240.2Z" fill="#2f2e41" data-secondary="true"/>
<path d="M222.53,396.59l-3.79-8.07C194.36,389,180.09,398,172,406.67a57.15,57.15,0,0,0,3.27,8.37C181.64,406.79,195.25,396,222.53,396.59Z" fill="#fff"/>
<path d="M231,414.31l-3.79-7.94c-22.64,1.21-37.87,9.56-47.2,17.22,1.41,2.34,2.92,4.64,4.43,6.87C193,423.2,208,414.74,231,414.31Z" fill="#fff"/>
<path d="M493.45,468.19c2.54,7.6,4.24,34.64,4.24,49,0,12-7.67,99.08-10.21,127.49H602.05c1.37-27.72,5.47-111,5.47-121.58,0-12.69-4.24-64.65,1.27-82.82s11.81-65.89,2-80.65-46.37-23.23-57.44-27-27.47-5.91-35.49-2c0,0-22,12.26-35.49,24.93s-19.42,32.12-16.9,47.74S490.91,460.59,493.45,468.19Z" fill="#ffc400" data-primary="true"/>
<path d="M493.45,468.19c2.54,7.6,4.24,34.64,4.24,49,0,12-7.67,99.08-10.21,127.49H602.05c1.37-27.72,5.47-111,5.47-121.58,0-12.69-4.24-64.65,1.27-82.82s11.81-65.89,2-80.65-46.37-23.23-57.44-27-27.47-5.91-35.49-2c0,0-22,12.26-35.49,24.93s-19.42,32.12-16.9,47.74S490.91,460.59,493.45,468.19Z" fill="#231f20" opacity="0.2"/>
<path d="M593,346.34a155.54,155.54,0,0,0-15.14-6A333.22,333.22,0,0,1,492.1,464.94c.63,1.39,1.09,2.52,1.35,3.29a85.46,85.46,0,0,1,2.46,15.08A345.24,345.24,0,0,0,593,346.34Z" fill="#fff"/>
<path d="M615.34,401.37a130.26,130.26,0,0,0-.56-30.25c-23.53,39.74-64.23,100.36-117.13,147.8-.15,4.18-.67,12.32-1.46,22.65C547.69,498.94,588.42,443.83,615.34,401.37Z" fill="#fff"/>
<path d="M602.05,644.7c1-19.74,3.33-67.63,4.6-97.41-55.75,10.67-94.95.53-110.52-4.94-2.38,31.4-6.83,82-8.65,102.35Z" fill="#2f2e41" data-secondary="true"/>
<ellipse cx="532.31" cy="354.08" rx="27.7" ry="26.8" fill="#231f20" opacity="0.2"/>
<path d="M507,320.33s4.64,16.47,4.64,26.21,10.56,32.12,27.89,22S548,335.15,545,328a118.53,118.53,0,0,1-5.06-16.9s-5.51,10.09-16.13,10.57A62.1,62.1,0,0,1,507,320.33Z" fill="#f9b499"/>
<path d="M610.42,423l-58.64,42.89s-93.9,33.55-99.42,35.27-31.86,6.37-37.39,9.33-16.13,22.53-17.84,27.2a3.45,3.45,0,0,0,4.68,4.68c1.27-1.29,13.59-13.19,17.42-13.61s7.22-.85,7.22-.85-9.78,8.51-10.21,11.05,1.72,1.7,4.26.43,12.32-4.68,16.13-11.48,7.22-10.62,13.59-13.16,89.53-20.57,104.41-23.11,68.41-34.7,71-35.13S618.51,423,610.42,423Z" fill="#f9b499"/>
<path d="M697.49,435.43h-.11a.45.45,0,0,1-.33-.55,44.59,44.59,0,0,0,1.27-8.11.46.46,0,0,1,.91.06,45.49,45.49,0,0,1-1.3,8.27A.45.45,0,0,1,697.49,435.43Z" fill="#3f3d56"/>
<path d="M571.46,258.78a.45.45,0,0,1-.44-.37,18.54,18.54,0,0,1-.35-3.57.46.46,0,0,1,.45-.46h0a.47.47,0,0,1,.46.46,17.65,17.65,0,0,0,.33,3.4.45.45,0,0,1-.36.53Z" fill="#3f3d56"/>
<path d="M489.48,349.79s-15.2,10.34-27.36,20.16-10.35,29.2-10.35,33.45-.6,23.72-.6,23.72L442,446.57s-14,12.79-17,15.83-20.67,37.69-20.67,37.69l-4.26,6.05,23.17,3a199.9,199.9,0,0,1,28.57-26.21c15.15-11,27.89-41.22,28.52-45a214.26,214.26,0,0,0,5.42-31" fill="#ffc400" data-primary="true"/>
<path d="M489.48,349.79s-15.2,10.34-27.36,20.16-10.35,29.2-10.35,33.45-.6,23.72-.6,23.72L442,446.57s-14,12.79-17,15.83-20.67,37.69-20.67,37.69l-4.26,6.05,23.17,3a199.9,199.9,0,0,1,28.57-26.21c15.15-11,27.89-41.22,28.52-45a214.26,214.26,0,0,0,5.42-31" fill="#231f20" opacity="0.2"/>
<path d="M481.74,431.47c-10.23-16.77-24.2-14.6-30.41-12.5-.14,4.44-.24,8.07-.24,8.07L442,446.49s-14,12.79-17,15.83S404.27,500,404.27,500L400,506.06l23.25,3.06a199.9,199.9,0,0,1,28.57-26.21c15.15-11,27.89-41.22,28.52-45C480.57,436.73,481.13,434.48,481.74,431.47Z" fill="#f9b499"/>
<path d="M413,492.1s-15.1,12.34-18.15,16.26-5.42,26.91-4.21,28.59,9.66,6.17,13.28,2.24,16.92-22.89,16.92-22.89-10.08,13.63-2.88,12.86,11.33-11.85,15.57-16.89,3.62-5.61,0-12.89l-3.61-7.28" fill="#f9b499"/>
<path d="M648.21,282.52c4.13,3.17-.73,16.4,12.9,27,31.38,24.4,49.52,40.91,52.87,77.17,3.67,39.52-17.56,54.88-11,68.05s15.37,28.53,1.45,40.33-36.57,22-55.59-5.85-29.27-89.26-37.32-123-21.21-49.74-19-64.38c2.13-14.12,13.65-24.2,27.42-26.64A35.34,35.34,0,0,1,648.21,282.52Z" fill="#2f2e41" data-secondary="true"/>
<path d="M599,477.85c.52,1.57-1.05,23.69-2.12,62.14-.81,29.5-7.8,81.93-11,104.71H697.91c.81-23.11,1.82-76-4.68-97.87-8.43-28.43-17.9-34.28-21.05-46.86s-7.9-82.17-15.81-108.5-31.59-42.15-35.28-47.93S605.8,304,605.8,304l-20,16.85s14.74,23.7,16.86,31.08S588.42,376.71,580,394.63s-10.08,32.12-2.64,43.17S598.44,476.26,599,477.85Z" fill="#ffc400" data-primary="true"/>
<g clip-path="url(#a3bf928e-3677-4a56-a739-c841ab90a620)">
<path d="M616.11,586.07l18.37,4,18.37-4,18.36,4,18.37-4,8.51,1.85-.18-4.15-8.33-1.84-18.37,4-18.36-4-18.37,4-18.37-4-18.35,4-4.42-1c-.14,1.35-.28,2.68-.44,4l4.86,1.07Z" fill="#fff"/>
<path d="M636.39,448.07l-18.37,4-18.37-4-14.35,3.14,2,3.69,12.36-2.7,18.37,4,18.37-4,18.37,4,11.62-2.56c-.17-1.33-.31-2.68-.47-4l-11.15,2.46Z" fill="#fff"/>
<path d="M616.11,616.78l18.37,4,18.37-4,18.36,4,18.37-4,8.9,2v-4l-8.92-2-18.37,4-18.37-4-18.36,4-18.37-4-18.35,4-8-1.76c-.16,1.37-.34,2.7-.5,4l8.45,1.86Z" fill="#fff"/>
<path d="M698.31,629.94,689.58,628l-18.37,4-18.36-4-18.37,4-18.37-4-18.35,4-9.9-2.18c-.18,1.37-.37,2.72-.53,4l10.43,2.28,18.35-4,18.37,4,18.37-4,18.36,4,18.37-4,8.65,1.92C698.25,632.73,698.29,631.35,698.31,629.94Z" fill="#fff"/>
<path d="M574.63,408.69l6.65,1.45,18.37-4,18.37,4,18.37-4,18.37,4,5.51-1.21c-.25-1.35-.49-2.68-.73-4l-4.78,1-18.37-4-18.37,4-18.37-4-18.37,4-5.44-1.19C575.4,406.11,575,407.42,574.63,408.69Z" fill="#fff"/>
<path d="M636.39,417.34l-18.37,4-18.37-4-18.37,4-8.54-1.88a31.77,31.77,0,0,0,0,4.14l8.54,1.87,18.37-4,18.37,4,18.37-4,18.37,4,7.86-1.73c-.2-1.35-.38-2.68-.58-4l-7.28,1.59Z" fill="#fff"/>
<path d="M636.39,432.7l-18.37,4-18.37-4-18.37,4L576,435.58c.41.75.85,1.5,1.33,2.22s1.07,1.64,1.64,2.56l2.27.51,18.37-4,18.37,4,18.37-4,18.37,4,9.84-2.16c-.16-1.35-.34-2.68-.5-4l-9.34,2Z" fill="#fff"/>
<path d="M616.11,601.43l18.37,4,18.37-4,18.36,4,18.37-4,8.88,2v-4.14l-8.82-2-18.37,4-18.36-4-18.37,4-18.37-4-18.35,4L591.77,600l-.48,4,6.59,1.45Z" fill="#fff"/>
</g>
<path d="M592.25,390.54c11-6.05,24.93-32.26,31-37.1l4.15-3.33a46.81,46.81,0,0,1-6.33-6.57C617.4,337.75,605.8,304,605.8,304l-20,16.85s14.74,23.7,16.86,31.08c1.85,6.51-10.67,20.85-19.42,36.43C584.27,391.29,586.69,393.62,592.25,390.54Z" fill="#f9b499"/>
<ellipse cx="583.56" cy="300.42" rx="25.25" ry="37.75" transform="translate(-47.71 120.74) rotate(-11.35)" fill="#f9b499"/>
<path d="M579.73,235.56s-19.5.55-22.66,13.17,11.07,23.71,21.07,29,19,13.69,19,22.65.55,19.5,7.91,29,24.19,17.38,37.4,16.86-1-31.52,6.31-53.7-2-44.24-16.86-53.71S579.73,235.56,579.73,235.56Z" fill="#2f2e41" data-secondary="true"/>
<path d="M594.86,336.15a10,10,0,0,0,5.51-3.9s.22,6.88-3.44,7.62Z" fill="#f7a48b"/>
<path d="M627.52,377.17s-8.93,3.39-13.59,20.81,14.44,48,17.42,61.62S637.3,494,637.3,494s-66.72,54.44-76.48,62.89a200.86,200.86,0,0,0-14.88,14s-24.2,21.26-26.34,25.51-8.06,26.33-5.94,27.18,5.94-8.49,5.94-10.18,4.24-11,4.24-11-3.39,21.61-3.39,22.82,3.39,0,3.81-1.71,5.1-19.54,5.1-19.54-2.54,20-.84,22.18,4.67-12.74,4.67-12.74l3.39-11.9s-.85,20.81.87,21.66S543,602.74,543,602.74s7.65-15.3,10.61-20.4a34.54,34.54,0,0,0,3.83-8.92s39.52-21.67,64.16-33.57,45.47-34,48-37.81-3-57.36-7.22-80.31S649.2,371.12,627.52,377.17Z" fill="#f9b499"/>
<path d="M697.49,411.9a.44.44,0,0,1-.44-.35,59.14,59.14,0,0,0-31.36-40c-26.56-13.29-28.48-25-28.48-42.75,0-15.9-10.15-35.78-38.65-43.93-11.09-3.11-19.06-8.61-23.69-16.33a.45.45,0,0,1,.15-.62.46.46,0,0,1,.63.15c4.51,7.52,12.3,12.88,23.16,15.93,29,8.28,39.31,28.57,39.31,44.8,0,17.38,1.88,28.88,28,41.94a60,60,0,0,1,31.84,40.63.45.45,0,0,1-.34.54Z"/>
<path d="M713.62,398.45a.46.46,0,0,1-.44-.32C707.06,377,691,367.81,674,358.08c-3.39-1.94-6.89-3.95-10.35-6.07-21.86-13.39-23-36.72-22.4-57.52.67-22.3-32.34-39.08-32.68-39.25a.45.45,0,0,1,.41-.81c.34.17,33.87,17.21,33.18,40.08-.62,20.56.52,43.59,22,56.73,3.45,2.11,6.95,4.11,10.33,6.05,17.17,9.83,33.39,19.11,39.61,40.58a.46.46,0,0,1-.31.57Z"/>
<ellipse cx="599.16" cy="302.19" rx="6.17" ry="8.87" fill="#f9b499"/>
<path d="M540.42,313.46l-32.11,12,2.22,10.57s27.31,2,33.89-9.64Z" fill="#f7a48b"/>
<path d="M478.41,260.52s-2.92,7.28.73,13.11,8.65,13.81,8.65,13.81l-.73-32S479.86,249.62,478.41,260.52Z" fill="#2f2e41" data-secondary="true"/>
<path d="M487.79,280.16s-5.83,2.2-2.93,11.64,7.28,6.55,7.28,6.55Z" fill="#f9b499"/>
<path d="M482.46,263.73s5.08,26.21,8.07,39.28c2,8.92,10.15,17.27,17.78,22.48a37.36,37.36,0,0,0,9.68,5c8.45,2.54,19.44-6.75,22-12.24s3.79-17.74,3.79-17.74,9.3-3.81,10.08-13.53-1.69-12.66-6.75-13.93l-3.81-1.7s2.11-15.63-3.37-25.34-24.92,3-35.07,5.9S481.19,254,482.46,263.73Z" fill="#f9b499"/>
<path d="M530.63,252.32a167.65,167.65,0,0,1-35.06,11.93c-18.59,3.8-27-.42-26.21-9.71S494.28,225,516.24,225s29.58,10.08,30.85,20.7a182.53,182.53,0,0,1,0,27.47l-3.81,5.48s1-4.27-5.09-7.7S527.67,261.19,530.63,252.32Z" fill="#2f2e41" data-secondary="true"/>
<path d="M370.24,328.52l-1-10.95,32.22,8.1-.2,6.58S385.06,344.07,370.24,328.52Z" fill="#f7a48b"/>
<path d="M356.46,285.35s-3.29-1.48-3.29,5.12,7.32,11,7.32,11Z" fill="#f9b499"/>
<path d="M398.63,249.13s-11.74,16.54-22,23.15a167.17,167.17,0,0,1-16.51,9.54s5.14,21.31,7.34,28.23,8.79,19.13,22,19.86,19.12-13.25,21.7-19.86a28.54,28.54,0,0,0,2.32-10.81,15.42,15.42,0,0,0,7-10.65c.72-7-1.11-6.61-1.11-6.61s-2,2.28-6.4-1.15C409.38,278.19,397.46,259.05,398.63,249.13Z" fill="#f9b499"/>
<path d="M257.9,325.37l-3,5.15a31.23,31.23,0,0,1-13-17.77S246.91,322.32,257.9,325.37Z" fill="#f7a48b"/>
</svg>