 <!DOCTYPE svg PUBLIC "-//W3C//DTD SVG 1.1//EN" "http://www.w3.org/Graphics/SVG/1.1/DTD/svg11.dtd">
<svg id="ad7384f9-11ab-4259-8dde-3f2962e0e4ef" data-name="Layer 1" xmlns="http://www.w3.org/2000/svg" width="865.76" height="682.89" viewBox="0 0 865.76 682.89">
<defs>
<style xmlns="http://www.w3.org/1999/xhtml">*, ::after, ::before { box-sizing: border-box; }
img, svg { vertical-align: middle; }
</style>
<style xmlns="http://www.w3.org/1999/xhtml">*, body, html { -webkit-font-smoothing: antialiased; }
img, svg { max-width: 100%; }
</style>
</defs>
<path d="M792.76,387.4s-7.89,0-11.59-9.42c0,0,12.15-40.32,9.77-51.09l6.37,20.83,1.88-1.73s6.53,11.16,10.23,11.15C809.42,357.14,803.67,386.39,792.76,387.4Z" fill="#ffc400" data-primary="true"/>
<path d="M792.76,387.4s-7.89,0-11.59-9.42c0,0,12.15-40.32,9.77-51.09l6.37,20.83,1.88-1.73s6.53,11.16,10.23,11.15C809.42,357.14,803.67,386.39,792.76,387.4Z" opacity="0.2"/>
<path d="M797.83,238.76a13.63,13.63,0,0,0-4.38-1.86c-13.65-3.26-26.23,1.27-32.67,4.36a25.28,25.28,0,0,0-3.19,1.83,8.65,8.65,0,0,1-.46-2.77c0-7.25,9.15-13.14,20.42-13.14C788,227.18,796.64,232.24,797.83,238.76Z" fill="#2f2e41" data-secondary="true"/>
<path d="M797.83,238.76a13.63,13.63,0,0,0-4.38-1.86c-13.65-3.26-26.23,1.27-32.67,4.36a25.28,25.28,0,0,0-3.19,1.83,8.65,8.65,0,0,1-.46-2.77c0-7.25,9.15-13.14,20.42-13.14C788,227.18,796.64,232.24,797.83,238.76Z" opacity="0.21"/>
<path d="M788.23,526.6c.84,1,12.23,22.87,12.23,22.87s9.63,3.36,11.31-5.38l-7.17-23.5Z" fill="#f9b499"/>
<path d="M798.26,555.6l.85-6.83s10.08,5.4,12.66-4.68c0,0,13.25.43,19,5.24a5,5,0,0,1,.4,7.46,3.2,3.2,0,0,1-2.2,1H800.16A1.91,1.91,0,0,1,798.26,555.6Z" fill="#2f2e41" data-secondary="true"/>
<polygon points="690.39 530.97 684.67 551.48 697.79 551.48 709.71 532.65 690.39 530.97" fill="#f9b499"/>
<path d="M716.52,369.91s-6.81,24.64-7.48,72.44a118.85,118.85,0,0,1-4.16,30,61.85,61.85,0,0,1-4.19,11.41c-.71,1.38-1.4,2.76-2,4.19-3.26,7.81-12.52,31.23-12.34,44.91,0,0,85.41,6.16,120.38-9,0,0,0-60.86-23.54-101.88,0,0-8.4-20.51-2-44,0,0,12.27-39.38,9.77-51.09l-6.74-13.8L731.75,304l-15.23,48.79Z" fill="#ffc400" data-primary="true"/>
<path d="M400.55,523.24s8.1,15.21,17.17,15.45a5.17,5.17,0,0,0,5.17-4.88,32.18,32.18,0,0,0-2.84-16.29s.17-3.36,2.95-4.37c0,0,4.12-3,4.12-11.09,0,0,3.36-34.3,30.59-74,0,0,6.08-1.61,7.68-11.21a24.83,24.83,0,0,0-5.85-20.22c-7.39-8.55-20.44-24.67-24.69-36.49a61.19,61.19,0,0,0-16.48-31.94s-14.45-13.45-7.06-23.54c0,0,4.71-4.37,14.12,2,0,0,39.34,16.48,70.28-8.4a284.35,284.35,0,0,0,29.36-30.95c2.63-3.29,5.07-6.72,7.4-10.21,6.41-9.6,29.71-40.37,65.45-41.22,0,0,12.09,8.41,23,10.55a11.43,11.43,0,0,0,9.78-2.66c1.43-1.26,3.28-2.91,5.54-5,0,0,15.61,1.83,15.61-10.92,0,0,4.26-12.79-11-23.37a36.27,36.27,0,0,0-5.85-3.24c-5.47-2.45-20.72-10-25.6-20,0,0-19.63-35.69-45-24.93,0,0-16-14.63-24.55-11.6,0,0,9.42,18.49,6.56,26.73a26.5,26.5,0,0,0-5.88,13.11s-32.45,73.81-78.85,70.44c0,0-46.4-1.34-67.25-37.32,0,0-10.42-26.23-43-26.9A13.88,13.88,0,0,1,341,159.43s-2.13-19.93-23.62-13A39.25,39.25,0,0,0,305.33,153a82.17,82.17,0,0,1-72.56,14.19s-15.8-5-28.58-22.19c0,0-16.21-17.8-32.87,10.57-.59,1-1.13,2-1.67,3.06-1,1.85-5.13,8.14-16.57,9.57,0,0-57.16-2.69-71.62,42.7,0,0-20.51,26.23-20.51,57.84,0,0,2.92,34.41-15.69,65.11,0,0-9.86,4.49-9,21.75,0,0-1.57,8.29-3.81,12.1,0,0,19.95-11.21,19.27-32.5,0,0,14.16-28.1,23.17-71.09A11,11,0,0,1,77.56,259l.21-.23s1.79,17.93,5.38,46.63c0,0,6.72,33.4-17.26,63.66,0,0-11.66,17.93-28,32.05,0,0-1.13-.45-.9,9.87,0,0,1.79,37.65,7,60.07,0,0,.45,34.3-.9,46,0,0,.67,11.21,10.54,16.59,0,0-5.16,7.62-5.16,11.21,0,0,.22,10.08,3.14,11.88H98.39S80.46,539.83,76,534.45c0,0-12.1-14.8-13.22-38.33l.45-36.32s2.46-39,12.32-46.17c0,0,28.47-22.87,42.26-39.34,0,0-1.35,47.07-7.06,64.89,0,0-4,18.83,4.7,24.21a173,173,0,0,1,24.21,49.43s7.4,21.51,10.09,22.52c0,0,.93,1.17,5.14,1.56a5.64,5.64,0,0,1,5.24,5.52,6.25,6.25,0,0,1-1.64,4s-6.72,6.28,7.74,10.2h29.58s-3.36-12.89-21.51-18.61l-40.35-76s-5.38-7.73-2.69-20.84L140,407.57s6.05-27.23,24.54-40.35c0,0,33.29-21.51,40-53.79,0,0,23.65,9.3,95.82,9.75,0,0,14.8,53.8,5.38,85.74,0,0-15.8,7.06-2.69,36.31,0,0,12.11,32.62,6.39,78,0,0-2.69,9.75,4.71,13.78a29.35,29.35,0,0,1-11.43,8.07l-3,11.55s19.84,4.48,28.58,0l-2-19.62s4-1,1-15.46c0,0-14.12-41.7-7.73-70.95,0,0,6.05-28.92,14.79-41.36l34-56.82s23.2,7.4,34,18.83c0,0,18.5,17.15,29.59,24.21,0,0,7.74,8.07,5.05,17.15,0,0-2.69,9.41.67,14.12,0,0-6.05,8.07-21.52,59.85,0,0-7.4,9.41-6,20.51,0,0,1.68,3-5.38,2.69C404.59,509.79,395.85,510.46,400.55,523.24Z" fill="#2f2e41" data-secondary="true"/>
<path d="M724.35,306c-7.06,1-30.2,21.55-30.2,21.55A127.46,127.46,0,0,1,661.7,351c-43.45,24.2-55.82-24.47-55.82-24.47-10.45-45.65-2-106.87-2-106.87S602.7,193,635,182.89a3,3,0,0,0-1.78-5.8c-7,2.15-32.71,11.79-35.34,38.83,0,0-6.34,80.31,5.21,113,0,0,12.92,49.5,61.6,24.75,0,0,12.55-5.3,38.1-28.84,0,0,13.45-11.77,17.82-12.44a7.31,7.31,0,0,1,.58-2.87A7.63,7.63,0,0,1,724.35,306Z" fill="#ccc"/>
<path d="M777.14,408.92s47.41-33.29,9.75-88.43h3.47s17.49,18.71,13.9,50.77c0,0-1.79,19.05-26.22,41Z" fill="#ccc"/>
<path d="M777.14,317.91c-11-9.64-28.24-9.19-28.24-9.19-30.27.67-28.92,43.49-28.92,43.49-2.69,18.38-5.83,14.17-5.83,14.17S706.89,322,726,302.05a24.31,24.31,0,0,1,14.19-7.11C751,293.4,772.7,293.45,791.29,313a5.15,5.15,0,0,1,0,7.23C789.24,322.17,785.21,322.84,777.14,317.91Z" fill="#2f2e41" data-secondary="true"/>
<path d="M726.83,301.26s25.65-29.08,56.81-3.75c0,0,13.21,10.19,9,20.45,0,0,.94-3.19-3.37-7C789.23,311,757.22,281.69,726.83,301.26Z" fill="#2f2e41" data-secondary="true"/>
<path d="M750,294.34s8.74-7.81,11.65-19c0,0,5.58,14.19,16.58,18.3A84.88,84.88,0,0,0,779.62,304,57.55,57.55,0,0,0,750,294.34Z" fill="#f9b499"/>
<ellipse cx="779.75" cy="267.07" rx="24.77" ry="14.91" transform="translate(280.07 922.55) rotate(-71.59)" fill="#f9b499"/>
<path d="M737.46,427.75l16.81-15.47s-12.78-38.28-6.38-70.77c0,0,12.77-31.67-2-32.57,0,0-22.48-.31-25.67,36.52a81.45,81.45,0,0,1-2.3,13.16c-1.69,6.65-3,19.13,3.42,36.18C721.32,394.8,737.24,426.4,737.46,427.75Z" fill="#ffc400" data-primary="true"/>
<path d="M737.46,427.75l16.81-15.47s-12.78-38.28-6.38-70.77c0,0,12.77-31.67-2-32.57,0,0-22.48-.31-25.67,36.52a81.45,81.45,0,0,1-2.3,13.16c-1.69,6.65-3,19.13,3.42,36.18C721.32,394.8,737.24,426.4,737.46,427.75Z" opacity="0.2"/>
<path d="M806.73,333.15s16.36-1.33,2.69,24c0,0-4.94-.74-10.23-11.15C799.19,346,791.26,333.82,806.73,333.15Z" fill="#f9b499"/>
<path d="M741.48,424.05s2.35,5.64.42,13.85a4.36,4.36,0,0,0,1.68,4.63c1.27.83,3.21,1.1,6.13-.64a15.14,15.14,0,0,0,7.19-11c.53-4.13.22-10.18-2.63-18.57Z" fill="#f9b499"/>
<path d="M710.9,474.15s16.81-9.08,20.51-20.85c0,0-.7,12.36-12.73,26.48a109.18,109.18,0,0,0-14.61,21.72c-4.77,9.51-9.4,20.94-7.63,26.78,0,0,27.91,6,36.66,5.79,0,0-39.68.38-46.75-1.19,0,0-1.24-14.64,13.5-47.45,0,0,8.2-13.56,9-37.13,0,0,.88-56.53,7.7-78.39,0,0,0,10.09,2.41,17.49C718.93,387.4,716.62,464.4,710.9,474.15Z" fill="#fff" opacity="0.2"/>
<path d="M779.62,355.79c5.51-6.39,7.61-25.22,7.61-25.22l-33,33s12.2,1.94,18.78-2.9c0,0-.28,52.66-12.39,73.51l.12,2.57s9.63-10.31,11.65-9c0,0-3.37,11.22-14.72,30.94A74.71,74.71,0,0,1,750.56,469L711,517s43.68-27.9,62.65-49.91a5.8,5.8,0,0,1,3.52-2c2-.3,4.62.29,5.26,5a14.74,14.74,0,0,1-.78,6.84c-2.69,7.63-12.3,30.05-37,47.08,0,0,15.83-6.64,32.52-15.74a5.88,5.88,0,0,1,8.31,3,35,35,0,0,1,1.76,7.1s13.67,3.58,13.22-7.85c0,0-10.18-55.8-18.35-77a79.37,79.37,0,0,1-5.33-24,37.65,37.65,0,0,1,.37-9.27Z" fill="#fff" opacity="0.2"/>
<path d="M714.94,557.76H682a.86.86,0,0,1-.82-1.14l2.54-7.6s8.25,2.61,15,1.08c0,0,3.68-4.92,17.34,4.18a1.88,1.88,0,0,1,.84,1.58h0A1.9,1.9,0,0,1,714.94,557.76Z" fill="#2f2e41" data-secondary="true"/>
<path d="M82.93,303.61s7.63,27.75,49.53-10.34c0,0-48.95,75.2-79.89,93,0,0,29.1-31.82,30.69-58.42C83.26,327.88,84.23,314.22,82.93,303.61Z" opacity="0.2"/>
<path d="M80.79,376.64s-17.1,30.94-28.45,37.42a4.67,4.67,0,0,1-6.73-2.47c-1.26-3.5-2.26-9.1,1.56-13.77a7.21,7.21,0,0,1,8.07,1S67.68,391.77,80.79,376.64Z" opacity="0.2"/>
<path d="M115.42,356.13s44.05-49.43,61.2-86.08C176.62,270.05,181.73,315.1,115.42,356.13Z" opacity="0.2"/>
<path d="M190.07,318.13s-5,32.62-48.42,40h15.8S121.81,374,130.89,426.4c0,0,3-46.73,32.28-63.55,0,0,27.57-14.12,35.3-38Z" opacity="0.2"/>
<path d="M175.27,300.31C186.13,280.59,191.86,246,191.86,246c3.14,9.87-4.48,33.63-4.48,33.63-4.48,26.45,47.52,39.9,47.52,39.9-16.59,1.35-30.37-6.05-30.37-6.05A81,81,0,0,1,182,303.34s-36.76,53.12-60.08,68.93C121.92,372.27,163.79,324.1,175.27,300.31Z" opacity="0.2"/>
<path d="M166.53,538.37s13.12,8,14.12,18.27h15.13s-1.89-10.52-19.73-17.9c-.72-.3-1.42-.64-2.13-.94S171.44,537.24,166.53,538.37Z" opacity="0.2"/>
<path d="M127.19,461.71l26.57,63.61a13.49,13.49,0,0,0,7.17,7h5.6l-35-70.61Z" opacity="0.2"/>
<path d="M111.39,452.85s13.85-2.91,18-1.34a8,8,0,0,0-.48-1.41c-3.61-8.18-15.63-6.63-17.42,2.14Z" opacity="0.2"/>
<path d="M80.66,284.82s11.9,8.1,16.61-6.36c0,0,2.57-9,3.67-29.29a105.41,105.41,0,0,1,8.16-35.82c6.71-15.7,18.85-34.55,40.28-45.18,0,0-52.11-2.69-67.92,42.7,0,0-22.86,31.17-20.34,62.88,0,0,2.41,28.69-15.86,60.07,0,0-9.64,4.71-9,21.75,0,0-1.35,9.86-3.81,12.1,0,0,19.5-10.53,19.27-32.5,0,0,18.72-43.66,23.3-70.92a10.94,10.94,0,0,1,2.71-5.52h0Z" opacity="0.2"/>
<path d="M156.64,167.52s16.46,2,24.81,9.16c0,0,13.61,10.83,46.72,13,0,0-65.17-20.52-49.76-43.68,0,0-3.74,3.67-8.6,11.73a21,21,0,0,1-7.35,7.29A22.5,22.5,0,0,1,156.64,167.52Z" opacity="0.2"/>
<path d="M185.93,155.69s22.39,22,65.38,21c0,0,1.3-3.89-14.64-8.54,0,0-17-2.9-32.48-23.17,0,0-5.82-6.33-13.86-5.5a9,9,0,0,0-4.64,16Z" opacity="0.2"/>
<path d="M285.29,172.39s9.19-7.35,26.95-8.58c0,0,21.28-1.07,18.22-7,0,0-10.77-15.21-22.71-4.24a38.09,38.09,0,0,1-6.35,4.8C295,161.1,283.27,168.68,285.29,172.39Z" opacity="0.2"/>
<path d="M287,186.62s38.77-6.77,54.06-27.19c0,0,.65,8.68,10.42,11.43,0,0,9.22,0,15.36,2.5,0,0-13.47-.2-31.46,6.89-.75.3-1.49.62-2.22.95C329.26,182.94,312.16,189.71,287,186.62Z" opacity="0.2"/>
<path d="M393.11,195c18.53,33.11,56.24,42.17,72.06,41.06,4.92-.35,10.31-2.09,14.92-3.85,30.07-11.5,48-44.74,48-44.74,2.34,21.82-19,49.3-19,49.3-29.66,39.29-81.73,28.44-81.73,28.44C404.54,263,426,251.91,426,251.91c12.78-8.68-7.47-12.78-7.47-12.78-19-3.62-34-2.65-38.57-28.93s-28.69-31.1-28.69-31.1S376.46,165.2,393.11,195Z" opacity="0.2"/>
<path d="M535.33,182.43a65.17,65.17,0,0,1,1-9.22l4.24-8.57s-3.92,31.88,39.26,41.67c0,0,18.46,3.88,18.06,9.61,0,0-33.52.3-58.95,32.52,0,0,10.42-25.42,1.87-42.28A48.05,48.05,0,0,1,535.33,182.43Z" opacity="0.2"/>
<path d="M782.35,293.42s-5.77,2.09-12.72-5.76c0,0-6.44-6.74-8-12.34,0,0-4.53-4.09-5.38-12.33,0,0,.05-.1.16-.28.78-1.28,4.59-6.63,14.86-9.13,1.27-.31,1.56.09,1.29.83-.46,1.33-2.6,3.75-4,5.25a4.48,4.48,0,0,0-1.23,3.41c.31,4.5,2,15.24,11.39,21.95.45.32.88.65,1.31,1,1.24,1,5.12,3.14,9.44-5.06C789.48,281,792.1,291.07,782.35,293.42Z" fill="#2f2e41" data-secondary="true"/>
<ellipse cx="762.43" cy="269.07" rx="3.45" ry="6.25" fill="#f9b499"/>
<path d="M800.9,255.14a10.53,10.53,0,0,1-6.76,1.84A39.28,39.28,0,0,1,781.79,254a11.91,11.91,0,0,0-2.6-.76,10.34,10.34,0,0,0-3.19,0l-.21,0a8.7,8.7,0,0,0-2.66.86l-.53.28c.27-.74,0-1.14-1.29-.83-10.27,2.5-14.08,7.85-14.86,9.13-1.83-.72-10.6-4.73-4-14.21a21.64,21.64,0,0,1,5.68-5.57,25.88,25.88,0,0,1,3.19-1.84c6.43-3.08,19-7.62,32.67-4.36a13.75,13.75,0,0,1,4.38,1.87,12.91,12.91,0,0,1,5.53,7.36C804.74,249.09,804.52,252.59,800.9,255.14Z" fill="#2f2e41" data-secondary="true"/>
<path d="M764.82,249.16s26.76-8.15,38.79-4c0,0-.44-2.42-4.13-5.76C799.48,239.43,780.07,238.68,764.82,249.16Z" opacity="0.2"/>
<path d="M783.19,250.21s16.8-2.89,20.42,1.83a5.45,5.45,0,0,1-2.71,3.1S799,250.72,783.19,250.21Z" opacity="0.2"/>
<path d="M750,256.43a13.54,13.54,0,0,1,10.13-7.9s-7.35,7.83-7.36,12A12.48,12.48,0,0,1,750,256.43Z" opacity="0.2"/>
</svg>