 <!DOCTYPE svg PUBLIC "-//W3C//DTD SVG 1.1//EN" "http://www.w3.org/Graphics/SVG/1.1/DTD/svg11.dtd">
<svg id="b0e29519-26fc-41b9-8527-05bc9bec3edc" data-name="Layer 1" xmlns="http://www.w3.org/2000/svg" width="865.76" height="682.89" viewBox="0 0 865.76 682.89">
<defs>
<style xmlns="http://www.w3.org/1999/xhtml">*, ::after, ::before { box-sizing: border-box; }
img, svg { vertical-align: middle; }
</style>
<style xmlns="http://www.w3.org/1999/xhtml">*, body, html { -webkit-font-smoothing: antialiased; }
img, svg { max-width: 100%; }
</style>
</defs>
<rect x="294.93" y="62.86" width="25.11" height="60.59" rx="2.73" fill="#19283f" data-secondary="true"/>
<rect x="294.93" y="62.86" width="25.11" height="60.59" rx="2.73" opacity="0.22"/>
<path d="M664.33,356.38l.48,245a7.81,7.81,0,0,0,2.67,5.87l21.78,19a10.46,10.46,0,0,0,7.83,2.63c3.15-.31,6.3-2.1,5.25-8.37l1-263.2h5.36L708.19,624a11.14,11.14,0,0,1-7.08,9.4A14.61,14.61,0,0,1,686,630.46l-25.08-22.57S658,605.94,659,597.17l.82-242.85Z" fill="#ccc"/>
<path d="M183.4,356.38l.48,245a7.82,7.82,0,0,0,2.68,5.87l21.78,19a10.42,10.42,0,0,0,7.82,2.63c3.15-.31,6.3-2.1,5.26-8.37l1-263.2h5.37L227.27,624a11.16,11.16,0,0,1-7.09,9.4,14.59,14.59,0,0,1-15.11-2.91L180,607.89s-2.93-1.95-2-10.72l.82-242.85Z" fill="#ccc"/>
<path d="M397.44,578a84,84,0,0,1,6.3,25.84,11,11,0,0,0,4.41,8.46c2.91,2.07,7.33,2.91,13.34-2,0,0,4.51-7.14,7.89-7.52,0,0,1.4-8.64-3.73-14.4a22.91,22.91,0,0,1-4.88-9.29L417,565.25Z" fill="#f9b499"/>
<path d="M472.8,583.47l-3.39,15.6-1.69-.94a24.8,24.8,0,0,0-7.52,20.49l15.07,11a9.84,9.84,0,0,0,6,2c3.12-.1,6.79-1.81,6.9-9.22l.18-23.3S482.94,594,472.8,583.47Z" fill="#f9b499"/>
<path d="M332.42,442.72s-3.12,21.51,14.77,50.33a106.12,106.12,0,0,1,13.94,36.08c2.28,11.92,4.62,28.63,6.38,51.8a6.94,6.94,0,0,0,2.94,5.14c5.92,4.13,20,12.15,25.86-.15a14.59,14.59,0,0,1,12-9.4s10.14-1.88,10.14-18.79c0,0-11-23.79-14.75-44.13a31.73,31.73,0,0,0-6.26-14l-11.68-14.81s-14.79-1.5-22.68-9.39C363.11,475.42,333.54,456.63,332.42,442.72Z" fill="#19283f" data-secondary="true"/>
<path d="M332.42,442.72s-3.12,21.51,14.77,50.33a106.12,106.12,0,0,1,13.94,36.08c2.28,11.92,4.62,28.63,6.38,51.8a6.94,6.94,0,0,0,2.94,5.14c5.92,4.13,20,12.15,25.86-.15a14.59,14.59,0,0,1,12-9.4s10.14-1.88,10.14-18.79c0,0-11-23.79-14.75-44.13a31.73,31.73,0,0,0-6.26-14l-11.68-14.81s-14.79-1.5-22.68-9.39C363.11,475.42,333.54,456.63,332.42,442.72Z" opacity="0.22"/>
<path d="M482.88,497l-10.08,86.5s20.6,22.74,26.12,24.25c0,0,15.53,2,22.05-7,0,0-1.51-48.61,0-65.65,0,0,26.56-63.64,25.55-88.2Z" fill="#19283f" data-secondary="true"/>
<path d="M482.88,497l-10.08,86.5s20.6,22.74,26.12,24.25c0,0,15.53,2,22.05-7,0,0-1.51-48.61,0-65.65,0,0,26.56-63.64,25.55-88.2Z" opacity="0.22"/>
<path d="M162.7,348.76l25.12-21.53H706.27l20.07,21.22Q585.79,350,445.25,350.11,304,350.19,162.7,348.76Z" fill="#ccc"/>
<rect x="162.66" y="348.76" width="564.05" height="9.2" fill="#ccc"/>
<rect x="162.66" y="348.76" width="564.05" height="9.2" opacity="0.2"/>
<path d="M359.1,417.91s-31.57-4.13-26.31,27.82c0,0,2.26,9,23.68,25.55,0,0,16.91,15,29.32,13.53Z" fill="#19283f" data-secondary="true"/>
<path d="M423.75,586c3.64-3.43,8.26-3.7,11.69-3.25a7.7,7.7,0,0,1,6.69,6.94c.39,5.07-1.75,13.21-14.25,23a8.1,8.1,0,0,1-.16-7.66c1.4-3,2.21-6.3,1.41-9.49A21.94,21.94,0,0,0,423.75,586Z" fill="#ffc400" data-primary="true"/>
<path d="M407.09,611.37s-5.71,7.06,1.81,9.13c0,0,10.15,4.19,19-7.77a8.79,8.79,0,0,1,1.5-9.9s-3.59.65-7.12,6.22a8.81,8.81,0,0,1-4.52,3.55C415.27,613.56,411.6,614.19,407.09,611.37Z" fill="#ffc400" data-primary="true"/>
<path d="M461.71,625.38s-6.2-15.6,6-27.25c0,0-11.64-7.28-20.71,0a10,10,0,0,0-2.6,12.47C446.57,614.52,451.4,619.63,461.71,625.38Z" fill="#ffc400" data-primary="true"/>
<path d="M461.71,625.38l16.12,9.07a8.56,8.56,0,0,0,9.41-.67h0A8.57,8.57,0,0,0,487,620l-.08-.06-28-4.7Z" fill="#ffc400" data-primary="true"/>
<path d="M521,421.8s24-2.22,26.68,17.19a23.66,23.66,0,0,1-5.12,17.83,80.48,80.48,0,0,1-49.63,29.12Z" fill="#19283f" data-secondary="true"/>
<path d="M540.43,322.17l8.62-7.73a5.53,5.53,0,0,1,3.78-1.46H553a5.65,5.65,0,0,1,3.84,1.72C561,319,573.71,332.83,570,339.33l-20.86,19.88Z" fill="#ffc400" data-primary="true"/>
<path d="M540.43,322.17l8.62-7.73a5.53,5.53,0,0,1,3.78-1.46H553a5.65,5.65,0,0,1,3.84,1.72C561,319,573.71,332.83,570,339.33l-20.86,19.88Z" opacity="0.22"/>
<path d="M556.84,314.7S588.2,330.58,570,339.33c0,0,1.15-1.53,0-5.67a16,16,0,0,0-2.65-5.76Z" fill="#f9b499"/>
<rect x="311.87" y="152.19" width="260.59" height="142.32" rx="7.21" fill="#19283f" data-secondary="true"/>
<rect x="317.51" y="157.7" width="249.06" height="131.8" rx="4.57" fill="#fff"/>
<path d="M555.92,273.34H336.05V173.23a1.51,1.51,0,0,0-3,0V276.34H555.92a1.5,1.5,0,0,0,0-3Z" fill="#19283f" data-secondary="true"/>
<rect x="344.77" y="183.39" width="15.81" height="85.88" fill="#19283f" data-secondary="true"/>
<rect x="368.69" y="200.91" width="15.81" height="68.36" fill="#19283f" data-secondary="true"/>
<rect x="393.05" y="212.44" width="15.81" height="55.97" fill="#19283f" data-secondary="true"/>
<rect x="417.4" y="224.83" width="15.81" height="43.58" fill="#19283f" data-secondary="true"/>
<rect x="464.4" y="220.13" width="15.81" height="48.28" fill="#19283f" data-secondary="true"/>
<rect x="488.76" y="203.04" width="15.81" height="65.37" fill="#19283f" data-secondary="true"/>
<rect x="513.11" y="188.09" width="15.81" height="80.33" fill="#19283f" data-secondary="true"/>
<rect x="537.46" y="166.72" width="15.81" height="101.69" fill="#19283f" data-secondary="true"/>
<rect x="139.06" y="167" width="110.05" height="121.79" rx="9.62" fill="#19283f" data-secondary="true"/>
<rect x="142.73" y="170.48" width="102.72" height="114.82" rx="6.27" fill="#fff"/>
<path d="M307.78,304.62h-2.26V294.35h-32.7v35.8a9.47,9.47,0,0,0,9.43,9.37h13.9a9.37,9.37,0,0,0,9.12-7.24h2.51a13.83,13.83,0,1,0,0-27.66Zm-1.22,23.66h-1V308.37h1a10,10,0,0,1,0,19.91Z" fill="#19283f" data-secondary="true"/>
<rect x="683.08" y="315.96" width="6.08" height="9.11" fill="#19283f" data-secondary="true"/>
<polygon points="621.94 211.9 642.83 208.87 661.81 241.53 664.09 323.94 669.03 323.94 669.03 241.15 643.2 202.79 621.94 211.9" fill="#19283f" data-secondary="true"/>
<path d="M583.44,219.55c0-2,.38-4.12,1.75-5.48,0,0,19-12.92,40.25-3,0,0,2.28,22.4-8,38,0,0-15.06,2.46-31.05-20.55A16,16,0,0,1,583.44,219.55Z" fill="#19283f" data-secondary="true"/>
<path d="M595.26,239.07s19.55-13.23,26-20.83c0,0-1.52,17.85-12.54,29.63C608.73,247.87,599.06,243.63,595.26,239.07Z" opacity="0.22"/>
<circle cx="599.2" cy="69.48" r="56.32" fill="#19283f" data-secondary="true"/>
<path d="M599.89,74.39A5.39,5.39,0,1,1,605.28,69,5.39,5.39,0,0,1,599.89,74.39Zm0-9A3.63,3.63,0,1,0,603.53,69,3.64,3.64,0,0,0,599.89,65.37Z" fill="#fff"/>
<path d="M596.14,67.37a.85.85,0,0,1-.61-.25L568,40.31a.88.88,0,0,1,1.23-1.26l27.56,26.82a.89.89,0,0,1,0,1.24A.91.91,0,0,1,596.14,67.37Z" fill="#fff"/>
<path d="M603.15,68.12a.85.85,0,0,1-.69-.34.87.87,0,0,1,.16-1.23l16.53-12.78a.88.88,0,0,1,1.08,1.39L603.69,67.94A.9.9,0,0,1,603.15,68.12Z" fill="#fff"/>
<path d="M599.89,34.55a.88.88,0,0,1-.87-.88V24.15a.88.88,0,1,1,1.75,0v9.52A.88.88,0,0,1,599.89,34.55Z" fill="#fff"/>
<path d="M646.5,72.38H637a.88.88,0,1,1,0-1.75h9.52a.88.88,0,1,1,0,1.75Z" fill="#fff"/>
<path d="M599.89,118.61a.87.87,0,0,1-.87-.88v-9.52a.88.88,0,0,1,1.75,0v9.52A.87.87,0,0,1,599.89,118.61Z" fill="#fff"/>
<path d="M562.56,71.51H553a.88.88,0,1,1,0-1.76h9.52a.88.88,0,1,1,0,1.76Z" fill="#fff"/>
<rect x="139.27" y="123.47" width="225.64" height="9.17" fill="#ccc"/>
<rect x="144.36" y="113.09" width="85.31" height="10.36" rx="2.5" fill="#3f3d56"/>
<rect x="166.99" y="100.21" width="55.81" height="12.76" rx="2.73" fill="#19283f" data-secondary="true"/>
<rect x="166.99" y="100.21" width="55.81" height="12.76" rx="2.73" opacity="0.22"/>
<rect x="181.34" y="91.44" width="48.64" height="8.77" rx="1.14" fill="#19283f" data-secondary="true"/>
<path d="M256.86,63.85,269,69.71a1.84,1.84,0,0,1,1,2.51l-23.43,48.33a2.72,2.72,0,0,1-3.71,1.22l-10.71-5.63a2.72,2.72,0,0,1-1.16-3.62l23.55-47.79A1.84,1.84,0,0,1,256.86,63.85Z" fill="#19283f" data-secondary="true"/>
<path d="M278.59,54.19l-29.06,61.17a1.54,1.54,0,0,0,.68,2l8.77,4.53a1.52,1.52,0,0,0,2.11-.78l25.34-61.8A1.16,1.16,0,0,0,286,58l-5.71-4.21A1.17,1.17,0,0,0,278.59,54.19Z" fill="#19283f" data-secondary="true"/>
<path d="M278.59,54.19l-29.06,61.17a1.54,1.54,0,0,0,.68,2l8.77,4.53a1.52,1.52,0,0,0,2.11-.78l25.34-61.8A1.16,1.16,0,0,0,286,58l-5.71-4.21A1.17,1.17,0,0,0,278.59,54.19Z" opacity="0.22"/>
<path d="M289.14,44h3.43a2.27,2.27,0,0,1,2.27,2.27v77a0,0,0,0,1,0,0h-8a0,0,0,0,1,0,0v-77A2.27,2.27,0,0,1,289.14,44Z" fill="#19283f" data-secondary="true"/>
<rect x="301.31" y="69.63" width="11.96" height="48.64" fill="#fff" opacity="0.2"/>
<rect x="319.79" y="49.23" width="19.53" height="74.15" fill="#19283f" data-secondary="true"/>
<rect x="319.73" y="56.44" width="19.58" height="4.26" fill="#fff" opacity="0.2"/>
<rect x="319.79" y="116.07" width="19.47" height="4.26" fill="#fff" opacity="0.2"/>
<path d="M326.64,343.2s-7.54,23.23,18.83,26.68a22.6,22.6,0,0,0,19.46-8.48s10.35-43.31,43.62-67.79c0,0,26.37-18.52,47.71-10,0,0,41.43,10.35,57.75,74.38,0,0,15.07,12.56,35.16,1.26,0,0-6.59-52.1-24.8-86.94,0,0-8.79-24.8-57.12-36.73a53.92,53.92,0,0,1-48.65.32s-21.43,6.59-38.4,15.32a57.1,57.1,0,0,0-23.8,23.05C348.1,289.16,333.41,317.63,326.64,343.2Z" fill="#ffc400" data-primary="true"/>
<path d="M542.89,361.72c-5.34-.63-9.73-17.58-9.73-17.58,1.42-8.91-1.22-14.95-3.26-18.11a9.9,9.9,0,0,0-3.66-3.19,12.78,12.78,0,0,1-3.6-3.2,22.81,22.81,0,0,1-4.75-11c-7.39-48.06-53.78-37.36-53.78-37.36-17.89,1.89-28.88,2.2-28.88,2.2-65.23-5.49-72.8,21-72.69,34a13.62,13.62,0,0,1-4.63,10.29C346.12,328.25,326.32,358,326.32,358a21.66,21.66,0,0,0,16.95,11.61c12.56,1.57,17.26-3.76,21.66-8.16,0,0,16.95-70.3,73.13-79.72,0,0,50.53-8.47,75.95,76.27C514,358,526.57,368.94,542.89,361.72Z" opacity="0.22"/>
<g opacity="0.22">
<path d="M442.54,248.72A47.93,47.93,0,0,1,413,238.07l.59-.65c.26.24,26.45,24.43,59-.47l1.06.27C462.26,245.92,451.7,248.72,442.54,248.72Z"/>
</g>
<path d="M427.7,221s-2.82,13.18-8.16,15.38c0,0,26.75,14.22,47.71-.84,0,0-8.1-4.62-8.41-14.35Z" fill="#f9b499"/>
<path d="M389.4,489.66s-44-32.76-31.69-102c0,0,17.19-103.66,87.54-106.35,0,0,65.53,1.62,78.42,124.61,0,0,6.44,95.06-76.81,103.11C446.86,509,423.23,513.29,389.4,489.66Z" fill="#ccc"/>
<path d="M367.75,461.51s66.14,51.87,145.07,1.88c0,0-13.72,38.56-60.72,45.15a66.85,66.85,0,0,1-27.28-1.87C407.93,502,379.46,490,367.75,461.51Z" opacity="0.22"/>
<path d="M396.87,489.7l-77.61,180-4.51-3.38,79.87-181a1.28,1.28,0,0,1,1.76-.62c7.63,4,50.29,24.15,88.85.17a1.27,1.27,0,0,1,1.86.58l75.72,182.77h-4.88L484.56,491S446.1,513.75,396.87,489.7Z" fill="#ccc"/>
<path d="M401.57,497.59l-34.81,139.6a1.87,1.87,0,0,0,1.63,2.31h0a1.85,1.85,0,0,0,2-1.41L405,499.1Z" fill="#ccc"/>
<path d="M476.37,501.73l34.48,135.35a2.23,2.23,0,0,0,2.35,1.68h0a2.23,2.23,0,0,0,2-2.78l-35-136.51Z" fill="#ccc"/>
<path d="M416.09,222.36s6.27-2.82,9.41.63c0,0,6,5,11.62.63,0,0,5-1.57,7.84.94,0,0,14.44,6.28,26.05-1.89a8.11,8.11,0,0,0,1.75-6.45.92.92,0,0,0-1.56-.47,7.77,7.77,0,0,1-4.27,2.53s-2.51-4.08,2.2-7.22c0,0,11.3-14.12,8.48-33.27a23.11,23.11,0,0,1,1.32-6.62,24.37,24.37,0,0,0,2-8.75c.15-5.21-.33-12.18-3.49-15.79a33.6,33.6,0,0,1-4.63-7.08c-3-6.05-9.16-15.12-18.78-15.12,0,0-45.83-3.76-49.6,24.8,0,0-3.76,26.05,8.48,40.17,0,0,2.84,1.83,2.81,13.66a45.69,45.69,0,0,1-2.91,15.55C411.63,222,411.25,225.23,416.09,222.36Z" fill="#19283f" data-secondary="true"/>
<path d="M416.09,222.36s6.27-2.82,9.41.63c0,0,6,5,11.62.63,0,0,5-1.57,7.84.94,0,0,14.44,6.28,26.05-1.89a8.11,8.11,0,0,0,1.75-6.45.92.92,0,0,0-1.56-.47,7.77,7.77,0,0,1-4.27,2.53s-2.51-4.08,2.2-7.22c0,0,11.3-14.12,8.48-33.27a23.11,23.11,0,0,1,1.32-6.62,24.37,24.37,0,0,0,2-8.75c.15-5.21-.33-12.18-3.49-15.79a33.6,33.6,0,0,1-4.63-7.08c-3-6.05-9.16-15.12-18.78-15.12,0,0-45.83-3.76-49.6,24.8,0,0-3.76,26.05,8.48,40.17,0,0,2.84,1.83,2.81,13.66a45.69,45.69,0,0,1-2.91,15.55C411.63,222,411.25,225.23,416.09,222.36Z" opacity="0.22"/>
<rect x="638.65" y="323.18" width="60" height="10.63" fill="#19283f" data-secondary="true"/>
</svg>