 <!DOCTYPE svg PUBLIC "-//W3C//DTD SVG 1.1//EN" "http://www.w3.org/Graphics/SVG/1.1/DTD/svg11.dtd">
<svg id="b7130126-e58f-4641-96fc-56641a5df69a" data-name="Layer 1" xmlns="http://www.w3.org/2000/svg" width="865.76" height="682.89" viewBox="0 0 865.76 682.89">
<defs>
<style xmlns="http://www.w3.org/1999/xhtml">*, ::after, ::before { box-sizing: border-box; }
img, svg { vertical-align: middle; }
</style>
<style xmlns="http://www.w3.org/1999/xhtml">*, body, html { -webkit-font-smoothing: antialiased; }
img, svg { max-width: 100%; }
</style>
</defs>
<path d="M324.89,164.4s7.18-6,19.59-26.51c0,0,27-57.22,105.26-50.2,0,0,35.63,5.4,59.38,16.73,0,0,25.91,13,63.16,9.72,0,0,120.19-16.19,140.53,57.22,0,0,6.49,16.27,10.49,80.51,0,0,1.63,41.33,26.79,73.8,0,0,33.86,51.05,31.67,80.35,0,0,3.2,100.56-43.22,137.8,0,0-59.45,54.16-161.71,51.91,0,0-53.13.77-129.24-10.73,0,0-76.66-18.51-142.51,3.09,0,0-62,21.27-129-10.53,0,0-109.95-44.5-86.7-178.52,0,0,12-99,86.88-160.09l68.1-44.14Z" fill="#ffc400" data-primary="true"/>
<path d="M324.89,164.4s7.18-6,19.59-26.51c0,0,27-57.22,105.26-50.2,0,0,35.63,5.4,59.38,16.73,0,0,25.91,13,63.16,9.72,0,0,120.19-16.19,140.53,57.22,0,0,6.49,16.27,10.49,80.51,0,0,1.63,41.33,26.79,73.8,0,0,33.86,51.05,31.67,80.35,0,0,3.2,100.56-43.22,137.8,0,0-59.45,54.16-161.71,51.91,0,0-53.13.77-129.24-10.73,0,0-76.66-18.51-142.51,3.09,0,0-62,21.27-129-10.53,0,0-109.95-44.5-86.7-178.52,0,0,12-99,86.88-160.09l68.1-44.14Z" fill="#fff" opacity="0.7"/>
<path d="M374.53,509.28s5,14.39-11.33,18.17c0,0-14.22,4.86-25.55-13.85,0,0-5.4,16-28.43,10.07,0,0,14.75,23.93-13.32,29.6,0,0-24.29,6.48-40.75-16.2,0,0-17.82,29.16-44.53,5.94,0,0-.19,31-37.26,22.59,0,0-19.61-5.23-23.74-24.48,0,0-6.3,19.08-27.54,12.6,0,0-19.07-2.52-21.23-31,0,0-18.47,4-31.62-4.59-5.44-3.54-10-9.23-11.9-18.23a13.17,13.17,0,0,1,1.51-9.57,14.21,14.21,0,0,1,3.77-4.08h0c3-2.26,7.72-4.08,14.85-4.55a66,66,0,0,1,30.77,4.79s-1.75-17.21,20.73-21.77c0,0,17.2-1.41,24.93,13,0,0,23.57-40.79,70.4-39.25a57.37,57.37,0,0,1,33.6,11.86c9.4,7.38,18.07,19.15,13.32,36.16,0,0,19.08-26.09,51.05-3.93,0,0,1.58-8.54,14.88-13.93,0,0,3.38,3.36,3.21,10.19,0,0,11.87-9.35,32-7.37C372.37,471.49,395.77,490,374.53,509.28Z" fill="#ffc400" data-primary="true"/>
<path d="M374.53,509.28s5,14.39-11.33,18.17c0,0-14.22,4.86-25.55-13.85,0,0-5.4,16-28.43,10.07,0,0,14.75,23.93-13.32,29.6,0,0-24.29,6.48-40.75-16.2,0,0-17.82,29.16-44.53,5.94,0,0-.19,31-37.26,22.59,0,0-19.61-5.23-23.74-24.48,0,0-6.3,19.08-27.54,12.6,0,0-19.07-2.52-21.23-31,0,0-18.47,4-31.62-4.59-5.44-3.54-10-9.23-11.9-18.23a13.17,13.17,0,0,1,1.51-9.57,14.21,14.21,0,0,1,3.77-4.08h0c3-2.26,7.72-4.08,14.85-4.55a66,66,0,0,1,30.77,4.79s-1.75-17.21,20.73-21.77c0,0,17.2-1.41,24.93,13,0,0,23.57-40.79,70.4-39.25a57.37,57.37,0,0,1,33.6,11.86c9.4,7.38,18.07,19.15,13.32,36.16,0,0,19.08-26.09,51.05-3.93,0,0,1.58-8.54,14.88-13.93,0,0,3.38,3.36,3.21,10.19,0,0,11.87-9.35,32-7.37C372.37,471.49,395.77,490,374.53,509.28Z" fill="#fff" opacity="0.3"/>
<path d="M337.14,468.67c-13.3,5.39-14.88,13.93-14.88,13.93-32-22.16-51.05,3.93-51.05,3.93,4.75-17-3.92-28.78-13.32-36.16a57.37,57.37,0,0,0-33.6-11.86c-46.83-1.54-70.4,39.25-70.4,39.25-7.73-14.41-24.93-13-24.93-13-22.48,4.56-20.73,21.77-20.73,21.77a66,66,0,0,0-30.77-4.79c-7.13.47-11.8,2.29-14.85,4.55.31-.41,10.86-14.55,29.24-12.11,0,0-4.52-13.8,10.45-24.18a39.86,39.86,0,0,1,28.47-6.66,38.3,38.3,0,0,1,22.62,11.42s22.19-45.71,91-33.48c0,0,35.69,6.84,47.56,43.19C291.94,464.47,316.47,445.89,337.14,468.67Z" fill="#fff"/>
<path d="M451.85,530.12c-2.78,6.63-10.66,16.51-32.08,7.24,0,0-8.23,10.65-25.16,15.5a55.9,55.9,0,0,1-44.13-5.7,44.06,44.06,0,0,1-13.34-12s-3.21,28-38.59,35.85c-38.12,8.5-60.73-10.28-60.73-10.28s-27.68,33.13-86.34,22c0,0-25.25-5-37.07-27.35,0,0-31.7,11.67-48.18-14.24,0,0-6.57-8.66,3-22.94,13.15,8.56,31.62,4.59,31.62,4.59,2.16,28.43,21.23,31,21.23,31,21.24,6.48,27.54-12.6,27.54-12.6,4.13,19.25,23.74,24.48,23.74,24.48,37.07,8.45,37.26-22.59,37.26-22.59,26.71,23.22,44.53-5.94,44.53-5.94,16.46,22.68,40.75,16.2,40.75,16.2,28.07-5.67,13.32-29.6,13.32-29.6,23,5.93,28.43-10.07,28.43-10.07,11.33,18.71,25.55,13.85,25.55,13.85,16.37-3.78,11.33-18.17,11.33-18.17,21.24-19.26-2.16-37.79-2.16-37.79s25.15-.19,28.91,31.27c0,0,8.78-14.9,25.07-6.44,0,0,9.08,5.95,2.81,17.54,0,0,18.07-6.68,23,5.69A14,14,0,0,1,451.85,530.12Z" fill="#ffc400" data-primary="true"/>
<path d="M451.85,530.12c-2.78,6.63-10.66,16.51-32.08,7.24,0,0-8.23,10.65-25.16,15.5a55.9,55.9,0,0,1-44.13-5.7,44.06,44.06,0,0,1-13.34-12s-3.21,28-38.59,35.85c-38.12,8.5-60.73-10.28-60.73-10.28s-27.68,33.13-86.34,22c0,0-25.25-5-37.07-27.35,0,0-31.7,11.67-48.18-14.24,0,0-6.57-8.66,3-22.94,13.15,8.56,31.62,4.59,31.62,4.59,2.16,28.43,21.23,31,21.23,31,21.24,6.48,27.54-12.6,27.54-12.6,4.13,19.25,23.74,24.48,23.74,24.48,37.07,8.45,37.26-22.59,37.26-22.59,26.71,23.22,44.53-5.94,44.53-5.94,16.46,22.68,40.75,16.2,40.75,16.2,28.07-5.67,13.32-29.6,13.32-29.6,23,5.93,28.43-10.07,28.43-10.07,11.33,18.71,25.55,13.85,25.55,13.85,16.37-3.78,11.33-18.17,11.33-18.17,21.24-19.26-2.16-37.79-2.16-37.79s25.15-.19,28.91,31.27c0,0,8.78-14.9,25.07-6.44,0,0,9.08,5.95,2.81,17.54,0,0,18.07-6.68,23,5.69A14,14,0,0,1,451.85,530.12Z" fill="#fff" opacity="0.4"/>
<path d="M172.85,350.36l-5.57-1.06c.38-6.21-11-38.4-11-38.4-4.32-10.09-7.71-10.74-9.44-10.1,0,0,2.8-5.86,10.61.27,0,0,6.87,4.55,11.3,20.48a3.53,3.53,0,0,1-.42,2.87,15.19,15.19,0,0,0-2.25,4.93,1.19,1.19,0,0,0,1.39,1.34l3.43-.63a1.61,1.61,0,0,1,1.8,1C174.35,335.56,179.36,350.39,172.85,350.36Z" fill="#2f2e41" data-secondary="true"/>
<path d="M153,352.3,142.4,339.71l1.31-2.79s-1.51-1.34,0-7.1a24.73,24.73,0,0,0,.76-4.43c.41-5.26,1.28-17.45,1.14-22.76a1.89,1.89,0,0,1,1.24-1.83c1.73-.64,5.12,0,9.44,10.1,0,0,11.39,32.19,11,38.4C167.28,349.3,160.06,353.5,153,352.3Z" fill="#ffc400" data-primary="true"/>
<path d="M153,352.3,142.4,339.71l1.31-2.79s-1.51-1.34,0-7.1a24.73,24.73,0,0,0,.76-4.43c.41-5.26,1.28-17.45,1.14-22.76a1.89,1.89,0,0,1,1.24-1.83c1.73-.64,5.12,0,9.44,10.1,0,0,11.39,32.19,11,38.4C167.28,349.3,160.06,353.5,153,352.3Z" fill="#fff" opacity="0.2"/>
<path d="M83.89,312.92l-15.51,5.4-2.15-2.22s-1.78.94-6.64-2.51a25.51,25.51,0,0,0-3.87-2.28c-4.78-2.25-15.86-7.4-20.87-9.16a1.9,1.9,0,0,1-1.27-1.81c0-1.84,1.83-4.78,12.8-5.23,0,0,34.14.81,39.81,3.37C86.19,298.48,87.54,306.72,83.89,312.92Z" fill="#ffc400" data-primary="true"/>
<path d="M83.89,312.92l-15.51,5.4-2.15-2.22s-1.78.94-6.64-2.51a25.51,25.51,0,0,0-3.87-2.28c-4.78-2.25-15.86-7.4-20.87-9.16a1.9,1.9,0,0,1-1.27-1.81c0-1.84,1.83-4.78,12.8-5.23,0,0,34.14.81,39.81,3.37C86.19,298.48,87.54,306.72,83.89,312.92Z" fill="#fff" opacity="0.2"/>
<path d="M134.93,341.13l8.78-4.21s-.55,2,3.29,1.71,6.29,2,5.76,6.67c0,0-1.56,4.64.2,7l-6.67,3.8Z" fill="#f9b499"/>
<path d="M156.74,318.9s-12.21-5.1-19.49-11.69a16.74,16.74,0,0,0-2.72-2c-1.93-1.18-4.95-3.49-2.91-5.53,0,0,1.26-3.06,9.54,2.16,0,0-3.26-27.17,2.33-24.65,0,0,2-1.62,3.61.9,0,0,1.35-.9,1.12,4.14,0,0,1.62-2.21,2.27.74a7.36,7.36,0,0,1,.07,2.52c-.4,2.9-1.27,11.79,2.47,14.19l7.45,5.82S158.48,309.75,156.74,318.9Z" fill="#f9b499"/>
<path d="M148.22,282.2s-.77,11,1.34,14.81" fill="none" stroke="#f7a48b" stroke-miterlimit="10"/>
<path d="M143.49,277.16s-.86,14.86,1.17,21.12" fill="none" stroke="#f7a48b" stroke-miterlimit="10"/>
<path d="M147.1,278.06s-2,6.53,0,19.71" fill="none" stroke="#f7a48b" stroke-miterlimit="10"/>
<path d="M152.11,316.75l4.63,2.15s1.81-9.87,3.74-13.43C160.48,305.47,154.58,310.8,152.11,316.75Z" fill="#f7a48b"/>
<path d="M176.28,373.69s-.68-17.64,21.21-24.77c0,0,19.87-6.91,26.56-10l23,8.92a209.08,209.08,0,0,0-32.39,18.35S203.09,365.55,176.28,373.69Z" fill="#ffc400" data-primary="true"/>
<path d="M176.28,373.69s-.68-17.64,21.21-24.77c0,0,19.87-6.91,26.56-10l23,8.92a209.08,209.08,0,0,0-32.39,18.35S203.09,365.55,176.28,373.69Z" opacity="0.2"/>
<polygon points="719.13 363.67 713.79 359.1 724.9 347.6 728.5 350.42 719.13 363.67" fill="#f9b499"/>
<path d="M713.79,359.1a29.86,29.86,0,0,0-7.09-2.54s-10.78-.51-9.66-5.65c0,0,.17-5.67,7.12-20.44,0,0,9.5-29.16,21.37-22.64,0,0,5.64,2.34,1.77,8.29a8.86,8.86,0,0,0-1.1,2.3c-1,3.3-3.22,11.93-2.37,19.54a50.31,50.31,0,0,1-.72,6.13,2.74,2.74,0,0,0,.78,2.52l1,1Z" fill="#ffc400" data-primary="true"/>
<path d="M713.79,359.1a29.86,29.86,0,0,0-7.09-2.54s-10.78-.51-9.66-5.65c0,0,.17-5.67,7.12-20.44,0,0,9.5-29.16,21.37-22.64,0,0,5.64,2.34,1.77,8.29a8.86,8.86,0,0,0-1.1,2.3c-1,3.3-3.22,11.93-2.37,19.54a50.31,50.31,0,0,1-.72,6.13,2.74,2.74,0,0,0,.78,2.52l1,1Z" fill="#fff" opacity="0.2"/>
<path d="M699,354.65c1.14-4.4,2.43-8.77,3.83-13.1s2.91-8.63,4.63-12.86c.86-2.11,1.83-4.19,2.87-6.21a59.28,59.28,0,0,1,3.38-6,44.7,44.7,0,0,1,4.09-5.49,22.12,22.12,0,0,1,2.48-2.36,9.63,9.63,0,0,1,3-1.67,13.89,13.89,0,0,0-5.23,4.24,44.61,44.61,0,0,0-3.91,5.54c-1.17,1.94-2.29,3.92-3.28,6s-2,4.09-2.8,6.2c-1.76,4.18-3.26,8.48-4.75,12.77-.75,2.14-1.47,4.3-2.18,6.46S699.73,352.49,699,354.65Z" fill="#fff"/>
<line x1="716.23" y1="334.59" x2="723.74" y2="336.93" fill="none" stroke="#fff" stroke-miterlimit="10"/>
<line x1="717.01" y1="330.66" x2="723.69" y2="332.63" fill="none" stroke="#fff" stroke-miterlimit="10"/>
<line x1="718.33" y1="326.62" x2="724" y2="328.88" fill="none" stroke="#fff" stroke-miterlimit="10"/>
<line x1="719.52" y1="323.14" x2="724.64" y2="324.85" fill="none" stroke="#fff" stroke-miterlimit="10"/>
<line x1="721.43" y1="319.86" x2="725.51" y2="320.95" fill="none" stroke="#fff" stroke-miterlimit="10"/>
<path d="M755.16,435.57s3.35,14.39-7.53,18.17c0,0-9.44,4.86-17-13.85,0,0-3.59,16-18.88,10.07,0,0,9.8,23.94-8.85,29.6,0,0-16.13,6.48-27.06-16.19,0,0-11.83,29.15-29.57,5.93,0,0-.12,31.05-24.74,22.59,0,0-13-5.22-15.77-24.47,0,0-4.18,19.07-18.28,12.59,0,0-12.66-2.52-14.1-30.95,0,0-12.26,4-21-4.59-3.61-3.54-6.62-9.22-7.9-18.22a19.08,19.08,0,0,1,1-9.57,13.83,13.83,0,0,1,2.5-4.09h0c2-2.26,5.12-4.08,9.86-4.55,0,0,9.56-1.93,20.43,4.8,0,0-1.16-17.21,13.77-21.78,0,0,11.42-1.4,16.55,13,0,0,15.66-40.79,46.75-39.25,8.08.4,16,4.35,22.31,11.87,6.24,7.37,12,19.14,8.85,36.16,0,0,12.67-26.09,33.9-3.93A20.71,20.71,0,0,1,730.33,395s2.25,3.35,2.13,10.19a24.27,24.27,0,0,1,21.27-7.38S769.26,416.32,755.16,435.57Z" fill="#ffc400" data-primary="true"/>
<path d="M755.16,435.57s3.35,14.39-7.53,18.17c0,0-9.44,4.86-17-13.85,0,0-3.59,16-18.88,10.07,0,0,9.8,23.94-8.85,29.6,0,0-16.13,6.48-27.06-16.19,0,0-11.83,29.15-29.57,5.93,0,0-.12,31.05-24.74,22.59,0,0-13-5.22-15.77-24.47,0,0-4.18,19.07-18.28,12.59,0,0-12.66-2.52-14.1-30.95,0,0-12.26,4-21-4.59-3.61-3.54-6.62-9.22-7.9-18.22a19.08,19.08,0,0,1,1-9.57,13.83,13.83,0,0,1,2.5-4.09h0c2-2.26,5.12-4.08,9.86-4.55,0,0,9.56-1.93,20.43,4.8,0,0-1.16-17.21,13.77-21.78,0,0,11.42-1.4,16.55,13,0,0,15.66-40.79,46.75-39.25,8.08.4,16,4.35,22.31,11.87,6.24,7.37,12,19.14,8.85,36.16,0,0,12.67-26.09,33.9-3.93A20.71,20.71,0,0,1,730.33,395s2.25,3.35,2.13,10.19a24.27,24.27,0,0,1,21.27-7.38S769.26,416.32,755.16,435.57Z" fill="#fff" opacity="0.3"/>
<path d="M730.33,395a20.71,20.71,0,0,0-9.88,13.93c-21.23-22.16-33.9,3.93-33.9,3.93,3.15-17-2.61-28.79-8.85-36.16-6.36-7.52-14.23-11.47-22.31-11.87-31.09-1.54-46.75,39.25-46.75,39.25-5.13-14.4-16.55-13-16.55-13-14.93,4.57-13.77,21.78-13.77,21.78-10.87-6.73-20.43-4.8-20.43-4.8-4.74.47-7.84,2.29-9.86,4.55.2-.41,7.21-14.55,19.42-12.1,0,0-3-13.81,6.93-24.19,5.49-5.75,12.29-8.11,18.91-6.66,4.7,1,10.31,4,15,11.42,0,0,14.73-45.7,60.42-33.47,0,0,23.7,6.84,31.59,43.19C700.32,390.77,716.61,372.18,730.33,395Z" fill="#fff"/>
<path d="M806.51,456.41c-1.85,6.64-7.08,16.52-21.31,7.24,0,0-5.47,10.65-16.7,15.5-9.86,4.26-20.52,2.25-29.31-5.69a37.92,37.92,0,0,1-8.86-12s-2.13,28-25.63,35.86A37,37,0,0,1,664.38,487S646,520.16,607,509c0,0-16.76-5-24.61-27.35,0,0-21.06,11.67-32-14.23,0,0-4.36-8.67,2-22.95,8.74,8.56,21,4.59,21,4.59,1.44,28.43,14.1,30.95,14.1,30.95,14.1,6.48,18.28-12.59,18.28-12.59,2.75,19.25,15.77,24.47,15.77,24.47,24.62,8.46,24.74-22.59,24.74-22.59,17.74,23.22,29.57-5.93,29.57-5.93,10.93,22.67,27.06,16.19,27.06,16.19,18.65-5.66,8.85-29.6,8.85-29.6,15.29,5.94,18.88-10.07,18.88-10.07,7.52,18.71,17,13.85,17,13.85,10.88-3.78,7.53-18.17,7.53-18.17,14.1-19.25-1.43-37.79-1.43-37.79s16.7-.19,19.2,31.28c0,0,5.82-14.9,16.64-6.45,0,0,6,6,1.87,17.54,0,0,12-6.68,15.25,5.7A20.77,20.77,0,0,1,806.51,456.41Z" fill="#ffc400" data-primary="true"/>
<path d="M806.51,456.41c-1.85,6.64-7.08,16.52-21.31,7.24,0,0-5.47,10.65-16.7,15.5-9.86,4.26-20.52,2.25-29.31-5.69a37.92,37.92,0,0,1-8.86-12s-2.13,28-25.63,35.86A37,37,0,0,1,664.38,487S646,520.16,607,509c0,0-16.76-5-24.61-27.35,0,0-21.06,11.67-32-14.23,0,0-4.36-8.67,2-22.95,8.74,8.56,21,4.59,21,4.59,1.44,28.43,14.1,30.95,14.1,30.95,14.1,6.48,18.28-12.59,18.28-12.59,2.75,19.25,15.77,24.47,15.77,24.47,24.62,8.46,24.74-22.59,24.74-22.59,17.74,23.22,29.57-5.93,29.57-5.93,10.93,22.67,27.06,16.19,27.06,16.19,18.65-5.66,8.85-29.6,8.85-29.6,15.29,5.94,18.88-10.07,18.88-10.07,7.52,18.71,17,13.85,17,13.85,10.88-3.78,7.53-18.17,7.53-18.17,14.1-19.25-1.43-37.79-1.43-37.79s16.7-.19,19.2,31.28c0,0,5.82-14.9,16.64-6.45,0,0,6,6,1.87,17.54,0,0,12-6.68,15.25,5.7A20.77,20.77,0,0,1,806.51,456.41Z" fill="#fff" opacity="0.4"/>
<path d="M571.28,344.77s-1.09-7.63,24.82-15.87c0,0,30.24-10.58,58.15-12.24L707.42,313l4.32,19.26L651.59,343,620,356.54s23.92,10,31.9,18.94l-23.26,47.18S600.42,407,576.83,384.78l-59.48,13-57.21-22.53,4.32-19.79,52.18,14.39,41.2-11.32,8.46-12.73Z" fill="#ffc400" data-primary="true"/>
<polygon points="549.62 355.7 559.64 359.1 568.04 367.34 568.04 351.18 571.28 344.77 556.22 337.3 552.05 334.05 549.62 355.7" fill="#f9b499"/>
<path d="M524.8,342.6a9,9,0,0,1,2.84,6.32s-.16,8.4,4.85,3.71c0,0,7.44,11.48,12.61,8.08a55.18,55.18,0,0,0,7-4.18l3.26-17.28-7.51-4.7-2.39-9.88-13.74,4.23Z" fill="#f9b499"/>
<path d="M544.31,361.11a42.46,42.46,0,0,0,9.78-15.35l-2,10.77A39.29,39.29,0,0,1,544.31,361.11Z" fill="#f7a48b"/>
<polygon points="568.74 376.11 571.28 385.99 576.83 384.78 568.74 376.11" opacity="0.1"/>
<polygon points="620.03 356.54 611.42 361.34 633.52 362.92 620.03 356.54" opacity="0.1"/>
<path d="M649.53,343.89s25.25,12.44,29.87,19c0,0,3.52,11.43-1.54,16.71,0,0-14.69-4.57-25.93-4.15,0,0-5.7-7.5-31.9-18.94Z" fill="#ffc400" data-primary="true"/>
<path d="M649.53,343.89s25.25,12.44,29.87,19c0,0,3.52,11.43-1.54,16.71,0,0-14.69-4.57-25.93-4.15,0,0-5.7-7.5-31.9-18.94Z" opacity="0.2"/>
<path d="M636.68,349.4c3.69,1.34,7.36,2.74,11,4.15l2.75,1.06c.91.36,1.83.71,2.74,1.11a35.44,35.44,0,0,1,5.21,2.83,31,31,0,0,1,8.42,8.29,26.44,26.44,0,0,1,2.75,5.24,24.2,24.2,0,0,1,1.38,5.73,26,26,0,0,0-4.53-10.7,31.7,31.7,0,0,0-8.37-8,35.12,35.12,0,0,0-5.09-2.83c-1.78-.78-3.64-1.47-5.43-2.25C643.9,352.49,640.28,351,636.68,349.4Z" fill="#fff"/>
<path d="M792.52,389.89l0,10.58c.8,11.63-12.94,20.62-12.94,20.62l.07.3a12.68,12.68,0,0,1-2.24,11.2,0,0,0,0,0,0,0c-11.55,15.11-56.51,14.92-56.51,14.92-41-1.58-92.18-24.86-92.18-24.86l23.26-47.18c10.12-.94,25.93,4.16,25.93,4.16,27.59,7.18,65.46,12.9,65.46,12.9L718,365.31l16.62-23.53,34.1,26.06L780.06,330a1,1,0,0,1,1.19-.68L806.48,336a.83.83,0,0,1,.59,1Z" fill="#2f2e41" data-secondary="true"/>
<path d="M734.65,391.15s10.78,11.17,30.87,14.87a91.61,91.61,0,0,1-22.2-13.48Z" opacity="0.2"/>
<polygon points="768.7 367.84 792.52 389.89 794.82 381.54 768.7 367.84" opacity="0.2"/>
<path d="M777.37,432.59a0,0,0,0,0,0,0c-4.77,2.84-18.06,4.67-18.06,4.67-47.56,5.76-98.73-6.35-100-6.66,1.49.23,69.26,10.49,120.33-9.22A12.68,12.68,0,0,1,777.37,432.59Z" opacity="0.2"/>
<path d="M642.09,367.84s-11.73,29.1-30.67,44.11l9.9,6.36S642.17,386.5,644,369.07Z" fill="#ffc400" data-primary="true"/>
<path d="M642.09,367.84s-11.73,29.1-30.67,44.11l9.9,6.36S642.17,386.5,644,369.07Z" opacity="0.2"/>
<polygon points="628.67 422.66 656.41 375.41 651.93 375.48 628.67 422.66" opacity="0.2"/>
<path d="M663.73,376.24s-3.29,24.93-9.92,34.71c0,0,21-21.64,25.8-30.87l7,1.72s-8,16-36.35,38.56l-7.77,8-9.2-3.72s27.21-22.7,24-49.27C657.35,375.41,661.64,375.78,663.73,376.24Z" fill="#ffc400" data-primary="true"/>
<path d="M663.73,376.24s-3.29,24.93-9.92,34.71c0,0,21-21.64,25.8-30.87l7,1.72s-8,16-36.35,38.56l-7.77,8-9.2-3.72s27.21-22.7,24-49.27C657.35,375.41,661.64,375.78,663.73,376.24Z" opacity="0.2"/>
<polygon points="781.76 329.47 783.14 321.87 798.67 325.67 797.57 333.66 781.76 329.47" fill="#f9b499"/>
<path d="M783.14,321.87a30.21,30.21,0,0,0-1.38-7.41s-5-9.57,0-11.19c0,0,5-2.71,21.24-4.15,0,0,30-6.5,30.33,7,0,0,.82,6-6.26,5.7a8.72,8.72,0,0,0-2.55.22c-3.34.81-11.93,3.23-18.07,7.8a50.38,50.38,0,0,1-5.65,2.47,2.75,2.75,0,0,0-1.79,1.94l-.34,1.38Z" fill="#ffc400" data-primary="true"/>
<path d="M783.14,321.87a30.21,30.21,0,0,0-1.38-7.41s-5-9.57,0-11.19c0,0,5-2.71,21.24-4.15,0,0,30-6.5,30.33,7,0,0,.82,6-6.26,5.7a8.72,8.72,0,0,0-2.55.22c-3.34.81-11.93,3.23-18.07,7.8a50.38,50.38,0,0,1-5.65,2.47,2.75,2.75,0,0,0-1.79,1.94l-.34,1.38Z" fill="#fff" opacity="0.2"/>
<path d="M779.54,306.88c4.38-1.23,8.8-2.32,13.25-3.3s8.92-1.83,13.44-2.48c2.25-.31,4.53-.52,6.8-.65a60.25,60.25,0,0,1,6.85-.09,45.8,45.8,0,0,1,6.81.77,22.09,22.09,0,0,1,3.29.95,9.78,9.78,0,0,1,2.94,1.73,14,14,0,0,0-6.29-2.38,45,45,0,0,0-6.76-.58c-2.27,0-4.54,0-6.79.17s-4.52.37-6.77.71c-4.5.59-9,1.45-13.42,2.33q-3.35.65-6.68,1.37C784,305.89,781.76,306.39,779.54,306.88Z" fill="#fff"/>
<line x1="805.53" y1="311.61" x2="807.29" y2="319.28" fill="none" stroke="#fff" stroke-miterlimit="10"/>
<line x1="809.32" y1="310.31" x2="810.98" y2="317.07" fill="none" stroke="#fff" stroke-miterlimit="10"/>
<line x1="813.47" y1="309.41" x2="814.38" y2="315.45" fill="none" stroke="#fff" stroke-miterlimit="10"/>
<line x1="817.08" y1="308.69" x2="818.18" y2="313.97" fill="none" stroke="#fff" stroke-miterlimit="10"/>
<line x1="820.87" y1="308.69" x2="821.98" y2="312.75" fill="none" stroke="#fff" stroke-miterlimit="10"/>
<path d="M708,315.45s5-4.41,7-9.81a9.48,9.48,0,0,0,.58-3.3c0-3.4.24-12,1.45-12.38,0,0,1.32-5.43,4.13-3.68,0,0,3.46-4.37,4.37,3.68a185.47,185.47,0,0,1-.87,21.65s7.54-5.38,10-2.58c0,0,2.45.75-4.9,6.42,0,0-12.11,9.85-19.26,11.17Z" fill="#f9b499"/>
<path d="M422.9,369.52s4.1,7.29,12.07,7.06L460.4,374,464,357.47l-17.19-5.72s-6.84-3-9.8,1.69c0,0-7.13,7.67-2.27,7.9,0,0,1.83.73,6.83-3,0,0,3.64-2.73,7.06-.46l5.95,4.89a2,2,0,0,1,.56,2.42c-1.27,2.71-5.16,7.93-16,6a7.91,7.91,0,0,1-3-1.2l-2-1.32a4,4,0,0,0-2.77-.81Z" fill="#f9b499"/>
<path d="M409.69,356.54l16.86-3.1s6.14-2.27,11.72-1.41l-3.57,4.51s-2.16,3.13-1.4,4.15c0,0,1.67,1.6,5-.36l3.72-2.24s3.71-2.6,6.65-.19l5.95,4.89s1.91,1.15,0,3.45c0,0-3.57,7.5-16,4.91a5.9,5.9,0,0,1-2-.85l-2.42-1.6a3.71,3.71,0,0,0-3.75-.44l-7.52,1.26-17.55,1Z" fill="#f7a48b"/>
<path d="M309.1,350.8l40.42,11,63.2-8.42-8.46,21.39L347.4,388.36l-57.8-11.78s-31.7,28.86-52.4,36.24l-22.49-46.61s21.77-15.11,32.39-18.35L209.22,333.2l-53.71-10.53s1.08-14.84,6.21-18.35l63.7,4.59s41.56,9.71,54.79,14.57a11.86,11.86,0,0,0,6.46,2.49,12.41,12.41,0,0,1,5.44,1.81c1.92,1.23,4,3.14,4.56,5.82a14.33,14.33,0,0,0,.95,16.2S301,355.05,309.1,350.8Z" fill="#ffc400" data-primary="true"/>
<path d="M317.9,345V333.48a6,6,0,0,0,1.66-5.11l4.34-2.3s.09,1.57,2.54.69a10.86,10.86,0,0,1,8.83-.69s10.47,1.4,13.91-2.3c0,0-.64,8.56-6.25,12.51,0,0-2.94,2.17-2.94,4,0,0,.37,3.82-.37,5.67a1,1,0,0,1-1.68.36l-1.15-1.09a2.11,2.11,0,0,0-2.33-.38,8.32,8.32,0,0,0-2.51,2.08l-6,4.63a1.74,1.74,0,0,1-2.36-.22Z" fill="#f9b499"/>
<path d="M317.9,333.48s-1.15,1.91-6,2.17c0,0-2-.22-4.34,2.3a8.28,8.28,0,0,1-2.33,1.84c-1.58.8-4,1.48-5.84-.31,0,0-2.12-1.67-2.72-5.88,0,0-5.3,7.36.95,16.2,0,0,3.45,5.63,11.48,1,0,0,5-6.22,8.8-5.83Z" fill="#f9b499"/>
<path d="M317.9,333.48s-1.42,2-6,2.17c0,0-3.9,8.59-.46,12.66,0,0,4.08-3.91,6.46-3.34Z" fill="#f7a48b"/>
<path d="M305.58,298.08a9.24,9.24,0,0,0-8.66-5.59s-7,.69-9.92,0c0,0,2.1,1.81,9.29,1.06a6.9,6.9,0,0,1,7.48,4.53s1.67,4.61,8.38,5.31c0,0-8.66,4.93-12.58.93,0,0-.55-8.08-8.38-5.14a7.12,7.12,0,0,1-9.36-1.94S277.1,290,271,289.09a5,5,0,0,0-4.91,2.1c-1.09,1.64-1.86,4.36-.14,8.46a2.75,2.75,0,0,0,.84,1.1c.75.59,2.12,2.11,2.25,5.32,0,0,0,6.83,6.32,7.34,0,0,3.9.41,3.58,5,0,0-2.11,6.32,7.75,7.6,0,0,7.59.15,10,7.63,0,0,1.25,9.09,7.48,6.64a7.11,7.11,0,0,0,3.19-2.05s2.31-2.8,4.56-2.54c0,0,7.63.28,7.7-6.84l4.66-1.48s0,.71,2.64-.39a10.15,10.15,0,0,1,8.37-.87s10.87,1.4,13.91-2.3c0,0-.68-22.51-28.81-21a22.63,22.63,0,0,1-10-1.63,10,10,0,0,1-4.09-2.76" fill="#2f2e41" data-secondary="true"/>
<path d="M289.6,376.58s7.46-6.19,9.25-10.51l-3,11.8Z" opacity="0.1"/>
<path d="M233.32,354.44l22.11-.76-8.33-5.82A138.82,138.82,0,0,0,233.32,354.44Z" opacity="0.1"/>
<path d="M183.29,371.66a14.84,14.84,0,0,1,2.2-7.38,17.79,17.79,0,0,1,5.44-5.55,23.76,23.76,0,0,1,3.41-1.91c.6-.26,1.22-.47,1.83-.71a14.88,14.88,0,0,1,1.85-.62l1.89-.5c.32-.08.63-.18,1-.24l1-.16c1.28-.23,2.57-.4,3.81-.68a115,115,0,0,0,14.9-4.14,55.51,55.51,0,0,0,13.82-6.85,41.42,41.42,0,0,1-6.53,4.19c-2.32,1.16-4.7,2.19-7.13,3.12a108.82,108.82,0,0,1-14.93,4.3c-1.28.27-2.56.43-3.83.65l-1,.15c-.32.06-.62.16-.93.23l-1.87.48a12.92,12.92,0,0,0-1.82.6c-.6.22-1.21.43-1.8.67a28.8,28.8,0,0,0-3.37,1.82,17.45,17.45,0,0,0-5.44,5.31A15,15,0,0,0,183.29,371.66Z" fill="#fff"/>
<path d="M237.2,412.82s-3.38,1.87-9.72,4.71c-2.37,1.05-5.15,2.25-8.32,3.53-3.39,1.36-7.22,2.83-11.47,4.33-2.86,1-5.89,2-9.12,3.07a333.27,333.27,0,0,1-32.72,8.61,66.67,66.67,0,0,1-12.28,1.39c-15.55.31-54.75-.32-63.71-14.08,0,0-2.36-1.57-4.19-7.85l-2.87-8.11h0s-10.72-3.4-8.37-28.25c0,0-.52-2-4.19-6.48s-4.44-8.27-5-17.38c0,0,.26-4.66-3.4-10.42,0,0-2.62-1.56-2.62-11.24V328.1l26.69-7.84s9.68,21.79,13.61,34.17c0,0,8.37-4.27,13.08-11.51,0,0,1.57-5.92,19.09-9.32l17.53,22.71-25.9,27.52,52.94-10.14s24.11-7.83,38.43-7.47Z" fill="#2f2e41" data-secondary="true"/>
<path d="M123.34,383.83a41.91,41.91,0,0,1-13.6,9.94s16.9-4.19,24.54-12Z" opacity="0.2"/>
<path d="M99.53,354.44,78.08,376.76a36.16,36.16,0,0,0,11.62-9.92,7.11,7.11,0,0,1,2.44-2l6-2.92a2.57,2.57,0,0,0,1.44-2.31Z" opacity="0.2"/>
<path d="M191.36,424.48s-61.05,13.57-101.5-.1c0,0-2.36-1.57-4.19-7.85l-2.87-8.11C83.14,408.7,106.92,427.4,191.36,424.48Z" opacity="0.2"/>
<path d="M227.48,417.53c-2.37,1.05-5.15,2.25-8.32,3.53-2.2-5.42-6.77-17.21-8.49-25.12,0,0-.44,18.59-3,29.45-2.86,1-5.89,2-9.12,3.07,3.4-8.4,10.65-27.62,11.52-40.71l-1.27-21.24s3-.23,5.89-.29c0,0-.78,27,6.15,38.37Z" fill="#ffc400" data-primary="true"/>
<path d="M227.48,417.53c-2.37,1.05-5.15,2.25-8.32,3.53-2.2-5.42-6.77-17.21-8.49-25.12,0,0-.44,18.59-3,29.45-2.86,1-5.89,2-9.12,3.07,3.4-8.4,10.65-27.62,11.52-40.71l-1.27-21.24s3-.23,5.89-.29c0,0-.78,27,6.15,38.37Z" opacity="0.2"/>
<path d="M220.94,361.89S233,396.7,252.15,405.28l6.83-4.45s-25.44-8.3-34.39-41.14Z" fill="#ffc400" data-primary="true"/>
<path d="M220.94,361.89S233,396.7,252.15,405.28l6.83-4.45s-25.44-8.3-34.39-41.14Z" opacity="0.2"/>
<path d="M67.05,325.81l-.82-9.71s1.69,1.23,2.77-2.46,4.1-5.17,8.28-3c0,0,3.78,3.1,6.61,2.29l1.19,7.59Z" fill="#f9b499"/>
<path d="M89.16,293.64l-3,4.84c-5.67-2.56-39.81-3.37-39.81-3.37-11,.45-12.78,3.39-12.8,5.23,0,0-4.48-4.69,4-9.82,0,0,6.7-4.8,23.16-3.28a3.55,3.55,0,0,1,2.53,1.41,14.88,14.88,0,0,0,3.81,3.86,1.18,1.18,0,0,0,1.74-.82l.63-3.43a1.6,1.6,0,0,1,1.6-1.32C75.85,287,91.5,287.57,89.16,293.64Z" fill="#2f2e41" data-secondary="true"/>
<path d="M679,583.33l1.72.79A33.14,33.14,0,0,0,695,587.24c17.21-.24,16.65-14.7,16.65-14.7C711.38,560,696.57,564,696.57,564l.14-.15A7.5,7.5,0,0,0,694.3,552c-11-5.22-22.32,4.21-22.32,4.21.75-8.28-10-7.78-10-7.78-14.05.75-15.81,13.8-15.81,13.8-6.27-7-15.06-3.76-15.06-3.76-12.29,3.51-6.77,14-6.77,14s-12,.5-9.54,8.78c0,0,1.26,5.27,11.55,1.26,0,0,1.5,11,15.05,3.51,0,0-2.76,13,18.83,8.78C660.19,594.87,672.23,593.37,679,583.33Z" fill="#ffc400" data-primary="true"/>
<path d="M679,583.33l1.72.79A33.14,33.14,0,0,0,695,587.24c17.21-.24,16.65-14.7,16.65-14.7C711.38,560,696.57,564,696.57,564l.14-.15A7.5,7.5,0,0,0,694.3,552c-11-5.22-22.32,4.21-22.32,4.21.75-8.28-10-7.78-10-7.78-14.05.75-15.81,13.8-15.81,13.8-6.27-7-15.06-3.76-15.06-3.76-12.29,3.51-6.77,14-6.77,14s-12,.5-9.54,8.78c0,0,1.26,5.27,11.55,1.26,0,0,1.5,11,15.05,3.51,0,0-2.76,13,18.83,8.78C660.19,594.87,672.23,593.37,679,583.33Z" fill="#fff" opacity="0.3"/>
<path d="M414.3,436.76s.17-13.31,16.1-11.51a18.81,18.81,0,0,1,14.31,7.19s11-11.15,20.15,4.32a6.71,6.71,0,0,1,8.46,1.71s2.51,4.59-2.16,7.29c0,0-3,14-18.13,5,0,0-2.48,9.07-20.53,9.56a20.32,20.32,0,0,1-18.06-10l-.14-.25s-10.52.78-8.95-7.35C405.35,442.73,405.84,438.2,414.3,436.76Z" fill="#ffc400" data-primary="true"/>
<path d="M414.3,436.76s.17-13.31,16.1-11.51a18.81,18.81,0,0,1,14.31,7.19s11-11.15,20.15,4.32a6.71,6.71,0,0,1,8.46,1.71s2.51,4.59-2.16,7.29c0,0-3,14-18.13,5,0,0-2.48,9.07-20.53,9.56a20.32,20.32,0,0,1-18.06-10l-.14-.25s-10.52.78-8.95-7.35C405.35,442.73,405.84,438.2,414.3,436.76Z" fill="#fff" opacity="0.3"/>
<path d="M624.2,251.87c-.77,4.42-4.5,9.74-18,9.74,0,0,4.44,10.55-7.18,11.78,0,0-13.46,2.44-20-10.71,0,0-12.08,11.32-25.38,2.76a18.33,18.33,0,0,1-7.34-6.42s-18.8,19-28,5.5c0,0-12.53,10.55-18.19-1.53,0,0-4.38-1.25-3.62-4.9a5.09,5.09,0,0,1,.41-1.21,5.46,5.46,0,0,1-1.84-5.2,6.45,6.45,0,0,1,3.46-4.51,12.37,12.37,0,0,1,12.91.53s6.72-27.36,31.64-27.51c0,0,13.61-1.68,25.53,11.46,0,0,6.88-8.56,19.88-5.51,0,0,11.62,3.22,13.45,15.91,0,0,10.2-6.23,17.82-.69.25.18.5.37.74.58a10.68,10.68,0,0,1,3.78,9.41C624.26,251.52,624.23,251.7,624.2,251.87Z" fill="#ffc400" data-primary="true"/>
<path d="M624.2,251.87c-.77,4.42-4.5,9.74-18,9.74,0,0,4.44,10.55-7.18,11.78,0,0-13.46,2.44-20-10.71,0,0-12.08,11.32-25.38,2.76a18.33,18.33,0,0,1-7.34-6.42s-18.8,19-28,5.5c0,0-12.53,10.55-18.19-1.53,0,0-4.38-1.25-3.62-4.9a5.09,5.09,0,0,1,.41-1.21,5.46,5.46,0,0,1-1.84-5.2,6.45,6.45,0,0,1,3.46-4.51,12.37,12.37,0,0,1,12.91.53s6.72-27.36,31.64-27.51c0,0,13.61-1.68,25.53,11.46,0,0,6.88-8.56,19.88-5.51,0,0,11.62,3.22,13.45,15.91,0,0,10.2-6.23,17.82-.69.25.18.5.37.74.58a10.68,10.68,0,0,1,3.78,9.41C624.26,251.52,624.23,251.7,624.2,251.87Z" fill="#fff" opacity="0.3"/>
<path d="M618.46,266.8c8.54,12.82-11.07,16.7-11.07,16.7-20.59,3.69-27.38-9.93-27.38-9.93-21.17,11.81-33.21-4.44-33.21-4.44-11.26,22.14-33,10.29-33,10.29-5.15,7.09-10.69,7.77-14.93,6.68A15,15,0,0,1,488.24,275c-2.69-11,8.26-16.91,8.26-16.91-.76,3.65,3.62,4.9,3.62,4.9,5.66,12.08,18.19,1.53,18.19,1.53,9.18,13.45,28-5.5,28-5.5a18.33,18.33,0,0,0,7.34,6.42c13.3,8.56,25.38-2.76,25.38-2.76,6.57,13.15,20,10.71,20,10.71,11.62-1.23,7.18-11.78,7.18-11.78,13.48,0,17.21-5.32,18-9.74C630.73,261.59,618.46,266.8,618.46,266.8Z" fill="#ffc400" data-primary="true"/>
<path d="M618.46,266.8c8.54,12.82-11.07,16.7-11.07,16.7-20.59,3.69-27.38-9.93-27.38-9.93-21.17,11.81-33.21-4.44-33.21-4.44-11.26,22.14-33,10.29-33,10.29-5.15,7.09-10.69,7.77-14.93,6.68A15,15,0,0,1,488.24,275c-2.69-11,8.26-16.91,8.26-16.91-.76,3.65,3.62,4.9,3.62,4.9,5.66,12.08,18.19,1.53,18.19,1.53,9.18,13.45,28-5.5,28-5.5a18.33,18.33,0,0,0,7.34,6.42c13.3,8.56,25.38-2.76,25.38-2.76,6.57,13.15,20,10.71,20,10.71,11.62-1.23,7.18-11.78,7.18-11.78,13.48,0,17.21-5.32,18-9.74C630.73,261.59,618.46,266.8,618.46,266.8Z" fill="#fff" opacity="0.4"/>
<path d="M619.76,241.36c-7.62-5.54-17.82.69-17.82.69-1.83-12.69-13.45-15.91-13.45-15.91-13-3-19.88,5.51-19.88,5.51-11.92-13.14-25.53-11.46-25.53-11.46-24.92.15-31.64,27.51-31.64,27.51a12.37,12.37,0,0,0-12.91-.53,6.45,6.45,0,0,0-3.46,4.51s-3.23-7.4,10.36-9.35c0,0,.79-24.08,23.12-29.32,0,0,16.7-5,35.34,5.63a4.18,4.18,0,0,0,2.49.44,5.74,5.74,0,0,0,3.9-2.05c1.93-2.27,7.64-7.18,18.79-3.32A25.72,25.72,0,0,1,605,229.85a2.41,2.41,0,0,0,.08.25S618.74,230.29,619.76,241.36Z" fill="#fff"/>
<path d="M335.78,186a7.11,7.11,0,0,1-1.11,4,6.88,6.88,0,0,1-2.89,2.55c-6.84,3.22-22.87,6.08-50.2-14.63,0,0-5.31,7.74-17.87,6C248.32,181.89,242,164.4,242,164.4c-20.74,30.92-55.11,11.35-55.11,11.35A26.73,26.73,0,0,1,160.08,184s-12-3.62-11.84-13.29c0,0-2.17-20.29,37.45-20a28.72,28.72,0,0,1,19.16-25.15,35.23,35.23,0,0,1,19.06-1.39c9.3,1.81,23.76,6.91,28.69,21.22,0,0,25.36-12.8,40.1,16.43C292.7,161.74,335,150.7,335.78,186Z" fill="#ffc400" data-primary="true"/>
<path d="M335.78,186a7.11,7.11,0,0,1-1.11,4,6.88,6.88,0,0,1-2.89,2.55c-6.84,3.22-22.87,6.08-50.2-14.63,0,0-5.31,7.74-17.87,6C248.32,181.89,242,164.4,242,164.4c-20.74,30.92-55.11,11.35-55.11,11.35A26.73,26.73,0,0,1,160.08,184s-12-3.62-11.84-13.29c0,0-2.17-20.29,37.45-20a28.72,28.72,0,0,1,19.16-25.15,35.23,35.23,0,0,1,19.06-1.39c9.3,1.81,23.76,6.91,28.69,21.22,0,0,25.36-12.8,40.1,16.43C292.7,161.74,335,150.7,335.78,186Z" fill="#fff" opacity="0.4"/>
<path d="M307.23,214.27a22.09,22.09,0,0,1,.56,9.72h0c-3.56,18.67-37.26,14.56-37.26,14.56-36.44-3.78-45.88-14.84-45.88-14.84-7.29,14.3-23.48,1.89-23.48,1.89-34.55,21.59-64,5.4-63.43-12.68a22.65,22.65,0,0,1,.86-5.74c3.62-12.36,17.23-12.38,17.23-12.38-9.45-7.59-7.59-24.14-7.59-24.14-.18,9.67,11.84,13.29,11.84,13.29a26.73,26.73,0,0,0,26.81-8.21S221.26,195.32,242,164.4c0,0,6.32,17.49,21.71,19.56,12.56,1.7,17.87-6,17.87-6,27.33,20.71,43.36,17.85,50.2,14.63a6.88,6.88,0,0,0,2.89-2.55C335.65,213,307.23,214.27,307.23,214.27Z" fill="#ffc400" data-primary="true"/>
<path d="M307.23,214.27a22.09,22.09,0,0,1,.56,9.72h0c-3.56,18.67-37.26,14.56-37.26,14.56-36.44-3.78-45.88-14.84-45.88-14.84-7.29,14.3-23.48,1.89-23.48,1.89-34.55,21.59-64,5.4-63.43-12.68a22.65,22.65,0,0,1,.86-5.74c3.62-12.36,17.23-12.38,17.23-12.38-9.45-7.59-7.59-24.14-7.59-24.14-.18,9.67,11.84,13.29,11.84,13.29a26.73,26.73,0,0,0,26.81-8.21S221.26,195.32,242,164.4c0,0,6.32,17.49,21.71,19.56,12.56,1.7,17.87-6,17.87-6,27.33,20.71,43.36,17.85,50.2,14.63a6.88,6.88,0,0,0,2.89-2.55C335.65,213,307.23,214.27,307.23,214.27Z" fill="#fff" opacity="0.3"/>
<path d="M307.79,224h0c-3.56,18.67-37.26,14.56-37.26,14.56-36.44-3.78-45.88-14.84-45.88-14.84-7.29,14.3-23.48,1.89-23.48,1.89-34.55,21.59-64,5.4-63.43-12.68a22.65,22.65,0,0,1,.86-5.74s2.92,25.43,42.05,18.69c0,0,16.74-1.74,34-18.69C214.66,207.19,259,244.24,307.79,224Z" fill="#fff" opacity="0.3"/>
<path d="M524.8,342.6s-2.64,2.79-5.25,2a5.81,5.81,0,0,0,2.63-2s-6.73.93-6.73-3.73a2.73,2.73,0,0,0,2.94-1.09s-6.74,1.49-5.93-7.69c0,0,.4,3.92,2.7,3.92a8.41,8.41,0,0,1-.81-5s3.5,2.43,6.61.68c0,0-7.15-5.81-.27-11.47,0,0,3-3.24,8.64.94,0,0-.54-3.78,2.15-5.26,0,0-2.29,4.59,0,5.13,0,0,.27-5.81,6.21-5.67A7.4,7.4,0,0,1,543.9,317a2.79,2.79,0,0,0-2.29-3.78s3.37-1.48,3.91,3.65c0,0,4.7-2.16,6.54.67,0,0,1.83.81,1.56,5a7.82,7.82,0,0,1,7.55,8.09s.17,7.39-5.85,8.62l-7.51-4.7s-6.34,3.77-9.17-2.3a7.79,7.79,0,0,1-4.24,3,11.07,11.07,0,0,0-3.12,1.06C529,337.53,525.39,339.86,524.8,342.6Z" fill="#2f2e41" data-secondary="true"/>
<line x1="717.01" y1="289.96" x2="717.01" y2="302.24" fill="none" stroke="#f7a48b" stroke-miterlimit="10"/>
<line x1="721.14" y1="286.28" x2="721.14" y2="303.59" fill="none" stroke="#f7a48b" stroke-miterlimit="10"/>
<ellipse cx="552.06" cy="335.33" rx="4" ry="5.22" transform="translate(-90.21 266.76) rotate(-25.18)" fill="#f9b499"/>
<ellipse cx="322.05" cy="324.43" rx="5.07" ry="3.57" transform="translate(-129.9 393.05) rotate(-53.84)" fill="#f9b499"/>
</svg>